<svg preserveAspectRatio="none" width="100%" height="100%" overflow="visible" style="display: block;" viewBox="0 0 18 18" fill="none" xmlns="http://www.w3.org/2000/svg">
<g id="clarity:email-solid" clip-path="url(#clip0_0_81)">
<g id="Group 11">
<path id="Vector" d="M15.2 3.00038C15.1318 2.99336 15.0631 2.99336 14.995 3.00038H0.99498C0.905252 3.00177 0.816119 3.01522 0.72998 3.04038L7.95498 10.2354L15.2 3.00038Z" fill="var(--fill-0, white)" fill-opacity="0.9"/>
<path id="Vector_2" d="M15.94 3.69531L8.66 10.9453C8.47264 11.1316 8.21919 11.2361 7.955 11.2361C7.69081 11.2361 7.43736 11.1316 7.25 10.9453L0.035 3.75031C0.0128197 3.83183 0.00105934 3.91584 0 4.00031V14.0003C0 14.2655 0.105357 14.5199 0.292893 14.7074C0.48043 14.895 0.734784 15.0003 1 15.0003H15C15.2652 15.0003 15.5196 14.895 15.7071 14.7074C15.8946 14.5199 16 14.2655 16 14.0003V4.00031C15.996 3.89614 15.9758 3.79323 15.94 3.69531ZM1.685 14.0003H0.99V13.2853L4.625 9.68031L5.33 10.3853L1.685 14.0003ZM14.99 14.0003H14.29L10.645 10.3853L11.35 9.68031L14.985 13.2853L14.99 14.0003Z" fill="var(--fill-0, white)" fill-opacity="0.9"/>
</g>
<g id="Vector_3">
</g>
</g>
<defs>
<clipPath id="clip0_0_81">
<rect width="18" height="18" fill="white"/>
</clipPath>
</defs>
</svg>
