<svg preserveAspectRatio="none" width="100%" height="100%" overflow="visible" style="display: block;" viewBox="0 0 18 18" fill="none" xmlns="http://www.w3.org/2000/svg">
<g id="ic:baseline-phone">
<path id="Vector" d="M2.715 8.0925C3.795 10.215 5.535 11.9475 7.6575 13.035L9.3075 11.385C9.51 11.1825 9.81 11.115 10.0725 11.205C10.9125 11.4825 11.82 11.6325 12.75 11.6325C13.1625 11.6325 13.5 11.97 13.5 12.3825V15C13.5 15.4125 13.1625 15.75 12.75 15.75C5.7075 15.75 0 10.0425 0 3C0 2.5875 0.3375 2.25 0.75 2.25H3.375C3.7875 2.25 4.125 2.5875 4.125 3C4.125 3.9375 4.275 4.8375 4.5525 5.6775C4.635 5.94 4.575 6.2325 4.365 6.4425L2.715 8.0925Z" fill="var(--fill-0, white)" fill-opacity="0.9"/>
</g>
</svg>
