<svg preserveAspectRatio="none" width="100%" height="100%" overflow="visible" style="display: block;" viewBox="0 0 30 30" fill="none" xmlns="http://www.w3.org/2000/svg">
<g id="Simplification" clip-path="url(#clip0_0_76)">
<path id="Vector" d="M2.82284 0.461346C2.86545 0.461208 2.90807 0.46107 2.95198 0.460928C3.09554 0.460536 3.23911 0.460563 3.38267 0.460587C3.48634 0.460394 3.59001 0.460175 3.69368 0.459934C3.97917 0.459347 4.26466 0.459129 4.55015 0.458974C4.85783 0.458745 5.16551 0.458184 5.47319 0.457672C6.21655 0.456514 6.95991 0.455924 7.70327 0.455403C8.05326 0.455146 8.40326 0.454832 8.75326 0.454525C9.91662 0.453528 11.08 0.452679 12.2434 0.452254C12.5453 0.452142 12.8472 0.45203 13.1492 0.451915C13.2242 0.451887 13.2993 0.451859 13.3766 0.451829C14.5924 0.451343 15.8082 0.449858 17.024 0.447956C18.2721 0.446018 19.5201 0.444963 20.7681 0.444775C21.469 0.444648 22.1698 0.444135 22.8706 0.442639C23.4674 0.441367 24.0642 0.440895 24.6611 0.441465C24.9655 0.441731 25.27 0.44162 25.5745 0.440483C25.8534 0.439451 26.1323 0.439508 26.4112 0.440418C26.5119 0.440558 26.6126 0.440304 26.7134 0.439608C27.5521 0.434176 28.2505 0.569602 28.883 1.16135C29.5572 1.88198 29.6074 2.69849 29.6051 3.63458C29.6053 3.73653 29.6055 3.83847 29.6058 3.94042C29.6064 4.21979 29.6062 4.49916 29.606 4.77854C29.6058 5.08014 29.6064 5.38174 29.6068 5.68335C29.6076 6.27393 29.6077 6.86452 29.6075 7.45511C29.6074 7.93522 29.6075 8.41532 29.6078 8.89543C29.6078 8.96378 29.6078 9.03213 29.6079 9.10255C29.608 9.24141 29.608 9.38027 29.6081 9.51913C29.6087 10.8212 29.6086 12.1232 29.6082 13.4253C29.6079 14.616 29.6086 15.8068 29.6097 16.9975C29.6109 18.2206 29.6113 19.4437 29.6111 20.6668C29.611 21.3533 29.6112 22.0398 29.612 22.7263C29.6127 23.3107 29.6128 23.8951 29.6121 24.4796C29.6117 24.7777 29.6116 25.0757 29.6123 25.3738C29.613 25.6469 29.6128 25.9201 29.612 26.1932C29.6118 26.2917 29.612 26.3903 29.6124 26.4888C29.6165 27.3959 29.5124 28.1491 28.8826 28.8455C28.3984 29.3088 27.8412 29.5387 27.1771 29.5396C27.1132 29.5398 27.1132 29.5398 27.048 29.54C26.9044 29.5404 26.7608 29.5404 26.6173 29.5403C26.5136 29.5405 26.4099 29.5407 26.3063 29.541C26.0208 29.5416 25.7353 29.5418 25.4498 29.5419C25.1421 29.5422 24.8344 29.5427 24.5268 29.5432C23.7834 29.5444 23.04 29.545 22.2967 29.5455C21.9467 29.5458 21.5967 29.5461 21.2467 29.5464C20.0833 29.5474 18.92 29.5482 17.7566 29.5487C17.4546 29.5488 17.1527 29.5489 16.8508 29.549C16.7382 29.549 16.7382 29.549 16.6233 29.5491C15.4075 29.5496 14.1917 29.5511 12.9759 29.553C11.7279 29.5549 10.4798 29.556 9.23179 29.5561C8.53098 29.5563 7.83018 29.5568 7.12936 29.5583C6.53254 29.5596 5.93571 29.56 5.33888 29.5595C5.03441 29.5592 4.72996 29.5593 4.42549 29.5604C4.14656 29.5615 3.86764 29.5614 3.58871 29.5605C3.488 29.5604 3.38729 29.5606 3.28658 29.5613C2.44787 29.5667 1.74947 29.4313 1.11691 28.8396C0.442345 28.1185 0.392551 27.3012 0.394456 26.3645C0.394236 26.2624 0.393967 26.1602 0.393651 26.0581C0.392936 25.7781 0.39295 25.4982 0.393088 25.2183C0.393112 24.9161 0.392465 24.6139 0.391909 24.3117C0.390937 23.7199 0.390614 23.1281 0.390548 22.5363C0.390493 22.0552 0.390252 21.5741 0.38988 21.093C0.388849 19.7284 0.388308 18.3638 0.388396 16.9993C0.3884 16.9257 0.388405 16.8522 0.38841 16.7764C0.388415 16.7028 0.388419 16.6292 0.388424 16.5533C0.388472 15.3602 0.387351 14.167 0.385698 12.9738C0.384015 11.7482 0.383206 10.5225 0.383307 9.29683C0.383346 8.60892 0.383025 7.92102 0.381763 7.23311C0.380695 6.64742 0.380441 6.06174 0.381236 5.47605C0.381619 5.17738 0.381627 4.87872 0.380609 4.58005C0.379686 4.30629 0.379857 4.03256 0.380877 3.7588C0.381056 3.66011 0.380845 3.56141 0.38019 3.46272C0.374525 2.54854 0.525672 1.80362 1.16269 1.11397C1.62795 0.670634 2.18905 0.462219 2.82284 0.461346ZM5.44919 5.74265C5.34606 5.91799 5.31674 6.04619 5.31405 6.24899C5.31311 6.3026 5.31217 6.3562 5.31121 6.41143C5.31089 6.46899 5.31058 6.52655 5.31026 6.58585C5.30973 6.64553 5.3092 6.70521 5.30865 6.7667C5.3078 6.89298 5.30728 7.01927 5.30707 7.14555C5.30637 7.33783 5.30349 7.52999 5.30053 7.72225C5.29997 7.84516 5.29955 7.96806 5.29927 8.09097C5.29813 8.14806 5.29698 8.20514 5.2958 8.26396C5.29862 8.69437 5.41067 8.97886 5.71159 9.28893C6.06868 9.60614 6.38715 9.6284 6.84354 9.62952C6.92687 9.6301 6.92687 9.6301 7.0119 9.6307C7.12931 9.63129 7.24672 9.63157 7.36413 9.63155C7.5425 9.63181 7.72078 9.63393 7.89914 9.63616C8.01358 9.6365 8.12802 9.63673 8.24246 9.63684C8.29521 9.63768 8.34797 9.63853 8.40232 9.63939C8.80867 9.6365 9.17771 9.55532 9.48556 9.27463C9.83133 8.90565 9.86221 8.51785 9.8634 8.03192C9.86379 7.97631 9.86418 7.92069 9.86459 7.86339C9.86518 7.74609 9.86545 7.62878 9.86543 7.51148C9.86569 7.33298 9.86782 7.15457 9.87004 6.97609C9.87038 6.86173 9.87062 6.74736 9.87073 6.633C9.87157 6.58013 9.87241 6.52726 9.87328 6.47278C9.87038 6.06779 9.77555 5.75567 9.50497 5.44831C9.47174 5.42217 9.43851 5.39604 9.40427 5.36911C9.35442 5.32855 9.35442 5.32855 9.30356 5.28717C9.09861 5.14604 8.94324 5.08349 8.69284 5.08016C8.63924 5.07923 8.58564 5.07829 8.53041 5.07733C8.44407 5.07685 8.44407 5.07685 8.35599 5.07637C8.29631 5.07584 8.23662 5.07531 8.17513 5.07477C8.04885 5.07392 7.92257 5.0734 7.79629 5.07318C7.60401 5.07249 7.41184 5.06961 7.21959 5.06665C7.09668 5.06609 6.97377 5.06567 6.85086 5.06539C6.76523 5.06367 6.76523 5.06367 6.67788 5.06192C6.11525 5.06561 5.77365 5.29413 5.44919 5.74265ZM16.582 10.7231C16.5477 10.5486 16.5477 10.5486 16.5133 10.3741C16.4478 10.2124 16.3809 10.1671 16.2304 10.0786C16.0428 10.0519 16.0428 10.0519 15.831 10.0558C15.7715 10.0554 15.7715 10.0554 15.7108 10.0549C15.5801 10.0541 15.4493 10.0546 15.3186 10.0552C15.2275 10.0551 15.1364 10.0549 15.0454 10.0547C14.8547 10.0545 14.664 10.0548 14.4733 10.0557C14.2289 10.0567 13.9846 10.0561 13.7403 10.055C13.5523 10.0544 13.3643 10.0546 13.1763 10.0551C13.0862 10.0552 12.9962 10.055 12.9061 10.0546C12.7801 10.0542 12.6542 10.0549 12.5283 10.0558C12.4208 10.056 12.4208 10.056 12.3112 10.0563C12.0999 10.0821 12.035 10.095 11.8945 10.2544C11.8581 10.4435 11.8632 10.6316 11.8651 10.8238C11.8648 10.8829 11.8645 10.942 11.8641 11.0029C11.8633 11.202 11.8642 11.401 11.8651 11.6001C11.8649 11.7424 11.8646 11.8847 11.8641 12.0271C11.8634 12.3741 11.8638 12.7211 11.8647 13.0681C11.8656 13.472 11.8655 13.8759 11.8652 14.2798C11.8649 15.0003 11.8657 15.7208 11.8672 16.4414C11.8686 17.1409 11.869 17.8405 11.8684 18.54C11.8677 19.3014 11.8676 20.0627 11.8684 20.824C11.8685 20.9052 11.8686 20.9863 11.8687 21.0674C11.8687 21.1074 11.8688 21.1473 11.8688 21.1884C11.8691 21.4701 11.869 21.7518 11.8688 22.0335C11.8684 22.4125 11.8691 22.7915 11.8703 23.1704C11.8707 23.3098 11.8707 23.4492 11.8704 23.5886C11.87 23.7783 11.8708 23.9679 11.8718 24.1576C11.8714 24.2133 11.8711 24.269 11.8707 24.3264C11.8712 24.377 11.8717 24.4277 11.8722 24.4799C11.8723 24.5237 11.8723 24.5675 11.8724 24.6126C11.901 24.7607 11.951 24.8127 12.0703 24.9028C12.2568 24.9301 12.2568 24.9301 12.4738 24.9265C12.5146 24.9269 12.5554 24.9273 12.5974 24.9277C12.7323 24.9288 12.8672 24.9285 13.0021 24.9282C13.0958 24.9285 13.1896 24.9288 13.2834 24.9291C13.48 24.9297 13.6765 24.9295 13.8731 24.9289C14.125 24.9283 14.3768 24.9295 14.6287 24.9312C14.8224 24.9322 15.0161 24.9322 15.2097 24.9319C15.3026 24.9319 15.3955 24.9322 15.4883 24.933C15.6182 24.9338 15.748 24.9332 15.8779 24.9322C15.9518 24.9322 16.0257 24.9322 16.1019 24.9322C16.3287 24.8966 16.3834 24.8467 16.5234 24.6684C16.5583 24.5081 16.5583 24.5081 16.5526 24.3287C16.5535 24.2246 16.5535 24.2246 16.5543 24.1184C16.5535 24.0045 16.5535 24.0045 16.5526 23.8883C16.5528 23.8073 16.5532 23.7263 16.5536 23.6454C16.5543 23.4711 16.5543 23.2968 16.5537 23.1225C16.5528 22.8463 16.5536 22.5703 16.5546 22.2941C16.5564 21.7572 16.5565 21.2203 16.5564 20.6834C16.5563 20.0015 16.5569 19.3196 16.5592 18.6377C16.5601 18.3637 16.5601 18.0898 16.5594 17.8159C16.5591 17.6446 16.5595 17.4733 16.5602 17.302C16.5604 17.1859 16.5597 17.0698 16.559 16.9537C16.5626 16.3094 16.6548 15.6048 17.1059 15.1101C17.6558 14.5908 18.2311 14.4318 18.9729 14.4498C19.3907 14.4766 19.7469 14.6421 20.037 14.9448C20.5128 15.5999 20.5164 16.3855 20.517 17.161C20.5173 17.2434 20.5176 17.3257 20.5179 17.408C20.5186 17.5846 20.5191 17.7612 20.5195 17.9378C20.5201 18.217 20.5213 18.4962 20.5226 18.7754C20.5262 19.5691 20.5294 20.3628 20.5313 21.1564C20.5324 21.5953 20.5341 22.0341 20.5365 22.473C20.5377 22.7051 20.5386 22.9371 20.5387 23.1692C20.5389 23.3872 20.5398 23.6052 20.5413 23.8231C20.542 23.9414 20.5417 24.0597 20.5414 24.178C20.5421 24.2481 20.5427 24.3183 20.5434 24.3905C20.5437 24.4822 20.5437 24.4822 20.544 24.5757C20.5546 24.7283 20.5546 24.7283 20.6443 24.8345C20.8049 24.9466 20.9591 24.9257 21.152 24.9265C21.1934 24.9269 21.2349 24.9273 21.2776 24.9277C21.4147 24.9288 21.5517 24.9285 21.6888 24.9282C21.784 24.9285 21.8793 24.9288 21.9745 24.9291C22.1741 24.9297 22.3737 24.9295 22.5732 24.9289C22.8292 24.9283 23.0851 24.9295 23.3411 24.9312C23.5377 24.9322 23.7344 24.9322 23.931 24.9319C24.0254 24.9319 24.1198 24.9322 24.2141 24.933C24.346 24.9338 24.4778 24.9332 24.6097 24.9322C24.6848 24.9322 24.7598 24.9322 24.8372 24.9322C25.02 24.9207 25.02 24.9207 25.1174 24.8072C25.2187 24.6267 25.2174 24.5011 25.2176 24.2944C25.2181 24.2174 25.2186 24.1404 25.2191 24.0611C25.2188 23.9758 25.2184 23.8905 25.218 23.8052C25.2183 23.7153 25.2186 23.6254 25.219 23.5354C25.2198 23.291 25.2195 23.0465 25.2189 22.802C25.2184 22.5452 25.2189 22.2884 25.2191 22.0316C25.2195 21.5993 25.219 21.167 25.2182 20.7347C25.2172 20.2377 25.2175 19.7408 25.2185 19.2438C25.2193 18.8156 25.2194 18.3874 25.219 17.9592C25.2187 17.7042 25.2187 17.4491 25.2192 17.1941C25.2235 15.0488 25.074 13.0102 23.518 11.3825C22.3244 10.2427 20.8721 9.87195 19.2661 9.89044C18.325 9.91506 17.3797 10.2224 16.582 10.7231ZM4.90992 10.1619C4.74875 10.3932 4.77247 10.6089 4.77529 10.8846C4.77496 10.9432 4.77464 11.0019 4.77431 11.0623C4.77351 11.2594 4.77439 11.4565 4.77526 11.6536C4.77504 11.7947 4.77472 11.9358 4.7743 12.0769C4.77357 12.4207 4.77393 12.7644 4.77481 13.1082C4.7758 13.5084 4.77561 13.9087 4.77539 14.3089C4.77504 15.023 4.77588 15.737 4.77732 16.4511C4.77872 17.1442 4.77914 17.8372 4.77852 18.5303C4.77785 19.2848 4.77774 20.0393 4.77859 20.7938C4.77868 20.8743 4.77876 20.9547 4.77885 21.0351C4.7789 21.0747 4.77894 21.1143 4.77899 21.1551C4.77927 21.4341 4.77916 21.7132 4.77891 21.9922C4.77859 22.3678 4.77922 22.7433 4.78049 23.1188C4.78081 23.2568 4.78084 23.3948 4.78055 23.5329C4.7802 23.7209 4.78093 23.9088 4.78194 24.0968C4.78159 24.1518 4.78124 24.2069 4.78087 24.2635C4.7835 24.5519 4.7835 24.5519 4.88035 24.8195C5.05305 24.9633 5.26199 24.9353 5.47631 24.9331C5.55222 24.9337 5.55222 24.9337 5.62966 24.9344C5.79719 24.9354 5.96465 24.9347 6.13217 24.9339C6.24842 24.9341 6.36466 24.9343 6.48091 24.9346C6.72463 24.935 6.96834 24.9345 7.21206 24.9334C7.52478 24.932 7.83745 24.9328 8.15016 24.9342C8.39023 24.935 8.63029 24.9348 8.87036 24.9342C8.98567 24.934 9.10099 24.9342 9.2163 24.9347C9.37737 24.9353 9.53835 24.9344 9.69941 24.9331C9.77119 24.9338 9.77119 24.9338 9.84442 24.9346C10.0885 24.9341 10.0885 24.9341 10.2954 24.8195C10.4133 24.5841 10.3954 24.3566 10.3938 24.0968C10.3941 24.0382 10.3944 23.9795 10.3947 23.9191C10.3956 23.722 10.3952 23.5249 10.3947 23.3278C10.3951 23.1867 10.3955 23.0456 10.396 22.9045C10.3969 22.5607 10.397 22.217 10.3967 21.8732C10.3965 21.5938 10.3966 21.3145 10.3969 21.0351C10.3969 20.9954 10.397 20.9556 10.397 20.9147C10.3971 20.834 10.3972 20.7532 10.3973 20.6725C10.3981 19.9153 10.3978 19.158 10.3971 18.4008C10.3965 17.7078 10.3973 17.0148 10.3987 16.3217C10.4001 15.6103 10.4007 14.899 10.4003 14.1876C10.4001 13.7881 10.4002 13.3886 10.4012 12.9892C10.4022 12.6136 10.4019 12.2381 10.4008 11.8626C10.4006 11.7246 10.4008 11.5865 10.4014 11.4485C10.4021 11.2605 10.4015 11.0726 10.4004 10.8846C10.401 10.8295 10.4016 10.7745 10.4021 10.7178C10.4001 10.4207 10.4001 10.4207 10.2658 10.1619C10.0688 10.0347 9.87275 10.0459 9.64585 10.0483C9.59647 10.0478 9.54709 10.0474 9.49622 10.047C9.3331 10.046 9.17005 10.0467 9.00693 10.0475C8.89353 10.0473 8.78014 10.0471 8.66674 10.0468C8.42913 10.0464 8.19154 10.0469 7.95393 10.048C7.6493 10.0494 7.34472 10.0486 7.04009 10.0472C6.80595 10.0463 6.57182 10.0466 6.33768 10.0472C6.22536 10.0474 6.11303 10.0472 6.00071 10.0466C5.84374 10.046 5.68684 10.047 5.52987 10.0483C5.48341 10.0478 5.43696 10.0473 5.38909 10.0468C5.20261 10.0497 5.06846 10.0596 4.90992 10.1619Z" fill="var(--fill-0, white)"/>
</g>
<defs>
<clipPath id="clip0_0_76">
<rect width="30" height="30" fill="white"/>
</clipPath>
</defs>
</svg>
