<svg preserveAspectRatio="none" width="100%" height="100%" overflow="visible" style="display: block;" viewBox="0 0 17.1928 12.0986" fill="none" xmlns="http://www.w3.org/2000/svg">
<path id="Vector" d="M17.1012 6.87749C16.656 9.83232 13.605 11.6834 11.396 12.0924C11.1817 12.1318 10.9775 11.981 10.9401 11.7556C10.9341 11.7195 10.9326 11.6827 10.9358 11.6462L11.0146 10.6659C11.0266 10.4833 11.1536 10.3318 11.3243 10.2963C13.7059 9.87168 15.123 6.11807 13.6649 6.56759C12.1501 7.03368 9.9706 6.37328 9.60104 4.19775C9.23149 2.02223 10.8204 0.000828357 13.4817 0.000828357C16.1431 0.000828357 17.5815 3.69188 17.1012 6.87749ZM3.93248 0C1.27234 0 -0.316181 2.02016 0.0529763 4.1961C0.422134 6.37203 2.60241 7.03202 4.11726 6.56593C5.57498 6.11724 4.15666 9.87085 1.77663 10.2947C1.60574 10.3299 1.4787 10.4815 1.46696 10.6642L1.38817 11.6445C1.36816 11.8723 1.52759 12.0741 1.74425 12.0951C1.77898 12.0985 1.81398 12.097 1.84834 12.0907C4.05698 11.6822 7.10795 9.83066 7.55354 6.87583C8.0334 3.69188 6.59262 0.000828357 3.93248 0.000828357L3.93248 0Z" fill="url(#paint0_linear_0_213)"/>
<defs>
<linearGradient id="paint0_linear_0_213" x1="8.59639" y1="0" x2="8.59639" y2="12.0986" gradientUnits="userSpaceOnUse">
<stop stop-color="#DF8251"/>
<stop offset="1" stop-color="#D54050"/>
</linearGradient>
</defs>
</svg>
