<svg preserveAspectRatio="none" width="100%" height="100%" overflow="visible" style="display: block;" viewBox="0 0 19.4014 19.4014" fill="none" xmlns="http://www.w3.org/2000/svg">
<g id="Frame">
<path id="Vector" d="M12.9342 16.9762V15.3595C12.9342 14.5019 12.5936 13.6794 11.9871 13.073C11.3807 12.4666 10.5583 12.1259 9.70068 12.1259H4.85034C3.99275 12.1259 3.17028 12.4666 2.56387 13.073C1.95746 13.6794 1.61678 14.5019 1.61678 15.3595V16.9762" stroke="var(--stroke-0, #FF5722)" stroke-width="1.42178" stroke-linecap="round" stroke-linejoin="round"/>
<path id="Vector_2" d="M12.9339 2.5287C13.6273 2.70846 14.2414 3.11338 14.6798 3.6799C15.1181 4.24642 15.356 4.94246 15.356 5.65879C15.356 6.37511 15.1181 7.07116 14.6798 7.63767C14.2414 8.20419 13.6273 8.60911 12.9339 8.78887" stroke="var(--stroke-0, #FF5722)" stroke-width="1.42178" stroke-linecap="round" stroke-linejoin="round"/>
<path id="Vector_3" d="M17.785 16.9762V15.3594C17.7844 14.643 17.546 13.947 17.107 13.3808C16.6681 12.8145 16.0535 12.4101 15.3598 12.231" stroke="var(--stroke-0, #FF5722)" stroke-width="1.42178" stroke-linecap="round" stroke-linejoin="round"/>
<path id="Vector_4" d="M7.27462 8.89233C9.06046 8.89233 10.5082 7.44461 10.5082 5.65877C10.5082 3.87292 9.06046 2.42521 7.27462 2.42521C5.48877 2.42521 4.04106 3.87292 4.04106 5.65877C4.04106 7.44461 5.48877 8.89233 7.27462 8.89233Z" stroke="var(--stroke-0, #FF5722)" stroke-width="1.42178" stroke-linecap="round" stroke-linejoin="round"/>
</g>
</svg>
