<svg preserveAspectRatio="none" width="100%" height="100%" overflow="visible" style="display: block;" viewBox="0 0 46.2038 46.2038" fill="none" xmlns="http://www.w3.org/2000/svg">
<g id="Frame 1686562618">
<rect width="46.2038" height="46.2038" rx="8.88534" fill="var(--fill-0, #FFDAD0)" fill-opacity="0.4"/>
<path id="Vector" d="M32.3516 12.0951H14.7407C14.2737 12.0951 13.8257 12.2806 13.4955 12.6109C13.1652 12.9412 12.9796 13.3891 12.9796 13.8562V20.02C12.9796 25.8227 15.7886 29.3394 18.1451 31.2678C20.6833 33.3437 23.2083 34.0481 23.3183 34.0778C23.4697 34.119 23.6293 34.119 23.7806 34.0778C23.8907 34.0481 26.4123 33.3437 28.9538 31.2678C31.3037 29.3394 34.1127 25.8227 34.1127 20.02V13.8562C34.1127 13.3891 33.9271 12.9412 33.5969 12.6109C33.2666 12.2806 32.8187 12.0951 32.3516 12.0951ZM32.3516 20.02C32.3516 24.1002 30.8481 27.4121 27.8828 29.8622C26.592 30.9252 25.124 31.7523 23.5462 32.3057C21.9889 31.762 20.539 30.9495 19.2623 29.9052C16.2619 27.4506 14.7407 24.1255 14.7407 20.02V13.8562H32.3516V20.02ZM18.5205 23.2846C18.3552 23.1193 18.2624 22.8953 18.2624 22.6616C18.2624 22.4279 18.3552 22.2038 18.5205 22.0386C18.6857 21.8734 18.9098 21.7806 19.1434 21.7806C19.3771 21.7806 19.6012 21.8734 19.7664 22.0386L21.7851 24.0584L27.3259 18.5164C27.4077 18.4346 27.5048 18.3697 27.6117 18.3255C27.7186 18.2812 27.8332 18.2584 27.9489 18.2584C28.0646 18.2584 28.1791 18.2812 28.286 18.3255C28.3929 18.3697 28.49 18.4346 28.5719 18.5164C28.6537 18.5982 28.7186 18.6954 28.7628 18.8023C28.8071 18.9092 28.8299 19.0237 28.8299 19.1394C28.8299 19.2551 28.8071 19.3697 28.7628 19.4766C28.7186 19.5835 28.6537 19.6806 28.5719 19.7624L22.4081 25.9262C22.3263 26.0081 22.2292 26.073 22.1223 26.1173C22.0154 26.1616 21.9008 26.1845 21.7851 26.1845C21.6694 26.1845 21.5548 26.1616 21.4479 26.1173C21.341 26.073 21.2439 26.0081 21.1621 25.9262L18.5205 23.2846Z" fill="url(#paint0_linear_0_11)"/>
</g>
<defs>
<linearGradient id="paint0_linear_0_11" x1="23.5462" y1="12.0951" x2="23.5462" y2="34.1087" gradientUnits="userSpaceOnUse">
<stop stop-color="#DF8251"/>
<stop offset="1" stop-color="#D54050"/>
</linearGradient>
</defs>
</svg>
