<svg preserveAspectRatio="none" width="100%" height="100%" overflow="visible" style="display: block;" viewBox="0 0 17.0613 17.0613" fill="none" xmlns="http://www.w3.org/2000/svg">
<g id="Frame">
<path id="Vector" d="M2.13205 2.13267V13.5069C2.13205 13.884 2.28184 14.2456 2.54847 14.5122C2.81511 14.7789 3.17674 14.9287 3.55382 14.9287H14.9281" stroke="var(--stroke-0, #FF5722)" stroke-width="1.42178" stroke-linecap="round" stroke-linejoin="round"/>
<path id="Vector_2" d="M12.7954 3.55444H11.3736C10.981 3.55444 10.6627 3.87272 10.6627 4.26533V11.3742C10.6627 11.7668 10.981 12.0851 11.3736 12.0851H12.7954C13.188 12.0851 13.5063 11.7668 13.5063 11.3742V4.26533C13.5063 3.87272 13.188 3.55444 12.7954 3.55444Z" stroke="var(--stroke-0, #FF5722)" stroke-width="1.42178" stroke-linecap="round" stroke-linejoin="round"/>
<path id="Vector_3" d="M7.10827 5.68711H5.68649C5.29387 5.68711 4.9756 6.00538 4.9756 6.398V11.3742C4.9756 11.7668 5.29387 12.0851 5.68649 12.0851H7.10827C7.50088 12.0851 7.81915 11.7668 7.81915 11.3742V6.398C7.81915 6.00538 7.50088 5.68711 7.10827 5.68711Z" stroke="var(--stroke-0, #FF5722)" stroke-width="1.42178" stroke-linecap="round" stroke-linejoin="round"/>
</g>
</svg>
