<svg preserveAspectRatio="none" width="100%" height="100%" overflow="visible" style="display: block;" viewBox="0 0 35.4663 35.4663" fill="none" xmlns="http://www.w3.org/2000/svg">
<g id="Frame 1686562618">
<rect width="35.4663" height="35.4663" rx="6.82044" fill="var(--fill-0, #FFDAD0)" fill-opacity="0.4"/>
<path id="Vector" d="M21.8654 10.4557C20.2996 10.4557 18.9287 11.129 18.0742 12.2671C17.2196 11.129 15.8487 10.4557 14.2829 10.4557C13.0365 10.4571 11.8416 10.9528 10.9603 11.8342C10.0789 12.7155 9.58318 13.9104 9.58178 15.1568C9.58178 20.4646 17.4516 24.7608 17.7868 24.9382C17.8751 24.9857 17.9739 25.0106 18.0742 25.0106C18.1745 25.0106 18.2732 24.9857 18.3615 24.9382C18.6967 24.7608 26.5666 20.4646 26.5666 15.1568C26.5651 13.9104 26.0694 12.7155 25.1881 11.8342C24.3067 10.9528 23.1118 10.4571 21.8654 10.4557ZM18.0742 23.7099C16.6896 22.9031 10.795 19.2279 10.795 15.1568C10.7962 14.2321 11.164 13.3456 11.8179 12.6918C12.4718 12.0379 13.3582 11.6701 14.2829 11.6689C15.7577 11.6689 16.9959 12.4544 17.5131 13.7161C17.5588 13.8274 17.6365 13.9226 17.7364 13.9895C17.8363 14.0565 17.9539 14.0923 18.0742 14.0923C18.1944 14.0923 18.312 14.0565 18.4119 13.9895C18.5118 13.9226 18.5896 13.8274 18.6353 13.7161C19.1524 12.4521 20.3906 11.6689 21.8654 11.6689C22.7901 11.6701 23.6766 12.0379 24.3304 12.6918C24.9843 13.3456 25.3521 14.2321 25.3534 15.1568C25.3534 19.2218 19.4572 22.9023 18.0742 23.7099Z" fill="url(#paint0_linear_0_6)"/>
</g>
<defs>
<linearGradient id="paint0_linear_0_6" x1="18.0742" y1="10.4557" x2="18.0742" y2="25.0106" gradientUnits="userSpaceOnUse">
<stop stop-color="#DF8251"/>
<stop offset="1" stop-color="#D54050"/>
</linearGradient>
</defs>
</svg>
