<svg preserveAspectRatio="none" width="100%" height="100%" overflow="visible" style="display: block;" viewBox="0 0 17 29" fill="none" xmlns="http://www.w3.org/2000/svg">
<path id="Vector" fill-rule="evenodd" clip-rule="evenodd" d="M4.25 0C3.87428 0 3.51394 0.145493 3.24827 0.404472C2.98259 0.66345 2.83333 1.0147 2.83333 1.38095V4.14286C2.83333 4.50911 2.98259 4.86036 3.24827 5.11934C3.51394 5.37832 3.87428 5.52381 4.25 5.52381C4.62572 5.52381 4.98606 5.37832 5.25173 5.11934C5.51741 4.86036 5.66667 4.50911 5.66667 4.14286V1.38095C5.66667 1.0147 5.51741 0.66345 5.25173 0.404472C4.98606 0.145493 4.62572 0 4.25 0ZM2.83333 9.66667H14.1667V12.4286C14.1667 13.8936 13.5696 15.2986 12.5069 16.3345C11.4442 17.3704 10.0029 17.9524 8.5 17.9524C6.99711 17.9524 5.55577 17.3704 4.49306 16.3345C3.43036 15.2986 2.83333 13.8936 2.83333 12.4286V9.66667ZM9.91667 20.5997C11.8975 20.2733 13.6958 19.2735 14.9924 17.7778C16.2891 16.282 17.0003 14.3869 17 12.4286V6.90476H1.0006e-07V12.4286C-0.000308007 14.3869 0.710945 16.282 2.0076 17.7778C3.30425 19.2735 5.10248 20.2733 7.08333 20.5997V27.619C7.08333 27.9853 7.23259 28.3366 7.49827 28.5955C7.76394 28.8545 8.12428 29 8.5 29C8.87572 29 9.23606 28.8545 9.50173 28.5955C9.76741 28.3366 9.91667 27.9853 9.91667 27.619V20.5997ZM11.3333 1.38095C11.3333 1.0147 11.4826 0.66345 11.7483 0.404472C12.0139 0.145493 12.3743 0 12.75 0C13.1257 0 13.4861 0.145493 13.7517 0.404472C14.0174 0.66345 14.1667 1.0147 14.1667 1.38095V4.14286C14.1667 4.50911 14.0174 4.86036 13.7517 5.11934C13.4861 5.37832 13.1257 5.52381 12.75 5.52381C12.3743 5.52381 12.0139 5.37832 11.7483 5.11934C11.4826 4.86036 11.3333 4.50911 11.3333 4.14286V1.38095Z" fill="var(--fill-0, #ED6B52)"/>
</svg>
