<svg preserveAspectRatio="none" width="100%" height="100%" overflow="visible" style="display: block;" viewBox="0 0 29.5 30.5" fill="none" xmlns="http://www.w3.org/2000/svg">
<path id="Vector" d="M0.750002 16.1029C0.750002 14.4943 0.750002 13.6908 1.20578 13.191C1.66156 12.6912 2.39422 12.6912 3.86111 12.6912C5.328 12.6912 6.06067 12.6912 6.51645 13.191C6.97222 13.6908 6.97222 14.4943 6.97222 16.1029V26.3382C6.97222 27.9469 6.97222 28.7504 6.51645 29.2502C6.06067 29.75 5.328 29.75 3.86111 29.75C2.39422 29.75 1.66156 29.75 1.20578 29.2502C0.750002 28.7504 0.750002 27.9469 0.750002 26.3382V16.1029ZM11.6389 9.27942C11.6389 7.67077 11.6389 6.8673 12.0947 6.36748C12.5504 5.86765 13.2831 5.86765 14.75 5.86765C16.2169 5.86765 16.9496 5.86765 17.4053 6.36748C17.8611 6.8673 17.8611 7.67077 17.8611 9.27942V26.3382C17.8611 27.9469 17.8611 28.7504 17.4053 29.2502C16.9496 29.75 16.2169 29.75 14.75 29.75C13.2831 29.75 12.5504 29.75 12.0947 29.2502C11.6389 28.7504 11.6389 27.9469 11.6389 26.3382V9.27942ZM22.5278 4.16177C22.5278 2.55312 22.5278 1.74965 22.9836 1.24983C23.4393 0.750005 24.172 0.750005 25.6389 0.750005C27.1058 0.750005 27.8384 0.750005 28.2942 1.24983C28.75 1.74965 28.75 2.55312 28.75 4.16177V26.3382C28.75 27.9469 28.75 28.7504 28.2942 29.2502C27.8384 29.75 27.1058 29.75 25.6389 29.75C24.172 29.75 23.4393 29.75 22.9836 29.2502C22.5278 28.7504 22.5278 27.9469 22.5278 26.3382V4.16177Z" stroke="var(--stroke-0, #ED6B52)" stroke-width="1.5"/>
</svg>
