<svg preserveAspectRatio="none" width="100%" height="100%" overflow="visible" style="display: block;" viewBox="0 0 28 29" fill="none" xmlns="http://www.w3.org/2000/svg">
<path id="Vector" d="M24.9269 21.3116C24.0509 20.4036 23.0272 19.6625 21.9029 19.1222C23.4884 17.7918 24.4999 15.7619 24.4999 13.4855C24.4999 9.46907 21.266 6.17404 17.388 6.23567C13.5695 6.29729 10.493 9.51982 10.493 13.4855C10.493 15.7619 11.508 17.7918 13.09 19.1222C11.9655 19.6621 10.9418 20.4032 10.066 21.3116C8.15504 23.2944 7.07004 25.9116 7.00004 28.7028C6.99911 28.7414 7.00566 28.7799 7.01931 28.816C7.03297 28.852 7.05344 28.8848 7.07954 28.9125C7.10563 28.9402 7.13681 28.9622 7.17125 28.9773C7.20569 28.9923 7.24268 29 7.28004 29H9.24003C9.39053 29 9.51653 28.8768 9.52003 28.7209C9.58653 26.6184 10.409 24.6501 11.8545 23.1567C12.5942 22.3865 13.474 21.7759 14.4431 21.3603C15.4121 20.9447 16.4511 20.7322 17.5 20.7352C19.6315 20.7352 21.637 21.5943 23.1454 23.1567C24.5874 24.6501 25.4099 26.6184 25.4799 28.7209C25.4834 28.8768 25.6094 29 25.7599 29H27.7199C27.7573 29 27.7943 28.9923 27.8287 28.9773C27.8631 28.9622 27.8943 28.9402 27.9204 28.9125C27.9465 28.8848 27.967 28.852 27.9806 28.816C27.9943 28.7799 28.0008 28.7414 27.9999 28.7028C27.9299 25.9116 26.8449 23.2944 24.9269 21.3116ZM17.5 18.1253C16.303 18.1253 15.176 17.6432 14.3325 16.766C13.9092 16.331 13.5748 15.8122 13.3493 15.2405C13.1238 14.6688 13.0118 14.0559 13.02 13.4383C13.0305 12.2494 13.489 11.1003 14.2905 10.2484C15.1305 9.3567 16.254 8.86009 17.4545 8.84559C18.641 8.83472 19.7925 9.3132 20.6395 10.1723C21.5075 11.0532 21.9834 12.2312 21.9834 13.4855C21.9834 14.7252 21.518 15.8888 20.671 16.766C20.2554 17.1984 19.7612 17.5412 19.2169 17.7745C18.6726 18.0079 18.089 18.1271 17.5 18.1253ZM8.73253 14.4424C8.70103 14.1271 8.68353 13.8081 8.68353 13.4855C8.68353 12.9091 8.73603 12.3472 8.83403 11.7999C8.85853 11.6694 8.79203 11.5353 8.67653 11.4809C8.20054 11.2598 7.76304 10.9553 7.38504 10.571C6.93963 10.1238 6.58914 9.58522 6.35593 8.9898C6.12271 8.39438 6.01189 7.75515 6.03055 7.11289C6.06205 5.9493 6.51355 4.84371 7.30104 4.00998C8.16554 3.09289 9.32753 2.59265 10.563 2.60715C11.6795 2.61802 12.7575 3.06389 13.573 3.85411C13.8495 4.12235 14.0875 4.4196 14.287 4.73859C14.357 4.85096 14.4935 4.89808 14.6125 4.85458C15.2285 4.63346 15.8795 4.47759 16.548 4.4051C16.744 4.38335 16.856 4.16585 16.7685 3.98461C15.631 1.6538 13.307 0.0443493 10.619 0.000850536C6.73755 -0.0607727 3.50357 3.23426 3.50357 7.24701C3.50357 9.52345 4.51506 11.5534 6.10055 12.8837C4.98756 13.4166 3.96206 14.1524 3.07307 15.0732C1.15508 17.056 0.0700871 19.6731 8.75205e-05 22.4679C-0.000846641 22.5066 0.00570541 22.5451 0.0193578 22.5811C0.0330102 22.6172 0.0534866 22.65 0.0795804 22.6777C0.105674 22.7054 0.136858 22.7274 0.171293 22.7424C0.205729 22.7575 0.242719 22.7652 0.280086 22.7652H2.24357C2.39407 22.7652 2.52007 22.6419 2.52357 22.4861C2.59007 20.3836 3.41257 18.4153 4.85806 16.9219C5.88705 15.8561 7.14704 15.1167 8.52253 14.7578C8.65903 14.7215 8.75003 14.5874 8.73253 14.4424Z" fill="var(--fill-0, #ED6B52)"/>
</svg>
