<svg preserveAspectRatio="none" width="100%" height="100%" overflow="visible" style="display: block;" viewBox="0 0 28 29" fill="none" xmlns="http://www.w3.org/2000/svg">
<path id="Vector" d="M19.1761 1.3781C19.9913 0.533621 21.0862 0.0418586 22.2385 0.0025514C23.3909 -0.0367558 24.5146 0.379334 25.3817 1.16643L25.5997 1.3781L26.6701 2.48662C27.485 3.33081 27.9596 4.46435 27.9975 5.65746C28.0355 6.85058 27.634 8.014 26.8744 8.91192L26.6701 9.1377L9.69595 26.7187C9.45595 26.9672 9.16522 27.1569 8.84513 27.2737L8.59987 27.3474L1.85685 28.9592C1.62059 29.0162 1.37458 29.0134 1.13954 28.9513C0.904508 28.8892 0.687327 28.7695 0.50629 28.6023C0.325252 28.4351 0.185661 28.2252 0.0992697 27.9905C0.0128785 27.7557 -0.0177826 27.5029 0.00986875 27.2534L0.0401472 27.0762L1.59495 20.0911C1.67176 19.7485 1.82178 19.4281 2.03398 19.1535L2.20203 18.9575L19.1761 1.3781ZM18.1058 6.92067L4.49562 21.0162L3.53277 25.3405L7.70817 24.3417L21.3183 10.2462L18.1058 6.92067ZM23.459 3.59513C23.1983 3.32517 22.8515 3.163 22.4836 3.13904C22.1157 3.11508 21.7519 3.23098 21.4606 3.46499L21.3183 3.59513L20.2465 4.70364L23.459 8.02918L24.5294 6.92067C24.79 6.65069 24.9466 6.29148 24.9698 5.91044C24.9929 5.52939 24.881 5.1527 24.655 4.85103L24.5294 4.70364L23.459 3.59513Z" fill="var(--fill-0, #ED6B52)"/>
</svg>
