<svg preserveAspectRatio="none" width="100%" height="100%" overflow="visible" style="display: block;" viewBox="0 0 26.25 16.3125" fill="none" xmlns="http://www.w3.org/2000/svg">
<path id="Vector" d="M25.7873 1.92578C25.6478 1.84832 25.4906 1.81152 25.3325 1.8193C25.1743 1.82708 25.0212 1.87915 24.8894 1.96996L21 4.6502V1.8125C21 1.3318 20.8156 0.870779 20.4874 0.530869C20.1592 0.190959 19.7141 0 19.25 0H1.75C1.28587 0 0.840752 0.190959 0.512563 0.530869C0.184374 0.870779 0 1.3318 0 1.8125V14.5C0 14.9807 0.184374 15.4417 0.512563 15.7816C0.840752 16.1215 1.28587 16.3125 1.75 16.3125H19.25C19.7141 16.3125 20.1592 16.1215 20.4874 15.7816C20.8156 15.4417 21 14.9807 21 14.5V11.668L24.8894 14.3539C25.0338 14.451 25.2028 14.5019 25.375 14.5C25.6071 14.5 25.8296 14.4045 25.9937 14.2346C26.1578 14.0646 26.25 13.8341 26.25 13.5938V2.71875C26.2489 2.55569 26.2053 2.39596 26.1239 2.2564C26.0425 2.11684 25.9262 2.00262 25.7873 1.92578ZM19.25 14.5H1.75V1.8125H19.25V14.5ZM24.5 11.9002L21 9.48391V6.82859L24.5 4.41797V11.9002Z" fill="var(--fill-0, #FF821B)"/>
</svg>
