<svg preserveAspectRatio="none" width="100%" height="100%" overflow="visible" style="display: block;" viewBox="0 0 401.934 271" fill="none" xmlns="http://www.w3.org/2000/svg">
<g id="Group 111">
<path id="Vector" d="M288.359 79.0234C288.315 79.5222 288.086 79.9865 287.716 80.3246C287.347 80.6628 286.864 80.8503 286.364 80.8503C285.863 80.8503 285.38 80.6628 285.011 80.3246C284.641 79.9865 284.412 79.5222 284.368 79.0234C284.412 78.5246 284.641 78.0603 285.011 77.7222C285.38 77.384 285.863 77.1964 286.364 77.1964C286.864 77.1964 287.347 77.384 287.716 77.7222C288.086 78.0603 288.315 78.5246 288.359 79.0234Z" fill="var(--fill-0, #FAFAFA)"/>
<path id="Vector_2" d="M294.802 79.0235C294.83 79.4245 294.737 79.8246 294.535 80.1719C294.332 80.5192 294.03 80.7975 293.668 80.9708C293.305 81.144 292.898 81.2042 292.501 81.1434C292.104 81.0826 291.734 80.9037 291.44 80.63C291.145 80.3562 290.94 80.0002 290.851 79.6084C290.762 79.2165 290.792 78.8068 290.939 78.4325C291.086 78.0583 291.341 77.7368 291.673 77.5099C292.005 77.283 292.397 77.1611 292.799 77.1601C293.053 77.1498 293.307 77.1898 293.546 77.2781C293.784 77.3663 294.003 77.501 294.189 77.6742C294.375 77.8475 294.526 78.0559 294.631 78.2875C294.736 78.5191 294.794 78.7693 294.802 79.0235Z" fill="var(--fill-0, #FAFAFA)"/>
<path id="Vector_3" d="M301.247 79.0235C301.275 79.4245 301.182 79.8246 300.98 80.1719C300.777 80.5192 300.475 80.7975 300.112 80.9708C299.75 81.144 299.343 81.2042 298.946 81.1434C298.549 81.0826 298.179 80.9037 297.885 80.63C297.59 80.3562 297.385 80.0002 297.296 79.6084C297.206 79.2165 297.237 78.8068 297.384 78.4325C297.53 78.0583 297.786 77.7368 298.118 77.5099C298.45 77.283 298.842 77.1611 299.244 77.1601C299.498 77.1498 299.752 77.1898 299.99 77.2781C300.229 77.3663 300.448 77.501 300.634 77.6742C300.82 77.8475 300.97 78.0559 301.076 78.2875C301.181 78.5191 301.239 78.7693 301.247 79.0235Z" fill="var(--fill-0, #FAFAFA)"/>
<path id="Vector_4" d="M77.4548 86.679H5.83828V91.4772H77.4548V86.679Z" fill="url(#paint0_linear_0_112)"/>
<path id="Vector_5" d="M183.963 104.521C183.963 104.77 144.087 104.971 94.9086 104.971C45.7305 104.971 5.83828 104.77 5.83828 104.521C5.83828 104.273 45.6994 104.071 94.9086 104.071C144.118 104.071 183.963 104.226 183.963 104.521Z" fill="var(--fill-0, #888888)"/>
<path id="Vector_6" d="M183.963 114.987C183.963 115.22 144.087 115.422 94.9086 115.422C45.7305 115.422 5.83828 115.22 5.83828 114.987C5.83828 114.754 45.6994 114.537 94.9086 114.537C144.118 114.537 183.963 114.739 183.963 114.987Z" fill="var(--fill-0, #888888)"/>
<path id="Vector_7" d="M183.963 125.438C183.963 125.686 144.087 125.888 94.9086 125.888C45.7305 125.888 5.83828 125.686 5.83828 125.438C5.83828 125.189 45.6994 124.987 94.9086 124.987C144.118 124.987 183.963 125.189 183.963 125.438Z" fill="var(--fill-0, #888888)"/>
<path id="Vector_8" d="M183.963 135.904C183.963 136.152 144.087 136.354 94.9086 136.354C45.7305 136.354 5.83828 136.152 5.83828 135.904C5.83828 135.655 45.6994 135.453 94.9086 135.453C144.118 135.453 183.963 135.655 183.963 135.904Z" fill="var(--fill-0, #888888)"/>
<path id="Vector_9" d="M183.963 146.37C183.963 146.618 144.087 146.805 94.9086 146.805C45.7305 146.805 5.83828 146.618 5.83828 146.37C5.83828 146.121 45.6994 145.92 94.9086 145.92C144.118 145.92 183.963 146.152 183.963 146.37Z" fill="var(--fill-0, #888888)"/>
<path id="Vector_10" d="M75.374 156.82C75.374 157.069 59.8457 157.271 40.6062 157.271C21.3666 157.271 5.83828 157.069 5.83828 156.82C5.83828 156.572 21.3666 156.386 40.6062 156.386C59.8457 156.386 75.374 156.572 75.374 156.82Z" fill="var(--fill-0, #888888)"/>
<path id="Vector_11" d="M182.657 177.209C182.657 177.457 156.445 177.659 124.115 177.659C91.7855 177.659 65.5737 177.457 65.5737 177.209C65.5737 176.961 91.7855 176.759 124.115 176.759C156.445 176.759 182.657 176.883 182.657 177.209Z" fill="var(--fill-0, #888888)"/>
<path id="Vector_12" d="M182.657 188.234C182.657 188.483 156.445 188.684 124.115 188.684C91.7855 188.684 65.5737 188.483 65.5737 188.234C65.5737 187.986 91.7855 187.784 124.115 187.784C156.445 187.784 182.657 187.986 182.657 188.234Z" fill="var(--fill-0, #888888)"/>
<path id="Vector_13" d="M182.657 199.337C182.657 199.585 156.445 199.787 124.115 199.787C91.7855 199.787 65.5737 199.585 65.5737 199.337C65.5737 199.088 91.7855 198.887 124.115 198.887C156.445 198.887 182.657 199.088 182.657 199.337Z" fill="var(--fill-0, #888888)"/>
<path id="Vector_14" d="M182.657 210.44C182.657 210.688 156.445 210.89 124.115 210.89C91.7855 210.89 65.5737 210.688 65.5737 210.44C65.5737 210.191 91.7855 209.989 124.115 209.989C156.445 209.989 182.657 210.191 182.657 210.44Z" fill="var(--fill-0, #888888)"/>
<path id="Vector_15" d="M56.5984 171.836H5.78975V220.999H56.5984V171.836Z" fill="url(#paint1_linear_0_112)"/>
<g id="Group" opacity="0.3">
<path id="Vector_16" d="M9.73471 216.775L23.7878 191.48L35.2788 207.66L42.2665 199.073L52.6549 216.775H9.73471Z" fill="var(--fill-0, #888888)"/>
</g>
<g id="Group_2" opacity="0.3">
<path id="Vector_17" d="M40.1884 186.526C40.1884 187.251 39.9734 187.959 39.5707 188.562C39.1681 189.165 38.5957 189.634 37.9261 189.912C37.2565 190.189 36.5196 190.262 35.8087 190.12C35.0979 189.979 34.4449 189.63 33.9324 189.117C33.4198 188.605 33.0708 187.952 32.9294 187.241C32.788 186.53 32.8606 185.793 33.138 185.124C33.4153 184.454 33.885 183.882 34.4877 183.479C35.0904 183.076 35.7989 182.861 36.5237 182.861C37.4956 182.861 38.4277 183.247 39.115 183.935C39.8023 184.622 40.1884 185.554 40.1884 186.526Z" fill="var(--fill-0, #888888)"/>
</g>
<path id="Vector_18" opacity="0.3" d="M52.6545 216.915V216.713C52.6545 216.573 52.6545 216.387 52.6545 216.139C52.6545 215.626 52.6545 214.881 52.6545 213.933C52.6545 211.977 52.6545 209.166 52.6545 205.579C52.6545 198.405 52.6546 188.172 52.5459 175.905L52.7477 176.107H9.82748L10.0604 175.874V197.473C10.0604 204.353 10.0604 210.874 10.0604 216.853L9.85854 216.651L40.9151 216.76H49.6576H51.9868H49.7508H41.0394L9.87406 216.868H9.65666V216.651C9.65666 210.673 9.65666 204.228 9.65666 197.272C9.65666 193.824 9.65666 190.294 9.65666 186.681V175.672L9.90512 175.423H52.8254H53.0428V175.641C53.0428 187.97 53.0428 198.234 52.9341 205.455C52.9341 209.011 52.9341 211.822 52.9341 213.747C52.9341 214.694 52.9341 215.409 52.9341 215.921V216.48C52.6701 216.868 52.6701 216.915 52.6545 216.915Z" fill="var(--fill-0, #888888)"/>
<path id="Vector_19" d="M187.008 54.3491C187.042 54.8433 186.927 55.3363 186.677 55.7641C186.427 56.192 186.055 56.5349 185.608 56.7482C185.161 56.9615 184.66 57.0354 184.17 56.9603C183.681 56.8853 183.225 56.6646 182.862 56.3271C182.5 55.9896 182.247 55.5509 182.137 55.0679C182.027 54.5849 182.065 54.08 182.246 53.6188C182.427 53.1576 182.742 52.7615 183.151 52.4819C183.56 52.2022 184.043 52.0521 184.539 52.0509C184.852 52.0384 185.165 52.0881 185.459 52.1971C185.753 52.3061 186.022 52.4722 186.252 52.6858C186.481 52.8994 186.666 53.1564 186.796 53.4419C186.926 53.7274 186.998 54.0357 187.008 54.3491Z" fill="var(--fill-0, #FAFAFA)"/>
<path id="Vector_20" d="M194.972 54.3491C195.006 54.8433 194.891 55.3363 194.641 55.7642C194.392 56.192 194.019 56.5349 193.572 56.7482C193.125 56.9615 192.624 57.0355 192.134 56.9604C191.645 56.8853 191.189 56.6647 190.827 56.3272C190.464 55.9897 190.211 55.5509 190.101 55.0679C189.991 54.5849 190.029 54.08 190.21 53.6188C190.391 53.1576 190.706 52.7615 191.115 52.4819C191.524 52.2023 192.007 52.0521 192.503 52.0509C193.135 52.0299 193.749 52.2599 194.212 52.6905C194.674 53.1212 194.948 53.7175 194.972 54.3491Z" fill="var(--fill-0, #FAFAFA)"/>
<path id="Vector_21" d="M202.924 54.3491C202.958 54.8433 202.843 55.3363 202.593 55.7641C202.344 56.192 201.971 56.5349 201.524 56.7482C201.077 56.9615 200.576 57.0354 200.087 56.9603C199.597 56.8853 199.141 56.6646 198.779 56.3271C198.416 55.9896 198.163 55.5509 198.054 55.0679C197.944 54.5849 197.981 54.08 198.162 53.6188C198.343 53.1576 198.658 52.7615 199.067 52.4819C199.476 52.2022 199.96 52.0521 200.455 52.0509C200.768 52.0384 201.081 52.0881 201.375 52.1971C201.669 52.3061 201.939 52.4722 202.168 52.6858C202.398 52.8994 202.583 53.1564 202.712 53.4419C202.842 53.7274 202.914 54.0357 202.924 54.3491Z" fill="var(--fill-0, #FAFAFA)"/>
<path id="Vector_22" d="M260.084 159.6H190.734V164.243H260.084V159.6Z" fill="url(#paint2_linear_0_112)"/>
<path id="Vector_23" d="M349.666 95.1885H280.316V99.8315H349.666V95.1885Z" fill="url(#paint3_linear_0_112)"/>
<path id="Vector_24" d="M347.647 163.125C347.647 163.373 332.569 163.575 313.982 163.575C295.394 163.575 280.316 163.373 280.316 163.125C280.316 162.876 295.379 162.675 313.982 162.675C332.584 162.675 347.647 162.876 347.647 163.125Z" fill="var(--fill-0, #888888)"/>
<path id="Vector_25" d="M260.3 181.759C260.3 182.007 245.16 182.194 226.511 182.194C207.861 182.194 192.706 182.007 192.706 181.759C192.706 181.51 207.83 181.309 226.511 181.309C245.191 181.309 260.3 181.51 260.3 181.759Z" fill="var(--fill-0, #888888)"/>
<path id="Vector_26" d="M260.3 190.191C260.3 190.439 245.16 190.641 226.511 190.641C207.861 190.641 192.706 190.439 192.706 190.191C192.706 189.942 207.83 189.756 226.511 189.756C245.191 189.756 260.3 189.958 260.3 190.191Z" fill="var(--fill-0, #888888)"/>
<path id="Vector_27" d="M260.3 198.638C260.3 198.887 245.16 199.088 226.511 199.088C207.861 199.088 192.706 198.887 192.706 198.638C192.706 198.39 207.83 198.203 226.511 198.203C245.191 198.203 260.3 198.39 260.3 198.638Z" fill="var(--fill-0, #888888)"/>
<path id="Vector_28" d="M260.3 207.085C260.3 207.334 245.16 207.536 226.511 207.536C207.861 207.536 192.706 207.334 192.706 207.085C192.706 206.837 207.83 206.635 226.511 206.635C245.191 206.635 260.3 206.837 260.3 207.085Z" fill="var(--fill-0, #888888)"/>
<path id="Vector_29" d="M260.3 215.533C260.3 215.781 245.16 215.983 226.511 215.983C207.861 215.983 192.706 215.781 192.706 215.533C192.706 215.284 207.83 215.083 226.511 215.083C245.191 215.083 260.3 215.284 260.3 215.533Z" fill="var(--fill-0, #888888)"/>
<path id="Vector_30" d="M329.48 177.644H280.271V225.254H329.48V177.644Z" fill="url(#paint4_linear_0_112)"/>
<g id="Group_3" opacity="0.3">
<path id="Vector_31" d="M284.088 221.185L297.691 196.681L308.825 212.35L315.595 204.026L325.658 221.185H284.088Z" fill="var(--fill-0, #888888)"/>
</g>
<g id="Group_4" opacity="0.3">
<path id="Vector_32" d="M313.577 191.914C313.577 192.615 313.369 193.299 312.98 193.881C312.591 194.464 312.038 194.917 311.391 195.185C310.744 195.453 310.032 195.523 309.346 195.387C308.659 195.25 308.028 194.913 307.533 194.418C307.038 193.923 306.7 193.292 306.564 192.605C306.427 191.918 306.497 191.206 306.765 190.559C307.033 189.913 307.487 189.36 308.069 188.971C308.652 188.582 309.336 188.374 310.036 188.374C310.975 188.374 311.876 188.747 312.54 189.411C313.204 190.075 313.577 190.975 313.577 191.914Z" fill="var(--fill-0, #888888)"/>
</g>
<path id="Vector_33" opacity="0.3" d="M325.658 221.309C325.661 221.247 325.661 221.185 325.658 221.123V220.564C325.658 220.052 325.658 219.337 325.658 218.421C325.658 216.527 325.658 213.763 325.658 210.331C325.658 203.39 325.658 193.483 325.549 181.588L325.751 181.79H284.182C284.182 181.79 284.617 181.355 284.415 181.573V192.256C284.415 195.75 284.415 199.182 284.415 202.52C284.415 209.182 284.415 215.486 284.415 221.278L284.213 221.077L314.276 221.185H322.754H324.99H322.832H314.4L284.213 221.278H284.011V221.077C284.011 215.284 284.011 208.98 284.011 202.318V181.604C283.794 181.805 284.291 181.309 284.244 181.355H325.813H326.015V181.557C326.015 193.498 325.937 203.452 325.906 210.44C325.906 213.887 325.906 216.651 325.906 218.468C325.906 219.384 325.906 220.021 325.906 220.58C325.906 220.797 325.906 220.968 325.906 221.108C325.848 221.2 325.761 221.271 325.658 221.309Z" fill="var(--fill-0, #888888)"/>
<path id="Vector_34" d="M401.096 2.36033H0V271H401.096V2.36033Z" fill="var(--fill-0, white)"/>
<path id="Vector_35" d="M401.484 0.450287H0.388208V27.2832H401.484V0.450287Z" fill="var(--fill-0, #E0E0E0)"/>
<path id="Vector_36" d="M21.5983 11.9568C21.6451 12.6072 21.4949 13.2567 21.1672 13.8205C20.8395 14.3843 20.3496 14.8363 19.7613 15.1176C19.1729 15.3989 18.5135 15.4965 17.8689 15.3976C17.2244 15.2986 16.6246 15.0078 16.1477 14.563C15.6708 14.1183 15.3389 13.5401 15.1954 12.904C15.0519 12.2679 15.1033 11.6032 15.343 10.9968C15.5827 10.3903 15.9996 9.87013 16.5392 9.50402C17.0789 9.13791 17.7163 8.94286 18.3684 8.9443C18.7789 8.92769 19.1885 8.99268 19.5737 9.13549C19.9588 9.2783 20.3118 9.49611 20.6122 9.77629C20.9126 10.0565 21.1545 10.3935 21.3237 10.7677C21.493 11.142 21.5863 11.5462 21.5983 11.9568Z" fill="var(--fill-0, #FAFAFA)"/>
<path id="Vector_37" d="M32.0344 11.9568C32.0812 12.6066 31.9313 13.2554 31.6043 13.8188C31.2773 14.3822 30.7883 14.8342 30.2009 15.1159C29.6135 15.3977 28.9549 15.4961 28.3108 15.3984C27.6667 15.3008 27.0669 15.0115 26.5895 14.5683C26.112 14.1251 25.779 13.5485 25.6337 12.9135C25.4884 12.2784 25.5376 11.6143 25.7749 11.0076C26.0122 10.4009 26.4265 9.87967 26.9641 9.51167C27.5017 9.14368 28.1376 8.94598 28.789 8.9443C29.2007 8.92558 29.612 8.989 29.999 9.13086C30.386 9.27272 30.7408 9.49017 31.0429 9.77056C31.3449 10.0509 31.5882 10.3887 31.7584 10.764C31.9287 11.1393 32.0225 11.5448 32.0344 11.9568Z" fill="var(--fill-0, #FAFAFA)"/>
<path id="Vector_38" d="M42.5308 11.9568C42.5808 12.6107 42.4324 13.2645 42.1051 13.8327C41.7778 14.401 41.2868 14.8574 40.6961 15.1424C40.1054 15.4273 39.4425 15.5275 38.794 15.4299C38.1455 15.3323 37.5415 15.0414 37.0609 14.5952C36.5802 14.1491 36.2452 13.5684 36.0997 12.9289C35.9542 12.2895 36.0048 11.621 36.245 11.0108C36.4852 10.4005 36.9039 9.87692 37.4463 9.50827C37.9886 9.13963 38.6296 8.94308 39.2854 8.9443C39.6971 8.92558 40.1084 8.989 40.4954 9.13086C40.8823 9.27272 41.2372 9.49017 41.5393 9.77056C41.8413 10.0509 42.0846 10.3887 42.2548 10.764C42.425 11.1393 42.5189 11.5448 42.5308 11.9568Z" fill="var(--fill-0, #FAFAFA)"/>
<path id="Vector_39" d="M401.483 269.09C401.483 266.171 401.343 164.088 401.126 0.450322L401.483 0.807478L0.418181 0.900645L0.868491 0.450322C0.868491 96.1513 0.868491 187.163 0.868491 269.09L0.449244 268.686L401.545 269.09L0.449244 269.494H0.0454931V269.09C0.0454931 187.163 0.0454931 96.1513 0.0454931 0.450322V0H0.511347L401.576 0.0931779H401.934V0.450322C401.607 164.088 401.499 266.171 401.483 269.09Z" fill="var(--fill-0, #888888)"/>
<path id="Vector_40" d="M117.702 150.376H26.5043V156.479H117.702V150.376Z" fill="url(#paint5_linear_0_112)"/>
<path id="Vector_41" d="M235.502 65.6692H144.304V71.7718H235.502V65.6692Z" fill="url(#paint6_linear_0_112)"/>
<path id="Vector_42" d="M371.14 88.4026C371.14 88.6356 320.363 88.8374 257.784 88.8374C195.205 88.8374 144.35 88.6356 144.35 88.4026C144.35 88.1697 195.127 87.9523 257.784 87.9523C320.441 87.9523 371.14 88.1542 371.14 88.4026Z" fill="var(--fill-0, #888888)"/>
<path id="Vector_43" d="M371.14 101.71C371.14 101.959 320.363 102.161 257.784 102.161C195.205 102.161 144.35 101.959 144.35 101.71C144.35 101.462 195.127 101.276 257.784 101.276C320.441 101.276 371.14 101.478 371.14 101.71Z" fill="var(--fill-0, #888888)"/>
<path id="Vector_44" d="M371.14 115.096C371.14 115.344 320.363 115.546 257.784 115.546C195.205 115.546 144.35 115.344 144.35 115.096C144.35 114.847 195.127 114.661 257.784 114.661C320.441 114.661 371.14 114.785 371.14 115.096Z" fill="var(--fill-0, #888888)"/>
<path id="Vector_45" d="M371.14 128.357C371.14 128.605 320.363 128.807 257.784 128.807C195.205 128.807 144.35 128.605 144.35 128.357C144.35 128.109 195.127 127.922 257.784 127.922C320.441 127.922 371.14 128.109 371.14 128.357Z" fill="var(--fill-0, #888888)"/>
<path id="Vector_46" d="M371.14 141.68C371.14 141.929 320.363 142.131 257.784 142.131C195.205 142.131 144.35 141.929 144.35 141.68C144.35 141.432 195.127 141.23 257.784 141.23C320.441 141.23 371.14 141.494 371.14 141.68Z" fill="var(--fill-0, #888888)"/>
<path id="Vector_47" d="M232.846 155.004C232.846 155.252 213.032 155.454 188.575 155.454C164.118 155.454 144.304 155.252 144.304 155.004C144.304 154.755 164.118 154.553 188.575 154.553C213.032 154.553 232.846 154.755 232.846 155.004Z" fill="var(--fill-0, #888888)"/>
<path id="Vector_48" d="M369.48 180.858C369.48 181.107 336.109 181.308 294.944 181.308C253.778 181.308 220.408 181.107 220.408 180.858C220.408 180.61 253.778 180.408 294.944 180.408C336.109 180.408 369.48 180.61 369.48 180.858Z" fill="var(--fill-0, #888888)"/>
<path id="Vector_49" d="M369.48 195.004C369.48 195.253 336.109 195.455 294.944 195.455C253.778 195.455 220.408 195.253 220.408 195.004C220.408 194.756 253.778 194.554 294.944 194.554C336.109 194.554 369.48 194.756 369.48 195.004Z" fill="var(--fill-0, #888888)"/>
<path id="Vector_50" d="M369.48 209.135C369.48 209.384 336.109 209.586 294.944 209.586C253.778 209.586 220.408 209.384 220.408 209.135C220.408 208.887 253.778 208.7 294.944 208.7C336.109 208.7 369.48 208.902 369.48 209.135Z" fill="var(--fill-0, #888888)"/>
<path id="Vector_51" d="M369.48 223.281C369.48 223.53 336.109 223.732 294.944 223.732C253.778 223.732 220.408 223.53 220.408 223.281C220.408 223.033 253.778 222.831 294.944 222.831C336.109 222.831 369.48 223.033 369.48 223.281Z" fill="var(--fill-0, #888888)"/>
<path id="Vector_52" d="M117.936 179.507C117.936 179.756 98.0441 179.958 73.4939 179.958C48.9436 179.958 29.0519 179.756 29.0519 179.507C29.0519 179.259 48.9592 179.057 73.4939 179.057C98.0286 179.057 117.936 179.259 117.936 179.507Z" fill="var(--fill-0, #888888)"/>
<path id="Vector_53" d="M117.936 190.61C117.936 190.858 98.0441 191.06 73.4939 191.06C48.9436 191.06 29.0519 190.858 29.0519 190.61C29.0519 190.362 48.9592 190.16 73.4939 190.16C98.0286 190.16 117.936 190.362 117.936 190.61Z" fill="var(--fill-0, #888888)"/>
<path id="Vector_54" d="M117.936 201.713C117.936 201.961 98.0441 202.163 73.4939 202.163C48.9436 202.163 29.0519 201.961 29.0519 201.713C29.0519 201.464 48.9592 201.278 73.4939 201.278C98.0286 201.278 117.936 201.464 117.936 201.713Z" fill="var(--fill-0, #888888)"/>
<path id="Vector_55" d="M117.936 212.815C117.936 213.064 98.0441 213.266 73.4939 213.266C48.9436 213.266 29.0519 213.064 29.0519 212.815C29.0519 212.567 48.9592 212.381 73.4939 212.381C98.0286 212.381 117.936 212.583 117.936 212.815Z" fill="var(--fill-0, #888888)"/>
<path id="Vector_56" d="M117.936 223.934C117.936 224.182 98.0441 224.369 73.4939 224.369C48.9436 224.369 29.0519 224.182 29.0519 223.934C29.0519 223.685 48.9592 223.483 73.4939 223.483C98.0286 223.483 117.936 223.685 117.936 223.934Z" fill="var(--fill-0, #888888)"/>
<path id="Vector_57" d="M208.947 174.119H144.24V236.713H208.947V174.119Z" fill="url(#paint7_linear_0_112)"/>
<g id="Group_5" opacity="0.3">
<path id="Vector_58" d="M149.272 231.356L167.161 199.135L181.804 219.726L190.702 208.794L203.932 231.356H149.272Z" fill="var(--fill-0, white)" fill-opacity="0.3"/>
</g>
<g id="Group_6" opacity="0.3">
<path id="Vector_59" d="M188.047 192.877C188.047 193.798 187.774 194.699 187.262 195.465C186.75 196.231 186.022 196.828 185.171 197.181C184.32 197.534 183.383 197.626 182.48 197.446C181.576 197.266 180.746 196.823 180.094 196.171C179.443 195.52 178.999 194.69 178.819 193.786C178.64 192.882 178.732 191.946 179.084 191.094C179.437 190.243 180.034 189.516 180.8 189.004C181.566 188.492 182.467 188.219 183.388 188.219C184.624 188.219 185.809 188.709 186.682 189.583C187.556 190.457 188.047 191.642 188.047 192.877Z" fill="var(--fill-0, white)" fill-opacity="0.3"/>
</g>
<path id="Vector_60" opacity="0.3" d="M203.932 231.558C203.932 231.558 203.932 231.465 203.932 231.31C203.932 231.154 203.932 230.875 203.932 230.58C203.932 229.912 203.932 229.027 203.932 227.754C203.932 225.269 203.932 221.682 203.932 217.132C203.932 207.986 203.854 194.958 203.792 179.321L204.056 179.585H149.396L149.691 179.29V206.821C149.691 215.579 149.691 223.903 149.691 231.496L149.427 231.232L188.947 231.372H200.096H203.062H204.087C204.087 231.372 204.087 231.372 203.854 231.372H203.109H200.205H189.118L149.427 231.511H149.148V231.558C149.148 223.934 149.148 215.642 149.148 206.884V179.321C148.868 179.585 149.52 178.933 149.458 179.01H204.118H204.382V179.274C204.382 194.989 204.289 208.064 204.258 217.241C204.258 221.775 204.258 225.347 204.18 227.816C204.18 229.011 204.18 229.928 204.18 230.58C204.18 230.875 204.18 231.108 204.18 231.294C204.18 231.48 203.947 231.558 203.932 231.558Z" fill="var(--fill-0, white)" fill-opacity="0.3"/>
<path id="Vector_61" d="M114.226 48.2154H22.7951V136.68H114.226V48.2154Z" fill="url(#paint8_linear_0_112)"/>
<g id="Group_7" opacity="0.3">
<path id="Vector_62" d="M29.8767 129.102L55.1723 83.5889L75.856 112.673L88.4339 97.2228L107.13 129.102H29.8767Z" fill="var(--fill-0, white)" fill-opacity="0.3"/>
</g>
<g id="Group_8" opacity="0.3">
<path id="Vector_63" d="M84.6742 74.7223C84.6742 76.0244 84.288 77.2974 83.5646 78.3801C82.8411 79.4629 81.8128 80.3068 80.6098 80.8051C79.4067 81.3034 78.0829 81.4338 76.8057 81.1797C75.5285 80.9257 74.3554 80.2986 73.4346 79.3779C72.5138 78.4571 71.8867 77.2839 71.6327 76.0067C71.3786 74.7296 71.509 73.4057 72.0074 72.2027C72.5057 70.9996 73.3496 69.9713 74.4323 69.2479C75.515 68.5244 76.788 68.1382 78.0902 68.1382C78.9554 68.1362 79.8125 68.3051 80.6122 68.6353C81.4119 68.9654 82.1386 69.4503 82.7503 70.0621C83.3621 70.6739 83.847 71.4005 84.1772 72.2003C84.5073 73 84.6762 73.8571 84.6742 74.7223Z" fill="var(--fill-0, white)" fill-opacity="0.3"/>
</g>
<path id="Vector_64" opacity="0.3" d="M107.129 129.351C107.123 129.232 107.123 129.113 107.129 128.994C107.129 128.73 107.129 128.388 107.129 127.953C107.129 127.021 107.129 125.686 107.129 123.978C107.129 120.469 107.129 115.391 107.036 108.947C107.036 96.027 106.912 77.6415 106.834 55.5447L107.207 55.9174H29.969L30.3883 55.4981V75.3433C30.3883 81.8341 30.3883 88.2007 30.3883 94.3965C30.3883 106.819 30.3883 118.496 30.3883 129.273L30.0001 128.9L85.9019 129.087L101.663 129.18H105.84H106.927H105.871H101.772L86.1038 129.273L30.0001 129.459H29.6274V129.071C29.6274 118.295 29.6274 106.586 29.6274 94.1946V75.4209C29.6274 72.16 29.6274 68.8835 29.6274 65.5605V55.5758C29.2392 55.9484 30.1553 55.0323 30.0777 55.1254H107.315H107.688V55.4981C107.688 77.6881 107.548 96.1667 107.502 109.148C107.502 115.546 107.502 120.593 107.409 124.087C107.409 125.764 107.409 127.068 107.409 128C107.409 128.404 107.409 128.73 107.409 128.978C107.338 129.118 107.244 129.244 107.129 129.351Z" fill="var(--fill-0, white)" fill-opacity="0.3"/>
</g>
<defs>
<linearGradient id="paint0_linear_0_112" x1="41.6465" y1="86.679" x2="41.6465" y2="91.4772" gradientUnits="userSpaceOnUse">
<stop stop-color="#DF8251"/>
<stop offset="1" stop-color="#D54050"/>
</linearGradient>
<linearGradient id="paint1_linear_0_112" x1="31.1941" y1="171.836" x2="31.1941" y2="220.999" gradientUnits="userSpaceOnUse">
<stop stop-color="#DF8251"/>
<stop offset="1" stop-color="#D54050"/>
</linearGradient>
<linearGradient id="paint2_linear_0_112" x1="225.409" y1="159.6" x2="225.409" y2="164.243" gradientUnits="userSpaceOnUse">
<stop stop-color="#DF8251"/>
<stop offset="1" stop-color="#D54050"/>
</linearGradient>
<linearGradient id="paint3_linear_0_112" x1="314.991" y1="95.1885" x2="314.991" y2="99.8315" gradientUnits="userSpaceOnUse">
<stop stop-color="#DF8251"/>
<stop offset="1" stop-color="#D54050"/>
</linearGradient>
<linearGradient id="paint4_linear_0_112" x1="304.875" y1="177.644" x2="304.875" y2="225.254" gradientUnits="userSpaceOnUse">
<stop stop-color="#DF8251"/>
<stop offset="1" stop-color="#D54050"/>
</linearGradient>
<linearGradient id="paint5_linear_0_112" x1="72.1031" y1="150.376" x2="72.1031" y2="156.479" gradientUnits="userSpaceOnUse">
<stop stop-color="#DF8251"/>
<stop offset="1" stop-color="#D54050"/>
</linearGradient>
<linearGradient id="paint6_linear_0_112" x1="189.903" y1="65.6692" x2="189.903" y2="71.7718" gradientUnits="userSpaceOnUse">
<stop stop-color="#DF8251"/>
<stop offset="1" stop-color="#D54050"/>
</linearGradient>
<linearGradient id="paint7_linear_0_112" x1="176.594" y1="174.119" x2="176.594" y2="236.713" gradientUnits="userSpaceOnUse">
<stop stop-color="#DF8251"/>
<stop offset="1" stop-color="#D54050"/>
</linearGradient>
<linearGradient id="paint8_linear_0_112" x1="68.5104" y1="48.2154" x2="68.5104" y2="136.68" gradientUnits="userSpaceOnUse">
<stop stop-color="#DF8251"/>
<stop offset="1" stop-color="#D54050"/>
</linearGradient>
</defs>
</svg>
