<svg preserveAspectRatio="none" width="100%" height="100%" overflow="visible" style="display: block;" viewBox="0 0 345.157 201" fill="none" xmlns="http://www.w3.org/2000/svg">
<g id="Group 109">
<path id="Vector" d="M232.842 38.5508H0V194.497H232.842V38.5508Z" fill="var(--fill-0, #EBEBEB)"/>
<path id="Vector_2" d="M232.842 38.5508H0V54.1351H232.842V38.5508Z" fill="var(--fill-0, #E0E0E0)"/>
<path id="Vector_3" d="M10.0926 46.3429C10.122 46.7214 10.0367 47.1001 9.84779 47.4294C9.65886 47.7588 9.37509 48.0236 9.03346 48.1893C8.69183 48.3551 8.30819 48.414 7.93257 48.3585C7.55695 48.303 7.20677 48.1356 6.92768 47.8781C6.64859 47.6207 6.45354 47.2851 6.36797 46.9152C6.28239 46.5452 6.31026 46.1581 6.44794 45.8042C6.58561 45.4504 6.82671 45.1462 7.13979 44.9314C7.45288 44.7165 7.82342 44.601 8.20312 44.5999C8.44168 44.5901 8.67983 44.6274 8.90395 44.7097C9.12807 44.792 9.33376 44.9177 9.50925 45.0796C9.68475 45.2415 9.8266 45.4364 9.92669 45.6532C10.0268 45.8699 10.0832 46.1043 10.0926 46.3429Z" fill="var(--fill-0, #FAFAFA)"/>
<path id="Vector_4" d="M16.2432 46.3429C16.2726 46.7214 16.1873 47.1001 15.9984 47.4294C15.8094 47.7588 15.5257 48.0236 15.184 48.1893C14.8424 48.3551 14.4588 48.414 14.0831 48.3585C13.7075 48.303 13.3573 48.1356 13.0783 47.8781C12.7992 47.6207 12.6041 47.2851 12.5185 46.9152C12.433 46.5452 12.4608 46.1581 12.5985 45.8042C12.7362 45.4504 12.9773 45.1462 13.2904 44.9314C13.6035 44.7165 13.974 44.601 14.3537 44.5999C14.5923 44.5901 14.8304 44.6274 15.0545 44.7097C15.2786 44.792 15.4843 44.9177 15.6598 45.0796C15.8353 45.2415 15.9772 45.4364 16.0773 45.6532C16.1774 45.8699 16.2337 46.1043 16.2432 46.3429Z" fill="var(--fill-0, #FAFAFA)"/>
<path id="Vector_5" d="M22.2335 46.3429C22.263 46.722 22.1774 47.1013 21.9878 47.431C21.7983 47.7607 21.5136 48.0256 21.1711 48.1909C20.8286 48.3562 20.4442 48.4143 20.0681 48.3576C19.692 48.3009 19.3418 48.1321 19.0632 47.8731C18.7847 47.6141 18.5908 47.2772 18.5069 46.9062C18.4229 46.5353 18.4529 46.1476 18.5929 45.794C18.7329 45.4403 18.9763 45.1372 19.2913 44.9241C19.6064 44.7111 19.9784 44.5981 20.3587 44.5999C20.5965 44.5901 20.8339 44.6275 21.0572 44.71C21.2805 44.7925 21.4852 44.9184 21.6595 45.0805C21.8339 45.2425 21.9743 45.4376 22.0729 45.6542C22.1714 45.8709 22.226 46.105 22.2335 46.3429Z" fill="var(--fill-0, #FAFAFA)"/>
<path id="Vector_6" d="M344.321 2.02129H47.2221V201H344.321V2.02129Z" fill="var(--fill-0, white)"/>
<path id="Vector_7" d="M344.612 0.600575H47.5139V20.4765H344.612V0.600575Z" fill="var(--fill-0, #EBEBEB)"/>
<path id="Vector_8" d="M63.2321 9.1251C63.2644 9.60575 63.1514 10.085 62.9079 10.5006C62.6643 10.9163 62.3015 11.2491 61.8664 11.4558C61.4313 11.6626 60.944 11.7337 60.468 11.66C59.9919 11.5864 59.549 11.3713 59.1968 11.0426C58.8445 10.714 58.5992 10.2871 58.4927 9.81729C58.3862 9.34748 58.4234 8.8565 58.5995 8.40811C58.7756 7.95972 59.0825 7.57465 59.4802 7.30288C59.878 7.03112 60.3483 6.88521 60.83 6.88412C61.4453 6.86434 62.0434 7.08896 62.4935 7.5089C62.9436 7.92884 63.2092 8.50993 63.2321 9.1251Z" fill="var(--fill-0, #FAFAFA)"/>
<path id="Vector_9" d="M70.9789 9.1251C71.0112 9.60575 70.8983 10.085 70.6547 10.5006C70.4112 10.9163 70.0483 11.2491 69.6132 11.4558C69.1781 11.6626 68.6909 11.7337 68.2148 11.66C67.7388 11.5864 67.2959 11.3713 66.9436 11.0426C66.5914 10.714 66.3461 10.2871 66.2396 9.81729C66.1331 9.34748 66.1703 8.8565 66.3464 8.40811C66.5225 7.95972 66.8293 7.57465 67.2271 7.30288C67.6248 7.03112 68.0951 6.88521 68.5768 6.88412C69.1921 6.86434 69.7902 7.08896 70.2403 7.5089C70.6905 7.92884 70.956 8.50993 70.9789 9.1251Z" fill="var(--fill-0, #FAFAFA)"/>
<path id="Vector_10" d="M78.7287 9.12504C78.7609 9.60443 78.6485 10.0825 78.4062 10.4973C78.1639 10.9122 77.8027 11.2449 77.3694 11.4524C76.936 11.66 76.4504 11.7327 75.9753 11.6614C75.5001 11.59 75.0573 11.3778 74.704 11.0522C74.3507 10.7266 74.1032 10.3025 73.9934 9.83473C73.8836 9.36697 73.9167 8.87703 74.0882 8.42823C74.2598 7.97943 74.562 7.5924 74.9558 7.31713C75.3496 7.04186 75.8169 6.891 76.2973 6.88406C76.6048 6.86833 76.9124 6.91415 77.2021 7.01881C77.4917 7.12347 77.7575 7.28487 77.9839 7.49358C78.2104 7.70229 78.3929 7.95409 78.5208 8.23424C78.6487 8.51438 78.7193 8.81723 78.7287 9.12504Z" fill="var(--fill-0, #FAFAFA)"/>
<path id="Vector_11" d="M344.615 199.594C344.615 199.594 344.615 198.349 344.615 195.976C344.615 193.603 344.615 190.117 344.615 185.489C344.615 176.291 344.615 162.771 344.527 145.473C344.527 110.907 344.424 61.2096 344.351 0.600519L344.688 0.937403L47.5455 1.02528L47.9702 0.600519C47.9702 71.4917 47.9702 138.912 47.9702 199.594L47.5894 199.198L261.654 199.389L322.791 199.491H339.049H343.253H344.717H343.326H339.166H323.054L262.006 199.594L47.6773 199.784H47.2965V199.403C47.2965 138.721 47.2965 71.3013 47.2965 0.410113V0H47.7505H344.82H345.157V0.336873C345.083 61.0338 345.01 110.804 344.966 145.429C344.966 162.684 344.966 176.188 344.893 185.357C344.893 189.927 344.893 193.413 344.893 195.786C344.893 198.158 344.615 199.594 344.615 199.594Z" fill="var(--fill-0, #888888)"/>
<path id="Vector_12" d="M134.416 111.654H66.8639V116.18H134.416V111.654Z" fill="url(#paint0_linear_0_191)"/>
<path id="Vector_13" d="M134.575 133.229C134.575 133.463 119.84 133.653 101.664 133.653C83.4868 133.653 68.7519 133.463 68.7519 133.229C68.7519 132.994 83.4868 132.818 101.664 132.818C119.84 132.818 134.575 132.994 134.575 133.229Z" fill="var(--fill-0, #888888)"/>
<path id="Vector_14" d="M134.575 141.46C134.575 141.695 119.84 141.885 101.664 141.885C83.4868 141.885 68.7519 141.695 68.7519 141.46C68.7519 141.226 83.4868 141.035 101.664 141.035C119.84 141.035 134.575 141.226 134.575 141.46Z" fill="var(--fill-0, #888888)"/>
<path id="Vector_15" d="M134.575 149.692C134.575 149.911 119.84 150.102 101.664 150.102C83.4868 150.102 68.7519 149.911 68.7519 149.692C68.7519 149.472 83.4868 149.267 101.664 149.267C119.84 149.267 134.575 149.457 134.575 149.692Z" fill="var(--fill-0, #888888)"/>
<path id="Vector_16" d="M134.575 157.909C134.575 158.143 119.84 158.333 101.664 158.333C83.4868 158.333 68.7519 158.143 68.7519 157.909C68.7519 157.674 83.4868 157.484 101.664 157.484C119.84 157.484 134.575 157.748 134.575 157.909Z" fill="var(--fill-0, #888888)"/>
<path id="Vector_17" d="M134.575 166.14C134.575 166.375 119.84 166.565 101.664 166.565C83.4868 166.565 68.7519 166.375 68.7519 166.14C68.7519 165.906 83.4868 165.716 101.664 165.716C119.84 165.716 134.575 165.906 134.575 166.14Z" fill="var(--fill-0, #888888)"/>
<path id="Vector_18" d="M131.836 35.9875H64.109V101.503H131.836V35.9875Z" fill="url(#paint1_linear_0_191)"/>
<g id="Group" opacity="0.3">
<path id="Vector_19" d="M69.3519 95.9082L88.0853 62.191L103.421 83.7366L112.721 72.2974L126.577 95.9082H69.3519Z" fill="var(--fill-0, white)" fill-opacity="0.3"/>
</g>
<g id="Group_2" opacity="0.3">
<path id="Vector_20" d="M105.063 60.5065C107.757 60.5065 109.941 58.3228 109.941 55.6291C109.941 52.9354 107.757 50.7517 105.063 50.7517C102.369 50.7517 100.186 52.9354 100.186 55.6291C100.186 58.3228 102.369 60.5065 105.063 60.5065Z" fill="var(--fill-0, white)" fill-opacity="0.3"/>
</g>
<path id="Vector_21" opacity="0.3" d="M126.579 96.084C126.573 95.9962 126.573 95.9081 126.579 95.8203C126.579 95.6153 126.579 95.3663 126.579 95.0587C126.579 94.3556 126.579 93.3743 126.579 92.1293C126.579 89.5368 126.579 85.7725 126.506 80.9976C126.506 71.4332 126.418 57.8115 126.359 41.4509L126.638 41.7145H69.4265C69.5222 41.6008 69.625 41.4932 69.7341 41.3923V70.2028C69.7341 79.3865 69.7341 88.0574 69.7341 96.04L69.4558 95.7617L110.833 95.9082L122.551 95.9814H125.642H122.61L110.995 96.0547L69.4412 96.2011H69.1629V95.9228C69.1629 87.9403 69.1629 79.2693 69.1629 70.0856C69.1629 65.5011 69.1629 60.7848 69.1629 55.966V41.319C68.8846 41.612 69.5584 40.9236 69.4998 40.9968H126.711H126.989V41.2751C126.989 57.709 126.887 71.3892 126.843 81.0123C126.843 85.7432 126.843 89.4929 126.843 92.0707C126.843 93.3157 126.843 94.2824 126.843 95.0001V95.7324C126.775 95.8633 126.685 95.982 126.579 96.084Z" fill="var(--fill-0, white)" fill-opacity="0.3"/>
</g>
<defs>
<linearGradient id="paint0_linear_0_191" x1="100.64" y1="111.654" x2="100.64" y2="116.18" gradientUnits="userSpaceOnUse">
<stop stop-color="#DF8251"/>
<stop offset="1" stop-color="#D54050"/>
</linearGradient>
<linearGradient id="paint1_linear_0_191" x1="97.9727" y1="35.9875" x2="97.9727" y2="101.503" gradientUnits="userSpaceOnUse">
<stop stop-color="#DF8251"/>
<stop offset="1" stop-color="#D54050"/>
</linearGradient>
</defs>
</svg>
