<svg width="29" height="29" viewBox="0 0 29 29" fill="none" xmlns="http://www.w3.org/2000/svg">
<g clip-path="url(#clip0_752_3683)">
<path d="M13.0039 19.8396L15.3469 22.1826C15.5777 22.4134 15.8517 22.5965 16.1532 22.7214C16.4547 22.8462 16.7779 22.9105 17.1042 22.9105C17.4306 22.9105 17.7537 22.8462 18.0552 22.7214C18.3568 22.5965 18.6307 22.4134 18.8615 22.1826C19.0923 21.9519 19.2753 21.6779 19.4002 21.3764C19.5251 21.0749 19.5894 20.7517 19.5894 20.4254C19.5894 20.099 19.5251 19.7758 19.4002 19.4743C19.2753 19.1728 19.0923 18.8989 18.8615 18.6681" stroke="#FF5722" stroke-width="2.06044" stroke-linecap="round" stroke-linejoin="round"/>
<path d="M16.5185 16.3251L19.4473 19.2539C19.9134 19.72 20.5455 19.9818 21.2046 19.9818C21.8637 19.9818 22.4958 19.72 22.9619 19.2539C23.4279 18.7879 23.6898 18.1558 23.6898 17.4967C23.6898 16.8376 23.4279 16.2054 22.9619 15.7394L18.4164 11.1939C17.7574 10.5357 16.8641 10.1661 15.9328 10.1661C15.0014 10.1661 14.1081 10.5357 13.4492 11.1939L12.4182 12.2248C11.9522 12.6909 11.32 12.9527 10.6609 12.9527C10.0018 12.9527 9.36973 12.6909 8.90367 12.2248C8.43761 11.7588 8.17578 11.1267 8.17578 10.4676C8.17578 9.80845 8.43761 9.17634 8.90367 8.71028L12.1956 5.41832C13.2643 4.35241 14.658 3.67341 16.1561 3.4888C17.6542 3.30419 19.171 3.62453 20.4665 4.3991L21.0172 4.72712C21.516 5.02819 22.1091 5.13261 22.6807 5.02L24.7191 4.60997" stroke="#FF5722" stroke-width="2.06044" stroke-linecap="round" stroke-linejoin="round"/>
<path d="M24.7203 3.43848L25.8919 16.3252H23.5488" stroke="#FF5722" stroke-width="2.06044" stroke-linecap="round" stroke-linejoin="round"/>
<path d="M3.63245 3.43848L2.46094 16.3252L10.0758 23.94C10.5419 24.4061 11.174 24.6679 11.8331 24.6679C12.4922 24.6679 13.1243 24.4061 13.5903 23.94C14.0564 23.474 14.3182 22.8418 14.3182 22.1827C14.3182 21.5236 14.0564 20.8915 13.5903 20.4255" stroke="#FF5722" stroke-width="2.06044" stroke-linecap="round" stroke-linejoin="round"/>
<path d="M3.63086 4.60999H13.003" stroke="#FF5722" stroke-width="2.06044" stroke-linecap="round" stroke-linejoin="round"/>
</g>
<defs>
<clipPath id="clip0_752_3683">
<rect width="28.1164" height="28.1164" fill="white"/>
</clipPath>
</defs>
</svg>
