<svg preserveAspectRatio="none" width="100%" height="100%" overflow="visible" style="display: block;" viewBox="0 0 80 80" fill="none" xmlns="http://www.w3.org/2000/svg">
<g id="Frame 1686562579">
<rect width="80" height="80" rx="8" fill="var(--fill-0, white)" fill-opacity="0.04"/>
<path id="Vector" d="M58.0436 31.3727C60.1764 35.8335 60.5813 40.9261 59.1801 45.6678C57.7789 50.4094 54.671 54.464 50.4561 57.049C46.2413 59.6339 41.2184 60.566 36.3567 59.6653C31.4951 58.7646 27.1394 56.095 24.1303 52.1717C21.1212 48.2484 19.672 43.3496 20.0625 38.4206C20.4529 33.4917 22.6553 28.8821 26.2445 25.4815C29.8338 22.0809 34.5555 20.1303 39.4983 20.0063C44.4411 19.8823 49.2547 21.5935 53.01 24.8098L57.3654 20.4525C57.6538 20.1641 58.0449 20.0021 58.4528 20.0021C58.8606 20.0021 59.2518 20.1641 59.5402 20.4525C59.8286 20.7409 59.9906 21.132 59.9906 21.5399C59.9906 21.9478 59.8286 22.3389 59.5402 22.6273L41.0964 41.0711C40.808 41.3595 40.4169 41.5215 40.009 41.5215C39.6011 41.5215 39.21 41.3595 38.9216 41.0711C38.6332 40.7827 38.4712 40.3915 38.4712 39.9837C38.4712 39.5758 38.6332 39.1847 38.9216 38.8963L44.2472 33.5706C42.8039 32.6161 41.0807 32.1766 39.3565 32.3233C37.6323 32.47 36.0081 33.1943 34.7468 34.3789C33.4855 35.5636 32.6609 37.1393 32.4065 38.8509C32.1522 40.5625 32.4829 42.3099 33.3453 43.8101C34.2076 45.3104 35.551 46.4757 37.158 47.1174C38.765 47.7591 40.5416 47.8397 42.2001 47.3461C43.8586 46.8525 45.302 45.8136 46.2966 44.3976C47.2912 42.9816 47.7788 41.2713 47.6805 39.5437C47.6691 39.3419 47.6976 39.1398 47.7644 38.949C47.8311 38.7581 47.9348 38.5823 48.0695 38.4316C48.2042 38.2808 48.3673 38.1581 48.5494 38.0704C48.7315 37.9826 48.9292 37.9316 49.131 37.9203C49.5386 37.8974 49.9387 38.0373 50.2431 38.3093C50.3939 38.444 50.5166 38.6071 50.6044 38.7892C50.6921 38.9713 50.7431 39.169 50.7544 39.3708C50.8946 41.8161 50.1961 44.236 48.7746 46.2306C47.353 48.2252 45.2935 49.675 42.9363 50.3405C40.5791 51.0059 38.0655 50.8472 35.8107 49.8905C33.556 48.9338 31.6952 47.2364 30.5358 45.0788C29.3765 42.9213 28.9881 40.4327 29.4347 38.0245C29.8813 35.6162 31.1363 33.4324 32.9922 31.8341C34.8481 30.2357 37.1938 29.3184 39.6416 29.2339C42.0895 29.1493 44.4929 29.9025 46.4547 31.3689L50.8255 26.9981C47.6224 24.3387 43.5498 22.9565 39.3897 23.117C35.2296 23.2774 31.2755 24.9692 28.2868 27.8674C25.2981 30.7656 23.4855 34.6658 23.1972 38.819C22.9089 42.9721 24.1652 47.0854 26.7248 50.3687C29.2844 53.6521 32.9668 55.874 37.0648 56.6077C41.1628 57.3414 45.3874 56.5352 48.9272 54.3439C52.467 52.1526 55.0724 48.7307 56.243 44.7355C57.4136 40.7403 57.0668 36.4535 55.2693 32.6984C55.0935 32.3305 55.0711 31.9079 55.2069 31.5234C55.3427 31.139 55.6257 30.8242 55.9936 30.6484C56.3615 30.4727 56.7842 30.4502 57.1686 30.586C57.553 30.7219 57.8678 31.0049 58.0436 31.3727Z" fill="url(#paint0_linear_0_8)"/>
</g>
<defs>
<linearGradient id="paint0_linear_0_8" x1="40" y1="20" x2="40" y2="60" gradientUnits="userSpaceOnUse">
<stop stop-color="#DF8251"/>
<stop offset="1" stop-color="#D54050"/>
</linearGradient>
</defs>
</svg>
