<svg preserveAspectRatio="none" width="100%" height="100%" overflow="visible" style="display: block;" viewBox="0 0 52 52" fill="none" xmlns="http://www.w3.org/2000/svg">
<g id="Frame 1686562611">
<rect width="52" height="52" rx="10" fill="var(--fill-0, #ED6B52)" fill-opacity="0.1"/>
<path id="Vector" d="M25.9989 35.388C26.0012 36.1453 25.7648 36.884 25.3234 37.4991C24.882 38.1143 24.2579 38.5745 23.54 38.8145C22.8221 39.0544 22.0468 39.0618 21.3244 38.8356C20.602 38.6095 19.9693 38.1612 19.5162 37.5546H19.5018C18.9457 37.5612 18.3958 37.4375 17.896 37.1934C17.3963 36.9493 16.9606 36.5915 16.6238 36.1488C16.287 35.706 16.0585 35.1905 15.9566 34.6436C15.8546 34.0967 15.882 33.5334 16.0367 32.999C15.2703 32.7622 14.5853 32.3157 14.0591 31.71C13.5329 31.1044 13.1865 30.3636 13.0588 29.5714C12.9312 28.7791 13.0275 27.967 13.3368 27.2266C13.6462 26.4862 14.1562 25.847 14.8094 25.3813C14.4224 24.5867 14.344 23.6767 14.5894 22.8275C14.8348 21.9784 15.3865 21.2506 16.1377 20.7853C15.9443 20.2919 15.8628 19.7618 15.8992 19.2331C15.9355 18.7044 16.0888 18.1904 16.348 17.7282C16.6072 17.266 16.9658 16.8672 17.3978 16.5606C17.8299 16.254 18.3246 16.0472 18.8463 15.9552C18.9442 15.427 19.1587 14.9272 19.4741 14.4924C19.7896 14.0576 20.1981 13.6986 20.6698 13.4418C21.1415 13.185 21.6645 13.0366 22.2008 13.0077C22.7371 12.9787 23.273 13.0699 23.7696 13.2744C24.4295 13.5476 24.9934 14.0104 25.3903 14.6044C25.7871 15.1983 25.9989 15.8966 25.9989 16.611M25.9989 35.388V16.611M25.9989 35.388C25.9965 36.1453 26.2329 36.884 26.6743 37.4991C27.1158 38.1143 27.7398 38.5745 28.4577 38.8145C29.1757 39.0544 29.9509 39.0618 30.6733 38.8356C31.3957 38.6095 32.0284 38.1612 32.4815 37.5546H32.496C33.0524 37.5619 33.6029 37.4387 34.1032 37.1949C34.6035 36.9511 35.0397 36.5934 35.377 36.1505C35.7143 35.7077 35.9432 35.192 36.0453 34.6447C36.1475 34.0974 36.1201 33.5338 35.9654 32.999C36.7315 32.7616 37.416 32.3148 37.9418 31.7089C38.4675 31.103 38.8134 30.3621 38.9406 29.5699C39.0678 28.7778 38.9711 27.9658 38.6615 27.2257C38.3518 26.4855 37.8416 25.8467 37.1883 25.3813C37.5752 24.5865 37.6534 23.6764 37.4077 22.8272C37.1621 21.9781 36.61 21.2504 35.8586 20.7853C36.052 20.292 36.1335 19.762 36.0973 19.2334C36.061 18.7048 35.9078 18.1908 35.6488 17.7287C35.3897 17.2665 35.0313 16.8677 34.5995 16.561C34.1676 16.2543 33.673 16.0474 33.1514 15.9552C32.9984 15.1264 32.5605 14.3772 31.9134 13.8375C31.2663 13.2978 30.4509 13.0015 29.6084 13C28.6511 13 27.733 13.3804 27.0561 14.0576C26.3792 14.7348 25.9989 15.6533 25.9989 16.611M14.4485 23.8329C14.4485 23.236 14.5964 22.6484 14.879 22.1226C15.1615 21.5969 15.57 21.1494 16.0678 20.8203C16.5656 20.4912 17.1372 20.2906 17.7314 20.2366C18.3256 20.1826 18.924 20.2768 19.4729 20.5108M19.0686 32.8618C18.0883 33.2912 16.9838 33.3423 15.9681 33.0054C14.9523 32.6684 14.0972 31.9672 13.5676 31.0369C13.038 30.1066 12.8714 29.0131 13.0999 27.9672C13.3284 26.9213 13.9358 25.9971 14.8051 25.3726M37.5492 23.8329C37.5494 23.2358 37.4015 22.648 37.1188 22.1221C36.8361 21.5962 36.4275 21.1486 35.9295 20.8194C35.4316 20.4903 34.8598 20.2898 34.2653 20.2359C33.6709 20.1821 33.0724 20.2765 32.5234 20.5108M32.9277 32.8618C33.9081 33.2923 35.0132 33.3443 36.0297 33.0077C37.0462 32.6711 37.902 31.9698 38.4321 31.0391C38.9621 30.1083 39.1288 29.0142 38.8999 27.9678C38.671 26.9214 38.0628 25.9968 37.1926 25.3726" stroke="var(--stroke-0, #ED6B52)" stroke-width="2" stroke-linecap="round" stroke-linejoin="round"/>
</g>
</svg>
