<svg preserveAspectRatio="none" width="100%" height="100%" overflow="visible" style="display: block;" viewBox="0 0 53 52" fill="none" xmlns="http://www.w3.org/2000/svg">
<g id="Frame 1686562619">
<rect width="53" height="52" rx="10" fill="var(--fill-0, #ED6B52)" fill-opacity="0.1"/>
<path id="Vector" d="M30.7518 15.093C31.4215 14.4232 32.3208 14.0332 33.2674 14.002C34.214 13.9708 35.137 14.3009 35.8493 14.9251L36.0283 15.093L36.9076 15.9721C37.577 16.6417 37.9668 17.5407 37.998 18.487C38.0292 19.4332 37.6994 20.3559 37.0754 21.0681L36.9076 21.2471L22.9645 35.1907C22.7674 35.3878 22.5286 35.5382 22.2656 35.6309L22.0642 35.6893L16.5253 36.9677C16.3312 37.0128 16.1291 37.0106 15.9361 36.9614C15.743 36.9121 15.5646 36.8172 15.4159 36.6846C15.2672 36.5519 15.1525 36.3855 15.0815 36.1994C15.0106 36.0132 14.9854 35.8127 15.0081 35.6147L15.033 35.4742L16.3101 29.9343C16.3732 29.6626 16.4965 29.4085 16.6708 29.1907L16.8088 29.0353L30.7518 15.093ZM29.8726 19.4888L18.6928 30.668L17.9019 34.0976L21.3317 33.3055L32.5115 22.1263L29.8726 19.4888ZM34.2699 16.8513C34.0558 16.6372 33.7709 16.5086 33.4687 16.4896C33.1664 16.4706 32.8677 16.5625 32.6284 16.7481L32.5115 16.8513L31.631 17.7305L34.2699 20.368L35.1491 19.4888C35.3632 19.2747 35.4919 18.9898 35.5109 18.6876C35.5299 18.3854 35.438 18.0866 35.2523 17.8474L35.1491 17.7305L34.2699 16.8513Z" fill="var(--fill-0, #ED6B52)"/>
</g>
</svg>
