<svg preserveAspectRatio="none" width="100%" height="100%" overflow="visible" style="display: block;" viewBox="0 0 52 52" fill="none" xmlns="http://www.w3.org/2000/svg">
<g id="Frame 1686562622">
<rect width="52" height="52" rx="10" fill="var(--fill-0, #ED6B52)" fill-opacity="0.1"/>
<path id="Vector" d="M26 14C19.3832 14 14 19.3832 14 26V30.9716C14 32.2004 15.0764 33.2 16.4 33.2H17.6C17.9183 33.2 18.2235 33.0736 18.4485 32.8485C18.6736 32.6235 18.8 32.3183 18.8 32V25.8284C18.8 25.5101 18.6736 25.2049 18.4485 24.9799C18.2235 24.7548 17.9183 24.6284 17.6 24.6284H16.5104C17.1776 19.9844 21.1736 16.4 26 16.4C30.8264 16.4 34.8224 19.9844 35.4896 24.6284H34.4C34.0817 24.6284 33.7765 24.7548 33.5515 24.9799C33.3264 25.2049 33.2 25.5101 33.2 25.8284V33.2C33.2 34.5236 32.1236 35.6 30.8 35.6H28.4V34.4H23.6V38H30.8C33.4472 38 35.6 35.8472 35.6 33.2C36.9236 33.2 38 32.2004 38 30.9716V26C38 19.3832 32.6168 14 26 14Z" fill="var(--fill-0, #ED6B52)"/>
</g>
</svg>
