<svg preserveAspectRatio="none" width="100%" height="100%" overflow="visible" style="display: block;" viewBox="0 0 28.6667 28.6667" fill="none" xmlns="http://www.w3.org/2000/svg">
<g id="Group">
<g id="Vector">
</g>
<g id="Vector_2">
</g>
<path id="Vector_3" d="M27.6667 14.3333C27.6667 21.6973 21.6973 27.6667 14.3333 27.6667C6.96933 27.6667 1 21.6973 1 14.3333C1 6.96933 6.96933 1 14.3333 1C21.6973 1 27.6667 6.96933 27.6667 14.3333Z" stroke="var(--stroke-0, #ED6B52)" stroke-width="2" stroke-linecap="square"/>
<path id="Vector_4" d="M21.7413 14.3333C21.741 16.2978 20.9603 18.1817 19.5711 19.5707C18.1819 20.9597 16.2978 21.74 14.3333 21.74M21.7413 14.3333C21.7413 13.3605 21.5497 12.3972 21.1774 11.4984C20.8051 10.5996 20.2595 9.78298 19.5716 9.09509C18.8837 8.40719 18.067 7.86152 17.1683 7.48923C16.2695 7.11695 15.3062 6.92533 14.3333 6.92533M21.7413 14.3333H23.2213M14.3333 21.74C12.3691 21.7396 10.4854 20.9592 9.09642 19.5702C7.70748 18.1813 6.92702 16.2976 6.92667 14.3333M14.3333 21.74V23.2213M14.3333 6.92533C12.3688 6.92569 10.4849 7.70633 9.09595 9.09556C7.70697 10.4848 6.92667 12.3688 6.92667 14.3333M14.3333 6.92533V5.444M6.92667 14.3333H5.444M15.8147 14.3333C15.8147 14.5279 15.7764 14.7205 15.7019 14.9002C15.6275 15.0799 15.5183 15.2432 15.3808 15.3808C15.2432 15.5183 15.0799 15.6275 14.9002 15.7019C14.7205 15.7764 14.5279 15.8147 14.3333 15.8147C14.1388 15.8147 13.9462 15.7764 13.7665 15.7019C13.5867 15.6275 13.4234 15.5183 13.2859 15.3808C13.1483 15.2432 13.0392 15.0799 12.9648 14.9002C12.8903 14.7205 12.852 14.5279 12.852 14.3333C12.852 13.9405 13.0081 13.5637 13.2859 13.2859C13.5637 13.0081 13.9405 12.852 14.3333 12.852C14.7262 12.852 15.103 13.0081 15.3808 13.2859C15.6586 13.5637 15.8147 13.9405 15.8147 14.3333Z" stroke="var(--stroke-0, #ED6B52)" stroke-width="2" stroke-linecap="square"/>
</g>
</svg>
