<svg preserveAspectRatio="none" width="100%" height="100%" overflow="visible" style="display: block;" viewBox="0 0 31 31" fill="none" xmlns="http://www.w3.org/2000/svg">
<g id="ant-design:team-outlined">
<path id="Vector" d="M24.9514 21.1884C24.1936 20.43 23.3082 19.8111 22.3357 19.3599C23.7071 18.2488 24.582 16.5535 24.582 14.6523C24.582 11.298 21.7848 8.54619 18.4305 8.59766C15.1276 8.64912 12.4666 11.3404 12.4666 14.6523C12.4666 16.5535 13.3445 18.2488 14.7129 19.3599C13.7402 19.8108 12.8548 20.4298 12.0973 21.1884C10.4443 22.8443 9.50586 25.0301 9.44531 27.3611C9.44451 27.3934 9.45017 27.4256 9.46198 27.4557C9.47379 27.4858 9.4915 27.5132 9.51407 27.5363C9.53664 27.5594 9.56361 27.5778 9.5934 27.5904C9.62318 27.6029 9.65518 27.6094 9.6875 27.6094H11.3828C11.513 27.6094 11.622 27.5064 11.625 27.3763C11.6825 25.6204 12.3939 23.9766 13.6442 22.7293C14.284 22.0861 15.0451 21.5762 15.8832 21.2291C16.7214 20.8819 17.6201 20.7045 18.5273 20.707C20.371 20.707 22.1057 21.4245 23.4105 22.7293C24.6577 23.9766 25.3691 25.6204 25.4297 27.3763C25.4327 27.5064 25.5417 27.6094 25.6719 27.6094H27.3672C27.3995 27.6094 27.4315 27.6029 27.4613 27.5904C27.4911 27.5778 27.518 27.5594 27.5406 27.5363C27.5632 27.5132 27.5809 27.4858 27.5927 27.4557C27.6045 27.4256 27.6102 27.3934 27.6094 27.3611C27.5488 25.0301 26.6104 22.8443 24.9514 21.1884ZM18.5273 18.5273C17.492 18.5273 16.5172 18.1247 15.7876 17.3921C15.4215 17.0288 15.1322 16.5955 14.9372 16.1181C14.7421 15.6406 14.6453 15.1287 14.6523 14.613C14.6614 13.62 15.058 12.6604 15.7513 11.9489C16.4778 11.2042 17.4496 10.7895 18.488 10.7773C19.5143 10.7683 20.5103 11.1679 21.2429 11.8854C21.9937 12.621 22.4054 13.6049 22.4054 14.6523C22.4054 15.6877 22.0027 16.6595 21.2701 17.3921C20.9107 17.7532 20.4832 18.0395 20.0124 18.2344C19.5416 18.4293 19.0369 18.5288 18.5273 18.5273ZM10.9438 15.4516C10.9166 15.1882 10.9015 14.9218 10.9015 14.6523C10.9015 14.171 10.9469 13.7018 11.0316 13.2446C11.0528 13.1356 10.9953 13.0236 10.8954 12.9782C10.4837 12.7936 10.1053 12.5393 9.77832 12.2184C9.39306 11.8448 9.0899 11.395 8.88818 10.8978C8.68645 10.4005 8.5906 9.86666 8.60674 9.33027C8.63398 8.3585 9.02451 7.43516 9.70566 6.73887C10.4534 5.97295 11.4585 5.55518 12.5271 5.56729C13.4929 5.57637 14.4253 5.94873 15.1307 6.60869C15.3698 6.83272 15.5757 7.08096 15.7482 7.34736C15.8088 7.44121 15.9269 7.48057 16.0298 7.44424C16.5626 7.25957 17.1257 7.12939 17.7039 7.06885C17.8734 7.05068 17.9703 6.86904 17.8946 6.71768C16.9107 4.77109 14.9006 3.42695 12.5756 3.39063C9.21826 3.33916 6.421 6.09102 6.421 9.44229C6.421 11.3435 7.2959 13.0388 8.66729 14.1498C7.70459 14.5948 6.81758 15.2094 6.04863 15.9783C4.38965 17.6343 3.45117 19.82 3.39062 22.1541C3.38982 22.1864 3.39548 22.2186 3.40729 22.2486C3.4191 22.2787 3.43681 22.3061 3.45938 22.3293C3.48195 22.3524 3.50893 22.3708 3.53871 22.3833C3.5685 22.3959 3.60049 22.4024 3.63281 22.4023H5.33115C5.46133 22.4023 5.57031 22.2994 5.57334 22.1692C5.63086 20.4134 6.34229 18.7695 7.59258 17.5223C8.48262 16.6322 9.57246 16.0146 10.7622 15.7149C10.8803 15.6847 10.959 15.5727 10.9438 15.4516Z" fill="var(--fill-0, #ED6B52)"/>
</g>
</svg>
