<svg preserveAspectRatio="none" width="100%" height="100%" overflow="visible" style="display: block;" viewBox="0 0 52 52" fill="none" xmlns="http://www.w3.org/2000/svg">
<g id="Frame 1686562621">
<rect width="52" height="52" rx="10" fill="var(--fill-0, #ED6B52)" fill-opacity="0.1"/>
<path id="Vector" fill-rule="evenodd" clip-rule="evenodd" d="M21.25 11C20.8743 11 20.5139 11.1455 20.2483 11.4045C19.9826 11.6635 19.8333 12.0147 19.8333 12.381V15.1429C19.8333 15.5091 19.9826 15.8604 20.2483 16.1193C20.5139 16.3783 20.8743 16.5238 21.25 16.5238C21.6257 16.5238 21.9861 16.3783 22.2517 16.1193C22.5174 15.8604 22.6667 15.5091 22.6667 15.1429V12.381C22.6667 12.0147 22.5174 11.6635 22.2517 11.4045C21.9861 11.1455 21.6257 11 21.25 11ZM19.8333 20.6667H31.1667V23.4286C31.1667 24.8936 30.5696 26.2986 29.5069 27.3345C28.4442 28.3704 27.0029 28.9524 25.5 28.9524C23.9971 28.9524 22.5558 28.3704 21.4931 27.3345C20.4304 26.2986 19.8333 24.8936 19.8333 23.4286V20.6667ZM26.9167 31.5997C28.8975 31.2733 30.6958 30.2735 31.9924 28.7778C33.2891 27.282 34.0003 25.3869 34 23.4286V17.9048H17V23.4286C16.9997 25.3869 17.7109 27.282 19.0076 28.7778C20.3042 30.2735 22.1025 31.2733 24.0833 31.5997V38.619C24.0833 38.9853 24.2326 39.3366 24.4983 39.5955C24.7639 39.8545 25.1243 40 25.5 40C25.8757 40 26.2361 39.8545 26.5017 39.5955C26.7674 39.3366 26.9167 38.9853 26.9167 38.619V31.5997ZM28.3333 12.381C28.3333 12.0147 28.4826 11.6635 28.7483 11.4045C29.0139 11.1455 29.3743 11 29.75 11C30.1257 11 30.4861 11.1455 30.7517 11.4045C31.0174 11.6635 31.1667 12.0147 31.1667 12.381V15.1429C31.1667 15.5091 31.0174 15.8604 30.7517 16.1193C30.4861 16.3783 30.1257 16.5238 29.75 16.5238C29.3743 16.5238 29.0139 16.3783 28.7483 16.1193C28.4826 15.8604 28.3333 15.5091 28.3333 15.1429V12.381Z" fill="var(--fill-0, #ED6B52)"/>
</g>
</svg>
