<svg preserveAspectRatio="none" width="100%" height="100%" overflow="visible" style="display: block;" viewBox="0 0 15.8615 15.8615" fill="none" xmlns="http://www.w3.org/2000/svg">
<path id="Vector" d="M7.93075 0C6.36219 0 4.82886 0.46513 3.52466 1.33657C2.22046 2.20801 1.20395 3.44662 0.603695 4.89578C0.00343626 6.34493 -0.153619 7.93954 0.152391 9.47795C0.4584 11.0164 1.21373 12.4295 2.32286 13.5386C3.432 14.6478 4.84512 15.4031 6.38353 15.7091C7.92195 16.0151 9.51655 15.8581 10.9657 15.2578C12.4149 14.6575 13.6535 13.641 14.5249 12.3368C15.3964 11.0326 15.8615 9.49929 15.8615 7.93074C15.8593 5.82806 15.023 3.81213 13.5362 2.32531C12.0494 0.838491 10.0334 0.00222047 7.93075 0ZM11.4126 6.53219L7.14225 10.8026C7.08559 10.8593 7.01831 10.9043 6.94425 10.935C6.87019 10.9657 6.7908 10.9815 6.71063 10.9815C6.63046 10.9815 6.55108 10.9657 6.47702 10.935C6.40296 10.9043 6.33567 10.8593 6.27902 10.8026L4.44884 8.97241C4.33437 8.85794 4.27006 8.70269 4.27006 8.5408C4.27006 8.37891 4.33437 8.22365 4.44884 8.10918C4.56332 7.99471 4.71857 7.9304 4.88046 7.9304C5.04235 7.9304 5.1976 7.99471 5.31208 8.10918L6.71063 9.5085L10.5494 5.66895C10.6061 5.61227 10.6734 5.56731 10.7474 5.53664C10.8215 5.50596 10.9009 5.49017 10.981 5.49017C11.0612 5.49017 11.1406 5.50596 11.2146 5.53664C11.2887 5.56731 11.356 5.61227 11.4126 5.66895C11.4693 5.72564 11.5143 5.79293 11.545 5.86698C11.5756 5.94104 11.5914 6.02041 11.5914 6.10057C11.5914 6.18073 11.5756 6.2601 11.545 6.33416C11.5143 6.40822 11.4693 6.47551 11.4126 6.53219Z" fill="var(--fill-0, white)"/>
</svg>
