<svg preserveAspectRatio="none" width="100%" height="100%" overflow="visible" style="display: block;" viewBox="0 0 24.7253 24.7253" fill="none" xmlns="http://www.w3.org/2000/svg">
<g id="Frame">
<path id="Vector" d="M3.08976 3.09065V19.5742C3.08976 20.1206 3.30684 20.6447 3.69324 21.0311C4.07965 21.4175 4.60373 21.6346 5.15019 21.6346H21.6337" stroke="var(--stroke-0, #FF5722)" stroke-width="2.06044" stroke-linecap="round" stroke-linejoin="round"/>
<path id="Vector_2" d="M18.543 5.15109H16.4826C15.9136 5.15109 15.4524 5.61233 15.4524 6.18131V16.4835C15.4524 17.0525 15.9136 17.5137 16.4826 17.5137H18.543C19.112 17.5137 19.5732 17.0525 19.5732 16.4835V6.18131C19.5732 5.61233 19.112 5.15109 18.543 5.15109Z" stroke="var(--stroke-0, #FF5722)" stroke-width="2.06044" stroke-linecap="round" stroke-linejoin="round"/>
<path id="Vector_3" d="M10.3013 8.24174H8.24085C7.67187 8.24174 7.21063 8.70299 7.21063 9.27196V16.4835C7.21063 17.0525 7.67187 17.5137 8.24085 17.5137H10.3013C10.8703 17.5137 11.3315 17.0525 11.3315 16.4835V9.27196C11.3315 8.70299 10.8703 8.24174 10.3013 8.24174Z" stroke="var(--stroke-0, #FF5722)" stroke-width="2.06044" stroke-linecap="round" stroke-linejoin="round"/>
</g>
</svg>
