<svg preserveAspectRatio="none" width="100%" height="100%" overflow="visible" style="display: block;" viewBox="0 0 28.1164 28.1164" fill="none" xmlns="http://www.w3.org/2000/svg">
<g id="Frame">
<path id="Vector" d="M18.7443 24.6019V22.2589C18.7443 21.0161 18.2506 19.8241 17.3717 18.9453C16.4929 18.0665 15.301 17.5728 14.0582 17.5728H7.0291C5.78628 17.5728 4.59436 18.0665 3.71555 18.9453C2.83674 19.8241 2.34303 21.0161 2.34303 22.2589V24.6019" stroke="var(--stroke-0, #FF5722)" stroke-width="2.06044" stroke-linecap="round" stroke-linejoin="round"/>
<path id="Vector_2" d="M18.7438 3.66459C19.7486 3.9251 20.6386 4.5119 21.2739 5.3329C21.9092 6.1539 22.2539 7.16261 22.2539 8.2007C22.2539 9.23879 21.9092 10.2475 21.2739 11.0685C20.6386 11.8895 19.7486 12.4763 18.7438 12.7368" stroke="var(--stroke-0, #FF5722)" stroke-width="2.06044" stroke-linecap="round" stroke-linejoin="round"/>
<path id="Vector_3" d="M25.7739 24.6019V22.2589C25.7732 21.2206 25.4276 20.212 24.7915 19.3914C24.1553 18.5708 23.2647 17.9847 22.2594 17.7251" stroke="var(--stroke-0, #FF5722)" stroke-width="2.06044" stroke-linecap="round" stroke-linejoin="round"/>
<path id="Vector_4" d="M10.5424 12.8867C13.1304 12.8867 15.2284 10.7887 15.2284 8.20067C15.2284 5.61263 13.1304 3.51461 10.5424 3.51461C7.95432 3.51461 5.85629 5.61263 5.85629 8.20067C5.85629 10.7887 7.95432 12.8867 10.5424 12.8867Z" stroke="var(--stroke-0, #FF5722)" stroke-width="2.06044" stroke-linecap="round" stroke-linejoin="round"/>
</g>
</svg>
