<svg preserveAspectRatio="none" width="100%" height="100%" overflow="visible" style="display: block;" viewBox="0 0 24.7253 24.7253" fill="none" xmlns="http://www.w3.org/2000/svg">
<g id="Frame">
<path id="Vector" d="M11.873 2.36438C11.9182 2.27316 11.9879 2.19638 12.0744 2.1427C12.1608 2.08902 12.2606 2.06057 12.3624 2.06057C12.4641 2.06057 12.5639 2.08902 12.6504 2.1427C12.7368 2.19638 12.8066 2.27316 12.8517 2.36438L15.2315 7.18477C15.3883 7.50205 15.6197 7.77654 15.9059 7.98469C16.1921 8.19284 16.5246 8.32843 16.8747 8.37983L22.1968 9.15867C22.2977 9.17328 22.3924 9.21582 22.4703 9.28147C22.5483 9.34713 22.6063 9.43328 22.6378 9.53018C22.6693 9.62708 22.6731 9.73086 22.6487 9.82979C22.6243 9.92873 22.5727 10.0189 22.4997 10.09L18.6508 13.8379C18.397 14.0853 18.2071 14.3906 18.0974 14.7277C17.9878 15.0647 17.9617 15.4233 18.0214 15.7727L18.93 21.068C18.9478 21.1688 18.9369 21.2726 18.8986 21.3675C18.8602 21.4624 18.796 21.5446 18.7132 21.6047C18.6304 21.6649 18.5323 21.7006 18.4302 21.7077C18.3281 21.7148 18.2261 21.693 18.1357 21.6449L13.3782 19.1436C13.0647 18.979 12.7159 18.893 12.3618 18.893C12.0078 18.893 11.659 18.979 11.3455 19.1436L6.58901 21.6449C6.49869 21.6927 6.39677 21.7142 6.29483 21.707C6.19289 21.6998 6.09504 21.6641 6.01239 21.6039C5.92974 21.5438 5.86562 21.4617 5.82732 21.367C5.78902 21.2723 5.77808 21.1687 5.79574 21.068L6.70336 15.7737C6.76332 15.4242 6.73734 15.0653 6.62768 14.7281C6.51802 14.3908 6.32796 14.0853 6.0739 13.8379L2.225 10.091C2.15144 10.02 2.09931 9.92968 2.07455 9.83045C2.04979 9.73122 2.0534 9.62703 2.08497 9.52975C2.11654 9.43247 2.17479 9.34601 2.2531 9.28022C2.33141 9.21443 2.42662 9.17196 2.52788 9.15764L7.84897 8.37983C8.19951 8.32883 8.5324 8.19342 8.819 7.98524C9.10561 7.77706 9.33733 7.50236 9.49423 7.18477L11.873 2.36438Z" stroke="var(--stroke-0, #FF5722)" stroke-width="2.06044" stroke-linecap="round" stroke-linejoin="round"/>
</g>
</svg>
