<svg preserveAspectRatio="none" width="100%" height="100%" overflow="visible" style="display: block;" viewBox="0 0 8.91902 8.91902" fill="none" xmlns="http://www.w3.org/2000/svg">
<path id="Vector" d="M8.78834 8.15735C8.82977 8.19878 8.86263 8.24797 8.88506 8.3021C8.90748 8.35623 8.91902 8.41425 8.91902 8.47285C8.91902 8.53144 8.90748 8.58946 8.88506 8.64359C8.86263 8.69772 8.82977 8.74691 8.78834 8.78834C8.74691 8.82977 8.69772 8.86263 8.64359 8.88506C8.58946 8.90748 8.53144 8.91902 8.47285 8.91902C8.41425 8.91902 8.35623 8.90748 8.3021 8.88506C8.24797 8.86263 8.19878 8.82977 8.15735 8.78834L4.45951 5.08994L0.761667 8.78834C0.677993 8.87201 0.564507 8.91902 0.446174 8.91902C0.327841 8.91902 0.214355 8.87201 0.130681 8.78834C0.0470075 8.70467 2.33262e-09 8.59118 0 8.47285C-2.33262e-09 8.35451 0.0470075 8.24103 0.130681 8.15735L3.82908 4.45951L0.130681 0.761667C0.0470075 0.677993 0 0.564507 0 0.446174C0 0.327841 0.0470075 0.214355 0.130681 0.130681C0.214355 0.0470075 0.327841 0 0.446174 0C0.564507 0 0.677993 0.0470075 0.761667 0.130681L4.45951 3.82908L8.15735 0.130681C8.24103 0.0470075 8.35451 -2.33262e-09 8.47285 0C8.59118 2.33262e-09 8.70467 0.0470075 8.78834 0.130681C8.87201 0.214355 8.91902 0.327841 8.91902 0.446174C8.91902 0.564507 8.87201 0.677993 8.78834 0.761667L5.08994 4.45951L8.78834 8.15735Z" fill="var(--fill-0, #ED6B52)"/>
</svg>
