<svg preserveAspectRatio="none" width="100%" height="100%" overflow="visible" style="display: block;" viewBox="0 0 27.2343 27.2343" fill="none" xmlns="http://www.w3.org/2000/svg">
<g id="Frame">
<path id="Vector" d="M3.40329 3.40428V21.5605C3.40329 22.1624 3.6424 22.7396 4.06802 23.1653C4.49364 23.5909 5.0709 23.83 5.67282 23.83H23.829" stroke="var(--stroke-0, #FF5722)" stroke-width="2.26952" stroke-linecap="round" stroke-linejoin="round"/>
<path id="Vector_2" d="M20.4247 5.6738H18.1552C17.5285 5.6738 17.0204 6.18185 17.0204 6.80856V18.1562C17.0204 18.7829 17.5285 19.2909 18.1552 19.2909H20.4247C21.0514 19.2909 21.5595 18.7829 21.5595 18.1562V6.80856C21.5595 6.18185 21.0514 5.6738 20.4247 5.6738Z" stroke="var(--stroke-0, #FF5722)" stroke-width="2.26952" stroke-linecap="round" stroke-linejoin="round"/>
<path id="Vector_3" d="M11.3466 9.07808H9.07709C8.45038 9.07808 7.94233 9.58613 7.94233 10.2128V18.1562C7.94233 18.7829 8.45038 19.2909 9.07709 19.2909H11.3466C11.9733 19.2909 12.4814 18.7829 12.4814 18.1562V10.2128C12.4814 9.58613 11.9733 9.07808 11.3466 9.07808Z" stroke="var(--stroke-0, #FF5722)" stroke-width="2.26952" stroke-linecap="round" stroke-linejoin="round"/>
</g>
</svg>
