<svg preserveAspectRatio="none" width="100%" height="100%" overflow="visible" style="display: block;" viewBox="0 0 28 29" fill="none" xmlns="http://www.w3.org/2000/svg">
<path id="Vector" d="M14 0C6.2804 0 0 6.5047 0 14.5V20.5074C0 21.9922 1.2558 23.2 2.8 23.2H4.2C4.5713 23.2 4.9274 23.0472 5.18995 22.7753C5.4525 22.5034 5.6 22.1346 5.6 21.75V14.2927C5.6 13.9081 5.4525 13.5393 5.18995 13.2673C4.9274 12.9954 4.5713 12.8427 4.2 12.8427H2.9288C3.7072 7.23115 8.3692 2.9 14 2.9C19.6308 2.9 24.2928 7.23115 25.0712 12.8427H23.8C23.4287 12.8427 23.0726 12.9954 22.81 13.2673C22.5475 13.5393 22.4 13.9081 22.4 14.2927V23.2C22.4 24.7994 21.1442 26.1 19.6 26.1H16.8V24.65H11.2V29H19.6C22.6884 29 25.2 26.3987 25.2 23.2C26.7442 23.2 28 21.9922 28 20.5074V14.5C28 6.5047 21.7196 0 14 0Z" fill="var(--fill-0, #ED6B52)"/>
</svg>
