<svg preserveAspectRatio="none" width="100%" height="100%" overflow="visible" style="display: block;" viewBox="0 0 27.2343 27.2343" fill="none" xmlns="http://www.w3.org/2000/svg">
<g id="Frame">
<path id="Vector" d="M13.0778 2.6043C13.1276 2.50383 13.2044 2.41926 13.2996 2.36013C13.3949 2.301 13.5047 2.26967 13.6168 2.26967C13.7289 2.26967 13.8388 2.301 13.9341 2.36013C14.0293 2.41926 14.1061 2.50383 14.1559 2.6043L16.7772 7.91386C16.9498 8.26332 17.2047 8.56567 17.52 8.79494C17.8352 9.02422 18.2014 9.17357 18.5871 9.23018L24.4493 10.0881C24.5604 10.1042 24.6647 10.151 24.7505 10.2233C24.8364 10.2956 24.9003 10.3905 24.935 10.4973C24.9697 10.604 24.9738 10.7183 24.947 10.8273C24.9201 10.9363 24.8633 11.0355 24.7829 11.1139L20.5434 15.2421C20.2638 15.5146 20.0547 15.8509 19.9339 16.2222C19.8131 16.5934 19.7843 16.9884 19.8501 17.3732L20.8509 23.2059C20.8706 23.3169 20.8586 23.4312 20.8163 23.5358C20.7741 23.6403 20.7033 23.7309 20.6121 23.7971C20.5209 23.8634 20.4129 23.9026 20.3004 23.9105C20.188 23.9183 20.0756 23.8944 19.976 23.8414L14.7357 21.0862C14.3904 20.9049 14.0063 20.8101 13.6163 20.8101C13.2263 20.8101 12.8421 20.9049 12.4968 21.0862L7.25764 23.8414C7.15815 23.894 7.04589 23.9177 6.93361 23.9097C6.82133 23.9018 6.71354 23.8624 6.6225 23.7962C6.53147 23.73 6.46084 23.6396 6.41866 23.5352C6.37647 23.4309 6.36442 23.3168 6.38387 23.2059L7.38359 17.3744C7.44963 16.9894 7.42102 16.5941 7.30023 16.2226C7.17944 15.8512 6.9701 15.5147 6.69025 15.2421L2.45078 11.115C2.36976 11.0368 2.31234 10.9373 2.28507 10.828C2.2578 10.7187 2.26178 10.6039 2.29655 10.4968C2.33132 10.3896 2.39548 10.2944 2.48174 10.2219C2.56799 10.1495 2.67286 10.1027 2.7844 10.0869L8.64545 9.23018C9.03156 9.17401 9.39824 9.02485 9.71392 8.79555C10.0296 8.56625 10.2848 8.26367 10.4577 7.91386L13.0778 2.6043Z" stroke="var(--stroke-0, #FF5722)" stroke-width="2.26952" stroke-linecap="round" stroke-linejoin="round"/>
</g>
</svg>
