<svg preserveAspectRatio="none" width="100%" height="100%" overflow="visible" style="display: block;" viewBox="0 0 30.9695 30.9695" fill="none" xmlns="http://www.w3.org/2000/svg">
<g id="Frame">
<path id="Vector" d="M20.6464 27.0984V24.5176C20.6464 23.1487 20.1026 21.8358 19.1346 20.8678C18.1666 19.8999 16.8537 19.356 15.4848 19.356H7.74239C6.37345 19.356 5.06058 19.8999 4.09259 20.8678C3.1246 21.8358 2.5808 23.1487 2.5808 24.5176V27.0984" stroke="var(--stroke-0, #FF5722)" stroke-width="2.26952" stroke-linecap="round" stroke-linejoin="round"/>
<path id="Vector_2" d="M20.6458 4.03646C21.7527 4.3234 22.7329 4.96975 23.4327 5.87406C24.1324 6.77837 24.5121 7.88944 24.5121 9.03287C24.5121 10.1763 24.1324 11.2874 23.4327 12.1917C22.7329 13.096 21.7527 13.7423 20.6458 14.0293" stroke="var(--stroke-0, #FF5722)" stroke-width="2.26952" stroke-linecap="round" stroke-linejoin="round"/>
<path id="Vector_3" d="M28.3894 27.0984V24.5176C28.3885 23.374 28.0079 22.263 27.3072 21.3591C26.6065 20.4552 25.6255 19.8097 24.5182 19.5238" stroke="var(--stroke-0, #FF5722)" stroke-width="2.26952" stroke-linecap="round" stroke-linejoin="round"/>
<path id="Vector_4" d="M11.6122 14.1944C14.4628 14.1944 16.7737 11.8835 16.7737 9.03285C16.7737 6.18218 14.4628 3.87125 11.6122 3.87125C8.76149 3.87125 6.45057 6.18218 6.45057 9.03285C6.45057 11.8835 8.76149 14.1944 11.6122 14.1944Z" stroke="var(--stroke-0, #FF5722)" stroke-width="2.26952" stroke-linecap="round" stroke-linejoin="round"/>
</g>
</svg>
