<svg preserveAspectRatio="none" width="100%" height="100%" overflow="visible" style="display: block;" viewBox="0 0 35.0891 35.0891" fill="none" xmlns="http://www.w3.org/2000/svg">
<g id="logomark">
<path id="Vector" fill-rule="evenodd" clip-rule="evenodd" d="M17.5446 0C15.2569 1.75099e-07 13.2622 1.27696 11.8726 3.18766C11.7881 3.30385 11.7053 3.42288 11.625 3.54403C11.5408 3.52696 11.457 3.50916 11.3731 3.49435C9.04597 3.08371 6.73631 3.54126 5.13829 5.13915C3.5406 6.73719 3.08284 9.04694 3.49349 11.374C3.50831 11.4579 3.52696 11.5417 3.54403 11.6258C3.42293 11.7061 3.3038 11.7881 3.18766 11.8726C1.27702 13.2622 9.96057e-05 15.257 0 17.5446C9.96162e-05 19.8321 1.27702 21.8269 3.18766 23.2165C3.30376 23.301 3.42298 23.383 3.54403 23.4633C3.52689 23.5477 3.50835 23.6318 3.49349 23.716C3.08298 26.043 3.54123 28.3529 5.13915 29.9508C6.73706 31.5484 9.04632 32.0061 11.3731 31.5956C11.4571 31.5808 11.5407 31.5621 11.625 31.5451C11.7054 31.6663 11.788 31.7852 11.8726 31.9014C13.2622 33.8121 15.2569 35.0891 17.5446 35.0891C19.8322 35.0891 21.8269 33.8121 23.2165 31.9014C23.3012 31.785 23.3845 31.6664 23.465 31.5451C23.5489 31.5621 23.6323 31.5808 23.716 31.5956C26.043 32.0061 28.352 31.5477 29.95 29.95C31.5477 28.3521 32.0052 26.0429 31.5948 23.716C31.5799 23.6322 31.5621 23.5482 31.5451 23.4641C31.6663 23.3838 31.7852 23.3011 31.9014 23.2165C33.8121 21.8269 35.089 19.8321 35.0891 17.5446C35.089 15.257 33.8121 13.2622 31.9014 11.8726C31.785 11.7878 31.6656 11.7055 31.5442 11.625C31.5612 11.5409 31.5791 11.4569 31.5939 11.3731C32.0045 9.04606 31.5477 6.73631 29.95 5.13829C28.3519 3.54048 26.0423 3.08368 23.7151 3.49435C23.6317 3.50907 23.5487 3.52708 23.465 3.54403C23.3846 3.42274 23.3011 3.30397 23.2165 3.18766C21.8269 1.27696 19.8322 3.11271e-07 17.5446 0ZM17.5446 28.4533C18.8295 29.6005 20.2473 30.4662 21.6823 31.0199C20.5468 32.5062 19.0811 33.3347 17.5446 33.3347C16.008 33.3347 14.5423 32.5062 13.4068 31.0199C14.8418 30.4662 16.2597 29.6005 17.5446 28.4533ZM29.9183 24.3499C30.1592 26.1473 29.7296 27.6893 28.7095 28.7095C27.6893 29.7295 26.148 30.1582 24.3508 29.9174C24.9448 28.572 25.3162 27.0396 25.413 25.4122C27.0405 25.3152 28.5728 24.9441 29.9183 24.3499ZM5.1717 24.3499C6.5172 24.944 8.04935 25.3153 9.67687 25.4122C9.77381 27.0397 10.1451 28.5719 10.7392 29.9174C8.94184 30.1584 7.39996 29.7303 6.3796 28.7103C5.35924 27.69 4.93062 26.1476 5.1717 24.3499ZM23.2311 21.2685C23.4451 22.0148 23.5907 22.8142 23.6517 23.6517C23.1275 23.6135 22.6184 23.5415 22.1277 23.441C21.9153 23.9895 21.6609 24.5339 21.367 25.0686C22.1003 25.2423 22.8666 25.3585 23.656 25.4087C23.5536 26.9226 23.1793 28.3145 22.6126 29.4942C21.318 29.0416 19.9973 28.2759 18.785 27.2095C19.3846 26.5326 19.9054 25.8187 20.345 25.0858C20.7068 24.4826 21.0144 23.8666 21.2625 23.2465H21.3258C21.3071 23.2413 21.2881 23.2364 21.2693 23.2311C21.4661 22.7366 21.6242 22.2391 21.7457 21.7448C22.2398 21.6233 22.7368 21.4653 23.2311 21.2685ZM22.6126 5.59404C23.1795 6.7738 23.5535 8.16616 23.656 9.68038C22.5757 9.74898 21.5386 9.9396 20.5703 10.2355C19.9136 10.4361 19.2891 10.6857 18.7045 10.9782C18.3196 11.1711 17.9522 11.3824 17.6046 11.6112C17.7386 14.7982 20.2916 17.3509 23.4786 17.4846C23.7355 17.0948 23.971 16.6805 24.182 16.2442C24.7908 16.6092 25.3897 17.0434 25.9647 17.5446C25.6247 17.8409 25.2744 18.1113 24.9205 18.3601C25.1813 18.887 25.4094 19.442 25.6007 20.0204C26.1531 19.6549 26.6922 19.2426 27.2095 18.7842C28.276 19.9963 29.0422 21.3173 29.495 22.6118C28.3154 23.1787 26.9237 23.5526 25.4096 23.6551C25.3514 22.7412 25.2054 21.8577 24.983 21.0209C24.7663 20.2063 24.476 19.4361 24.122 18.725C23.9266 18.3325 23.7118 17.9576 23.4786 17.6037C20.2919 17.7373 17.739 20.2904 17.6046 23.477C17.9944 23.7338 18.4084 23.9701 18.845 24.1811C18.4799 24.7902 18.0459 25.3895 17.5446 25.9647C17.2481 25.6245 16.9779 25.2737 16.729 24.9196C16.202 25.1806 15.6472 25.4085 15.0688 25.5998C15.4344 26.1523 15.8463 26.6919 16.3049 27.2095C15.0928 28.2759 13.7717 29.0412 12.4773 29.4942C11.9106 28.3145 11.5364 26.9228 11.434 25.4087C12.5264 25.3392 13.5747 25.145 14.5522 24.8433C15.1827 24.6489 15.7832 24.4092 16.347 24.1297C16.7459 23.9318 17.1262 23.7136 17.4854 23.477C17.3509 20.291 14.7981 17.7382 11.6121 17.6037C11.3551 17.9937 11.1191 18.4083 10.908 18.845C10.2987 18.4799 9.69898 18.0461 9.12352 17.5446C9.46415 17.2477 9.81486 16.9765 10.1695 16.7273C9.90873 16.2006 9.68047 15.6461 9.48932 15.068C8.93667 15.4333 8.39718 15.8455 7.87963 16.3041C6.81353 15.0921 6.0477 13.7716 5.5949 12.4773C6.77464 11.9105 8.16625 11.5355 9.68038 11.4331C9.74898 12.5136 9.93943 13.5512 10.2355 14.5197C10.4297 15.1554 10.6711 15.7605 10.9517 16.329C11.1518 16.7342 11.3723 17.1202 11.6121 17.4846C14.7984 17.3501 17.3514 14.7977 17.4854 11.6112C17.0954 11.3542 16.6809 11.1182 16.2442 10.9071C16.6092 10.298 17.0432 9.6988 17.5446 9.12352C17.8413 9.46397 18.1126 9.81434 18.3618 10.1686C18.8886 9.90794 19.443 9.67959 20.0211 9.48844C19.6556 8.9357 19.2429 8.39636 18.7842 7.87878C19.9966 6.81234 21.3179 6.04677 22.6126 5.59404ZM7.87878 18.7842C8.53775 19.3681 9.23159 19.8776 9.94417 20.3098C10.5662 20.6873 11.2022 21.0063 11.8426 21.2625V21.3258C11.8477 21.3074 11.8527 21.2886 11.858 21.2702C12.3522 21.4669 12.8494 21.6242 13.3434 21.7457C13.4649 22.2397 13.6231 22.7369 13.8198 23.2311C13.0738 23.4449 12.2752 23.5907 11.4383 23.6517C11.4765 23.1272 11.5485 22.6177 11.649 22.1268C11.1001 21.9144 10.5555 21.6602 10.0205 21.3661C9.84679 22.0995 9.73056 22.8658 9.68038 23.6551C8.16653 23.5527 6.77535 23.1785 5.59576 22.6118C6.04851 21.3175 6.81264 19.9961 7.87878 18.7842ZM31.0199 13.406C32.5064 14.5415 33.3346 16.0079 33.3347 17.5446C33.3346 19.0808 32.5065 20.5469 31.0208 21.6823C30.467 20.2471 29.6007 18.8288 28.4533 17.5437C29.6004 16.2587 30.4664 14.8409 31.0199 13.406ZM4.06917 13.4068C4.62277 14.8417 5.48796 16.2597 6.63489 17.5446C5.48787 18.8294 4.62201 20.2474 4.06832 21.6823C2.58258 20.5469 1.75455 19.0808 1.75446 17.5446C1.75455 16.0081 2.58302 14.5423 4.06917 13.4068ZM25.4096 11.4331C26.9233 11.5356 28.3147 11.9106 29.4942 12.4773C29.0412 13.7714 28.2756 15.0922 27.2095 16.3041C26.5553 15.7245 25.8673 15.2172 25.1603 14.7869C24.5337 14.4057 23.8919 14.0848 23.2465 13.8266V13.7633C23.2413 13.7819 23.2364 13.8011 23.2311 13.8198C22.7371 13.6232 22.2404 13.4649 21.7465 13.3434C21.6251 12.8493 21.4661 12.3523 21.2693 11.858C22.0155 11.6441 22.8145 11.4984 23.6517 11.4374C23.6135 11.9615 23.5423 12.4708 23.4419 12.9614C23.9908 13.1739 24.5353 13.4288 25.0704 13.723C25.2441 12.9895 25.3594 12.2226 25.4096 11.4331ZM12.4773 5.5949C13.7713 6.04779 15.0923 6.81277 16.3041 7.87878C15.7244 8.53297 15.218 9.22159 14.7878 9.92881C14.4064 10.5555 14.0849 11.1971 13.8266 11.8426H13.7658C13.7834 11.8476 13.8013 11.8521 13.8189 11.8571C13.622 12.3516 13.4641 12.8491 13.3426 13.3434C12.8489 13.4648 12.3527 13.6233 11.8589 13.8198C11.645 13.0736 11.4993 12.2746 11.4383 11.4374C11.9627 11.4756 12.4722 11.5459 12.9631 11.6464C13.1756 11.0978 13.4298 10.5535 13.7238 10.0187C12.9903 9.84521 12.2235 9.73056 11.434 9.68038C11.5365 8.16633 11.9106 6.77457 12.4773 5.5949ZM24.3499 5.17084C26.1474 4.92993 27.6893 5.35934 28.7095 6.3796C29.7294 7.3998 30.159 8.94123 29.9183 10.7383C28.5729 10.1443 27.0405 9.7739 25.413 9.67687C25.3161 8.04914 24.9441 6.51646 24.3499 5.17084ZM6.37874 6.3796C7.39928 5.35919 8.94202 4.92954 10.7401 5.17084C10.1458 6.51652 9.7739 8.04904 9.67687 9.67687C8.04952 9.77381 6.5171 10.1443 5.1717 10.7383C4.93099 8.94132 5.35892 7.39976 6.37874 6.3796ZM17.5446 1.75446C19.0808 1.75446 20.5468 2.58252 21.6823 4.06832C20.2473 4.62188 18.8296 5.48787 17.5446 6.63489C16.2598 5.48801 14.8416 4.62278 13.4068 4.06917C14.5423 2.58304 16.0081 1.75446 17.5446 1.75446Z" fill="var(--fill-0, #888888)"/>
</g>
</svg>
