<svg preserveAspectRatio="none" width="100%" height="100%" overflow="visible" style="display: block;" viewBox="0 0 147.738 27.4742" fill="none" xmlns="http://www.w3.org/2000/svg">
<g id="logotype">
<path id="Vector" d="M35.3298 22.3197C36.1544 23.8655 37.7459 24.8391 39.7974 24.8391C41.8486 24.8389 43.4395 23.8654 44.2644 22.3197H47.3496C46.3294 25.4087 43.4958 27.474 39.7974 27.4742C36.0987 27.4742 33.2649 25.4088 32.2441 22.3197H35.3298ZM80.2684 5.92988C84.9704 5.92988 88.2652 9.16422 88.2652 13.8061C88.2652 18.7175 84.6107 21.5032 80.7474 21.5032C78.3526 21.5031 76.3156 20.4248 75.2375 18.5083V27.4322H72.3927V13.8361C72.3927 9.01448 75.6867 5.92988 80.2684 5.92988ZM80.2991 8.56499C77.2745 8.56499 75.2375 10.7215 75.2375 13.7161C75.2375 16.7108 77.2745 18.8672 80.2991 18.8672C83.3537 18.8672 85.3897 16.7109 85.3897 13.7161C85.3897 10.7214 83.3537 8.56499 80.2991 8.56499ZM22.8593 5.92988C27.5311 5.92988 30.8253 9.22405 30.8254 13.7161C30.8254 18.2083 27.5312 21.5032 22.8593 21.5032C18.1875 21.5032 14.8931 18.2083 14.8931 13.7161C14.8933 9.22405 18.1875 5.92988 22.8593 5.92988ZM22.8593 8.56499C19.8047 8.56499 17.7682 10.7214 17.7682 13.7161C17.7682 16.7109 19.8046 18.8672 22.8593 18.8672C25.914 18.8672 27.9505 16.7109 27.9505 13.7161C27.9504 10.7214 25.9139 8.56499 22.8593 8.56499ZM40.1126 5.93673H47.8505V8.48104H45.8557C47.0645 9.83653 47.7636 11.649 47.7636 13.7161C47.7636 18.2082 44.4688 21.503 39.7974 21.5032C35.1255 21.5032 31.8312 18.2083 31.8312 13.7161C31.8313 9.22405 35.1255 5.92988 39.7974 5.92988C39.9032 5.92988 40.0083 5.93339 40.1126 5.93673ZM39.7974 8.56499C36.7428 8.56499 34.7063 10.7214 34.7062 13.7161C34.7062 16.7109 36.7427 18.8672 39.7974 18.8672C42.8518 18.8671 44.8872 16.7107 44.8872 13.7161C44.8872 10.7216 42.8517 8.56516 39.7974 8.56499ZM56.7342 5.92988C61.4063 5.92988 64.7003 9.22405 64.7003 13.7161C64.7003 18.2083 61.4063 21.5032 56.7342 21.5032C52.0629 21.5032 48.7681 18.2083 48.7681 13.7161C48.7681 9.22405 52.0629 5.92988 56.7342 5.92988ZM56.7342 8.56499C53.6797 8.56499 51.6436 10.7214 51.6436 13.7161C51.6436 16.7109 53.6797 18.8672 56.7342 18.8672C59.7896 18.8672 61.8256 16.7109 61.8256 13.7161C61.8256 10.7214 59.7887 8.56499 56.7342 8.56499ZM95.4568 5.92988C98.9911 5.92997 101.177 7.93672 101.237 10.4822H98.4209C98.3314 9.34423 97.284 8.50507 95.4875 8.50499C93.6005 8.50499 92.5224 9.40414 92.5224 10.5722C92.5224 11.9793 94.0795 12.129 95.9059 12.3686C98.4814 12.698 101.625 13.1773 101.626 16.5611C101.626 19.5558 99.2008 21.503 95.4875 21.5032C91.7733 21.5032 89.4372 19.5262 89.3478 16.8309H92.2224C92.2821 18.0588 93.4207 18.9272 95.4875 18.9272C97.6428 18.9271 98.7507 17.9989 98.7507 16.8309C98.7507 15.4234 97.1937 15.2432 95.3375 15.0037C92.7619 14.6743 89.6469 14.1953 89.6469 10.8111C89.6469 7.90628 91.9233 5.92988 95.4568 5.92988ZM106.13 14.045C106.13 17.2495 107.898 18.8672 110.592 18.8672C113.288 18.8672 115.055 17.2495 115.055 14.045V6.31876H117.9V14.045C117.9 18.9565 114.965 21.5023 110.592 21.5023C106.22 21.5023 103.285 18.9865 103.285 14.045V6.31876H106.13V14.045ZM3.05486 18.2984H14.0459V21.1135H0V1.52744H3.05486V18.2984ZM69.6891 21.1135H66.8442V6.31876H69.6891V21.1135ZM136.637 5.92988C140.111 5.92988 142.747 8.02637 142.747 12.5485V21.1135H139.902V12.5485C139.902 9.79346 138.435 8.56508 136.368 8.56499C134.362 8.56499 132.864 9.85311 132.864 12.5485V21.1135H130.019V12.5485C130.019 9.85311 128.491 8.56499 126.485 8.56499C124.418 8.56499 122.951 9.79337 122.951 12.5485V21.1135H120.106V12.5485C120.106 8.02637 122.742 5.92988 126.216 5.92988C128.491 5.92997 130.408 6.94826 131.426 8.86482C132.444 6.94817 134.331 5.92988 136.637 5.92988ZM68.2513 0C69.3891 0 70.2286 0.838428 70.2286 1.97633C70.2286 3.11433 69.3899 3.98349 68.2513 3.98349C67.1135 3.9834 66.2749 3.11425 66.2749 1.97633C66.2749 0.838507 67.1135 0.00011404 68.2513 0ZM145.106 0.877228C145.622 0.877228 146.066 1.47 146.282 2.33271C147.145 2.5486 147.738 2.99345 147.738 3.50891C147.738 4.02428 147.145 4.46833 146.282 4.68422C146.066 5.54741 145.622 6.14059 145.106 6.14059C144.591 6.14059 144.146 5.5475 143.931 4.68422C143.067 4.46825 142.474 4.02419 142.474 3.50891C142.474 2.99363 143.067 2.54867 143.931 2.33271C144.146 1.46988 144.591 0.877228 145.106 0.877228Z" fill="var(--fill-0, #888888)"/>
</g>
</svg>
