<svg preserveAspectRatio="none" width="100%" height="100%" overflow="visible" style="display: block;" viewBox="0 0 15.8615 23.8615" fill="none" xmlns="http://www.w3.org/2000/svg">
<g id="Frame 2147226873">
<path id="Vector" d="M7.93075 4C6.36219 4 4.82886 4.46513 3.52466 5.33657C2.22046 6.20801 1.20395 7.44662 0.603695 8.89578C0.00343627 10.3449 -0.153619 11.9395 0.152391 13.478C0.4584 15.0164 1.21373 16.4295 2.32286 17.5386C3.432 18.6478 4.84512 19.4031 6.38353 19.7091C7.92195 20.0151 9.51655 19.8581 10.9657 19.2578C12.4149 18.6575 13.6535 17.641 14.5249 16.3368C15.3964 15.0326 15.8615 13.4993 15.8615 11.9307C15.8593 9.82806 15.023 7.81213 13.5362 6.32531C12.0494 4.83849 10.0334 4.00222 7.93075 4ZM11.4126 10.5322L7.14225 14.8026C7.08559 14.8593 7.01831 14.9043 6.94425 14.935C6.87019 14.9657 6.7908 14.9815 6.71063 14.9815C6.63046 14.9815 6.55108 14.9657 6.47702 14.935C6.40296 14.9043 6.33567 14.8593 6.27902 14.8026L4.44884 12.9724C4.33437 12.8579 4.27006 12.7027 4.27006 12.5408C4.27006 12.3789 4.33437 12.2237 4.44884 12.1092C4.56332 11.9947 4.71857 11.9304 4.88046 11.9304C5.04235 11.9304 5.1976 11.9947 5.31208 12.1092L6.71063 13.5085L10.5494 9.66895C10.6061 9.61227 10.6734 9.56731 10.7474 9.53664C10.8215 9.50596 10.9009 9.49017 10.981 9.49017C11.0612 9.49017 11.1406 9.50596 11.2146 9.53664C11.2887 9.56731 11.356 9.61227 11.4126 9.66895C11.4693 9.72564 11.5143 9.79293 11.545 9.86698C11.5756 9.94104 11.5914 10.0204 11.5914 10.1006C11.5914 10.1807 11.5756 10.2601 11.545 10.3342C11.5143 10.4082 11.4693 10.4755 11.4126 10.5322Z" fill="url(#paint0_linear_0_8)"/>
</g>
<defs>
<linearGradient id="paint0_linear_0_8" x1="7.93074" y1="4" x2="7.93074" y2="19.8615" gradientUnits="userSpaceOnUse">
<stop stop-color="#DF8251"/>
<stop offset="1" stop-color="#D54050"/>
</linearGradient>
</defs>
</svg>
