<svg preserveAspectRatio="none" width="100%" height="100%" overflow="visible" style="display: block;" viewBox="0 0 24 24" fill="none" xmlns="http://www.w3.org/2000/svg">
<path id="Vector" d="M19.0703 0.251953C19.9944 0.221638 20.8955 0.543917 21.5908 1.15332L21.7715 1.32324L22.6836 2.23437C23.3373 2.88815 23.7176 3.76645 23.748 4.69043C23.7784 5.61155 23.4581 6.50963 22.8525 7.2041L22.6836 7.38574L8.13379 21.9355C7.95627 22.113 7.74118 22.2476 7.50488 22.332L7.31543 22.3887L1.53516 23.7227C1.37166 23.7607 1.20074 23.7593 1.03809 23.7178C0.875667 23.6763 0.725729 23.5959 0.600586 23.4844C0.475307 23.3727 0.378142 23.232 0.318359 23.0752C0.259278 22.92 0.237717 22.7529 0.255859 22.5879L0.27832 22.4639L1.61035 16.6836C1.66723 16.4387 1.77824 16.2096 1.93457 16.0127L2.06445 15.8662L16.6133 1.31738C17.2672 0.663384 18.146 0.282394 19.0703 0.251953ZM15.3428 5.55078L3.67676 17.2158L3.62598 17.2666L3.60938 17.3369L2.78418 20.915L2.69434 21.3047L3.08398 21.2148L6.66309 20.3887L6.7334 20.3721L18.4492 8.65625L18.627 8.47949L18.4492 8.30273L15.6963 5.55078L15.5195 5.37402L15.3428 5.55078ZM19.2871 2.34863C18.9111 2.32504 18.5389 2.43899 18.2412 2.66992L18.2295 2.67969L18.1074 2.78809L18.1016 2.79297L18.0967 2.79883L17.1777 3.71582L17 3.89258L17.1777 4.06934L19.9307 6.82129L20.1074 6.99805L20.2842 6.82129L21.2021 5.9043C21.4686 5.63785 21.6287 5.28326 21.6523 4.90723C21.676 4.53112 21.5611 4.15909 21.3301 3.86133L21.3203 3.84961L21.2129 3.72754L21.207 3.72168L21.2021 3.71582L20.2842 2.79883C20.0177 2.53237 19.6632 2.37228 19.2871 2.34863Z" fill="var(--fill-0, #ED6B52)" stroke="var(--stroke-0, #FFF6F3)" stroke-width="0.5"/>
</svg>
