<svg preserveAspectRatio="none" width="100%" height="100%" overflow="visible" style="display: block;" viewBox="0 0 397.38 315.42" fill="none" xmlns="http://www.w3.org/2000/svg">
<g id="Group 118">
<path id="Vector" d="M361.78 234.17L372.56 244.95L302.09 315.42H320.49L381.76 254.15L392.9 265.28L397.38 229.69L361.78 234.17Z" fill="url(#paint0_linear_0_4)"/>
<g id="Group" opacity="0.3">
<path id="Vector_2" d="M361.78 234.17L372.56 244.95L302.09 315.42H320.49L381.76 254.15L392.9 265.28L397.38 229.69L361.78 234.17Z" fill="var(--fill-0, #E2E2E2)"/>
</g>
<path id="Vector_3" d="M91.31 202.55L102.09 213.34L0 315.42H18.39L111.29 222.54L122.43 233.67L126.91 198.07L91.31 202.55Z" fill="url(#paint1_linear_0_4)"/>
<g id="Group_2" opacity="0.3">
<path id="Vector_4" d="M91.31 202.55L102.09 213.34L0 315.42H18.39L111.29 222.54L122.43 233.67L126.91 198.07L91.31 202.55Z" fill="var(--fill-0, #E2E2E2)"/>
</g>
<path id="Vector_5" d="M134.479 12.16L137.389 11.33L135.529 4.87L132.169 5.87C131.207 4.78073 130.001 3.93438 128.649 3.4V0H121.929V3.4C120.875 3.8179 119.906 4.42448 119.069 5.18999L116.069 3.75L113.129 9.75L116.079 11.19C116.079 11.43 116.079 11.68 116.079 11.92C116.079 13.492 116.482 15.0377 117.249 16.41L115.039 19.18L120.289 23.37L122.439 20.68C123.359 20.9783 124.321 21.1302 125.289 21.13C125.996 21.1287 126.701 21.0448 127.389 20.88L129.329 23.61L134.809 19.72L132.919 17.06C133.898 15.6101 134.44 13.9092 134.479 12.16ZM119.239 11.92C119.239 10.7354 119.59 9.57742 120.247 8.59184C120.904 7.60625 121.838 6.83723 122.931 6.38167C124.025 5.92611 125.229 5.8044 126.391 6.03189C127.554 6.25938 128.623 6.82588 129.464 7.66C130.305 8.49412 130.88 9.55854 131.117 10.7191C131.355 11.8797 131.243 13.0845 130.796 14.1817C130.35 15.2789 129.589 16.2193 128.609 16.8846C127.629 17.5499 126.473 17.9101 125.289 17.92C123.694 17.9174 122.164 17.2861 121.031 16.1628C119.899 15.0396 119.255 13.5151 119.239 11.92Z" fill="url(#paint2_linear_0_4)"/>
<path id="Vector_6" opacity="0.9" d="M134.479 12.16L137.389 11.33L135.529 4.87L132.169 5.87C131.207 4.78073 130.001 3.93438 128.649 3.4V0H121.929V3.4C120.875 3.8179 119.906 4.42448 119.069 5.18999L116.069 3.75L113.129 9.75L116.079 11.19C116.079 11.43 116.079 11.68 116.079 11.92C116.079 13.492 116.482 15.0377 117.249 16.41L115.039 19.18L120.289 23.37L122.439 20.68C123.359 20.9783 124.321 21.1302 125.289 21.13C125.996 21.1287 126.701 21.0448 127.389 20.88L129.329 23.61L134.809 19.72L132.919 17.06C133.898 15.6101 134.44 13.9092 134.479 12.16ZM119.239 11.92C119.239 10.7354 119.59 9.57742 120.247 8.59184C120.904 7.60625 121.838 6.83723 122.931 6.38167C124.025 5.92611 125.229 5.8044 126.391 6.03189C127.554 6.25938 128.623 6.82588 129.464 7.66C130.305 8.49412 130.88 9.55854 131.117 10.7191C131.355 11.8797 131.243 13.0845 130.796 14.1817C130.35 15.2789 129.589 16.2193 128.609 16.8846C127.629 17.5499 126.473 17.9101 125.289 17.92C123.694 17.9174 122.164 17.2861 121.031 16.1628C119.899 15.0396 119.255 13.5151 119.239 11.92Z" fill="var(--fill-0, #E2E2E2)"/>
<path id="Vector_7" d="M279.259 138.73L282.159 137.9L280.309 131.49L276.949 132.49C275.987 131.401 274.781 130.554 273.429 130.02V126.49H266.679V129.89C265.623 130.305 264.654 130.912 263.819 131.68L260.819 130.24L257.879 136.24L260.879 137.68C260.879 137.92 260.879 138.16 260.879 138.41C260.874 139.983 261.277 141.53 262.049 142.9L259.829 145.67L265.089 149.86L267.239 147.17C268.159 147.468 269.121 147.62 270.089 147.62C270.796 147.618 271.501 147.534 272.189 147.37L274.129 150.1L279.609 146.21L277.679 143.62C278.663 142.175 279.212 140.478 279.259 138.73ZM264.019 138.49C264.029 137.308 264.388 136.155 265.051 135.176C265.714 134.197 266.651 133.435 267.746 132.987C268.84 132.539 270.042 132.425 271.202 132.658C272.361 132.891 273.425 133.461 274.261 134.298C275.097 135.134 275.668 136.198 275.901 137.357C276.134 138.517 276.019 139.719 275.572 140.813C275.124 141.907 274.362 142.845 273.383 143.508C272.404 144.171 271.251 144.53 270.069 144.54C269.273 144.547 268.483 144.395 267.746 144.093C267.009 143.791 266.339 143.346 265.776 142.783C265.213 142.22 264.768 141.55 264.466 140.813C264.164 140.076 264.012 139.286 264.019 138.49Z" fill="url(#paint3_linear_0_4)"/>
<path id="Vector_8" opacity="0.9" d="M279.259 138.73L282.159 137.9L280.309 131.49L276.949 132.49C275.987 131.401 274.781 130.554 273.429 130.02V126.49H266.679V129.89C265.623 130.305 264.654 130.912 263.819 131.68L260.819 130.24L257.879 136.24L260.879 137.68C260.879 137.92 260.879 138.16 260.879 138.41C260.874 139.983 261.277 141.53 262.049 142.9L259.829 145.67L265.089 149.86L267.239 147.17C268.159 147.468 269.121 147.62 270.089 147.62C270.796 147.618 271.501 147.534 272.189 147.37L274.129 150.1L279.609 146.21L277.679 143.62C278.663 142.175 279.212 140.478 279.259 138.73ZM264.019 138.49C264.029 137.308 264.388 136.155 265.051 135.176C265.714 134.197 266.651 133.435 267.746 132.987C268.84 132.539 270.042 132.425 271.202 132.658C272.361 132.891 273.425 133.461 274.261 134.298C275.097 135.134 275.668 136.198 275.901 137.357C276.134 138.517 276.019 139.719 275.572 140.813C275.124 141.907 274.362 142.845 273.383 143.508C272.404 144.171 271.251 144.53 270.069 144.54C269.273 144.547 268.483 144.395 267.746 144.093C267.009 143.791 266.339 143.346 265.776 142.783C265.213 142.22 264.768 141.55 264.466 140.813C264.164 140.076 264.012 139.286 264.019 138.49Z" fill="var(--fill-0, #E2E2E2)"/>
<path id="Vector_9" d="M350.18 139.67L345.7 175.26L335.15 164.71L230.88 268.97H123.6L77.1398 315.42H58.7598L118.21 255.97H225.5L325.95 155.51L314.59 144.15L350.18 139.67Z" fill="url(#paint4_linear_0_4)"/>
<path id="Vector_10" d="M166.76 148.39V142.12C166.76 142.017 166.801 141.917 166.874 141.844C166.947 141.771 167.046 141.73 167.15 141.73H170.56V140.73H167.16C166.788 140.73 166.432 140.877 166.17 141.14C165.907 141.403 165.76 141.759 165.76 142.13V148.39H166.76Z" fill="var(--fill-0, #B6B6B6)"/>
<path id="Vector_11" d="M190.271 142.07V148.39H191.271V142.12C191.271 141.749 191.123 141.393 190.861 141.13C190.598 140.867 190.242 140.72 189.871 140.72H186.471V141.72H189.871C189.969 141.719 190.064 141.754 190.137 141.819C190.211 141.883 190.258 141.973 190.271 142.07Z" fill="var(--fill-0, #B6B6B6)"/>
<path id="Vector_12" d="M204.61 150.99V182.59C204.61 183.295 204.329 183.972 203.831 184.471C203.332 184.97 202.655 185.25 201.95 185.25H156.34C155.635 185.247 154.96 184.966 154.462 184.468C153.963 183.97 153.682 183.295 153.68 182.59V150.99C153.682 150.286 153.964 149.612 154.462 149.116C154.961 148.619 155.636 148.34 156.34 148.34H201.95C202.299 148.339 202.644 148.406 202.967 148.539C203.29 148.671 203.583 148.866 203.83 149.113C204.077 149.359 204.273 149.651 204.407 149.974C204.541 150.296 204.61 150.641 204.61 150.99Z" fill="var(--fill-0, #263238)"/>
<g id="Group_3" opacity="0.99">
<path id="Vector_13" d="M204.61 150.99V182.59C204.61 183.295 204.329 183.972 203.831 184.471C203.332 184.97 202.655 185.25 201.95 185.25H156.34C155.635 185.247 154.96 184.966 154.462 184.468C153.963 183.97 153.682 183.295 153.68 182.59V150.99C153.682 150.286 153.964 149.612 154.462 149.116C154.961 148.619 155.636 148.34 156.34 148.34H201.95C202.299 148.339 202.644 148.406 202.967 148.539C203.29 148.671 203.583 148.866 203.83 149.113C204.077 149.359 204.273 149.651 204.407 149.974C204.541 150.296 204.61 150.641 204.61 150.99Z" fill="var(--fill-0, #E2E2E2)"/>
</g>
<path id="Vector_14" opacity="0.99" d="M197.92 148.34H195.9V185.25H197.92V148.34Z" fill="var(--fill-0, #B5B5B5)"/>
<path id="Vector_15" opacity="0.99" d="M162.401 148.34H160.381V185.25H162.401V148.34Z" fill="var(--fill-0, #B5B5B5)"/>
<path id="Vector_16" d="M187.52 139.49H169.15V142.86H187.52V139.49Z" fill="var(--fill-0, #263238)"/>
<path id="Vector_17" opacity="0.99" d="M187.52 139.49H169.15V142.86H187.52V139.49Z" fill="var(--fill-0, #E2E2E2)"/>
</g>
<defs>
<linearGradient id="paint0_linear_0_4" x1="349.735" y1="229.69" x2="349.735" y2="315.42" gradientUnits="userSpaceOnUse">
<stop stop-color="#DF8251"/>
<stop offset="1" stop-color="#D54050"/>
</linearGradient>
<linearGradient id="paint1_linear_0_4" x1="63.455" y1="198.07" x2="63.455" y2="315.42" gradientUnits="userSpaceOnUse">
<stop stop-color="#DF8251"/>
<stop offset="1" stop-color="#D54050"/>
</linearGradient>
<linearGradient id="paint2_linear_0_4" x1="125.259" y1="0" x2="125.259" y2="23.61" gradientUnits="userSpaceOnUse">
<stop stop-color="#DF8251"/>
<stop offset="1" stop-color="#D54050"/>
</linearGradient>
<linearGradient id="paint3_linear_0_4" x1="270.019" y1="126.49" x2="270.019" y2="150.1" gradientUnits="userSpaceOnUse">
<stop stop-color="#DF8251"/>
<stop offset="1" stop-color="#D54050"/>
</linearGradient>
<linearGradient id="paint4_linear_0_4" x1="204.47" y1="139.67" x2="204.47" y2="315.42" gradientUnits="userSpaceOnUse">
<stop stop-color="#DF8251"/>
<stop offset="1" stop-color="#D54050"/>
</linearGradient>
</defs>
</svg>
