<svg preserveAspectRatio="none" width="100%" height="100%" overflow="visible" style="display: block;" viewBox="0 0 34.1169 24.0082" fill="none" xmlns="http://www.w3.org/2000/svg">
<path id="Vector" d="M33.9352 13.6475C33.0518 19.511 26.9975 23.1843 22.614 23.9958C22.1886 24.074 21.7836 23.7748 21.7092 23.3275C21.6973 23.2558 21.6944 23.1828 21.7008 23.1103L21.8572 21.1652C21.881 20.8028 22.1328 20.5022 22.4717 20.4318C27.1977 19.5891 30.0098 12.1405 27.1163 13.0326C24.1103 13.9575 19.7854 12.647 19.0521 8.32992C18.3187 4.01287 21.4717 0.00164377 26.7528 0.00164377C32.0339 0.00164377 34.8882 7.32608 33.9352 13.6475ZM7.80352 0C2.5248 0 -0.627422 4.00875 0.105125 8.32663C0.837672 12.6445 5.16416 13.9542 8.17018 13.0293C11.0628 12.1389 8.24836 19.5875 3.5255 20.4285C3.18639 20.4984 2.93429 20.7993 2.91101 21.1619L2.75465 23.107C2.71495 23.5592 3.03131 23.9595 3.46126 24.0013C3.53017 24.008 3.59962 24.005 3.66779 23.9925C8.05057 23.1819 14.1048 19.5077 14.9891 13.6442C15.9413 7.32608 13.0822 0.00164377 7.80352 0.00164377L7.80352 0Z" fill="var(--fill-0, white)"/>
</svg>
