<svg preserveAspectRatio="none" width="100%" height="100%" overflow="visible" style="display: block;" viewBox="0 0 22 14" fill="none" xmlns="http://www.w3.org/2000/svg">
<path id="Vector" d="M22 0.777754V6.99978C22 7.20606 21.9172 7.40388 21.7699 7.54974C21.6225 7.6956 21.4227 7.77754 21.2143 7.77754C21.0059 7.77754 20.8061 7.6956 20.6587 7.54974C20.5114 7.40388 20.4286 7.20606 20.4286 6.99978V2.65506L12.3418 10.6611C12.2688 10.7334 12.1822 10.7907 12.0868 10.8299C11.9914 10.869 11.8892 10.8892 11.7859 10.8892C11.6827 10.8892 11.5804 10.869 11.485 10.8299C11.3897 10.7907 11.303 10.7334 11.23 10.6611L7.85742 7.32158L1.34202 13.7721C1.19459 13.918 0.994632 14 0.786136 14C0.577639 14 0.377683 13.918 0.230254 13.7721C0.0828248 13.6261 0 13.4282 0 13.2218C0 13.0154 0.0828248 12.8175 0.230254 12.6716L7.30154 5.67177C7.37451 5.59946 7.46117 5.54209 7.55655 5.50295C7.65193 5.46381 7.75417 5.44366 7.85742 5.44366C7.96068 5.44366 8.06292 5.46381 8.1583 5.50295C8.25368 5.54209 8.34034 5.59946 8.41331 5.67177L11.7859 9.01125L19.3178 1.55551H14.9287C14.7203 1.55551 14.5205 1.47357 14.3731 1.32771C14.2258 1.18185 14.143 0.984027 14.143 0.777754C14.143 0.571481 14.2258 0.373656 14.3731 0.227799C14.5205 0.0819418 14.7203 0 14.9287 0H21.2143C21.4227 0 21.6225 0.0819418 21.7699 0.227799C21.9172 0.373656 22 0.571481 22 0.777754Z" fill="var(--fill-0, white)"/>
</svg>
