<svg preserveAspectRatio="none" width="100%" height="100%" overflow="visible" style="display: block;" viewBox="0 0 16 14" fill="none" xmlns="http://www.w3.org/2000/svg">
<path id="Vector" d="M15.3846 12.7826H14.7692V0.608696C14.7692 0.44726 14.7044 0.292436 14.589 0.178283C14.4736 0.0641304 14.3171 0 14.1538 0H9.84615C9.68294 0 9.52642 0.0641304 9.41101 0.178283C9.2956 0.292436 9.23077 0.44726 9.23077 0.608696V3.65217H5.53846C5.37525 3.65217 5.21873 3.7163 5.10332 3.83046C4.98791 3.94461 4.92308 4.09943 4.92308 4.26087V7.30435H1.84615C1.68294 7.30435 1.52642 7.36848 1.41101 7.48263C1.2956 7.59678 1.23077 7.75161 1.23077 7.91304V12.7826H0.615385C0.452174 12.7826 0.295649 12.8467 0.180242 12.9609C0.064835 13.075 0 13.2299 0 13.3913C0 13.5527 0.064835 13.7076 0.180242 13.8217C0.295649 13.9359 0.452174 14 0.615385 14H15.3846C15.5478 14 15.7044 13.9359 15.8198 13.8217C15.9352 13.7076 16 13.5527 16 13.3913C16 13.2299 15.9352 13.075 15.8198 12.9609C15.7044 12.8467 15.5478 12.7826 15.3846 12.7826ZM10.4615 1.21739H13.5385V12.7826H10.4615V1.21739ZM6.15385 4.86957H9.23077V12.7826H6.15385V4.86957ZM2.46154 8.52174H4.92308V12.7826H2.46154V8.52174Z" fill="var(--fill-0, white)"/>
</svg>
