<svg preserveAspectRatio="none" width="100%" height="100%" overflow="visible" style="display: block;" viewBox="0 0 13 14" fill="none" xmlns="http://www.w3.org/2000/svg">
<path id="Vector" d="M11.9167 0H1.08333C0.796015 0 0.520465 0.117999 0.317301 0.328039C0.114137 0.53808 0 0.822955 0 1.12V5.03999C0 8.73038 1.72792 10.9669 3.17755 12.1933C4.73891 13.5135 6.29214 13.9615 6.35984 13.9804C6.45294 14.0065 6.55112 14.0065 6.64422 13.9804C6.71193 13.9615 8.26313 13.5135 9.82651 12.1933C11.2721 10.9669 13 8.73038 13 5.03999V1.12C13 0.822955 12.8859 0.53808 12.6827 0.328039C12.4795 0.117999 12.204 0 11.9167 0ZM11.9167 5.03999C11.9167 7.63488 10.9918 9.74117 9.16771 11.2994C8.37368 11.9754 7.47063 12.5014 6.5 12.8534C5.54207 12.5075 4.65017 11.9908 3.86479 11.3267C2.01906 9.76567 1.08333 7.65098 1.08333 5.03999V1.12H11.9167V5.03999ZM3.40844 7.11618C3.3068 7.0111 3.2497 6.86858 3.2497 6.71998C3.2497 6.57138 3.3068 6.42886 3.40844 6.32378C3.51008 6.2187 3.64793 6.15967 3.79167 6.15967C3.93541 6.15967 4.07326 6.2187 4.1749 6.32378L5.41667 7.60828L8.8251 4.08379C8.87543 4.03176 8.93518 3.99049 9.00093 3.96233C9.06669 3.93417 9.13716 3.91968 9.20833 3.91968C9.27951 3.91968 9.34998 3.93417 9.41574 3.96233C9.48149 3.99049 9.54124 4.03176 9.59156 4.08379C9.64189 4.13582 9.68181 4.19759 9.70905 4.26557C9.73628 4.33355 9.7503 4.40641 9.7503 4.47999C9.7503 4.55357 9.73628 4.62643 9.70905 4.69441C9.68181 4.76239 9.64189 4.82416 9.59156 4.87619L5.7999 8.79618C5.74959 8.84824 5.68985 8.88955 5.62409 8.91773C5.55834 8.94591 5.48785 8.96042 5.41667 8.96042C5.34548 8.96042 5.275 8.94591 5.20924 8.91773C5.14348 8.88955 5.08374 8.84824 5.03344 8.79618L3.40844 7.11618Z" fill="var(--fill-0, white)"/>
</svg>
