<svg preserveAspectRatio="none" width="100%" height="100%" overflow="visible" style="display: block;" viewBox="0 0 14 14" fill="none" xmlns="http://www.w3.org/2000/svg">
<path id="Vector" d="M7 0C5.61553 0 4.26215 0.410543 3.11101 1.17971C1.95987 1.94888 1.06266 3.04213 0.532846 4.32122C0.00303299 5.6003 -0.13559 7.00776 0.134506 8.36563C0.404603 9.7235 1.07129 10.9708 2.05026 11.9497C3.02922 12.9287 4.2765 13.5954 5.63437 13.8655C6.99224 14.1356 8.3997 13.997 9.67879 13.4672C10.9579 12.9373 12.0511 12.0401 12.8203 10.889C13.5895 9.73785 14 8.38447 14 7C13.9979 5.14414 13.2597 3.3649 11.9474 2.05261C10.6351 0.740322 8.85586 0.00213768 7 0ZM12.9231 7C12.9235 7.54624 12.8481 8.0899 12.6989 8.61538H10.1069C10.2721 7.54479 10.2721 6.45521 10.1069 5.38461H12.6989C12.8481 5.9101 12.9235 6.45376 12.9231 7ZM5.25 9.69231H8.75C8.40519 10.8221 7.8066 11.8581 7 12.7212C6.19371 11.8579 5.59516 10.822 5.25 9.69231ZM4.9875 8.61538C4.80264 7.54639 4.80264 6.4536 4.9875 5.38461H9.01789C9.20275 6.4536 9.20275 7.54639 9.01789 8.61538H4.9875ZM1.07693 7C1.07646 6.45376 1.15189 5.9101 1.30106 5.38461H3.89308C3.72795 6.45521 3.72795 7.54479 3.89308 8.61538H1.30106C1.15189 8.0899 1.07646 7.54624 1.07693 7ZM8.75 4.30769H5.25C5.59481 3.17787 6.1934 2.14185 7 1.27885C7.8063 2.14208 8.40484 3.17802 8.75 4.30769ZM12.2722 4.30769H9.87471C9.57254 3.19907 9.06325 2.15767 8.37375 1.23846C9.20683 1.43859 9.98678 1.81648 10.6601 2.34625C11.3335 2.87601 11.8843 3.54512 12.2749 4.30769H12.2722ZM5.62625 1.23846C4.93675 2.15767 4.42747 3.19907 4.12529 4.30769H1.7251C2.11567 3.54512 2.66651 2.87601 3.33987 2.34625C4.01323 1.81648 4.79318 1.43859 5.62625 1.23846ZM1.7251 9.69231H4.12529C4.42747 10.8009 4.93675 11.8423 5.62625 12.7615C4.79318 12.5614 4.01323 12.1835 3.33987 11.6537C2.66651 11.124 2.11567 10.4549 1.7251 9.69231ZM8.37375 12.7615C9.06325 11.8423 9.57254 10.8009 9.87471 9.69231H12.2749C11.8843 10.4549 11.3335 11.124 10.6601 11.6537C9.98678 12.1835 9.20683 12.5614 8.37375 12.7615Z" fill="var(--fill-0, white)"/>
</svg>
