<svg preserveAspectRatio="none" width="100%" height="100%" overflow="visible" style="display: block;" viewBox="0 0 22 14" fill="none" xmlns="http://www.w3.org/2000/svg">
<path id="Vector" d="M10.0628 9.61291C11.0003 8.98879 11.7121 8.07956 12.0929 7.01965C12.4737 5.95975 12.5032 4.80544 12.1772 3.72744C11.8512 2.64944 11.1868 1.70497 10.2825 1.0337C9.37811 0.362433 8.28172 0 7.15543 0C6.02913 0 4.93274 0.362433 4.02838 1.0337C3.12401 1.70497 2.45969 2.64944 2.13366 3.72744C1.80762 4.80544 1.83718 5.95975 2.21796 7.01965C2.59873 8.07956 3.31052 8.98879 4.24805 9.61291C2.55215 10.2379 1.1038 11.3945 0.119139 12.9101C0.0673886 12.987 0.0314426 13.0734 0.0133905 13.1643C-0.00466149 13.2552 -0.00445938 13.3488 0.0139851 13.4397C0.0324296 13.5305 0.0687486 13.6168 0.120831 13.6935C0.172913 13.7702 0.23972 13.8358 0.317368 13.8864C0.395016 13.937 0.481956 13.9717 0.573134 13.9885C0.664313 14.0052 0.757912 14.0037 0.848489 13.984C0.939067 13.9642 1.02482 13.9267 1.10076 13.8735C1.17669 13.8203 1.2413 13.7526 1.29083 13.6742C1.92599 12.6974 2.79511 11.8947 3.81928 11.339C4.84344 10.7833 5.99021 10.4923 7.15543 10.4923C8.32065 10.4923 9.46741 10.7833 10.4916 11.339C11.5157 11.8947 12.3849 12.6974 13.02 13.6742C13.1226 13.8267 13.2811 13.9327 13.4612 13.9693C13.6413 14.0058 13.8286 13.97 13.9826 13.8696C14.1365 13.7692 14.2447 13.6123 14.2839 13.4327C14.323 13.2532 14.2899 13.0654 14.1917 12.9101C13.207 11.3945 11.7587 10.2379 10.0628 9.61291ZM3.30807 5.24819C3.30807 4.4873 3.53372 3.7435 3.95647 3.11085C4.37922 2.47819 4.9801 1.9851 5.68311 1.69392C6.38612 1.40274 7.1597 1.32656 7.90601 1.475C8.65232 1.62344 9.33786 1.98984 9.87592 2.52787C10.414 3.0659 10.7804 3.75139 10.9289 4.49765C11.0773 5.24392 11.0011 6.01744 10.7099 6.72041C10.4187 7.42338 9.9256 8.02421 9.2929 8.44694C8.66021 8.86967 7.91636 9.0953 7.15543 9.0953C6.1354 9.09414 5.15748 8.68845 4.43621 7.96723C3.71495 7.246 3.30923 6.26815 3.30807 5.24819ZM21.6827 13.878C21.5273 13.9793 21.338 14.0147 21.1565 13.9765C20.975 13.9383 20.8161 13.8296 20.7147 13.6742C20.0803 12.6968 19.2113 11.8938 18.187 11.3383C17.1626 10.7829 16.0154 10.4927 14.8501 10.4942C14.6646 10.4942 14.4867 10.4206 14.3555 10.2894C14.2243 10.1582 14.1506 9.98028 14.1506 9.79477C14.1506 9.60926 14.2243 9.43134 14.3555 9.30017C14.4867 9.16899 14.6646 9.0953 14.8501 9.0953C15.4167 9.09476 15.9762 8.9691 16.4886 8.7273C17.001 8.48549 17.4536 8.13351 17.8142 7.6965C18.1748 7.25949 18.4344 6.74824 18.5744 6.19928C18.7145 5.65031 18.7316 5.07719 18.6245 4.52086C18.5174 3.96453 18.2887 3.43873 17.9548 2.98101C17.6209 2.5233 17.19 2.14498 16.6929 1.87308C16.1959 1.60118 15.6449 1.44241 15.0793 1.40813C14.5138 1.37385 13.9476 1.46489 13.4214 1.67475C13.3356 1.71184 13.2432 1.73136 13.1497 1.73215C13.0562 1.73294 12.9635 1.71498 12.8771 1.67935C12.7907 1.64371 12.7123 1.59111 12.6465 1.52467C12.5808 1.45822 12.529 1.37927 12.4943 1.29247C12.4596 1.20568 12.4426 1.11282 12.4444 1.01936C12.4462 0.925896 12.4667 0.833742 12.5047 0.748338C12.5427 0.662935 12.5974 0.586014 12.6657 0.522122C12.7339 0.45823 12.8143 0.408662 12.902 0.376347C14.1064 -0.103972 15.4461 -0.121257 16.6625 0.327827C17.879 0.776911 18.886 1.66054 19.4893 2.80826C20.0927 3.95597 20.2496 5.28645 19.9298 6.54302C19.61 7.79958 18.8361 8.8932 17.7575 9.61291C19.4534 10.2379 20.9018 11.3945 21.8864 12.9101C21.9877 13.0654 22.0232 13.2547 21.985 13.4362C21.9468 13.6177 21.8381 13.7766 21.6827 13.878Z" fill="var(--fill-0, white)"/>
</svg>
