<svg preserveAspectRatio="none" width="100%" height="100%" overflow="visible" style="display: block;" viewBox="0 0 74.24 52.52" fill="none" xmlns="http://www.w3.org/2000/svg">
<g id="Group 137">
<path id="Vector" d="M29.0033 16.57C29.0461 16.6796 29.0763 16.7937 29.0933 16.91C29.1482 17.2405 29.1749 17.575 29.1733 17.91C29.1191 19.2075 28.7372 20.47 28.0633 21.58C26.9894 23.2474 25.6675 24.7412 24.1433 26.01L18.6133 31.22L18.4633 31.37L18.3033 31.22L12.9033 26.42C11.0333 24.74 8.83327 22.9401 7.79327 20.2501C7.43995 19.4336 7.26857 18.5501 7.29101 17.6607C7.31346 16.7714 7.52921 15.8976 7.92328 15.1C8.32654 14.3506 8.88463 13.6955 9.56048 13.1782C10.2363 12.661 11.0145 12.2935 11.8433 12.1C12.6237 11.9383 13.4301 11.9494 14.2057 12.1325C14.9814 12.3156 15.7076 12.6664 16.3333 13.16C17.5107 14.0555 18.2984 15.3696 18.5333 16.83H18.1033C18.2807 15.7689 18.7482 14.7775 19.4542 13.9656C20.1601 13.1537 21.077 12.553 22.1033 12.23C22.8946 12.0021 23.7278 11.9602 24.5379 12.1076C25.3481 12.2551 26.1131 12.5879 26.7733 13.08C27.6257 13.6884 28.2908 14.5232 28.6933 15.49C28.8371 15.8239 28.9282 16.1782 28.9633 16.54C28.9633 16.54 28.8633 16.17 28.5733 15.54C28.146 14.6348 27.4871 13.8586 26.6633 13.29C26.0344 12.8362 25.3086 12.535 24.5432 12.41C23.7778 12.285 22.9939 12.3398 22.2533 12.57C21.296 12.8785 20.4423 13.445 19.786 14.2071C19.1297 14.9692 18.6963 15.8976 18.5333 16.89L18.3233 18.34L18.1033 16.89C17.8707 15.5509 17.1334 14.3519 16.0433 13.54C15.4727 13.0883 14.809 12.7688 14.1 12.6045C13.391 12.4403 12.6544 12.4353 11.9433 12.59C11.189 12.7669 10.4812 13.1029 9.86725 13.5754C9.25329 14.0479 8.74736 14.6462 8.3833 15.33C8.02456 16.0602 7.8289 16.8596 7.80991 17.6729C7.79091 18.4862 7.94902 19.2939 8.27328 20.04C9.27328 22.57 11.3633 24.33 13.2733 26.04L18.6533 30.88H18.3433L23.9233 25.72C25.4415 24.4965 26.7693 23.0541 27.8633 21.44C28.5417 20.3772 28.9534 19.1662 29.0633 17.91C29.0833 17.05 28.9633 16.58 29.0033 16.57Z" fill="var(--fill-0, #263238)"/>
<path id="Vector_2" d="M0.209991 0.0799866C0.209991 0.0799866 0.209991 0.329988 0.209991 0.799988C0.209991 1.26999 0.209991 1.97999 0.209991 2.87999C0.209991 4.69999 0.209991 7.36999 0.209991 10.79C0.209991 17.64 0.269998 27.51 0.309998 39.68L0.119995 39.49H25.55H25.78V39.72C25.78 43.54 25.78 47.61 25.78 51.8L25.37 51.63L37.44 39.54L37.52 39.47H74.04L73.78 39.73C73.78 25.73 73.78 12.4 73.78 0.12999L74.02 0.369995L20.82 0.259995L5.57999 0.189987H1.50998H0.459991H0.0899963H1.45999H5.45999L20.65 0.119995L74 0H74.24V0.23999C74.24 12.51 74.24 25.84 74.24 39.84V40.1H37.72L37.9 40.03L25.81 52.11L25.39 52.52V51.93C25.39 47.74 25.39 43.67 25.39 39.85L25.62 40.08H0.190002H0V39.89C0 27.68 0.0800061 17.76 0.100006 10.89C0.100006 7.49 0.100006 4.88999 0.100006 3.01999C0.100006 2.13999 0.100006 1.45999 0.100006 1.01999C0.100006 0.579989 0.209991 0.0799866 0.209991 0.0799866Z" fill="var(--fill-0, #263238)"/>
<path id="Vector_3" d="M40.97 20.54H37.85V23.54H37.12V20.54H34V19.83H37.12V16.83H37.85V19.83H40.97V20.54Z" fill="var(--fill-0, #263238)"/>
<path id="Vector_4" d="M45.693 14.4299V25.9199H44.853V15.1899H42.043V14.4299H45.693Z" fill="var(--fill-0, #263238)"/>
<path id="Vector_5" d="M48.5898 20.18C48.5898 16.58 50.4498 14.35 53.0898 14.35C55.7298 14.35 57.5898 16.58 57.5898 20.18C57.5898 23.78 55.7298 26.01 53.0898 26.01C50.4498 26.01 48.5898 23.77 48.5898 20.18ZM56.7498 20.18C56.7498 16.98 55.2598 15.12 53.0898 15.12C50.9198 15.12 49.4298 16.98 49.4298 20.18C49.4298 23.38 50.9198 25.23 53.0898 25.23C55.2598 25.23 56.7498 23.38 56.7498 20.18Z" fill="var(--fill-0, #263238)"/>
<path id="Vector_6" d="M59.3906 20.18C59.3906 16.58 61.2506 14.35 63.8906 14.35C66.5306 14.35 68.3906 16.58 68.3906 20.18C68.3906 23.78 66.5306 26.01 63.8906 26.01C61.2506 26.01 59.3906 23.77 59.3906 20.18ZM67.5506 20.18C67.5506 16.98 66.0606 15.12 63.8906 15.12C61.7206 15.12 60.2306 16.98 60.2306 20.18C60.2306 23.38 61.7206 25.23 63.8906 25.23C66.0606 25.23 67.5506 23.38 67.5506 20.18Z" fill="var(--fill-0, #263238)"/>
</g>
</svg>
