<svg preserveAspectRatio="none" width="100%" height="100%" overflow="visible" style="display: block;" viewBox="0 0 45.8401 45.7294" fill="none" xmlns="http://www.w3.org/2000/svg">
<g id="Group 135">
<path id="Vector" d="M10.8906 20.9695L14.5506 20.1994L20.1706 7.37945L18.6306 0.0894454C18.6306 0.0894454 24.2106 -1.45055 25.5706 8.24945C26.9306 17.9494 27.1306 15.3594 27.1306 15.3594C27.1306 15.3594 39.1306 12.8694 40.3606 13.6994C41.2506 14.2994 44.1006 26.1494 45.6006 32.5894C46.0106 34.1346 45.8917 35.7725 45.2629 37.2423C44.634 38.712 43.5314 39.929 42.1306 40.6994C41.7342 40.9007 41.3143 41.0519 40.8806 41.1494C37.8806 41.7794 22.0706 42.5894 22.0706 42.5894L15.7506 43.9294L10.8906 20.9695Z" fill="var(--fill-0, #E0E0E0)"/>
<path id="Vector_2" d="M0 21.1894L7.55 45.7294L13.81 44.3994L8.62 19.8894L0 21.1894Z" fill="var(--fill-0, #E0E0E0)"/>
</g>
</svg>
