<svg preserveAspectRatio="none" width="100%" height="100%" overflow="visible" style="display: block;" viewBox="0 0 16.7457 18.4806" fill="none" xmlns="http://www.w3.org/2000/svg">
<g id="Group">
<path id="Vector" d="M0.565737 17.9149H16.18" stroke="var(--stroke-0, white)" stroke-width="1.13147" stroke-linecap="round" stroke-linejoin="round"/>
<path id="Vector_2" d="M0.565737 8.37285C0.565737 7.55484 0.565737 7.14626 0.819902 6.8921C1.07407 6.63794 1.48264 6.63793 2.30065 6.63793C3.11866 6.63793 3.52723 6.63794 3.7814 6.8921C4.03556 7.14626 4.03556 7.55484 4.03556 8.37285V13.5776C4.03556 14.3956 4.03556 14.8042 3.7814 15.0583C3.52723 15.3125 3.11866 15.3125 2.30065 15.3125C1.48264 15.3125 1.07407 15.3125 0.819902 15.0583C0.565737 14.8042 0.565737 14.3956 0.565737 13.5776V8.37285ZM6.63794 4.90302C6.63794 4.08501 6.63794 3.67644 6.8921 3.42227C7.14627 3.16811 7.55484 3.16811 8.37285 3.16811C9.19086 3.16811 9.59943 3.16811 9.8536 3.42227C10.1078 3.67644 10.1078 4.08501 10.1078 4.90302V13.5776C10.1078 14.3956 10.1078 14.8042 9.8536 15.0583C9.59943 15.3125 9.19086 15.3125 8.37285 15.3125C7.55484 15.3125 7.14627 15.3125 6.8921 15.0583C6.63794 14.8042 6.63794 14.3956 6.63794 13.5776V4.90302ZM12.7101 2.30065C12.7101 1.48264 12.7101 1.07407 12.9643 0.819902C13.2185 0.565737 13.627 0.565737 14.445 0.565737C15.2631 0.565737 15.6716 0.565737 15.9258 0.819902C16.18 1.07407 16.18 1.48264 16.18 2.30065V13.5776C16.18 14.3956 16.18 14.8042 15.9258 15.0583C15.6716 15.3125 15.2631 15.3125 14.445 15.3125C13.627 15.3125 13.2185 15.3125 12.9643 15.0583C12.7101 14.8042 12.7101 14.3956 12.7101 13.5776V2.30065Z" stroke="var(--stroke-0, white)" stroke-width="1.13147"/>
</g>
</svg>
