<svg preserveAspectRatio="none" width="100%" height="100%" overflow="visible" style="display: block;" viewBox="0 0 80.85 56.52" fill="none" xmlns="http://www.w3.org/2000/svg">
<g id="Group 134">
<path id="Vector" d="M0 0H80.85V43.31H41.02L27.8 56.52V43.31H0V0Z" fill="url(#paint0_linear_0_9)"/>
<path id="Vector_2" d="M13.6992 20.46C13.6992 20.46 13.6992 20.76 13.7792 21.3C13.8592 21.84 13.8792 22.64 13.9492 23.59C14.0792 25.59 14.2692 28.42 14.4892 31.84L14.2792 31.66L17.4192 31.48C20.0892 31.72 23.0792 32.06 26.2292 32.18C26.4144 32.1856 26.5996 32.1654 26.7792 32.12C26.9602 32.0968 27.138 32.0532 27.3092 31.99C27.6596 31.8515 27.9766 31.6402 28.2392 31.37C28.8042 30.818 29.158 30.0856 29.2392 29.3C29.2736 28.8907 29.2736 28.4793 29.2392 28.07C29.2392 27.64 29.1692 27.22 29.1392 26.79C29.0692 25.93 28.9892 25.06 28.9192 24.18C28.8492 23.3 28.7292 22.18 28.6092 21.18C28.5392 20.7 28.4792 20.18 28.3792 19.75C28.3565 19.6414 28.3264 19.5345 28.2892 19.43C28.2892 19.43 28.2892 19.43 28.2892 19.37C28.2892 19.31 28.2892 19.37 28.2092 19.37C27.9916 19.3204 27.7712 19.2836 27.5492 19.26C25.7006 19.16 23.8479 19.16 21.9992 19.26L22.2192 19.07C22.2235 19.1099 22.2235 19.1501 22.2192 19.19V19.27L22.1392 19.34C22.1156 19.3628 22.0872 19.38 22.056 19.3904C22.0249 19.4008 21.9918 19.4041 21.9592 19.4H21.8292V19.34V19.25C21.8261 19.2134 21.8261 19.1766 21.8292 19.14C21.8208 19.0202 21.8208 18.8999 21.8292 18.78V18.1C21.8292 17.66 21.8292 17.22 21.8292 16.79C21.8797 15.9674 21.8797 15.1426 21.8292 14.32C21.7735 13.5666 21.5331 12.8385 21.1292 12.2C20.9372 11.9247 20.6813 11.6999 20.3835 11.5449C20.0858 11.39 19.7549 11.3094 19.4192 11.31L19.5992 11.1C19.6592 12.42 19.7092 13.62 19.7592 14.73V14.79C18.1092 17.3 16.8392 19.21 16.0092 20.47H14.6592H14.1892C14.3275 20.4414 14.4681 20.4247 14.6092 20.42L15.9992 20.3H15.9392C16.7292 19.02 17.9392 17.08 19.5292 14.53V14.63C19.4692 13.52 19.3992 12.32 19.3192 11.01V10.81H19.5092C19.9133 10.7895 20.3161 10.8702 20.6811 11.0449C21.046 11.2195 21.3616 11.4825 21.5992 11.81C22.0588 12.4991 22.3342 13.2943 22.3992 14.12C22.4726 14.9645 22.496 15.8127 22.4692 16.66C22.4692 17.08 22.4692 17.51 22.4692 17.95V18.6C22.4692 18.7 22.4692 18.81 22.4692 18.9C22.4731 18.9164 22.4731 18.9336 22.4692 18.95C22.4692 18.95 22.4692 18.95 22.3992 18.95C22.3292 18.95 22.2792 19.06 22.2892 19.03C22.2992 19 22.2892 18.96 22.2092 18.97L22.1092 18.91V18.73H22.2792C24.1544 18.6247 26.034 18.6247 27.9092 18.73C28.1695 18.7541 28.4271 18.801 28.6792 18.87C28.7715 18.9011 28.859 18.9448 28.9392 19C29.0075 19.0766 29.0616 19.1646 29.0992 19.26C29.1407 19.3844 29.1741 19.5113 29.1992 19.64C29.3092 20.14 29.3792 20.64 29.4392 21.13C29.5692 22.13 29.6592 23.13 29.7592 24.13C29.8592 25.13 29.8992 25.88 29.9792 26.75L30.0692 28.03C30.1098 28.4691 30.1098 28.9109 30.0692 29.35C29.9776 30.2456 29.5865 31.0842 28.9592 31.73C28.6458 32.0429 28.2714 32.288 27.8592 32.45C27.4514 32.596 27.0223 32.6737 26.5892 32.68C23.3692 32.54 20.4192 32.18 17.7392 31.9L14.5992 32.05H14.4092V31.85C14.2692 28.38 14.1592 25.53 14.0692 23.47C14.0692 22.54 14.0192 21.79 14.0092 21.21C13.8776 20.9726 13.7736 20.721 13.6992 20.46Z" fill="var(--fill-0, white)"/>
<path id="Vector_3" d="M8.44969 19.7401C8.8041 19.69 9.16178 19.6666 9.51969 19.6701C10.2397 19.6701 11.3197 19.6101 12.6897 19.5901H12.8497V19.7601C13.0597 22.6401 13.3097 26.8401 13.5497 31.5101V31.9201V32.1901H13.2897L10.1797 32.3401H9.93969V32.1101C9.43969 28.5101 9.04969 25.3601 8.78969 23.1101C8.66969 22.1101 8.56969 21.2401 8.48969 20.5401C8.43665 20.2499 8.41652 19.9547 8.42969 19.6601C8.51548 19.9893 8.58226 20.3232 8.62969 20.6601C8.74969 21.3667 8.89969 22.2367 9.07969 23.2701C9.43969 25.4801 9.93969 28.5101 10.4497 31.9901L10.1797 31.7801L13.2897 31.6101L13.0397 31.8801V31.4701C12.7997 26.8001 12.6097 22.6001 12.5097 19.7101L12.6897 19.8801C11.4097 19.8801 10.3697 19.7901 9.62969 19.7601C9.23628 19.7745 8.84238 19.7679 8.44969 19.7401Z" fill="var(--fill-0, white)"/>
<path id="Vector_4" d="M44.5814 22.37H41.1614V25.69H40.3614V22.37H36.9414V21.6H40.3614V18.26H41.1614V21.6H44.5814V22.37Z" fill="var(--fill-0, white)"/>
<path id="Vector_5" d="M49.7695 15.6899V28.2599H48.7695V16.5199H45.7695V15.6899H49.7695Z" fill="var(--fill-0, white)"/>
<path id="Vector_6" d="M52.9102 21.9801C52.9102 18.0401 54.9102 15.6001 57.8302 15.6001C60.7502 15.6001 62.7502 18.0401 62.7502 21.9801C62.7502 25.9201 60.7502 28.3501 57.8302 28.3501C54.9102 28.3501 52.9102 25.9101 52.9102 21.9801ZM61.8302 21.9801C61.8302 18.4701 60.2002 16.4501 57.8302 16.4501C55.4602 16.4501 53.8302 18.4501 53.8302 21.9801C53.8302 25.5101 55.4702 27.5101 57.8302 27.5101C60.1902 27.5101 61.8302 25.4801 61.8302 21.9801Z" fill="var(--fill-0, white)"/>
<path id="Vector_7" d="M64.7695 21.9801C64.7695 18.0401 66.7695 15.6001 69.6895 15.6001C72.6095 15.6001 74.6095 18.0401 74.6095 21.9801C74.6095 25.9201 72.6095 28.3501 69.6895 28.3501C66.7695 28.3501 64.7695 25.9101 64.7695 21.9801ZM73.6995 21.9801C73.6995 18.4701 72.0595 16.4501 69.6995 16.4501C67.3395 16.4501 65.6995 18.4501 65.6995 21.9801C65.6995 25.5101 67.3295 27.5101 69.6995 27.5101C72.0695 27.5101 73.6495 25.4801 73.6495 21.9801H73.6995Z" fill="var(--fill-0, white)"/>
</g>
<defs>
<linearGradient id="paint0_linear_0_9" x1="40.425" y1="0" x2="40.425" y2="56.52" gradientUnits="userSpaceOnUse">
<stop stop-color="#DF8251"/>
<stop offset="1" stop-color="#D54050"/>
</linearGradient>
</defs>
</svg>
