<svg preserveAspectRatio="none" width="100%" height="100%" overflow="visible" style="display: block;" viewBox="0 0 20.9374 20.9374" fill="none" xmlns="http://www.w3.org/2000/svg">
<path id="Vector" d="M10.4687 0C8.39819 0 6.37417 0.613979 4.65261 1.76429C2.93104 2.91461 1.58924 4.5496 0.796887 6.4625C0.00453592 8.37541 -0.202779 10.4803 0.201158 12.511C0.605095 14.5418 1.60214 16.4071 3.06622 17.8712C4.53029 19.3353 6.39563 20.3323 8.42636 20.7362C10.4571 21.1402 12.562 20.9329 14.4749 20.1405C16.3878 19.3482 18.0228 18.0064 19.1731 16.2848C20.3234 14.5632 20.9374 12.5392 20.9374 10.4687C20.9345 7.69313 19.8306 5.03208 17.868 3.06945C15.9053 1.10682 13.2443 0.00293105 10.4687 0ZM15.0649 8.62258L9.42787 14.2596C9.35308 14.3344 9.26427 14.3938 9.16651 14.4344C9.06875 14.4749 8.96396 14.4958 8.85813 14.4958C8.75231 14.4958 8.64752 14.4749 8.54976 14.4344C8.452 14.3938 8.36318 14.3344 8.2884 14.2596L5.87254 11.8437C5.72144 11.6926 5.63655 11.4877 5.63655 11.274C5.63655 11.0603 5.72144 10.8553 5.87254 10.7042C6.02365 10.5531 6.22859 10.4683 6.44228 10.4683C6.65597 10.4683 6.86092 10.5531 7.01202 10.7042L8.85813 12.5514L13.9254 7.48311C14.0002 7.40829 14.089 7.34894 14.1868 7.30845C14.2845 7.26795 14.3893 7.24711 14.4951 7.24711C14.6009 7.24711 14.7057 7.26795 14.8035 7.30845C14.9012 7.34894 14.99 7.40829 15.0649 7.48311C15.1397 7.55793 15.199 7.64675 15.2395 7.74451C15.28 7.84226 15.3009 7.94704 15.3009 8.05285C15.3009 8.15866 15.28 8.26343 15.2395 8.36119C15.199 8.45894 15.1397 8.54777 15.0649 8.62258Z" fill="var(--fill-0, white)"/>
</svg>
