<svg preserveAspectRatio="none" width="100%" height="100%" overflow="visible" style="display: block;" viewBox="0 0 14.5566 14.5566" fill="none" xmlns="http://www.w3.org/2000/svg">
<path id="Vector" d="M7.2783 0C5.83879 0 4.4316 0.426864 3.23469 1.22661C2.03778 2.02636 1.10491 3.16308 0.55403 4.49301C0.00315357 5.82294 -0.140981 7.28637 0.139854 8.69822C0.420688 10.1101 1.11388 11.4069 2.13177 12.4248C3.14965 13.4427 4.44652 14.1359 5.85837 14.4167C7.27022 14.6976 8.73364 14.5534 10.0636 14.0026C11.3935 13.4517 12.5302 12.5188 13.33 11.3219C14.1297 10.125 14.5566 8.7178 14.5566 7.27829C14.5545 5.34859 13.7871 3.49852 12.4226 2.13401C11.0581 0.76951 9.20799 0.0020378 7.2783 0ZM10.4737 5.99479L6.55467 9.91387C6.50267 9.96593 6.44092 10.0072 6.37295 10.0354C6.30499 10.0636 6.23213 10.0781 6.15856 10.0781C6.08498 10.0781 6.01213 10.0636 5.94416 10.0354C5.87619 10.0072 5.81445 9.96593 5.76245 9.91387L4.08284 8.23427C3.97779 8.12921 3.91877 7.98673 3.91877 7.83816C3.91877 7.68959 3.97779 7.54711 4.08284 7.44205C4.1879 7.337 4.33038 7.27798 4.47895 7.27798C4.62752 7.27798 4.77001 7.337 4.87506 7.44205L6.15856 8.72625L9.68153 5.20258C9.73355 5.15056 9.7953 5.1093 9.86327 5.08115C9.93123 5.053 10.0041 5.03851 10.0776 5.03851C10.1512 5.03851 10.224 5.053 10.292 5.08115C10.36 5.1093 10.4217 5.15056 10.4737 5.20258C10.5258 5.2546 10.567 5.31635 10.5952 5.38431C10.6233 5.45228 10.6378 5.52512 10.6378 5.59869C10.6378 5.67225 10.6233 5.74509 10.5952 5.81306C10.567 5.88102 10.5258 5.94278 10.4737 5.99479Z" fill="url(#paint0_linear_0_28)"/>
<defs>
<linearGradient id="paint0_linear_0_28" x1="7.27829" y1="0" x2="7.27829" y2="14.5566" gradientUnits="userSpaceOnUse">
<stop stop-color="#DF8251"/>
<stop offset="1" stop-color="#D54050"/>
</linearGradient>
</defs>
</svg>
