<svg preserveAspectRatio="none" width="100%" height="100%" overflow="visible" style="display: block;" viewBox="0 0 62.4574 61.9473" fill="none" xmlns="http://www.w3.org/2000/svg">
<g id="Layer_1">
<path id="Vector" d="M46.7129 12.3334C52.01 9.99704 57.1682 10.2844 61.2559 13.2182C61.5718 13.4007 61.8371 13.6595 62.0254 13.9721C62.2159 14.2885 62.3215 14.6488 62.333 15.018V15.0258C62.3232 15.3899 62.2252 15.7463 62.0469 16.0639C61.8687 16.3811 61.6149 16.6493 61.3096 16.8471L61.3106 16.8481C55.5493 20.7177 45.9915 24.9915 44.4912 25.6567L32.7012 49.1957C32.6377 49.3246 32.529 49.425 32.3955 49.4779L32.3965 49.4789L28.4092 51.1625L28.3994 51.1664L28.3897 51.1694C28.3157 51.187 28.2394 51.1855 28.165 51.1703C28.0323 51.1664 27.9041 51.122 27.7998 51.0395L27.7979 51.0375C27.7151 50.9694 27.6517 50.8805 27.6152 50.7797C27.5789 50.6792 27.5701 50.5703 27.5898 50.4653L30.9707 31.7045C20.4484 37.2858 14.055 38.3016 10.2539 37.8578C6.42306 37.4105 5.23513 35.4833 5.12793 35.2817L0.28809 26.3969L0.287114 26.3949C0.117899 26.0693 0.0785512 25.6909 0.176762 25.3373C0.274976 24.984 0.50377 24.6813 0.81641 24.4897L2.13282 23.6762C2.57562 23.3971 3.09212 23.2578 3.61524 23.2758C4.13854 23.2939 4.6448 23.4686 5.06739 23.7778L11.2139 28.2113L11.2734 28.2485C11.3352 28.2813 11.4035 28.3009 11.4736 28.3071C11.5672 28.3153 11.6614 28.2988 11.7461 28.2582L11.749 28.2572L23.1055 23.1488L12.3291 15.686V15.685C12.2472 15.6295 12.1794 15.5555 12.1328 15.4682C12.0859 15.3802 12.0615 15.2817 12.0615 15.1821C12.0615 15.0824 12.0859 14.9839 12.1328 14.8959C12.1797 14.8079 12.2483 14.7328 12.3311 14.6772L12.334 14.6742L15.4609 12.7387C15.5324 12.6943 15.6122 12.6652 15.6953 12.6528C15.7371 12.6465 15.7793 12.6446 15.8213 12.6469L15.9453 12.6664L15.9482 12.6674L34.1299 18.0453L46.3418 12.4897L46.3447 12.4877L46.7129 12.3334ZM58.1084 12.8871C57.6547 13.1999 56.6915 13.8081 55.4639 14.3461C54.1834 14.9072 52.6079 15.3966 51.0215 15.3969L51.0225 15.3979C50.205 15.4136 49.3931 15.2597 48.6377 14.9467C47.9097 14.645 47.2505 14.2004 46.6963 13.641L34.4424 19.2387L12.2481 29.3149C11.9686 29.4437 11.6597 29.4954 11.3535 29.4643C11.0478 29.4332 10.7554 29.3211 10.5078 29.1391L4.35157 24.7446V24.7436C4.12153 24.5767 3.84652 24.4826 3.5625 24.4731C3.27852 24.4635 2.99849 24.5398 2.75782 24.6908H2.75684L1.44043 25.5043L1.43946 25.5033C1.38517 25.5375 1.34525 25.5912 1.32715 25.6528C1.30975 25.7122 1.3141 25.7759 1.33887 25.8324L6.22657 34.7084L6.23438 34.724C6.23267 34.7195 6.23072 34.7157 6.2295 34.7133C6.23095 34.7157 6.23339 34.72 6.23731 34.726C6.24546 34.7384 6.25847 34.7569 6.27637 34.7807C6.31222 34.8284 6.36794 34.8965 6.44629 34.9789C6.60296 35.1437 6.85039 35.366 7.21289 35.5961C7.93727 36.0559 9.12497 36.5512 10.9717 36.6889C14.6687 36.9646 21.0079 35.8061 31.5439 30.0522C31.629 30.0042 31.7247 29.9791 31.8223 29.9789H31.8262C31.9575 29.9757 32.0857 30.0196 32.1865 30.1039H32.1856C32.2744 30.1676 32.3446 30.2548 32.3867 30.3559C32.43 30.4601 32.4428 30.5748 32.4229 30.686H32.4219L28.9678 49.6L31.7354 48.4819L43.5039 24.9272C43.565 24.803 43.6691 24.7061 43.7959 24.6518C43.8038 24.6469 43.8105 24.643 43.8125 24.642C43.8209 24.6376 43.8317 24.6322 43.8438 24.6264C43.8682 24.6145 43.9027 24.5992 43.9453 24.5795C44.031 24.5399 44.1542 24.4834 44.3106 24.4125C44.6235 24.2706 45.071 24.068 45.624 23.8149C46.7305 23.3083 48.2592 22.5982 49.9736 21.7621C53.4027 20.0899 57.5704 17.9164 60.5967 15.8608C60.7312 15.7624 60.8429 15.6359 60.9229 15.4897C61.0007 15.3472 61.0459 15.1895 61.0576 15.0278C61.0364 14.8592 60.9768 14.698 60.8818 14.5571C60.7851 14.4135 60.6556 14.2946 60.5039 14.2113L60.4971 14.2074L60.4912 14.2035C59.7519 13.6717 58.9519 13.2301 58.1084 12.8871ZM13.75 15.1742L24.3564 22.5072L32.4971 18.8022L15.8633 13.8979L13.75 15.1742ZM56.7061 12.393C53.7971 11.6925 50.7405 11.9431 47.9844 13.1117C49.3941 14.2724 51.1408 14.3559 52.7832 14.0004C54.3378 13.6639 55.7785 12.9378 56.7061 12.393Z" fill="url(#paint0_linear_0_30)" stroke="url(#paint1_linear_0_30)" stroke-width="0.248051"/>
</g>
<defs>
<linearGradient id="paint0_linear_0_30" x1="31.2286" y1="10.8988" x2="31.2286" y2="51.0592" gradientUnits="userSpaceOnUse">
<stop stop-color="#DF8251"/>
<stop offset="1" stop-color="#D54050"/>
</linearGradient>
<linearGradient id="paint1_linear_0_30" x1="31.2286" y1="10.8988" x2="31.2286" y2="51.0592" gradientUnits="userSpaceOnUse">
<stop stop-color="#DF8251"/>
<stop offset="1" stop-color="#D54050"/>
</linearGradient>
</defs>
</svg>
