<svg preserveAspectRatio="none" width="100%" height="100%" overflow="visible" style="display: block;" viewBox="0 0 51.3773 51.381" fill="none" xmlns="http://www.w3.org/2000/svg">
<g id="Group">
<path id="Vector" d="M9.78541 28.2035L1.12302 38.794L9.31157 40.4317L12.587 50.258L21.2996 36.4313M41.5919 28.2035L50.2543 38.794L42.0658 40.4317L38.7903 50.258L30.0777 36.4313" stroke="var(--stroke-0, white)" stroke-width="2.246" stroke-linecap="round" stroke-linejoin="round"/>
<path id="Vector_2" d="M26.7168 1.48622L30.7499 4.72889L35.9229 4.47122C36.2961 4.45275 36.6644 4.56243 36.9666 4.78208C37.2689 5.00172 37.487 5.31812 37.5846 5.67876L38.9385 10.6771L43.2751 13.5157C43.5878 13.7204 43.8211 14.0258 43.9363 14.3813C44.0515 14.7368 44.0416 15.121 43.9084 15.4701L42.0654 20.3112L43.9084 25.15C44.0416 25.4992 44.0515 25.8834 43.9363 26.2388C43.8211 26.5943 43.5878 26.8997 43.2751 27.1044L38.9385 29.9431L37.5846 34.9435C37.487 35.3042 37.2689 35.6206 36.9666 35.8402C36.6644 36.0599 36.2961 36.1696 35.9229 36.1511L30.7499 35.8934L26.7168 39.1426C26.4255 39.3777 26.0626 39.5059 25.6883 39.5059C25.3141 39.5059 24.9511 39.3777 24.6598 39.1426L20.6267 35.8869L15.4537 36.1445C15.0805 36.163 14.7123 36.0533 14.41 35.8337C14.1077 35.614 13.8897 35.2976 13.792 34.937L12.4381 29.9365L8.10149 27.0978C7.78881 26.8932 7.55552 26.5878 7.44033 26.2323C7.32514 25.8768 7.33499 25.4926 7.46825 25.1435L9.31122 20.3112L7.46825 15.4701C7.33499 15.121 7.32514 14.7368 7.44033 14.3813C7.55552 14.0258 7.78881 13.7204 8.10149 13.5157L12.4381 10.6771L13.792 5.67658C13.8901 5.31634 14.1083 5.00044 14.4106 4.78122C14.7128 4.562 15.0808 4.45263 15.4537 4.47122L20.6267 4.72889L24.6598 1.48622C24.9511 1.25119 25.3141 1.123 25.6883 1.123C26.0626 1.123 26.4255 1.25119 26.7168 1.48622Z" stroke="var(--stroke-0, white)" stroke-width="2.246" stroke-linecap="round" stroke-linejoin="round"/>
</g>
</svg>
