<svg preserveAspectRatio="none" width="100%" height="100%" overflow="visible" style="display: block;" viewBox="0 0 24 27" fill="none" xmlns="http://www.w3.org/2000/svg">
<g id="MapPin">
<path id="Vector" d="M12 4.5C9.81273 4.50248 7.71575 5.37247 6.16911 6.91911C4.62247 8.46575 3.75248 10.5627 3.75 12.75C3.75 19.8094 11.25 25.1409 11.5697 25.3641C11.6958 25.4524 11.846 25.4998 12 25.4998C12.154 25.4998 12.3042 25.4524 12.4303 25.3641C12.75 25.1409 20.25 19.8094 20.25 12.75C20.2475 10.5627 19.3775 8.46575 17.8309 6.91911C16.2843 5.37247 14.1873 4.50248 12 4.5ZM12 9.75C12.5933 9.75 13.1734 9.92595 13.6667 10.2556C14.1601 10.5852 14.5446 11.0538 14.7716 11.6019C14.9987 12.1501 15.0581 12.7533 14.9424 13.3353C14.8266 13.9172 14.5409 14.4518 14.1213 14.8713C13.7018 15.2909 13.1672 15.5766 12.5853 15.6924C12.0033 15.8081 11.4001 15.7487 10.8519 15.5216C10.3038 15.2946 9.83524 14.9101 9.50559 14.4167C9.17595 13.9234 9 13.3433 9 12.75C9 11.9544 9.31607 11.1913 9.87868 10.6287C10.4413 10.0661 11.2044 9.75 12 9.75Z" fill="var(--fill-0, #444444)"/>
</g>
</svg>
