<svg width="26" height="26" viewBox="0 0 26 26" fill="none" xmlns="http://www.w3.org/2000/svg">
<path d="M21.9562 4.33388C21.8578 4.32373 21.7586 4.32373 21.6601 4.33388H1.4379C1.30829 4.33587 1.17954 4.35531 1.05512 4.39165L11.4912 14.7844L21.9562 4.33388Z" fill="#444444"/>
<path d="M23.0244 5.33766L12.5089 15.8099C12.2383 16.0789 11.8722 16.2299 11.4906 16.2299C11.109 16.2299 10.7429 16.0789 10.4722 15.8099L0.0505556 5.4171C0.0185174 5.53486 0.00153016 5.65619 0 5.77822V20.2227C0 20.6058 0.152182 20.9732 0.423068 21.244C0.693954 21.5149 1.06135 21.6671 1.44444 21.6671H21.6667C22.0498 21.6671 22.4172 21.5149 22.688 21.244C22.9589 20.9732 23.1111 20.6058 23.1111 20.2227V5.77822C23.1054 5.62774 23.0761 5.4791 23.0244 5.33766ZM2.43389 20.2227H1.43V19.1899L6.68056 13.9827L7.69889 15.001L2.43389 20.2227ZM21.6522 20.2227H20.6411L15.3761 15.001L16.3944 13.9827L21.645 19.1899L21.6522 20.2227Z" fill="#444444"/>
</svg>
