<svg width="24" height="24" viewBox="0 0 24 24" fill="none" xmlns="http://www.w3.org/2000/svg">
<path d="M3.91889 11.3572C5.27889 14.03 7.47 16.2117 10.1428 17.5811L12.2206 15.5033C12.4756 15.2483 12.8533 15.1633 13.1839 15.2767C14.2417 15.6261 15.3844 15.815 16.5556 15.815C17.075 15.815 17.5 16.24 17.5 16.7594V20.0556C17.5 20.575 17.075 21 16.5556 21C7.68722 21 0.5 13.8128 0.5 4.94444C0.5 4.425 0.925 4 1.44444 4H4.75C5.26944 4 5.69444 4.425 5.69444 4.94444C5.69444 6.125 5.88333 7.25833 6.23278 8.31611C6.33667 8.64667 6.26111 9.015 5.99667 9.27944L3.91889 11.3572Z" fill="#444444"/>
</svg>
