<svg preserveAspectRatio="none" width="100%" height="100%" overflow="visible" style="display: block;" viewBox="0 0 12 6.85714" fill="none" xmlns="http://www.w3.org/2000/svg">
<path id="Vector" d="M11.8402 0.975923L6.38589 6.68957C6.33523 6.74269 6.27508 6.78484 6.20887 6.81359C6.14265 6.84234 6.07168 6.85714 6 6.85714C5.92832 6.85714 5.85735 6.84234 5.79113 6.81359C5.72492 6.78484 5.66476 6.74269 5.61411 6.68957L0.159841 0.975923C0.0574964 0.868712 0 0.723302 0 0.571682C0 0.420063 0.0574964 0.274653 0.159841 0.167442C0.262185 0.0602303 0.400994 0 0.54573 0C0.690467 0 0.829275 0.0602303 0.93162 0.167442L6 5.47756L11.0684 0.167442C11.1191 0.114356 11.1792 0.0722462 11.2454 0.0435165C11.3116 0.0147867 11.3826 0 11.4543 0C11.5259 0 11.5969 0.0147867 11.6631 0.0435165C11.7293 0.0722462 11.7895 0.114356 11.8402 0.167442C11.8908 0.220527 11.931 0.283549 11.9585 0.352909C11.9859 0.422269 12 0.496608 12 0.571682C12 0.646757 11.9859 0.721096 11.9585 0.790456C11.931 0.859816 11.8908 0.922838 11.8402 0.975923Z" fill="var(--fill-0, white)"/>
</svg>
