<svg preserveAspectRatio="none" width="100%" height="100%" overflow="visible" style="display: block;" viewBox="0 0 7 8" fill="none" xmlns="http://www.w3.org/2000/svg">
<path id="Vector" d="M7 4C7.00026 4.10447 6.97256 4.20722 6.91959 4.29827C6.86662 4.38932 6.79019 4.46556 6.69773 4.51959L0.967272 7.90943C0.870659 7.96664 0.760004 7.99787 0.646735 7.99989C0.533467 8.00192 0.421692 7.97467 0.322955 7.92097C0.225157 7.86809 0.143689 7.79098 0.0869288 7.69756C0.0301682 7.60415 0.000163409 7.4978 0 7.38945V0.610547C0.000163409 0.502201 0.0301682 0.395851 0.0869288 0.302436C0.143689 0.20902 0.225157 0.13191 0.322955 0.0790343C0.421692 0.0253248 0.533467 -0.0019228 0.646735 0.000105513C0.760004 0.00213383 0.870659 0.0333646 0.967272 0.0905723L6.69773 3.48041C6.79019 3.53443 6.86662 3.61068 6.91959 3.70173C6.97256 3.79278 7.00026 3.89553 7 4Z" fill="var(--fill-0, #ED6B52)"/>
</svg>
