<svg preserveAspectRatio="none" width="100%" height="100%" overflow="visible" style="display: block;" viewBox="0 0 90.0122 12.9951" fill="none" xmlns="http://www.w3.org/2000/svg">
<g id="Frame 140">
<path id="Icon" d="M6.70507 1.17984C6.82821 0.940052 7.184 0.940052 7.30713 1.17984L8.90117 4.28398C8.95007 4.3792 9.04459 4.4452 9.15393 4.46047L12.7183 4.95824C12.9937 4.99669 13.1036 5.32189 12.9044 5.50854L10.3252 7.92478C10.246 7.99889 10.2099 8.10568 10.2286 8.21034L10.8375 11.6221C10.8845 11.8857 10.5967 12.0867 10.3504 11.9622L7.16232 10.3514C7.06452 10.302 6.94769 10.302 6.84989 10.3514L3.66181 11.9622C3.41553 12.0867 3.1277 11.8857 3.17473 11.6221L3.7836 8.21034C3.80228 8.10568 3.76617 7.99889 3.68706 7.92478L1.10785 5.50854C0.908605 5.32189 1.01855 4.99669 1.29389 4.95824L4.85827 4.46047C4.96761 4.4452 5.06213 4.3792 5.11103 4.28398L6.70507 1.17984Z" fill="var(--fill-0, #E79B45)" stroke="var(--stroke-0, #E79B45)" stroke-width="2" stroke-linejoin="round"/>
<path id="Icon_2" d="M25.7051 1.17984C25.8282 0.940052 26.184 0.940052 26.3071 1.17984L27.9012 4.28398C27.9501 4.3792 28.0446 4.4452 28.1539 4.46047L31.7183 4.95824C31.9937 4.99669 32.1036 5.32189 31.9044 5.50854L29.3252 7.92478C29.246 7.99889 29.2099 8.10568 29.2286 8.21034L29.8375 11.6221C29.8845 11.8857 29.5967 12.0867 29.3504 11.9622L26.1623 10.3514C26.0645 10.302 25.9477 10.302 25.8499 10.3514L22.6618 11.9622C22.4155 12.0867 22.1277 11.8857 22.1747 11.6221L22.7836 8.21034C22.8023 8.10568 22.7662 7.99889 22.6871 7.92478L20.1078 5.50854C19.9086 5.32189 20.0185 4.99669 20.2939 4.95824L23.8583 4.46047C23.9676 4.4452 24.0621 4.3792 24.111 4.28398L25.7051 1.17984Z" fill="var(--fill-0, #E79B45)" stroke="var(--stroke-0, #E79B45)" stroke-width="2" stroke-linejoin="round"/>
<path id="Icon_3" d="M44.7051 1.17984C44.8282 0.940052 45.184 0.940052 45.3071 1.17984L46.9012 4.28398C46.9501 4.3792 47.0446 4.4452 47.1539 4.46047L50.7183 4.95824C50.9937 4.99669 51.1036 5.32189 50.9044 5.50854L48.3252 7.92478C48.246 7.99889 48.2099 8.10568 48.2286 8.21034L48.8375 11.6221C48.8845 11.8857 48.5967 12.0867 48.3504 11.9622L45.1623 10.3514C45.0645 10.302 44.9477 10.302 44.8499 10.3514L41.6618 11.9622C41.4155 12.0867 41.1277 11.8857 41.1747 11.6221L41.7836 8.21034C41.8023 8.10568 41.7662 7.99889 41.6871 7.92478L39.1078 5.50854C38.9086 5.32189 39.0185 4.99669 39.2939 4.95824L42.8583 4.46047C42.9676 4.4452 43.0621 4.3792 43.111 4.28398L44.7051 1.17984Z" fill="var(--fill-0, #E79B45)" stroke="var(--stroke-0, #E79B45)" stroke-width="2" stroke-linejoin="round"/>
<path id="Icon_4" d="M63.7051 1.17984C63.8282 0.940052 64.184 0.940052 64.3071 1.17984L65.9012 4.28398C65.9501 4.3792 66.0446 4.4452 66.1539 4.46047L69.7183 4.95824C69.9937 4.99669 70.1036 5.32189 69.9044 5.50854L67.3252 7.92478C67.246 7.99889 67.2099 8.10568 67.2286 8.21034L67.8375 11.6221C67.8845 11.8857 67.5967 12.0867 67.3504 11.9622L64.1623 10.3514C64.0645 10.302 63.9477 10.302 63.8499 10.3514L60.6618 11.9622C60.4155 12.0867 60.1277 11.8857 60.1747 11.6221L60.7836 8.21034C60.8023 8.10568 60.7662 7.99889 60.6871 7.92478L58.1078 5.50854C57.9086 5.32189 58.0185 4.99669 58.2939 4.95824L61.8583 4.46047C61.9676 4.4452 62.0621 4.3792 62.111 4.28398L63.7051 1.17984Z" fill="var(--fill-0, #E79B45)" stroke="var(--stroke-0, #E79B45)" stroke-width="2" stroke-linejoin="round"/>
<path id="Icon_5" d="M82.7051 1.17984C82.8282 0.940052 83.184 0.940052 83.3071 1.17984L84.9012 4.28398C84.9501 4.3792 85.0446 4.4452 85.1539 4.46047L88.7183 4.95824C88.9937 4.99669 89.1036 5.32189 88.9044 5.50854L86.3252 7.92478C86.246 7.99889 86.2099 8.10568 86.2286 8.21034L86.8375 11.6221C86.8845 11.8857 86.5967 12.0867 86.3504 11.9622L83.1623 10.3514C83.0645 10.302 82.9477 10.302 82.8499 10.3514L79.6618 11.9622C79.4155 12.0867 79.1277 11.8857 79.1747 11.6221L79.7836 8.21034C79.8023 8.10568 79.7662 7.99889 79.6871 7.92478L77.1078 5.50854C76.9086 5.32189 77.0185 4.99669 77.2939 4.95824L80.8583 4.46047C80.9676 4.4452 81.0621 4.3792 81.111 4.28398L82.7051 1.17984Z" fill="var(--fill-0, #E79B45)" stroke="var(--stroke-0, #E79B45)" stroke-width="2" stroke-linejoin="round"/>
</g>
</svg>
