<svg preserveAspectRatio="none" width="100%" height="100%" overflow="visible" style="display: block;" viewBox="0 0 7 4" fill="none" xmlns="http://www.w3.org/2000/svg">
<path id="Vector" d="M6.90676 0.569288L3.7251 3.90225C3.69555 3.93324 3.66046 3.95782 3.62184 3.97459C3.58321 3.99137 3.54181 4 3.5 4C3.45819 4 3.41679 3.99137 3.37816 3.97459C3.33954 3.95782 3.30445 3.93324 3.2749 3.90225L0.0932404 0.569288C0.0335395 0.506749 0 0.421926 0 0.333481C0 0.245037 0.0335395 0.160214 0.0932404 0.0976743C0.152941 0.0351344 0.233913 0 0.318343 0C0.402772 0 0.483744 0.0351344 0.543445 0.0976743L3.5 3.19524L6.45655 0.0976743C6.48612 0.0667076 6.52121 0.0421436 6.55983 0.0253846C6.59846 0.0086256 6.63985 0 6.68166 0C6.72346 0 6.76486 0.0086256 6.80348 0.0253846C6.8421 0.0421436 6.8772 0.0667076 6.90676 0.0976743C6.93632 0.128641 6.95977 0.165404 6.97577 0.205864C6.99177 0.246323 7 0.289688 7 0.333481C7 0.377275 6.99177 0.420639 6.97577 0.461099C6.95977 0.501559 6.93632 0.538322 6.90676 0.569288Z" fill="var(--fill-0, black)"/>
</svg>
