<svg preserveAspectRatio="none" width="100%" height="100%" overflow="visible" style="display: block;" viewBox="0 0 32 32" fill="none" xmlns="http://www.w3.org/2000/svg">
<path id="Vector" d="M21.9156 1.52066C22.8472 0.588823 24.0985 0.0461888 25.4155 0.00281534C26.7325 -0.0405582 28.0167 0.418576 29.0077 1.2871L29.2568 1.52066L30.4801 2.74385C31.4115 3.67538 31.9538 4.92618 31.9972 6.24272C32.0406 7.55926 31.5817 8.84304 30.7136 9.83384L30.4801 10.083L11.0811 29.4827C10.8068 29.7569 10.4745 29.9662 10.1087 30.0952L9.82842 30.1765L2.12212 31.955C1.8521 32.0178 1.57095 32.0148 1.30234 31.9463C1.03372 31.8777 0.785516 31.7456 0.578617 31.5611C0.371717 31.3766 0.212184 31.1451 0.113451 30.8861C0.0147183 30.627 -0.020323 30.3481 0.0112786 30.0727L0.0458825 29.8772L1.8228 22.1695C1.91058 21.7915 2.08204 21.4379 2.32455 21.1349L2.51661 20.9187L21.9156 1.52066ZM20.6923 7.6366L5.13786 23.1903L4.03745 27.9619L8.80934 26.8599L24.3638 11.3062L20.6923 7.6366ZM26.8103 3.96704C26.5124 3.66915 26.116 3.49021 25.6955 3.46377C25.275 3.43733 24.8594 3.56522 24.5265 3.82344L24.3638 3.96704L23.1388 5.19023L26.8103 8.85979L28.0336 7.6366C28.3315 7.33869 28.5104 6.94232 28.5369 6.52186C28.5633 6.1014 28.4354 5.68574 28.1772 5.35286L28.0336 5.19023L26.8103 3.96704Z" fill="var(--fill-0, #ED6B52)"/>
</svg>
