<svg preserveAspectRatio="none" width="100%" height="100%" overflow="visible" style="display: block;" viewBox="0 0 38 38" fill="none" xmlns="http://www.w3.org/2000/svg">
<path id="Vector" d="M18.9984 31.9988C19.0017 33.0473 18.6744 34.0701 18.0632 34.9219C17.452 35.7736 16.5879 36.4109 15.5939 36.7431C14.5998 37.0753 13.5263 37.0856 12.5261 36.7724C11.5259 36.4592 10.6498 35.8386 10.0225 34.9987H10.0025C9.23248 35.0078 8.47104 34.8366 7.77908 34.4986C7.08713 34.1605 6.48386 33.6652 6.01756 33.0521C5.55125 32.4391 5.23486 31.7254 5.0937 30.9681C4.95253 30.2108 4.99052 29.4309 5.20461 28.6909C4.14344 28.363 3.19504 27.7448 2.46647 26.9062C1.7379 26.0676 1.25817 25.0419 1.08145 23.9449C0.904731 22.848 1.03805 21.7235 1.46636 20.6983C1.89468 19.6732 2.60092 18.7882 3.50537 18.1433C2.96945 17.0431 2.86086 15.7831 3.20066 14.6073C3.54045 13.4316 4.30444 12.4239 5.34455 11.7796C5.07669 11.0965 4.96386 10.3624 5.01421 9.63039C5.06457 8.89836 5.27684 8.18666 5.6357 7.54672C5.99457 6.90678 6.49105 6.35458 7.08928 5.93004C7.68751 5.50549 8.37254 5.2192 9.09487 5.09184C9.23041 4.36039 9.5274 3.66842 9.96419 3.06636C10.401 2.46431 10.9666 1.96735 11.6197 1.61172C12.2728 1.25609 12.997 1.05074 13.7396 1.01065C14.4821 0.97056 15.2242 1.09674 15.9118 1.37999C16.8254 1.75823 17.6063 2.39907 18.1557 3.22142C18.7052 4.04377 18.9984 5.01068 18.9984 5.99981M18.9984 31.9988V5.99981M18.9984 31.9988C18.9952 33.0473 19.3225 34.0701 19.9337 34.9219C20.5449 35.7736 21.409 36.4109 22.403 36.7431C23.3971 37.0753 24.4705 37.0856 25.4707 36.7724C26.471 36.4592 27.347 35.8386 27.9744 34.9987H27.9944C28.7649 35.0088 29.527 34.8382 30.2198 34.5006C30.9125 34.163 31.5165 33.6678 31.9835 33.0546C32.4505 32.4414 32.7674 31.7273 32.9089 30.9696C33.0504 30.2118 33.0125 29.4314 32.7983 28.6909C33.859 28.3623 34.8068 27.7436 35.5347 26.9046C36.2626 26.0656 36.7417 25.0398 36.9178 23.943C37.0938 22.8461 36.96 21.7218 36.5313 20.6971C36.1025 19.6723 35.396 18.7878 34.4915 18.1433C35.0272 17.0429 35.1355 15.7827 34.7953 14.6069C34.4552 13.4312 33.6908 12.4236 32.6503 11.7796C32.9182 11.0966 33.0311 10.3627 32.9808 9.6308C32.9306 8.89889 32.7185 8.18728 32.3598 7.54737C32.0012 6.90746 31.5049 6.35524 30.907 5.93058C30.309 5.50593 29.6242 5.21945 28.902 5.09184C28.6902 3.94424 28.0837 2.90693 27.1877 2.15961C26.2918 1.4123 25.1627 1.00207 23.9962 1C22.6707 1 21.3995 1.52676 20.4622 2.46441C19.525 3.40206 18.9984 4.67378 18.9984 5.99981M3.0056 15.9994C3.00557 15.1729 3.21035 14.3593 3.60163 13.6313C3.99291 12.9034 4.55847 12.2838 5.24771 11.8281C5.93695 11.3724 6.72837 11.0947 7.55116 11.02C8.37395 10.9452 9.20243 11.0756 9.96248 11.3996M9.40273 28.5009C8.04539 29.0955 6.5161 29.1663 5.10967 28.6997C3.70324 28.2332 2.51924 27.2622 1.78594 25.9741C1.05264 24.6861 0.82194 23.172 1.13832 21.7238C1.45471 20.2757 2.29577 18.9959 3.49938 18.1313M34.9913 15.9994C34.9914 15.1727 34.7867 14.3587 34.3953 13.6306C34.0039 12.9024 33.4381 12.2827 32.7486 11.8269C32.0591 11.3711 31.2674 11.0935 30.4443 11.019C29.6212 10.9444 28.7925 11.0752 28.0324 11.3996M28.5921 28.5009C29.9497 29.0971 31.4798 29.1691 32.8873 28.703C34.2947 28.2369 35.4797 27.2659 36.2136 25.9772C36.9475 24.6885 37.1783 23.1735 36.8614 21.7246C36.5444 20.2757 35.7023 18.9956 34.4975 18.1313" stroke="var(--stroke-0, #ED6B52)" stroke-width="2" stroke-linecap="round" stroke-linejoin="round"/>
</svg>
