<svg preserveAspectRatio="none" width="100%" height="100%" overflow="visible" style="display: block;" viewBox="0 0 39.5 37.5" fill="none" xmlns="http://www.w3.org/2000/svg">
<path id="Vector" d="M0.750002 19.8088C0.750002 17.8119 0.750002 16.8145 1.36856 16.194C1.98711 15.5735 2.98145 15.5735 4.97222 15.5735C6.963 15.5735 7.95734 15.5735 8.57589 16.194C9.19445 16.8145 9.19445 17.8119 9.19445 19.8088V32.5147C9.19445 34.5117 9.19445 35.5091 8.57589 36.1295C7.95734 36.75 6.963 36.75 4.97222 36.75C2.98145 36.75 1.98711 36.75 1.36856 36.1295C0.750002 35.5091 0.750002 34.5117 0.750002 32.5147V19.8088ZM15.5278 11.3382C15.5278 9.3413 15.5278 8.34389 16.1463 7.72341C16.7649 7.10294 17.7592 7.10294 19.75 7.10294C21.7408 7.10294 22.7351 7.10294 23.3537 7.72341C23.9722 8.34389 23.9722 9.3413 23.9722 11.3382V32.5147C23.9722 34.5117 23.9722 35.5091 23.3537 36.1295C22.7351 36.75 21.7408 36.75 19.75 36.75C17.7592 36.75 16.7649 36.75 16.1463 36.1295C15.5278 35.5091 15.5278 34.5117 15.5278 32.5147V11.3382ZM30.3056 4.9853C30.3056 2.98836 30.3056 1.99094 30.9241 1.37047C31.5427 0.750002 32.537 0.750002 34.5278 0.750002C36.5186 0.750002 37.5129 0.750002 38.1314 1.37047C38.75 1.99094 38.75 2.98836 38.75 4.9853V32.5147C38.75 34.5117 38.75 35.5091 38.1314 36.1295C37.5129 36.75 36.5186 36.75 34.5278 36.75C32.537 36.75 31.5427 36.75 30.9241 36.1295C30.3056 35.5091 30.3056 34.5117 30.3056 32.5147V4.9853Z" stroke="var(--stroke-0, #ED6B52)" stroke-width="1.5"/>
</svg>
