<svg preserveAspectRatio="none" width="100%" height="100%" overflow="visible" style="display: block;" viewBox="0 0 218.693 16.878" fill="none" xmlns="http://www.w3.org/2000/svg">
<g id="logotype">
<path id="Vector" d="M187.113 0H193.429C195.71 0 197.886 0.631604 199.745 1.71937V0H206.061C213.044 0 218.693 5.68444 218.693 12.6321V16.8428H214.483V12.6321C214.483 8.00032 210.693 4.21069 206.061 4.21069H203.956V5.64935C205.289 7.64943 206.061 10.0706 206.061 12.6321V16.8428H201.851V12.6321C201.851 8.00032 198.061 4.21069 193.429 4.21069H191.324V16.8428H187.113V0Z" fill="var(--fill-0, #424242)" fill-opacity="0.4"/>
<path id="Vector_2" d="M184.304 16.8779H171.672C164.69 16.8779 159.04 11.2285 159.04 4.24582V0.0351234H163.251V4.24582C163.251 8.87758 167.005 12.6672 171.672 12.6672H180.094V0.0351234H184.304V16.8779Z" fill="var(--fill-0, #424242)" fill-opacity="0.4"/>
<path id="Vector_3" d="M156.647 0.0351234V4.24582H141.91C139.594 4.24582 137.699 6.14063 137.699 8.45651C137.699 10.7724 139.594 12.6672 141.91 12.6672H142.366C143.419 12.6672 144.471 12.3163 145.278 11.6496L148.682 8.91267L148.822 8.84249L150.156 7.89508C152.191 6.45643 154.998 6.70205 156.752 8.4916C158.928 10.632 158.717 14.2111 156.331 16.141L155.454 16.8779H148.752L153.7 12.8777C154.156 12.5268 154.156 11.8602 153.77 11.4391C153.454 11.1233 152.928 11.0882 152.577 11.3338L151.279 12.2461L147.91 14.9129C146.331 16.1761 144.401 16.8779 142.366 16.8779H141.91C137.278 16.8779 133.488 13.0883 133.488 8.45651C133.488 3.78966 137.278 0.0351234 141.91 0.0351234H156.647Z" fill="var(--fill-0, #424242)" fill-opacity="0.4"/>
<path id="Vector_4" d="M107.571 0H124.414C129.045 0 132.835 3.78962 132.835 8.42139C132.835 13.0882 129.045 16.8428 124.414 16.8428H122.94C120.694 16.8428 118.483 16.1059 116.729 14.7023L111.781 10.7022V16.8428H107.571V0ZM111.781 4.24578V5.33354L119.361 11.404C120.378 12.211 121.641 12.6672 122.94 12.6672H124.414C126.729 12.6672 128.624 10.7724 128.624 8.45647C128.624 6.1055 126.729 4.24578 124.414 4.24578H111.781Z" fill="var(--fill-0, #424242)" fill-opacity="0.4"/>
<path id="Vector_5" d="M105.473 16.8428H101.263V0H105.473V16.8428Z" fill="var(--fill-0, #424242)" fill-opacity="0.4"/>
<path id="Vector_6" d="M89.141 12.6321C92.6499 12.6321 95.457 9.82495 95.457 6.31604V4.21069H82.825C80.5091 4.21069 78.6143 6.10551 78.6143 8.42139C78.6143 10.7724 80.5091 12.6321 82.825 12.6321H89.141ZM99.6677 0V6.31604C99.6677 12.1408 94.9658 16.8428 89.141 16.8428H82.825C78.1932 16.8428 74.4036 13.0882 74.4036 8.42139C74.4036 3.78962 78.1932 0 82.825 0H99.6677Z" fill="var(--fill-0, #424242)" fill-opacity="0.4"/>
<path id="Vector_7" d="M73.0052 0V12.6672C73.0052 14.2111 72.4438 15.7199 71.3911 16.8428H64.6189L67.9524 14.3514C68.4787 13.9304 68.7945 13.2988 68.7945 12.6672V10.7022L63.847 14.7023C62.0925 16.1059 59.8819 16.8428 57.6362 16.8428H56.1625C51.5307 16.8428 47.7411 13.0882 47.7411 8.42139C47.7411 3.78962 51.5307 0 56.1625 0H73.0052ZM56.1625 4.21069C53.8466 4.21069 51.9518 6.10551 51.9518 8.42139C51.9518 10.7724 53.8466 12.6321 56.1625 12.6321H57.6362C58.9345 12.6321 60.1977 12.211 61.2153 11.404L68.7945 5.33354V4.21069H56.1625Z" fill="var(--fill-0, #424242)" fill-opacity="0.4"/>
<path id="Vector_8" d="M36.7065 12.6321C40.2154 12.6321 43.0225 9.82495 43.0225 6.31604V4.21069H30.3905C28.0746 4.21069 26.1798 6.10551 26.1798 8.42139C26.1798 10.7724 28.0746 12.6321 30.3905 12.6321H36.7065ZM47.2332 0V6.31604C47.2332 12.1408 42.5312 16.8428 36.7065 16.8428H30.3905C25.7587 16.8428 21.9691 13.0882 21.9691 8.42139C21.9691 3.78962 25.7587 0 30.3905 0H47.2332Z" fill="var(--fill-0, #424242)" fill-opacity="0.4"/>
<path id="Vector_9" d="M4.21069 2.99737e-05V6.70205C4.21069 7.26347 4.42123 7.78981 4.80721 8.17579L7.43889 10.8075C8.63192 12.0005 10.2109 12.6672 11.8952 12.6672H21.0535V16.8779H11.8952C9.12317 16.8779 6.42131 15.755 4.45632 13.79L1.82463 11.1584C0.666691 9.96534 0 8.35124 0 6.70205V2.99737e-05H4.21069Z" fill="var(--fill-0, #424242)" fill-opacity="0.4"/>
</g>
</svg>
