<svg preserveAspectRatio="none" width="100%" height="100%" overflow="visible" style="display: block;" viewBox="0 0 35.0892 35.0891" fill="none" xmlns="http://www.w3.org/2000/svg">
<g id="logomark">
<path id="Vector" d="M17.5446 0C8.33944 0 0.877228 7.46222 0.877228 16.6673V17.6953L3.50891 20.327V16.6673C3.50891 8.91562 9.79284 2.63168 17.5446 2.63168C25.2963 2.63168 31.5802 8.91562 31.5802 16.6673V20.327L34.2119 17.6953V16.6673C34.2119 7.46222 26.7497 0 17.5446 0ZM17.5446 8.77228C13.1842 8.77228 9.6495 12.307 9.6495 16.6673V27.2377C9.6495 27.6979 9.27607 28.0713 8.81596 28.0713C8.59516 28.0712 8.38359 27.9833 8.22744 27.8272L0 19.5997V23.3211L6.36675 29.6878C7.01644 30.3375 7.8972 30.7029 8.81596 30.703C10.7295 30.703 12.2812 29.1513 12.2812 27.2377V16.6673C12.2812 13.7605 14.6377 11.404 17.5446 11.404C20.4514 11.404 22.8079 13.7605 22.8079 16.6673V27.2377C22.8079 29.1513 24.3596 30.703 26.2731 30.703C27.192 30.7029 28.0727 30.3375 28.7224 29.6878L30.4456 27.9647L33.0773 25.333L35.0891 23.3211V19.5997L33.2284 21.4604L31.2165 23.4723L28.5848 26.104L26.8617 27.8272C26.7055 27.9833 26.4939 28.0712 26.2731 28.0713C25.813 28.0713 25.4396 27.6979 25.4396 27.2377V16.6673C25.4396 12.307 21.9049 8.77228 17.5446 8.77228ZM17.5446 13.1584C15.6067 13.1584 14.0356 14.7294 14.0356 16.6673V27.2377C14.0356 30.1203 11.6985 32.4574 8.81596 32.4574C7.43188 32.4573 6.10415 31.9078 5.12544 30.9291L0 25.8029V29.5242L3.26476 32.7898C4.737 34.2621 6.73392 35.089 8.81596 35.0891C13.1519 35.0891 16.6673 31.5737 16.6673 27.2377V16.6673C16.6673 16.1828 17.0601 15.7901 17.5446 15.7901C18.029 15.7901 18.4218 16.1828 18.4218 16.6673V27.2377C18.4218 31.5737 21.9372 35.0891 26.2731 35.0891C28.3552 35.089 30.3521 34.2621 31.8243 32.7898L35.0891 29.5242V25.8029L29.9636 30.9291C28.9849 31.9078 27.6572 32.4573 26.2731 32.4574C23.3906 32.4574 21.0535 30.1203 21.0535 27.2377V16.6673C21.0535 14.7294 19.4824 13.1584 17.5446 13.1584ZM17.5446 4.38614C10.7618 4.38614 5.26337 9.8846 5.26337 16.6673V22.0815L7.89505 24.7132V16.6673C7.89505 11.3381 12.2153 7.01782 17.5446 7.01782C22.8738 7.01782 27.1941 11.3381 27.1941 16.6673V24.7132L29.8257 22.0815V16.6673C29.8257 9.8846 24.3273 4.38614 17.5446 4.38614Z" fill="var(--fill-0, #424242)" fill-opacity="0.4"/>
</g>
</svg>
