<svg preserveAspectRatio="none" width="100%" height="100%" overflow="visible" style="display: block;" viewBox="0 0 112.285 35.0891" fill="none" xmlns="http://www.w3.org/2000/svg">
<g id="logotype">
<path id="Vector" fill-rule="evenodd" clip-rule="evenodd" d="M55.8358 0C55.8308 3.33342 57.3034 5.12804 59.605 6.69143L58.5131 6.43105C58.1705 6.34935 57.6539 6.43105 57.656 6.71514L57.683 10.543C57.9863 10.6841 58.4407 10.8404 58.7655 10.9729C59.5623 11.2982 59.2221 8.67248 59.2195 8.49808C62.1509 6.06871 59.7619 5.04586 57.5174 2.91056C59.5138 4.36363 65.4914 7.06271 68.097 7.39282L68.1325 7.38821L68.4043 12.2545C68.4374 12.4914 68.5642 12.7165 68.8977 12.5753C69.1382 12.4737 69.4527 12.35 69.7186 12.238L69.4608 8.06745C69.4481 7.86158 69.3935 7.57872 68.6965 7.31882C72.1215 7.92501 76.2345 8.09858 79.9076 7.40514C77.1912 9.90761 74.2622 9.972 72.4685 9.9727C72.5295 10.9407 72.6521 12.2514 73.6662 13.0165C73.0414 13.0362 72.7393 12.7993 72.6532 12.5312L72.7838 14.269L76.9948 11.6634C76.4847 12.2566 76.4239 12.8076 76.4269 13.3481C76.4298 13.7867 76.8025 17.4345 76.9543 19.0853C76.9886 19.4587 77.2768 19.6598 77.5037 19.6598C77.6735 19.6597 77.8973 19.6148 78.12 19.4933L77.3456 11.5007C78.3675 10.8523 79.7895 9.55698 80.0315 8.52401L80.711 14.6643C80.9015 15.1832 81.2023 15.6729 81.6949 16.0399C81.2846 16.0529 81.0083 15.955 80.8378 15.8097C81.1047 18.2217 81.38 20.6045 81.6554 23.0925C81.6159 21.8993 82.6386 20.8594 83.4451 20.7042L82.0702 9.21925C82.6153 8.69928 83.2762 7.99135 83.1924 7.91444C83.1322 7.85965 82.1641 8.75078 81.9695 8.88336C79.7424 4.92041 75.3223 3.89189 72.0153 3.1238C79.8394 4.09117 82.887 5.74217 86.1382 10.6175C85.3973 10.2639 85.2054 10.3496 85.28 10.9075L85.6534 13.6064C85.6937 13.9085 86.0061 14.1457 86.2061 14.0574C86.4525 13.9486 86.7807 13.8243 87.048 13.7049L86.2562 8.04141C86.1642 7.38335 85.9399 6.99964 84.8889 6.67023L87.943 7.54012C87.9087 7.43651 87.4974 7.11253 87.4735 6.7333C87.7877 7.18875 88.2912 7.53661 88.8 7.78787L90.8904 8.3853C90.4124 8.3853 90.336 8.41777 90.4431 8.57669C91.2861 9.83533 91.9756 11.8499 92.2966 13.2606C92.6826 11.8913 92.9914 10.2701 93.3554 8.92371C93.3879 8.8059 93.4809 8.70291 92.9475 8.52249L94.6397 8.74572C88.3544 4.10758 84.4036 0.886878 79.7917 1.07798C82.6537 0.729947 87.5367 2.029 92.2554 4.77159C93.4967 5.49295 95.0801 6.42475 96.0635 7.00799C96.0687 6.85356 95.6143 6.28692 95.738 5.84858C95.9503 6.48111 96.4257 7.06108 96.9617 7.54473C101.801 10.3642 103.78 11.0629 109.439 10.0691C106.761 11.8091 101.667 12.8528 97.0907 10.3982L97.9863 15.1569C98.2258 15.9346 98.7022 16.6239 99.6136 16.3488C100.606 15.6849 101.094 15.0589 101.59 14.7635C101.993 14.5241 101.751 14.3527 101.568 14.3093L102.358 14.3172H109.542C110.158 14.3362 111.394 14.1464 112.285 13.8056C110.269 14.9075 108.793 15.6356 108.817 16.0978C108.787 15.5213 108.61 15.2135 108.61 15.2135C103.268 14.714 98.4793 16.9296 99.275 22.0123L99.3732 22.5326C102.269 23.5591 105.411 25.4625 108.901 28.4607C106.336 26.7849 101.886 23.5527 95.6854 23.075C97.1407 23.481 98.6785 24.2037 99.9329 25.51C98.3609 24.1113 94.0748 22.9053 92.5063 23.1024C86.5947 23.8454 82.2331 29.3972 83.7019 32.5625C76.2873 37.7792 61.758 34.6591 59.6756 25.5838C60.8242 27.5557 63.7351 29.2433 67.1772 30.1227C67.0715 29.8072 66.9757 29.5121 66.9013 29.2744C67.5012 29.8465 68.2644 30.3839 69.0273 30.5068C73.1991 31.1787 77.7021 30.614 80.49 28.0517C85.2506 23.6766 90.0536 21.1545 95.3634 21.6328L94.8792 18.8081C94.7108 19.0346 94.4274 19.29 94.0046 19.537C95.0845 18.5019 94.4397 16.5288 94.3239 15.5641L94.0616 14.0345C94.0265 13.2622 93.8634 11.8605 93.7248 11.8427C93.6844 11.8377 93.7142 12.8786 93.7142 13.1955C93.0651 14.6052 92.766 16.4056 92.8651 17.7648C92.5133 16.159 91.1869 13.2606 89.9632 11.8046L91.3948 21.0819C90.2229 21.0819 88.3289 21.5089 87.4048 22.0179C87.9728 21.6833 88.1833 21.5146 88.064 20.9702L87.0816 13.9456C86.4346 14.1666 85.7767 14.5305 85.8684 15.1276L86.8646 22.1467C86.1864 22.355 84.7987 22.7869 84.0874 23.1023L83.6905 21.2935L83.2656 23.4934C81.5505 24.8694 80.2765 25.9869 78.9002 27.5467L78.1318 19.6148C77.6003 19.8412 77.0659 20.2095 77.111 20.7008C77.1159 20.7534 77.1174 20.7967 77.1147 20.8316L77.7794 28.0638C76.3639 28.9553 75.4186 29.2563 73.7117 29.4393C71.1507 25.6556 68.6128 22.2796 64.1157 21.6647L69.3305 19.1549C68.81 19.6126 68.47 19.935 68.8282 20.1678C71.2141 21.7211 72.387 22.8021 73.5948 24.6596C73.638 24.8421 73.6867 25.0271 73.745 25.2173C73.7774 25.3238 74.0305 26.8499 74.0771 26.8454C74.1782 26.835 74.1399 26.0552 74.0616 25.2955L73.7442 21.1742C73.6916 21.255 73.6018 21.3705 73.4583 21.5058C73.6012 20.9584 73.6349 20.2311 73.6188 19.5463L73.4326 17.1295C69.9514 17.3671 68.2157 18.18 65.2491 20.1678C67.1771 18.2669 68.4508 17.1041 70.2992 15.7412C70.5097 15.6073 70.7196 15.4683 70.9287 15.3105C71.0107 15.2489 72.2682 14.5434 72.2419 14.5083C72.1725 14.4149 71.1457 14.8761 70.4037 15.2576L69.4692 15.6347C69.8246 15.3548 69.897 15.1219 69.869 14.6694L69.7296 12.4153C69.0802 12.6376 68.4437 12.9599 68.4809 13.6256L68.6157 16.04C66.5653 16.9544 65.5223 17.9226 64.7571 20.1678L63.158 19.6475L63.2767 23.0782C62.3188 22.9451 61.8059 22.9665 60.9013 22.9665L63.4772 23.7706C66.5467 24.9644 70.2339 26.8921 72.9596 29.6722C68.2889 26.6542 64.5466 25.6893 59.4495 24.6121L59.4052 21.5004C59.3328 21.7832 59.0393 22.0288 58.4006 22.008C59.225 21.8025 59.3703 20.6177 59.3769 19.5228C59.3405 16.9687 59.3048 14.4714 59.2699 12.0289C59.2594 11.2893 58.5977 11.0966 57.6852 10.8497L57.7783 24.0315C57.4956 24.2782 57.0023 24.9115 57.0173 25.2842C57.2176 25.1186 57.3778 24.921 57.5837 24.7514C57.6668 24.6828 57.754 24.607 57.8385 24.5277L59.2414 25.4161C56.923 27.2077 56.0829 30.316 55.84 33.6456C55.3435 30.2053 54.3983 27.2521 52.4594 25.4161L53.8892 24.512C54.1514 24.7321 54.566 25.098 54.5994 25.2842C54.6121 24.9886 54.3513 24.7252 54.1754 24.5061C54.0775 24.3841 54.0181 24.2397 53.9251 24.1196L54.0384 12.2919C53.1926 12.4747 52.2527 12.9014 52.2518 13.6482L52.2037 15.674C52.1995 16.6219 52.1512 18.6513 53.1369 19.7238C52.9038 19.6582 52.4323 19.3255 52.1444 19.0322L52.0459 24.6121C46.9454 25.6892 40.8571 26.4186 36.3688 29.5705C39.5765 25.8532 43.5771 25.2302 46.1693 24.099C44.0842 24.1749 42.9259 24.2455 40.9393 24.858C40.9405 24.5376 40.9787 24.2555 41.0136 23.724L41.2814 19.6333C40.7293 19.8612 40.1687 20.2221 40.1352 20.6987C40.1326 20.7369 40.1285 20.7701 40.1237 20.7988L39.8175 25.1595C37.7149 26.1852 36.701 27.0362 35.268 28.8589C33.9696 28.4054 33.2657 27.9594 31.8931 26.9195C30.8636 26.1395 30.0764 24.9712 28.431 23.8522L33.9156 21.3846C33.1275 22.0144 32.9003 22.3052 33.2986 22.588L34.8852 24.2291C34.8216 25.3941 34.8094 26.5889 34.9395 26.5945C34.993 26.5959 35.196 24.7358 35.266 24.2062L36.0922 23.481L36.5532 18.1742L34.0916 20.289C33.6968 20.6283 33.1864 20.8193 32.6739 20.8193H31.3024C31.9206 20.6507 32.2955 20.5609 31.9607 20.2326L29.5642 17.7392L30.314 11.3892C30.3095 10.9416 30.1128 10.6762 29.6992 10.4454L28.5967 19.5269C28.5924 20.2824 28.7393 21.0474 29.308 21.5729C28.7646 21.5904 28.4906 21.4164 28.3945 21.1908L28.1066 23.5632C24.7256 21.2036 22.5746 20.7978 18.5239 20.5208L19.3081 15.7704C18.6646 15.9715 17.8341 16.3644 17.739 16.9194C17.7341 16.9482 17.7287 16.9741 17.723 16.9973L16.9356 21.595C22.0369 21.3194 26.6765 23.8169 31.2747 28.0515C33.8619 30.434 37.9401 31.0902 41.8603 30.6283C42.7395 30.5247 43.6776 29.9415 44.3802 29.2743C44.3016 29.5236 44.115 29.8838 43.8749 30.29C47.6218 29.4715 50.8629 27.6901 52.0945 25.5836C49.9922 34.6589 35.456 37.7789 28.0529 32.5623C29.5189 29.4178 25.2354 23.9172 19.3867 23.1176C18.3925 22.9817 13.8626 24.1726 12.3596 25.5098C13.6563 24.1593 15.2562 23.4324 16.7555 23.0344C10.2026 23.325 5.52238 26.7257 2.86353 28.4605C6.5794 25.2733 9.90311 23.322 12.9543 22.3469L12.9716 22.255L12.9675 22.2573C13.9562 16.9996 9.09992 14.706 3.67591 15.2132C3.67467 15.2153 3.49886 15.522 3.46743 16.0975C3.49265 15.6352 2.01585 14.9073 0 13.8053C0.890983 14.1461 2.12723 14.3359 2.74242 14.3169H11.1047C10.921 14.3604 10.5514 14.7188 10.7687 14.8787C11.2649 15.1743 11.6788 15.6846 12.6713 16.3486C13.6083 16.6313 14.0855 15.8955 14.3185 15.0919C14.652 13.318 14.9839 11.5529 15.3196 9.76761C10.4992 13.012 4.80674 11.9458 1.92653 10.0689C7.46466 11.0421 9.48064 10.392 14.1228 7.71346C14.7378 7.19873 15.3087 6.55645 15.5493 5.84841C15.6882 6.34801 15.3306 6.88463 15.3264 7.01937C16.3371 6.42206 17.8471 5.51632 19.1321 4.77142C23.8626 2.02883 28.7512 0.729772 31.6116 1.07781C27.1919 0.894589 23.3713 3.84195 17.521 8.16336L19.3696 7.3823L17.9906 15.4348C17.9884 15.607 18.0814 15.7088 18.4245 15.7088C18.7023 15.7088 19.0499 15.6478 19.343 15.5599L19.9955 11.6072C20.0883 11.0456 19.8985 10.9596 19.1437 11.3153C21.4218 8.04626 23.7597 6.22746 27.367 5.08844C29.1998 4.50964 35.2225 3.36969 37.8676 3.04326C34.2321 3.80551 30.2637 5.79684 30.0544 7.52137L29.7227 10.2532C29.808 10.2875 29.89 10.3208 29.9643 10.3528C30.2851 10.4909 30.4249 10.2796 30.4725 10.0481L30.829 7.02878C32.6047 7.4976 34.5266 7.61243 36.4035 7.52627C36.8968 7.39381 37.3768 7.19132 37.7833 6.89129C37.675 7.12527 37.5783 7.31047 37.4963 7.45391C39.2205 7.30591 40.8674 7.01008 42.2898 6.69155C41.3374 7.01687 41.0714 7.23127 41.0462 7.66259L40.8433 10.5531C40.7972 11.2092 40.4654 12.9878 41.3284 13.1976C40.8986 13.211 40.7144 13.0494 40.6808 12.8657L40.2575 18.8954C40.1878 19.8875 41.1231 19.517 41.2935 19.4509L42.0733 7.54012C46.7991 6.62391 50.0647 5.34378 54.1389 2.91039C51.8718 5.06093 49.5768 5.98146 52.3427 8.4979L52.278 12.1723L52.2797 12.1712C52.26 12.4486 52.3395 12.7922 52.751 12.6232C53.1611 12.4547 53.776 12.2488 54.0406 12.0821L54.0885 7.09927C54.0936 6.55704 53.605 6.31173 53.1047 6.431L52.012 6.69137C54.1064 5.21991 55.8309 3.33342 55.8358 0ZM45.7845 9.29364C45.1591 8.88327 43.7438 8.09906 43.6535 8.2012C43.626 8.23251 44.7896 8.98775 44.8641 9.05179C45.0912 9.2468 45.3209 9.41689 45.5513 9.58339L45.4407 11.8491C45.4352 12.5416 45.4828 13.3067 45.6521 13.8687C45.5017 13.7352 45.409 13.6224 45.3578 13.5464L45.3185 14.3497H45.3061L44.9366 21.9085L47.1461 23.724L48.2286 23.3065L48.7696 7.88558L45.7845 9.29364ZM27.3555 6.92482C25.5472 7.69635 24.6735 8.63971 23.6374 9.96718C23.4064 9.75822 23.2827 9.64734 22.9667 9.43628C22.8701 9.37198 22.8094 9.2918 22.7159 9.22916C22.6434 9.36557 22.7555 9.46944 22.8222 9.55883C22.9718 9.7591 23.0778 9.83287 23.294 9.98437C23.3777 10.0438 23.4518 10.1087 23.5376 10.1667L22.3609 18.0164C23.8473 18.0164 25.2394 18.4996 25.7005 19.2441L27.3555 6.92482ZM34.0678 8.8559C34.0228 8.77695 32.9167 8.23222 32.8482 8.29734C32.8316 8.31322 33.4116 8.64211 33.4478 8.67067C33.7684 8.92354 33.9363 8.99731 34.1788 9.19206L33.5804 15.0925L35.7002 17.2325L36.7098 16.3716L37.3364 9.15793C36.111 9.18802 35.4203 9.18381 34.2467 8.96565C34.1915 8.92617 34.134 8.88836 34.0678 8.8559ZM62.9144 10.5307C62.958 11.2583 63.0659 12.0967 63.2967 12.6995C63.1175 12.5516 63.0119 12.4294 62.9593 12.3552L63.0645 16.6221L64.8012 17.1961C65.0434 16.5584 65.2346 16.2251 65.8492 15.7454L65.5686 9.29654C65.6703 9.21855 65.7713 9.13767 65.8713 9.05188C65.9466 8.98784 67.1155 8.23263 67.0883 8.20126C67.016 8.11902 66.0819 8.61097 65.3916 9.02021C64.3861 8.72475 63.7949 8.46181 62.8461 7.76626C62.869 8.68784 62.8916 9.60909 62.9144 10.5307Z" fill="var(--fill-0, #424242)" fill-opacity="0.4"/>
</g>
</svg>
