<svg preserveAspectRatio="none" width="100%" height="100%" overflow="visible" style="display: block;" viewBox="0 0 107.899 35.0894" fill="none" xmlns="http://www.w3.org/2000/svg">
<g id="logotype">
<path id="Vector" d="M101.527 10.3762L93.9964 0H107.899L101.527 10.3762Z" fill="var(--fill-0, #424242)" fill-opacity="0.4"/>
<path id="Vector_2" d="M84.8839 0.00146457H89.8685L99.7171 13.5703L86.5053 35.0879L72.7317 35.0885L68.6528 29.4672L65.2014 35.0892L47.3054 35.0885L43.2264 29.4672L39.7757 35.0879L10.1965 35.0885L0 21.038L12.9166 0.00146457H24.2096L11.5677 20.5906L15.0989 25.4568L34.3969 25.4561L41.4192 14.0178L38.2376 9.63322H34.1009L27.3732 20.5892L28.9087 22.7049H17.0169L15.8062 21.0367L28.7214 0.00146457H43.1392L46.8691 5.1405L50.0239 0.00280829L74.2263 0.000792719L68.3119 9.63322L55.4034 9.63392L52.9868 13.5696L52.9875 13.5703L48.6764 20.5906L52.2077 25.4568H59.8225L61.9352 22.0169H53.4976L52.709 20.733L57.8348 12.3852H79.1407L74.1028 20.5899L77.634 25.4561H81.1265L88.1491 14.0178L84.967 9.63322H72.4351L78.3494 0.000120862H84.8839V0.00146457Z" fill="var(--fill-0, #424242)" fill-opacity="0.4"/>
</g>
</svg>
