<svg preserveAspectRatio="none" width="100%" height="100%" overflow="visible" style="display: block;" viewBox="0 0 1484 938.369" fill="none" xmlns="http://www.w3.org/2000/svg">
<path id="Union" d="M1484 938.369H0V0H1484V938.369ZM46.8398 936.434H89.8359V891.546H46.8398V936.434ZM91.7539 936.434H134.734V891.546H91.7539V936.434ZM136.652 936.434H179.66V891.546H136.652V936.434ZM181.578 936.434H224.574V891.546H181.578V936.434ZM226.492 936.434H269.461V891.546H226.492V936.434ZM271.379 936.434H314.35V891.546H271.379V936.434ZM316.268 936.434H359.271V891.546H316.268V936.434ZM361.189 936.434H404.219V891.546H361.189V936.434ZM406.137 936.434H449.133V891.546H406.137V936.434ZM451.051 936.434H494.021V891.546H451.051V936.434ZM495.939 936.434H538.936V891.546H495.939V936.434ZM540.854 936.434H583.861V891.546H540.854V936.434ZM585.779 936.434H628.746V891.546H585.779V936.434ZM630.664 936.434H673.697V891.546H630.664V936.434ZM675.615 936.434H718.578V891.546H675.615V936.434ZM720.496 936.434H763.531V891.546H720.496V936.434ZM765.449 936.434H808.426V891.546H765.449V936.434ZM810.344 936.434H853.295V891.546H810.344V936.434ZM855.213 936.434H898.25V891.546H855.213V936.434ZM900.168 936.434H943.143V891.546H900.168V936.434ZM945.061 936.434H988.051V891.546H945.061V936.434ZM989.969 936.434H1032.96V891.546H989.969V936.434ZM1034.88 936.434H1077.87V891.546H1034.88V936.434ZM1079.79 936.434H1122.81V891.546H1079.79V936.434ZM1124.72 936.434H1167.7V891.546H1124.72V936.434ZM1169.61 936.434H1212.62V891.546H1169.61V936.434ZM1214.54 936.434H1257.51V891.546H1214.54V936.434ZM1259.43 936.434H1302.42V891.546H1259.43V936.434ZM1304.34 936.434H1347.34V891.546H1304.34V936.434ZM1349.25 936.434H1392.21V891.546H1349.25V936.434ZM1394.12 936.434H1437.19V891.546H1394.12V936.434ZM1439.1 936.434H1482.08V891.546H1439.1V936.434ZM1.91797 936.434H44.9219V891.546H1.91797V936.434ZM46.8398 889.609H89.8359V844.725H46.8398V889.609ZM91.7539 889.609H134.734V844.725H91.7539V889.609ZM136.652 889.609H179.66V844.725H136.652V889.609ZM181.578 889.609H224.574V844.725H181.578V889.609ZM226.492 889.609H269.461V844.725H226.492V889.609ZM271.379 889.609H314.35V844.725H271.379V889.609ZM316.268 889.609H359.271V844.725H316.268V889.609ZM361.189 889.609H404.219V844.725H361.189V889.609ZM406.137 889.609H449.133V844.725H406.137V889.609ZM451.051 889.609H494.021V844.725H451.051V889.609ZM495.939 889.609H538.936V844.725H495.939V889.609ZM540.854 889.609H583.861V844.725H540.854V889.609ZM585.779 889.609H628.746V844.725H585.779V889.609ZM630.664 889.609H673.697V844.725H630.664V889.609ZM675.615 889.609H718.578V844.725H675.615V889.609ZM720.496 889.609H763.531V844.725H720.496V889.609ZM765.449 889.609H808.426V844.725H765.449V889.609ZM810.344 889.609H853.295V844.725H810.344V889.609ZM855.213 889.609H898.25V844.725H855.213V889.609ZM900.168 889.609H943.143V844.725H900.168V889.609ZM945.061 889.609H988.051V844.725H945.061V889.609ZM989.969 889.609H1032.96V844.725H989.969V889.609ZM1034.88 889.609H1077.87V844.725H1034.88V889.609ZM1079.79 889.609H1122.81V844.725H1079.79V889.609ZM1124.72 889.609H1167.7V844.725H1124.72V889.609ZM1169.61 889.609H1212.62V844.725H1169.61V889.609ZM1214.54 889.609H1257.51V844.725H1214.54V889.609ZM1259.43 889.609H1302.42V844.725H1259.43V889.609ZM1304.34 889.609H1347.34V844.725H1304.34V889.609ZM1349.25 889.609H1392.21V844.725H1349.25V889.609ZM1394.12 889.609H1437.19V844.725H1394.12V889.609ZM1439.1 889.609H1482.08V844.725H1439.1V889.609ZM1.91797 889.609H44.9219V844.725H1.91797V889.609ZM46.8398 842.788H89.8359V797.901H46.8398V842.788ZM91.7539 842.788H134.734V797.901H91.7539V842.788ZM136.652 842.788H179.66V797.901H136.652V842.788ZM181.578 842.788H224.574V797.901H181.578V842.788ZM226.492 842.788H269.461V797.901H226.492V842.788ZM271.379 842.788H314.35V797.901H271.379V842.788ZM316.268 842.788H359.271V797.901H316.268V842.788ZM361.189 842.788H404.219V797.901H361.189V842.788ZM406.137 842.788H449.133V797.901H406.137V842.788ZM451.051 842.788H494.021V797.901H451.051V842.788ZM495.939 842.788H538.936V797.901H495.939V842.788ZM540.854 842.788H583.861V797.901H540.854V842.788ZM585.779 842.788H628.746V797.901H585.779V842.788ZM630.664 842.788H673.697V797.901H630.664V842.788ZM675.615 842.788H718.578V797.901H675.615V842.788ZM720.496 842.788H763.531V797.901H720.496V842.788ZM765.449 842.788H808.426V797.901H765.449V842.788ZM810.344 842.788H853.295V797.901H810.344V842.788ZM855.213 842.788H898.25V797.901H855.213V842.788ZM900.168 842.788H943.143V797.901H900.168V842.788ZM945.061 842.788H988.051V797.901H945.061V842.788ZM989.969 842.788H1032.96V797.901H989.969V842.788ZM1034.88 842.788H1077.87V797.901H1034.88V842.788ZM1079.79 842.788H1122.81V797.901H1079.79V842.788ZM1124.72 842.788H1167.7V797.901H1124.72V842.788ZM1169.61 842.788H1212.62V797.901H1169.61V842.788ZM1214.54 842.788H1257.51V797.901H1214.54V842.788ZM1259.43 842.788H1302.42V797.901H1259.43V842.788ZM1304.34 842.788H1347.34V797.901H1304.34V842.788ZM1349.25 842.788H1392.21V797.901H1349.25V842.788ZM1394.12 842.788H1437.19V797.901H1394.12V842.788ZM1439.1 842.788H1482.08V797.901H1439.1V842.788ZM1.91797 842.788H44.9219V797.901H1.91797V842.788ZM46.8398 795.966H89.8359V751.08H46.8398V795.966ZM91.7539 795.966H134.734V751.08H91.7539V795.966ZM136.652 795.966H179.66V751.08H136.652V795.966ZM181.578 795.966H224.574V751.08H181.578V795.966ZM226.492 795.966H269.461V751.08H226.492V795.966ZM271.379 795.966H314.35V751.08H271.379V795.966ZM316.268 795.966H359.271V751.08H316.268V795.966ZM361.189 795.966H404.219V751.08H361.189V795.966ZM406.137 795.966H449.133V751.08H406.137V795.966ZM451.051 795.966H494.021V751.08H451.051V795.966ZM495.939 795.966H538.936V751.08H495.939V795.966ZM540.854 795.966H583.861V751.08H540.854V795.966ZM585.779 795.966H628.746V751.08H585.779V795.966ZM630.664 795.966H673.697V751.08H630.664V795.966ZM675.615 795.966H718.578V751.08H675.615V795.966ZM720.496 795.966H763.531V751.08H720.496V795.966ZM765.449 795.966H808.426V751.08H765.449V795.966ZM810.344 795.966H853.295V751.08H810.344V795.966ZM855.213 795.966H898.25V751.08H855.213V795.966ZM900.168 795.966H943.143V751.08H900.168V795.966ZM945.061 795.966H988.051V751.08H945.061V795.966ZM989.969 795.966H1032.96V751.08H989.969V795.966ZM1034.88 795.966H1077.87V751.08H1034.88V795.966ZM1079.79 795.966H1122.81V751.08H1079.79V795.966ZM1124.72 795.966H1167.7V751.08H1124.72V795.966ZM1169.61 795.966H1212.62V751.08H1169.61V795.966ZM1214.54 795.966H1257.51V751.08H1214.54V795.966ZM1259.43 795.966H1302.42V751.08H1259.43V795.966ZM1304.34 795.966H1347.34V751.08H1304.34V795.966ZM1349.25 795.966H1392.21V751.08H1349.25V795.966ZM1394.12 795.966H1437.19V751.08H1394.12V795.966ZM1439.1 795.966H1482.08V751.08H1439.1V795.966ZM1.91797 795.966H44.9219V751.08H1.91797V795.966ZM46.8398 749.145H89.8359V704.262H46.8398V749.145ZM91.7539 749.145H134.734V704.262H91.7539V749.145ZM136.652 749.145H179.66V704.262H136.652V749.145ZM181.578 749.145H224.574V704.262H181.578V749.145ZM226.492 749.145H269.461V704.262H226.492V749.145ZM271.379 749.145H314.35V704.262H271.379V749.145ZM316.268 749.145H359.271V704.262H316.268V749.145ZM361.189 749.145H404.219V704.262H361.189V749.145ZM406.137 749.145H449.133V704.262H406.137V749.145ZM451.051 749.145H494.021V704.262H451.051V749.145ZM495.939 749.145H538.936V704.262H495.939V749.145ZM540.854 749.145H583.861V704.262H540.854V749.145ZM585.779 749.145H628.746V704.262H585.779V749.145ZM630.664 749.145H673.697V704.262H630.664V749.145ZM675.615 749.145H718.578V704.262H675.615V749.145ZM720.496 749.145H763.531V704.262H720.496V749.145ZM765.449 749.145H808.426V704.262H765.449V749.145ZM810.344 749.145H853.295V704.262H810.344V749.145ZM855.213 749.145H898.25V704.262H855.213V749.145ZM900.168 749.145H943.143V704.262H900.168V749.145ZM945.061 749.145H988.051V704.262H945.061V749.145ZM989.969 749.145H1032.96V704.262H989.969V749.145ZM1034.88 749.145H1077.87V704.262H1034.88V749.145ZM1079.79 749.145H1122.81V704.262H1079.79V749.145ZM1124.72 749.145H1167.7V704.262H1124.72V749.145ZM1169.61 749.145H1212.62V704.262H1169.61V749.145ZM1214.54 749.145H1257.51V704.262H1214.54V749.145ZM1259.43 749.145H1302.42V704.262H1259.43V749.145ZM1304.34 749.145H1347.34V704.262H1304.34V749.145ZM1349.25 749.145H1392.21V704.262H1349.25V749.145ZM1394.12 749.145H1437.19V704.262H1394.12V749.145ZM1439.1 749.145H1482.08V704.262H1439.1V749.145ZM1.91797 749.145H44.9219V704.262H1.91797V749.145ZM46.8398 702.325H89.8359V657.44H46.8398V702.325ZM91.7539 702.325H134.734V657.44H91.7539V702.325ZM136.652 702.325H179.66V657.44H136.652V702.325ZM181.578 702.325H224.574V657.44H181.578V702.325ZM226.492 702.325H269.461V657.44H226.492V702.325ZM271.379 702.325H314.35V657.44H271.379V702.325ZM316.268 702.325H359.271V657.44H316.268V702.325ZM361.189 702.325H404.219V657.44H361.189V702.325ZM406.137 702.325H449.133V657.44H406.137V702.325ZM451.051 702.325H494.021V657.44H451.051V702.325ZM495.939 702.325H538.936V657.44H495.939V702.325ZM540.854 702.325H583.861V657.44H540.854V702.325ZM585.779 702.325H628.746V657.44H585.779V702.325ZM630.664 702.325H673.697V657.44H630.664V702.325ZM675.615 702.325H718.578V657.44H675.615V702.325ZM720.496 702.325H763.531V657.44H720.496V702.325ZM765.449 702.325H808.426V657.44H765.449V702.325ZM810.344 702.325H853.295V657.44H810.344V702.325ZM855.213 702.325H898.25V657.44H855.213V702.325ZM900.168 702.325H943.143V657.44H900.168V702.325ZM945.061 702.325H988.051V657.44H945.061V702.325ZM989.969 702.325H1032.96V657.44H989.969V702.325ZM1034.88 702.325H1077.87V657.44H1034.88V702.325ZM1079.79 702.325H1122.81V657.44H1079.79V702.325ZM1124.72 702.325H1167.7V657.44H1124.72V702.325ZM1169.61 702.325H1212.62V657.44H1169.61V702.325ZM1214.54 702.325H1257.51V657.44H1214.54V702.325ZM1259.43 702.325H1302.42V657.44H1259.43V702.325ZM1304.34 702.325H1347.34V657.44H1304.34V702.325ZM1349.25 702.325H1392.21V657.44H1349.25V702.325ZM1394.12 702.325H1437.19V657.44H1394.12V702.325ZM1439.1 702.325H1482.08V657.44H1439.1V702.325ZM1.91797 702.325H44.9219V657.44H1.91797V702.325ZM46.8398 655.505H89.8359V610.618H46.8398V655.505ZM91.7539 655.505H134.734V610.618H91.7539V655.505ZM136.652 655.505H179.66V610.618H136.652V655.505ZM181.578 655.505H224.574V610.618H181.578V655.505ZM226.492 655.505H269.461V610.618H226.492V655.505ZM271.379 655.505H314.35V610.618H271.379V655.505ZM316.268 655.505H359.271V610.618H316.268V655.505ZM361.189 655.505H404.219V610.618H361.189V655.505ZM406.137 655.505H449.133V610.618H406.137V655.505ZM451.051 655.505H494.021V610.618H451.051V655.505ZM495.939 655.505H538.936V610.618H495.939V655.505ZM540.854 655.505H583.861V610.618H540.854V655.505ZM585.779 655.505H628.746V610.618H585.779V655.505ZM630.664 655.505H673.697V610.618H630.664V655.505ZM675.615 655.505H718.578V610.618H675.615V655.505ZM720.496 655.505H763.531V610.618H720.496V655.505ZM765.449 655.505H808.426V610.618H765.449V655.505ZM810.344 655.505H853.295V610.618H810.344V655.505ZM855.213 655.505H898.25V610.618H855.213V655.505ZM900.168 655.505H943.143V610.618H900.168V655.505ZM945.061 655.505H988.051V610.618H945.061V655.505ZM989.969 655.505H1032.96V610.618H989.969V655.505ZM1034.88 655.505H1077.87V610.618H1034.88V655.505ZM1079.79 655.505H1122.81V610.618H1079.79V655.505ZM1124.72 655.505H1167.7V610.618H1124.72V655.505ZM1169.61 655.505H1212.62V610.618H1169.61V655.505ZM1214.54 655.505H1257.51V610.618H1214.54V655.505ZM1259.43 655.505H1302.42V610.618H1259.43V655.505ZM1304.34 655.505H1347.34V610.618H1304.34V655.505ZM1349.25 655.505H1392.21V610.618H1349.25V655.505ZM1394.12 655.505H1437.19V610.618H1394.12V655.505ZM1439.1 655.505H1482.08V610.618H1439.1V655.505ZM1.91797 655.505H44.9219V610.618H1.91797V655.505ZM46.8398 608.682H89.8359V563.796H46.8398V608.682ZM91.7539 608.682H134.734V563.796H91.7539V608.682ZM136.652 608.682H179.66V563.796H136.652V608.682ZM181.578 608.682H224.574V563.796H181.578V608.682ZM226.492 608.682H269.461V563.796H226.492V608.682ZM271.379 608.682H314.35V563.796H271.379V608.682ZM316.268 608.682H359.271V563.796H316.268V608.682ZM361.189 608.682H404.219V563.796H361.189V608.682ZM406.137 608.682H449.133V563.796H406.137V608.682ZM451.051 608.682H494.021V563.796H451.051V608.682ZM495.939 608.682H538.936V563.796H495.939V608.682ZM540.854 608.682H583.861V563.796H540.854V608.682ZM585.779 608.682H628.746V563.796H585.779V608.682ZM630.664 608.682H673.697V563.796H630.664V608.682ZM675.615 608.682H718.578V563.796H675.615V608.682ZM720.496 608.682H763.531V563.796H720.496V608.682ZM765.449 608.682H808.426V563.796H765.449V608.682ZM810.344 608.682H853.295V563.796H810.344V608.682ZM855.213 608.682H898.25V563.796H855.213V608.682ZM900.168 608.682H943.143V563.796H900.168V608.682ZM945.061 608.682H988.051V563.796H945.061V608.682ZM989.969 608.682H1032.96V563.796H989.969V608.682ZM1034.88 608.682H1077.87V563.796H1034.88V608.682ZM1079.79 608.682H1122.81V563.796H1079.79V608.682ZM1124.72 608.682H1167.7V563.796H1124.72V608.682ZM1169.61 608.682H1212.62V563.796H1169.61V608.682ZM1214.54 608.682H1257.51V563.796H1214.54V608.682ZM1259.43 608.682H1302.42V563.796H1259.43V608.682ZM1304.34 608.682H1347.34V563.796H1304.34V608.682ZM1349.25 608.682H1392.21V563.796H1349.25V608.682ZM1394.12 608.682H1437.19V563.796H1394.12V608.682ZM1439.1 608.682H1482.08V563.796H1439.1V608.682ZM1.91797 608.682H44.9219V563.796H1.91797V608.682ZM46.8398 561.859H89.8359V516.974H46.8398V561.859ZM91.7539 561.859H134.734V516.974H91.7539V561.859ZM136.652 561.859H179.66V516.974H136.652V561.859ZM181.578 561.859H224.574V516.974H181.578V561.859ZM226.492 561.859H269.461V516.974H226.492V561.859ZM271.379 561.859H314.35V516.974H271.379V561.859ZM316.268 561.859H359.271V516.974H316.268V561.859ZM361.189 561.859H404.219V516.974H361.189V561.859ZM406.137 561.859H449.133V516.974H406.137V561.859ZM451.051 561.859H494.021V516.974H451.051V561.859ZM495.939 561.859H538.936V516.974H495.939V561.859ZM540.854 561.859H583.861V516.974H540.854V561.859ZM585.779 561.859H628.746V516.974H585.779V561.859ZM630.664 561.859H673.697V516.974H630.664V561.859ZM675.615 561.859H718.578V516.974H675.615V561.859ZM720.496 561.859H763.531V516.974H720.496V561.859ZM765.449 561.859H808.426V516.974H765.449V561.859ZM810.344 561.859H853.295V516.974H810.344V561.859ZM855.213 561.859H898.25V516.974H855.213V561.859ZM900.168 561.859H943.143V516.974H900.168V561.859ZM945.061 561.859H988.051V516.974H945.061V561.859ZM989.969 561.859H1032.96V516.974H989.969V561.859ZM1034.88 561.859H1077.87V516.974H1034.88V561.859ZM1079.79 561.859H1122.81V516.974H1079.79V561.859ZM1124.72 561.859H1167.7V516.974H1124.72V561.859ZM1169.61 561.859H1212.62V516.974H1169.61V561.859ZM1214.54 561.859H1257.51V516.974H1214.54V561.859ZM1259.43 561.859H1302.42V516.974H1259.43V561.859ZM1304.34 561.859H1347.34V516.974H1304.34V561.859ZM1349.25 561.859H1392.21V516.974H1349.25V561.859ZM1394.12 561.859H1437.19V516.974H1394.12V561.859ZM1439.1 561.859H1482.08V516.974H1439.1V561.859ZM1.91797 561.859H44.9219V516.974H1.91797V561.859ZM46.8398 515.037H89.8359V470.153H46.8398V515.037ZM91.7539 515.037H134.734V470.153H91.7539V515.037ZM136.652 515.037H179.66V470.153H136.652V515.037ZM181.578 515.037H224.574V470.153H181.578V515.037ZM226.492 515.037H269.461V470.153H226.492V515.037ZM271.379 515.037H314.35V470.153H271.379V515.037ZM316.268 515.037H359.271V470.153H316.268V515.037ZM361.189 515.037H404.219V470.153H361.189V515.037ZM406.137 515.037H449.133V470.153H406.137V515.037ZM451.051 515.037H494.021V470.153H451.051V515.037ZM495.939 515.037H538.936V470.153H495.939V515.037ZM540.854 515.037H583.861V470.153H540.854V515.037ZM585.779 515.037H628.746V470.153H585.779V515.037ZM630.664 515.037H673.697V470.153H630.664V515.037ZM675.615 515.037H718.578V470.153H675.615V515.037ZM720.496 515.037H763.531V470.153H720.496V515.037ZM765.449 515.037H808.426V470.153H765.449V515.037ZM810.344 515.037H853.295V470.153H810.344V515.037ZM855.213 515.037H898.25V470.153H855.213V515.037ZM900.168 515.037H943.143V470.153H900.168V515.037ZM945.061 515.037H988.051V470.153H945.061V515.037ZM989.969 515.037H1032.96V470.153H989.969V515.037ZM1034.88 515.037H1077.87V470.153H1034.88V515.037ZM1079.79 515.037H1122.81V470.153H1079.79V515.037ZM1124.72 515.037H1167.7V470.153H1124.72V515.037ZM1169.61 515.037H1212.62V470.153H1169.61V515.037ZM1214.54 515.037H1257.51V470.153H1214.54V515.037ZM1259.43 515.037H1302.42V470.153H1259.43V515.037ZM1304.34 515.037H1347.34V470.153H1304.34V515.037ZM1349.25 515.037H1392.21V470.153H1349.25V515.037ZM1394.12 515.037H1437.19V470.153H1394.12V515.037ZM1439.1 515.037H1482.08V470.153H1439.1V515.037ZM1.91797 515.037H44.9219V470.153H1.91797V515.037ZM46.8398 468.217H89.8359V423.332H46.8398V468.217ZM91.7539 468.217H134.734V423.332H91.7539V468.217ZM136.652 468.217H179.66V423.332H136.652V468.217ZM181.578 468.217H224.574V423.332H181.578V468.217ZM226.492 468.217H269.461V423.332H226.492V468.217ZM271.379 468.217H314.35V423.332H271.379V468.217ZM316.268 468.217H359.271V423.332H316.268V468.217ZM361.189 468.217H404.219V423.332H361.189V468.217ZM406.137 468.217H449.133V423.332H406.137V468.217ZM451.051 468.217H494.021V423.332H451.051V468.217ZM495.939 468.217H538.936V423.332H495.939V468.217ZM540.854 468.217H583.861V423.332H540.854V468.217ZM585.779 468.217H628.746V423.332H585.779V468.217ZM630.664 468.217H673.697V423.332H630.664V468.217ZM675.615 468.217H718.578V423.332H675.615V468.217ZM720.496 468.217H763.531V423.332H720.496V468.217ZM765.449 468.217H808.426V423.332H765.449V468.217ZM810.344 468.217H853.295V423.332H810.344V468.217ZM855.213 468.217H898.25V423.332H855.213V468.217ZM900.168 468.217H943.143V423.332H900.168V468.217ZM945.061 468.217H988.051V423.332H945.061V468.217ZM989.969 468.217H1032.96V423.332H989.969V468.217ZM1034.88 468.217H1077.87V423.332H1034.88V468.217ZM1079.79 468.217H1122.81V423.332H1079.79V468.217ZM1124.72 468.217H1167.7V423.332H1124.72V468.217ZM1169.61 468.217H1212.62V423.332H1169.61V468.217ZM1214.54 468.217H1257.51V423.332H1214.54V468.217ZM1259.43 468.217H1302.42V423.332H1259.43V468.217ZM1304.34 468.217H1347.34V423.332H1304.34V468.217ZM1349.25 468.217H1392.21V423.332H1349.25V468.217ZM1394.12 468.217H1437.19V423.332H1394.12V468.217ZM1439.1 468.217H1482.08V423.332H1439.1V468.217ZM1.91797 468.217H44.9219V423.332H1.91797V468.217ZM46.8398 421.396H89.8359V376.509H46.8398V421.396ZM91.7539 421.396H134.734V376.509H91.7539V421.396ZM136.652 421.396H179.66V376.509H136.652V421.396ZM181.578 421.396H224.574V376.509H181.578V421.396ZM226.492 421.396H269.461V376.509H226.492V421.396ZM271.379 421.396H314.35V376.509H271.379V421.396ZM316.268 421.396H359.271V376.509H316.268V421.396ZM361.189 421.396H404.219V376.509H361.189V421.396ZM406.137 421.396H449.133V376.509H406.137V421.396ZM451.051 421.396H494.021V376.509H451.051V421.396ZM495.939 421.396H538.936V376.509H495.939V421.396ZM540.854 421.396H583.861V376.509H540.854V421.396ZM585.779 421.396H628.746V376.509H585.779V421.396ZM630.664 421.396H673.697V376.509H630.664V421.396ZM675.615 421.396H718.578V376.509H675.615V421.396ZM720.496 421.396H763.531V376.509H720.496V421.396ZM765.449 421.396H808.426V376.509H765.449V421.396ZM810.344 421.396H853.295V376.509H810.344V421.396ZM855.213 421.396H898.25V376.509H855.213V421.396ZM900.168 421.396H943.143V376.509H900.168V421.396ZM945.061 421.396H988.051V376.509H945.061V421.396ZM989.969 421.396H1032.96V376.509H989.969V421.396ZM1034.88 421.396H1077.87V376.509H1034.88V421.396ZM1079.79 421.396H1122.81V376.509H1079.79V421.396ZM1124.72 421.396H1167.7V376.509H1124.72V421.396ZM1169.61 421.396H1212.62V376.509H1169.61V421.396ZM1214.54 421.396H1257.51V376.509H1214.54V421.396ZM1259.43 421.396H1302.42V376.509H1259.43V421.396ZM1304.34 421.396H1347.34V376.509H1304.34V421.396ZM1349.25 421.396H1392.21V376.509H1349.25V421.396ZM1394.12 421.396H1437.19V376.509H1394.12V421.396ZM1439.1 421.396H1482.08V376.509H1439.1V421.396ZM1.91797 421.396H44.9219V376.509H1.91797V421.396ZM46.8398 374.572H89.8359V329.687H46.8398V374.572ZM91.7539 374.572H134.734V329.687H91.7539V374.572ZM136.652 374.572H179.66V329.687H136.652V374.572ZM181.578 374.572H224.574V329.687H181.578V374.572ZM226.492 374.572H269.461V329.687H226.492V374.572ZM271.379 374.572H314.35V329.687H271.379V374.572ZM316.268 374.572H359.271V329.687H316.268V374.572ZM361.189 374.572H404.219V329.687H361.189V374.572ZM406.137 374.572H449.133V329.687H406.137V374.572ZM451.051 374.572H494.021V329.687H451.051V374.572ZM495.939 374.572H538.936V329.687H495.939V374.572ZM540.854 374.572H583.861V329.687H540.854V374.572ZM585.779 374.572H628.746V329.687H585.779V374.572ZM630.664 374.572H673.697V329.687H630.664V374.572ZM675.615 374.572H718.578V329.687H675.615V374.572ZM720.496 374.572H763.531V329.687H720.496V374.572ZM765.449 374.572H808.426V329.687H765.449V374.572ZM810.344 374.572H853.295V329.687H810.344V374.572ZM855.213 374.572H898.25V329.687H855.213V374.572ZM900.168 374.572H943.143V329.687H900.168V374.572ZM945.061 374.572H988.051V329.687H945.061V374.572ZM989.969 374.572H1032.96V329.687H989.969V374.572ZM1034.88 374.572H1077.87V329.687H1034.88V374.572ZM1079.79 374.572H1122.81V329.687H1079.79V374.572ZM1124.72 374.572H1167.7V329.687H1124.72V374.572ZM1169.61 374.572H1212.62V329.687H1169.61V374.572ZM1214.54 374.572H1257.51V329.687H1214.54V374.572ZM1259.43 374.572H1302.42V329.687H1259.43V374.572ZM1304.34 374.572H1347.34V329.687H1304.34V374.572ZM1349.25 374.572H1392.21V329.687H1349.25V374.572ZM1394.12 374.572H1437.19V329.687H1394.12V374.572ZM1439.1 374.572H1482.08V329.687H1439.1V374.572ZM1.91797 374.572H44.9219V329.687H1.91797V374.572ZM46.8398 327.75H89.8359V282.865H46.8398V327.75ZM91.7539 327.75H134.734V282.865H91.7539V327.75ZM136.652 327.75H179.66V282.865H136.652V327.75ZM181.578 327.75H224.574V282.865H181.578V327.75ZM226.492 327.75H269.461V282.865H226.492V327.75ZM271.379 327.75H314.35V282.865H271.379V327.75ZM316.268 327.75H359.271V282.865H316.268V327.75ZM361.189 327.75H404.219V282.865H361.189V327.75ZM406.137 327.75H449.133V282.865H406.137V327.75ZM451.051 327.75H494.021V282.865H451.051V327.75ZM495.939 327.75H538.936V282.865H495.939V327.75ZM540.854 327.75H583.861V282.865H540.854V327.75ZM585.779 327.75H628.746V282.865H585.779V327.75ZM630.664 327.75H673.697V282.865H630.664V327.75ZM675.615 327.75H718.578V282.865H675.615V327.75ZM720.496 327.75H763.531V282.865H720.496V327.75ZM765.449 327.75H808.426V282.865H765.449V327.75ZM810.344 327.75H853.295V282.865H810.344V327.75ZM855.213 327.75H898.25V282.865H855.213V327.75ZM900.168 327.75H943.143V282.865H900.168V327.75ZM945.061 327.75H988.051V282.865H945.061V327.75ZM989.969 327.75H1032.96V282.865H989.969V327.75ZM1034.88 327.75H1077.87V282.865H1034.88V327.75ZM1079.79 327.75H1122.81V282.865H1079.79V327.75ZM1124.72 327.75H1167.7V282.865H1124.72V327.75ZM1169.61 327.75H1212.62V282.865H1169.61V327.75ZM1214.54 327.75H1257.51V282.865H1214.54V327.75ZM1259.43 327.75H1302.42V282.865H1259.43V327.75ZM1304.34 327.75H1347.34V282.865H1304.34V327.75ZM1349.25 327.75H1392.21V282.865H1349.25V327.75ZM1394.12 327.75H1437.19V282.865H1394.12V327.75ZM1439.1 327.75H1482.08V282.865H1439.1V327.75ZM1.91797 327.75H44.9219V282.865H1.91797V327.75ZM46.8398 280.929H89.8359V236.045H46.8398V280.929ZM91.7539 280.929H134.734V236.045H91.7539V280.929ZM136.652 280.929H179.66V236.045H136.652V280.929ZM181.578 280.929H224.574V236.045H181.578V280.929ZM226.492 280.929H269.461V236.045H226.492V280.929ZM271.379 280.929H314.35V236.045H271.379V280.929ZM316.268 280.929H359.271V236.045H316.268V280.929ZM361.189 280.929H404.219V236.045H361.189V280.929ZM406.137 280.929H449.133V236.045H406.137V280.929ZM451.051 280.929H494.021V236.045H451.051V280.929ZM495.939 280.929H538.936V236.045H495.939V280.929ZM540.854 280.929H583.861V236.045H540.854V280.929ZM585.779 280.929H628.746V236.045H585.779V280.929ZM630.664 280.929H673.697V236.045H630.664V280.929ZM675.615 280.929H718.578V236.045H675.615V280.929ZM720.496 280.929H763.531V236.045H720.496V280.929ZM765.449 280.929H808.426V236.045H765.449V280.929ZM810.344 280.929H853.295V236.045H810.344V280.929ZM855.213 280.929H898.25V236.045H855.213V280.929ZM900.168 280.929H943.143V236.045H900.168V280.929ZM945.061 280.929H988.051V236.045H945.061V280.929ZM989.969 280.929H1032.96V236.045H989.969V280.929ZM1034.88 280.929H1077.87V236.045H1034.88V280.929ZM1079.79 280.929H1122.81V236.045H1079.79V280.929ZM1124.72 280.929H1167.7V236.045H1124.72V280.929ZM1169.61 280.929H1212.62V236.045H1169.61V280.929ZM1214.54 280.929H1257.51V236.045H1214.54V280.929ZM1259.43 280.929H1302.42V236.045H1259.43V280.929ZM1304.34 280.929H1347.34V236.045H1304.34V280.929ZM1349.25 280.929H1392.21V236.045H1349.25V280.929ZM1394.12 280.929H1437.19V236.045H1394.12V280.929ZM1439.1 280.929H1482.08V236.045H1439.1V280.929ZM1.91797 280.929H44.9219V236.045H1.91797V280.929ZM46.8398 234.108H89.8359V189.223H46.8398V234.108ZM91.7539 234.108H134.734V189.223H91.7539V234.108ZM136.652 234.108H179.66V189.223H136.652V234.108ZM181.578 234.108H224.574V189.223H181.578V234.108ZM226.492 234.108H269.461V189.223H226.492V234.108ZM271.379 234.108H314.35V189.223H271.379V234.108ZM316.268 234.108H359.271V189.223H316.268V234.108ZM361.189 234.108H404.219V189.223H361.189V234.108ZM406.137 234.108H449.133V189.223H406.137V234.108ZM451.051 234.108H494.021V189.223H451.051V234.108ZM495.939 234.108H538.936V189.223H495.939V234.108ZM540.854 234.108H583.861V189.223H540.854V234.108ZM585.779 234.108H628.746V189.223H585.779V234.108ZM630.664 234.108H673.697V189.223H630.664V234.108ZM675.615 234.108H718.578V189.223H675.615V234.108ZM720.496 234.108H763.531V189.223H720.496V234.108ZM765.449 234.108H808.426V189.223H765.449V234.108ZM810.344 234.108H853.295V189.223H810.344V234.108ZM855.213 234.108H898.25V189.223H855.213V234.108ZM900.168 234.108H943.143V189.223H900.168V234.108ZM945.061 234.108H988.051V189.223H945.061V234.108ZM989.969 234.108H1032.96V189.223H989.969V234.108ZM1034.88 234.108H1077.87V189.223H1034.88V234.108ZM1079.79 234.108H1122.81V189.223H1079.79V234.108ZM1124.72 234.108H1167.7V189.223H1124.72V234.108ZM1169.61 234.108H1212.62V189.223H1169.61V234.108ZM1214.54 234.108H1257.51V189.223H1214.54V234.108ZM1259.43 234.108H1302.42V189.223H1259.43V234.108ZM1304.34 234.108H1347.34V189.223H1304.34V234.108ZM1349.25 234.108H1392.21V189.223H1349.25V234.108ZM1394.12 234.108H1437.19V189.223H1394.12V234.108ZM1439.1 234.108H1482.08V189.223H1439.1V234.108ZM1.91797 234.108H44.9219V189.223H1.91797V234.108ZM46.8398 187.286H89.8359V142.4H46.8398V187.286ZM91.7539 187.286H134.734V142.4H91.7539V187.286ZM136.652 187.286H179.66V142.4H136.652V187.286ZM181.578 187.286H224.574V142.4H181.578V187.286ZM226.492 187.286H269.461V142.4H226.492V187.286ZM271.379 187.286H314.35V142.4H271.379V187.286ZM316.268 187.286H359.271V142.4H316.268V187.286ZM361.189 187.286H404.219V142.4H361.189V187.286ZM406.137 187.286H449.133V142.4H406.137V187.286ZM451.051 187.286H494.021V142.4H451.051V187.286ZM495.939 187.286H538.936V142.4H495.939V187.286ZM540.854 187.286H583.861V142.4H540.854V187.286ZM585.779 187.286H628.746V142.4H585.779V187.286ZM630.664 187.286H673.697V142.4H630.664V187.286ZM675.615 187.286H718.578V142.4H675.615V187.286ZM720.496 187.286H763.531V142.4H720.496V187.286ZM765.449 187.286H808.426V142.4H765.449V187.286ZM810.344 187.286H853.295V142.4H810.344V187.286ZM855.213 187.286H898.25V142.4H855.213V187.286ZM900.168 187.286H943.143V142.4H900.168V187.286ZM945.061 187.286H988.051V142.4H945.061V187.286ZM989.969 187.286H1032.96V142.4H989.969V187.286ZM1034.88 187.286H1077.87V142.4H1034.88V187.286ZM1079.79 187.286H1122.81V142.4H1079.79V187.286ZM1124.72 187.286H1167.7V142.4H1124.72V187.286ZM1169.61 187.286H1212.62V142.4H1169.61V187.286ZM1214.54 187.286H1257.51V142.4H1214.54V187.286ZM1259.43 187.286H1302.42V142.4H1259.43V187.286ZM1304.34 187.286H1347.34V142.4H1304.34V187.286ZM1349.25 187.286H1392.21V142.4H1349.25V187.286ZM1394.12 187.286H1437.19V142.4H1394.12V187.286ZM1439.1 187.286H1482.08V142.4H1439.1V187.286ZM1.91797 187.286H44.9219V142.4H1.91797V187.286ZM46.8398 140.465H89.8359V95.5801H46.8398V140.465ZM91.7539 140.465H134.734V95.5801H91.7539V140.465ZM136.652 140.465H179.66V95.5801H136.652V140.465ZM181.578 140.465H224.574V95.5801H181.578V140.465ZM226.492 140.465H269.461V95.5801H226.492V140.465ZM271.379 140.465H314.35V95.5801H271.379V140.465ZM316.268 140.465H359.271V95.5801H316.268V140.465ZM361.189 140.465H404.219V95.5801H361.189V140.465ZM406.137 140.465H449.133V95.5801H406.137V140.465ZM451.051 140.465H494.021V95.5801H451.051V140.465ZM495.939 140.465H538.936V95.5801H495.939V140.465ZM540.854 140.465H583.861V95.5801H540.854V140.465ZM585.779 140.465H628.746V95.5801H585.779V140.465ZM630.664 140.465H673.697V95.5801H630.664V140.465ZM675.615 140.465H718.578V95.5801H675.615V140.465ZM720.496 140.465H763.531V95.5801H720.496V140.465ZM765.449 140.465H808.426V95.5801H765.449V140.465ZM810.344 140.465H853.295V95.5801H810.344V140.465ZM855.213 140.465H898.25V95.5801H855.213V140.465ZM900.168 140.465H943.143V95.5801H900.168V140.465ZM945.061 140.465H988.051V95.5801H945.061V140.465ZM989.969 140.465H1032.96V95.5801H989.969V140.465ZM1034.88 140.465H1077.87V95.5801H1034.88V140.465ZM1079.79 140.465H1122.81V95.5801H1079.79V140.465ZM1124.72 140.465H1167.7V95.5801H1124.72V140.465ZM1169.61 140.465H1212.62V95.5801H1169.61V140.465ZM1214.54 140.465H1257.51V95.5801H1214.54V140.465ZM1259.43 140.465H1302.42V95.5801H1259.43V140.465ZM1304.34 140.465H1347.34V95.5801H1304.34V140.465ZM1349.25 140.465H1392.21V95.5801H1349.25V140.465ZM1394.12 140.465H1437.19V95.5801H1394.12V140.465ZM1439.1 140.465H1482.08V95.5801H1439.1V140.465ZM1.91797 140.465H44.9219V95.5801H1.91797V140.465ZM46.8398 93.6445H89.8359V48.7578H46.8398V93.6445ZM91.7539 93.6445H134.734V48.7578H91.7539V93.6445ZM136.652 93.6445H179.66V48.7578H136.652V93.6445ZM181.578 93.6445H224.574V48.7578H181.578V93.6445ZM226.492 93.6445H269.461V48.7578H226.492V93.6445ZM271.379 93.6445H314.35V48.7578H271.379V93.6445ZM316.268 93.6445H359.271V48.7578H316.268V93.6445ZM361.189 93.6445H404.219V48.7578H361.189V93.6445ZM406.137 93.6445H449.133V48.7578H406.137V93.6445ZM451.051 93.6445H494.021V48.7578H451.051V93.6445ZM495.939 93.6445H538.936V48.7578H495.939V93.6445ZM540.854 93.6445H583.861V48.7578H540.854V93.6445ZM585.779 93.6445H628.746V48.7578H585.779V93.6445ZM630.664 93.6445H673.697V48.7578H630.664V93.6445ZM675.615 93.6445H718.578V48.7578H675.615V93.6445ZM720.496 93.6445H763.531V48.7578H720.496V93.6445ZM765.449 93.6445H808.426V48.7578H765.449V93.6445ZM810.344 93.6445H853.295V48.7578H810.344V93.6445ZM855.213 93.6445H898.25V48.7578H855.213V93.6445ZM900.168 93.6445H943.143V48.7578H900.168V93.6445ZM945.061 93.6445H988.051V48.7578H945.061V93.6445ZM989.969 93.6445H1032.96V48.7578H989.969V93.6445ZM1034.88 93.6445H1077.87V48.7578H1034.88V93.6445ZM1079.79 93.6445H1122.81V48.7578H1079.79V93.6445ZM1124.72 93.6445H1167.7V48.7578H1124.72V93.6445ZM1169.61 93.6445H1212.62V48.7578H1169.61V93.6445ZM1214.54 93.6445H1257.51V48.7578H1214.54V93.6445ZM1259.43 93.6445H1302.42V48.7578H1259.43V93.6445ZM1304.34 93.6445H1347.34V48.7578H1304.34V93.6445ZM1349.25 93.6445H1392.21V48.7578H1349.25V93.6445ZM1394.12 93.6445H1437.19V48.7578H1394.12V93.6445ZM1439.1 93.6445H1482.08V48.7578H1439.1V93.6445ZM1.91797 93.6445H44.9219V48.7578H1.91797V93.6445ZM46.8398 46.8223H89.8359V1.93652H46.8398V46.8223ZM91.7539 46.8223H134.734V1.93652H91.7539V46.8223ZM136.652 46.8223H179.66V1.93652H136.652V46.8223ZM181.578 46.8223H224.574V1.93652H181.578V46.8223ZM226.492 46.8223H269.461V1.93652H226.492V46.8223ZM271.379 46.8223H314.35V1.93652H271.379V46.8223ZM316.268 46.8223H359.271V1.93652H316.268V46.8223ZM361.189 46.8223H404.219V1.93652H361.189V46.8223ZM406.137 46.8223H449.133V1.93652H406.137V46.8223ZM451.051 46.8223H494.021V1.93652H451.051V46.8223ZM495.939 46.8223H538.936V1.93652H495.939V46.8223ZM540.854 46.8223H583.861V1.93652H540.854V46.8223ZM585.779 46.8223H628.746V1.93652H585.779V46.8223ZM630.664 46.8223H673.697V1.93652H630.664V46.8223ZM675.615 46.8223H718.578V1.93652H675.615V46.8223ZM720.496 46.8223H763.531V1.93652H720.496V46.8223ZM765.449 46.8223H808.426V1.93652H765.449V46.8223ZM810.344 46.8223H853.295V1.93652H810.344V46.8223ZM855.213 46.8223H898.25V1.93652H855.213V46.8223ZM900.168 46.8223H943.143V1.93652H900.168V46.8223ZM945.061 46.8223H988.051V1.93652H945.061V46.8223ZM989.969 46.8223H1032.96V1.93652H989.969V46.8223ZM1034.88 46.8223H1077.87V1.93652H1034.88V46.8223ZM1079.79 46.8223H1122.81V1.93652H1079.79V46.8223ZM1124.72 46.8223H1167.7V1.93652H1124.72V46.8223ZM1169.61 46.8223H1212.62V1.93652H1169.61V46.8223ZM1214.54 46.8223H1257.51V1.93652H1214.54V46.8223ZM1259.43 46.8223H1302.42V1.93652H1259.43V46.8223ZM1304.34 46.8223H1347.34V1.93652H1304.34V46.8223ZM1349.25 46.8223H1392.21V1.93652H1349.25V46.8223ZM1394.12 46.8223H1437.19V1.93652H1394.12V46.8223ZM1439.1 46.8223H1482.08V1.93652H1439.1V46.8223ZM1.91797 46.8223H44.9219V1.93652H1.91797V46.8223Z" fill="url(#paint0_linear_0_6)" fill-opacity="0.2"/>
<defs>
<linearGradient id="paint0_linear_0_6" x1="45.8805" y1="0.967778" x2="1436.29" y2="540.027" gradientUnits="userSpaceOnUse">
<stop stop-color="#D8816A" stop-opacity="0"/>
<stop offset="0.5" stop-color="#D8816A" stop-opacity="0.5"/>
<stop offset="1" stop-color="#D8816A" stop-opacity="0"/>
</linearGradient>
</defs>
</svg>
