<svg preserveAspectRatio="none" width="100%" height="100%" overflow="visible" style="display: block;" viewBox="0 0 226.93 241.97" fill="none" xmlns="http://www.w3.org/2000/svg">
<g id="freepik--Bars--inject-64">
<path id="Vector" d="M106.12 113.35H60.27V241.97H106.12V113.35Z" fill="url(#paint0_linear_0_64)"/>
<g id="Group" opacity="0.1">
<path id="Vector_2" d="M106.12 113.35H95.62V241.97H106.12V113.35Z" fill="var(--fill-0, black)"/>
</g>
<path id="Vector_3" d="M166.53 64.74H120.68V241.97H166.53V64.74Z" fill="url(#paint1_linear_0_64)"/>
<g id="Group_2" opacity="0.1">
<path id="Vector_4" d="M166.52 64.74H156.02V241.97H166.52V64.74Z" fill="var(--fill-0, black)"/>
</g>
<path id="Vector_5" d="M45.85 142.31H0V241.96H45.85V142.31Z" fill="url(#paint2_linear_0_64)"/>
<g id="Group_3" opacity="0.1">
<path id="Vector_6" d="M45.85 142.31H35.35V241.96H45.85V142.31Z" fill="var(--fill-0, black)"/>
</g>
<path id="Vector_7" d="M226.93 0H181.08V241.96H226.93V0Z" fill="url(#paint3_linear_0_64)"/>
<g id="Group_4" opacity="0.1">
<path id="Vector_8" d="M226.93 0H216.43V241.96H226.93V0Z" fill="var(--fill-0, black)"/>
</g>
</g>
<defs>
<linearGradient id="paint0_linear_0_64" x1="83.195" y1="113.35" x2="83.195" y2="241.97" gradientUnits="userSpaceOnUse">
<stop stop-color="#DF8251"/>
<stop offset="1" stop-color="#D54050"/>
</linearGradient>
<linearGradient id="paint1_linear_0_64" x1="143.605" y1="64.74" x2="143.605" y2="241.97" gradientUnits="userSpaceOnUse">
<stop stop-color="#DF8251"/>
<stop offset="1" stop-color="#D54050"/>
</linearGradient>
<linearGradient id="paint2_linear_0_64" x1="22.925" y1="142.31" x2="22.925" y2="241.96" gradientUnits="userSpaceOnUse">
<stop stop-color="#DF8251"/>
<stop offset="1" stop-color="#D54050"/>
</linearGradient>
<linearGradient id="paint3_linear_0_64" x1="204.005" y1="0" x2="204.005" y2="241.96" gradientUnits="userSpaceOnUse">
<stop stop-color="#DF8251"/>
<stop offset="1" stop-color="#D54050"/>
</linearGradient>
</defs>
</svg>
