<svg width="17" height="17" viewBox="0 0 17 17" fill="none" xmlns="http://www.w3.org/2000/svg">
<path d="M11.6427 0.807894C12.1376 0.312828 12.8023 0.0245391 13.502 0.00149573C14.2016 -0.0215476 14.8839 0.22238 15.4103 0.683806L15.5427 0.807894L16.1925 1.45775C16.6873 1.95265 16.9755 2.61717 16.9985 3.31661C17.0215 4.01606 16.7778 4.6981 16.3166 5.2245L16.1925 5.35686L5.88683 15.6635C5.74111 15.8092 5.5646 15.9204 5.37026 15.9889L5.22135 16.0321L1.12738 16.977C0.983929 17.0103 0.834567 17.0087 0.691866 16.9723C0.549166 16.9359 0.417305 16.8657 0.30739 16.7677C0.197475 16.6697 0.112723 16.5467 0.0602709 16.4091C0.00781908 16.2714 -0.0107966 16.1232 0.00599174 15.9769L0.0243751 15.8731L0.96836 11.7782C1.01499 11.5773 1.10608 11.3895 1.23492 11.2285L1.33695 11.1136L11.6427 0.807894ZM10.9928 4.05715L2.72949 12.3205L2.1449 14.8555L4.67996 14.27L12.9433 6.00671L10.9928 4.05715ZM14.243 2.1076C14.0847 1.94934 13.8741 1.85427 13.6507 1.84022C13.4274 1.82618 13.2065 1.89412 13.0297 2.03131L12.9433 2.1076L12.2925 2.75745L14.243 4.707L14.8928 4.05715C15.0511 3.89888 15.1462 3.6883 15.1602 3.46491C15.1743 3.24153 15.1063 3.0207 14.9691 2.84385L14.8928 2.75745L14.243 2.1076Z" fill="#ED6B52"/>
</svg>
