<svg preserveAspectRatio="none" width="100%" height="100%" overflow="visible" style="display: block;" viewBox="0 0 24 24" fill="none" xmlns="http://www.w3.org/2000/svg">
<path id="Vector" d="M21.3659 17.6372C20.615 16.8857 19.7376 16.2724 18.774 15.8252C20.1329 14.7243 20.9999 13.0443 20.9999 11.1604C20.9999 7.83647 18.228 5.10955 14.904 5.16055C11.631 5.21155 8.99402 7.87847 8.99402 11.1604C8.99402 13.0443 9.86401 14.7243 11.22 15.8252C10.2561 16.272 9.3787 16.8854 8.62802 17.6372C6.99003 19.2781 6.06004 21.4441 6.00004 23.754C5.99924 23.786 6.00485 23.8179 6.01656 23.8477C6.02826 23.8775 6.04581 23.9047 6.06817 23.9276C6.09054 23.9505 6.11727 23.9687 6.14679 23.9812C6.1763 23.9936 6.20801 24 6.24004 24H7.92003C8.04902 24 8.15702 23.898 8.16002 23.769C8.21702 22.0291 8.92202 20.4001 10.161 19.1641C10.795 18.5268 11.5492 18.0215 12.3798 17.6775C13.2104 17.3335 14.101 17.1577 15 17.1602C16.827 17.1602 18.546 17.8712 19.839 19.1641C21.0749 20.4001 21.7799 22.0291 21.8399 23.769C21.8429 23.898 21.9509 24 22.0799 24H23.7599C23.792 24 23.8237 23.9936 23.8532 23.9812C23.8827 23.9687 23.9094 23.9505 23.9318 23.9276C23.9542 23.9047 23.9717 23.8775 23.9834 23.8477C23.9951 23.8179 24.0007 23.786 23.9999 23.754C23.9399 21.4441 23.0099 19.2781 21.3659 17.6372ZM15 15.0003C13.974 15.0003 13.008 14.6013 12.285 13.8753C11.9222 13.5153 11.6355 13.086 11.4423 12.6128C11.249 12.1397 11.153 11.6324 11.16 11.1214C11.169 10.1374 11.562 9.18644 12.249 8.48146C12.969 7.74348 13.932 7.33249 14.961 7.32049C15.978 7.31149 16.965 7.70748 17.691 8.41846C18.435 9.14744 18.843 10.1224 18.843 11.1604C18.843 12.1863 18.444 13.1493 17.718 13.8753C17.3618 14.2332 16.9382 14.5169 16.4716 14.71C16.0051 14.9031 15.5049 15.0017 15 15.0003ZM7.48503 11.9524C7.45803 11.6914 7.44303 11.4274 7.44303 11.1604C7.44303 10.6834 7.48803 10.2184 7.57203 9.76542C7.59303 9.65742 7.53603 9.54643 7.43703 9.50143C7.02903 9.31843 6.65403 9.06644 6.33004 8.74845C5.94826 8.37828 5.64783 7.9326 5.44794 7.43984C5.24804 6.94707 5.15305 6.41805 5.16904 5.88653C5.19604 4.92356 5.58304 4.00859 6.25804 3.31861C6.99903 2.55963 7.99502 2.14564 9.05402 2.15764C10.011 2.16664 10.935 2.53563 11.634 3.18961C11.871 3.4116 12.075 3.6576 12.246 3.92159C12.306 4.01459 12.423 4.05359 12.525 4.01759C13.053 3.83459 13.611 3.7056 14.184 3.6456C14.352 3.6276 14.448 3.4476 14.373 3.29761C13.398 1.36866 11.406 0.0367028 9.10202 0.000703892C5.77504 -0.0502946 3.00306 2.67663 3.00306 5.99753C3.00306 7.88147 3.87005 9.56142 5.22904 10.6624C4.27505 11.1034 3.39605 11.7124 2.63406 12.4743C0.990069 14.1153 0.0600746 16.2812 7.50175e-05 18.5942C-0.000725693 18.6262 0.00489035 18.658 0.0165924 18.6878C0.0282944 18.7177 0.0458456 18.7448 0.0682118 18.7678C0.090578 18.7907 0.117307 18.8089 0.146823 18.8213C0.176339 18.8338 0.208045 18.8402 0.240074 18.8402H1.92306C2.05206 18.8402 2.16006 18.7382 2.16306 18.6092C2.22006 16.8692 2.92506 15.2403 4.16405 14.0043C5.04604 13.1223 6.12604 12.5103 7.30503 12.2133C7.42203 12.1833 7.50003 12.0724 7.48503 11.9524Z" fill="var(--fill-0, white)"/>
</svg>
