<svg preserveAspectRatio="none" width="100%" height="100%" overflow="visible" style="display: block;" viewBox="0 0 24 24.0002" fill="none" xmlns="http://www.w3.org/2000/svg">
<g id="Group">
<path id="Vector" fill-rule="evenodd" clip-rule="evenodd" d="M7.2 3.6C7.2 2.64522 7.57928 1.72955 8.25441 1.05442C8.92955 0.379285 9.84522 0 10.8 0H20.4C21.3548 0 22.2705 0.379285 22.9456 1.05442C23.6207 1.72955 24 2.64522 24 3.6V20.4C24 21.3548 23.6207 22.2705 22.9456 22.9456C22.2705 23.6207 21.3548 24 20.4 24H10.8C9.84522 24 8.92955 23.6207 8.25441 22.9456C7.57928 22.2705 7.2 21.3548 7.2 20.4V3.6ZM10.8 2.4C10.4817 2.4 10.1765 2.52643 9.95147 2.75147C9.72643 2.97652 9.6 3.28174 9.6 3.6V20.4C9.6 20.7183 9.72643 21.0235 9.95147 21.2485C10.1765 21.4736 10.4817 21.6 10.8 21.6H20.4C20.7183 21.6 21.0235 21.4736 21.2485 21.2485C21.4736 21.0235 21.6 20.7183 21.6 20.4V3.6C21.6 3.28174 21.4736 2.97652 21.2485 2.75147C21.0235 2.52643 20.7183 2.4 20.4 2.4H10.8Z" fill="var(--fill-0, white)"/>
<path id="Vector_2" fill-rule="evenodd" clip-rule="evenodd" d="M0 10.8C0 9.84522 0.379285 8.92955 1.05442 8.25441C1.72955 7.57928 2.64522 7.2 3.6 7.2H9V9.6H3.6C3.28174 9.6 2.97652 9.72643 2.75147 9.95147C2.52643 10.1765 2.4 10.4817 2.4 10.8V20.4C2.4 20.7183 2.52643 21.0235 2.75147 21.2485C2.97652 21.4736 3.28174 21.6 3.6 21.6H15V24H3.6C2.64522 24 1.72955 23.6207 1.05442 22.9456C0.379285 22.2705 0 21.3548 0 20.4V10.8Z" fill="var(--fill-0, white)"/>
<path id="Vector_3" fill-rule="evenodd" clip-rule="evenodd" d="M12 18C12 17.3635 12.2529 16.753 12.7029 16.3029C13.153 15.8529 13.7635 15.6 14.4 15.6H16.8C17.4365 15.6 18.047 15.8529 18.4971 16.3029C18.9471 16.753 19.2 17.3635 19.2 18V21.6H16.8V18H14.4V21.6H12V18Z" fill="var(--fill-0, white)"/>
<path id="Vector_4" d="M12 4.8C12 4.48174 12.1264 4.17652 12.3515 3.95147C12.5765 3.72643 12.8817 3.6 13.2 3.6C13.5183 3.6 13.8235 3.72643 14.0485 3.95147C14.2736 4.17652 14.4 4.48174 14.4 4.8V6C14.4 6.31826 14.2736 6.62348 14.0485 6.84853C13.8235 7.07357 13.5183 7.2 13.2 7.2C12.8817 7.2 12.5765 7.07357 12.3515 6.84853C12.1264 6.62348 12 6.31826 12 6V4.8ZM12 10.8C12 10.4817 12.1264 10.1765 12.3515 9.95147C12.5765 9.72643 12.8817 9.6 13.2 9.6C13.5183 9.6 13.8235 9.72643 14.0485 9.95147C14.2736 10.1765 14.4 10.4817 14.4 10.8V12C14.4 12.3183 14.2736 12.6235 14.0485 12.8485C13.8235 13.0736 13.5183 13.2 13.2 13.2C12.8817 13.2 12.5765 13.0736 12.3515 12.8485C12.1264 12.6235 12 12.3183 12 12V10.8ZM3.6 15.6C3.6 15.2817 3.72643 14.9765 3.95147 14.7515C4.17652 14.5264 4.48174 14.4 4.8 14.4C5.11826 14.4 5.42348 14.5264 5.64853 14.7515C5.87357 14.9765 6 15.2817 6 15.6V16.8C6 17.1183 5.87357 17.4235 5.64853 17.6485C5.42348 17.8736 5.11826 18 4.8 18C4.48174 18 4.17652 17.8736 3.95147 17.6485C3.72643 17.4235 3.6 17.1183 3.6 16.8V15.6ZM16.8 4.8C16.8 4.48174 16.9264 4.17652 17.1515 3.95147C17.3765 3.72643 17.6817 3.6 18 3.6C18.3183 3.6 18.6235 3.72643 18.8485 3.95147C19.0736 4.17652 19.2 4.48174 19.2 4.8V6C19.2 6.31826 19.0736 6.62348 18.8485 6.84853C18.6235 7.07357 18.3183 7.2 18 7.2C17.6817 7.2 17.3765 7.07357 17.1515 6.84853C16.9264 6.62348 16.8 6.31826 16.8 6V4.8ZM16.8 10.8C16.8 10.4817 16.9264 10.1765 17.1515 9.95147C17.3765 9.72643 17.6817 9.6 18 9.6C18.3183 9.6 18.6235 9.72643 18.8485 9.95147C19.0736 10.1765 19.2 10.4817 19.2 10.8V12C19.2 12.3183 19.0736 12.6235 18.8485 12.8485C18.6235 13.0736 18.3183 13.2 18 13.2C17.6817 13.2 17.3765 13.0736 17.1515 12.8485C16.9264 12.6235 16.8 12.3183 16.8 12V10.8Z" fill="var(--fill-0, white)"/>
</g>
</svg>
