<svg preserveAspectRatio="none" width="100%" height="100%" overflow="visible" style="display: block;" viewBox="0 0 22.2 24.5" fill="none" xmlns="http://www.w3.org/2000/svg">
<g id="Group">
<path id="Vector" d="M0.750006 23.75H21.45" stroke="var(--stroke-0, #ED6B52)" stroke-width="1.5" stroke-linecap="round" stroke-linejoin="round"/>
<path id="Vector_2" d="M0.750006 11.1C0.750006 10.0156 0.750006 9.47391 1.08696 9.13696C1.42391 8.80001 1.96556 8.80001 3.05001 8.80001C4.13446 8.80001 4.67611 8.80001 5.01306 9.13696C5.35001 9.47391 5.35001 10.0156 5.35001 11.1V18C5.35001 19.0845 5.35001 19.6261 5.01306 19.9631C4.67611 20.3 4.13446 20.3 3.05001 20.3C1.96556 20.3 1.42391 20.3 1.08696 19.9631C0.750006 19.6261 0.750006 19.0845 0.750006 18V11.1ZM8.80001 6.50001C8.80001 5.41556 8.80001 4.87391 9.13696 4.53696C9.47391 4.20001 10.0156 4.20001 11.1 4.20001C12.1845 4.20001 12.7261 4.20001 13.0631 4.53696C13.4 4.87391 13.4 5.41556 13.4 6.50001V18C13.4 19.0845 13.4 19.6261 13.0631 19.9631C12.7261 20.3 12.1845 20.3 11.1 20.3C10.0156 20.3 9.47391 20.3 9.13696 19.9631C8.80001 19.6261 8.80001 19.0845 8.80001 18V6.50001ZM16.85 3.05001C16.85 1.96556 16.85 1.42391 17.187 1.08696C17.5239 0.750006 18.0656 0.750006 19.15 0.750006C20.2345 0.750006 20.7761 0.750006 21.1131 1.08696C21.45 1.42391 21.45 1.96556 21.45 3.05001V18C21.45 19.0845 21.45 19.6261 21.1131 19.9631C20.7761 20.3 20.2345 20.3 19.15 20.3C18.0656 20.3 17.5239 20.3 17.187 19.9631C16.85 19.6261 16.85 19.0845 16.85 18V3.05001Z" stroke="var(--stroke-0, #ED6B52)" stroke-width="1.5"/>
</g>
</svg>
