<svg preserveAspectRatio="none" width="100%" height="100%" overflow="visible" style="display: block;" viewBox="0 0 28 28" fill="none" xmlns="http://www.w3.org/2000/svg">
<g id="ant-design:team-outlined">
<path id="Vector" d="M22.5367 19.1379C21.8523 18.4529 21.0526 17.8939 20.1742 17.4863C21.4129 16.4828 22.2031 14.9516 22.2031 13.2344C22.2031 10.2047 19.6766 7.71914 16.6469 7.76563C13.6637 7.81211 11.2602 10.243 11.2602 13.2344C11.2602 14.9516 12.0531 16.4828 13.2891 17.4863C12.4105 17.8936 11.6108 18.4527 10.9266 19.1379C9.43359 20.6336 8.58594 22.6078 8.53125 24.7133C8.53052 24.7425 8.53564 24.7715 8.54631 24.7987C8.55697 24.8258 8.57297 24.8506 8.59335 24.8715C8.61374 24.8924 8.6381 24.909 8.66501 24.9203C8.69191 24.9317 8.72081 24.9375 8.75 24.9375H10.2813C10.3988 24.9375 10.4973 24.8445 10.5 24.727C10.552 23.141 11.1945 21.6562 12.3238 20.5297C12.9017 19.9487 13.5891 19.4882 14.3461 19.1746C15.1032 18.8611 15.915 18.7008 16.7344 18.7031C18.3996 18.7031 19.9664 19.3512 21.1449 20.5297C22.2715 21.6562 22.9141 23.141 22.9688 24.727C22.9715 24.8445 23.0699 24.9375 23.1875 24.9375H24.7188C24.7479 24.9375 24.7768 24.9317 24.8037 24.9203C24.8307 24.909 24.855 24.8924 24.8754 24.8715C24.8958 24.8506 24.9118 24.8258 24.9224 24.7987C24.9331 24.7715 24.9382 24.7425 24.9375 24.7133C24.8828 22.6078 24.0352 20.6336 22.5367 19.1379ZM16.7344 16.7344C15.7992 16.7344 14.9188 16.3707 14.2598 15.709C13.9291 15.3809 13.6678 14.9895 13.4916 14.5582C13.3155 14.127 13.228 13.6646 13.2344 13.1988C13.2426 12.302 13.6008 11.4352 14.227 10.7926C14.8832 10.1199 15.7609 9.74531 16.6988 9.73438C17.6258 9.72617 18.5254 10.0871 19.1871 10.7352C19.8652 11.3996 20.2371 12.2883 20.2371 13.2344C20.2371 14.1695 19.8734 15.0473 19.2117 15.709C18.8871 16.0352 18.501 16.2938 18.0757 16.4698C17.6505 16.6458 17.1946 16.7357 16.7344 16.7344ZM9.88477 13.9563C9.86016 13.7184 9.84649 13.4777 9.84649 13.2344C9.84649 12.7996 9.8875 12.3758 9.96406 11.9629C9.9832 11.8645 9.93125 11.7633 9.84102 11.7223C9.46914 11.5555 9.12734 11.3258 8.83203 11.0359C8.48405 10.6985 8.21023 10.2923 8.02803 9.84316C7.84583 9.39401 7.75925 8.91182 7.77383 8.42734C7.79844 7.54961 8.15117 6.71563 8.76641 6.08672C9.4418 5.39492 10.3496 5.01758 11.3148 5.02852C12.1871 5.03672 13.0293 5.37305 13.6664 5.96914C13.8824 6.17148 14.0684 6.3957 14.2242 6.63633C14.2789 6.72109 14.3855 6.75664 14.4785 6.72383C14.9598 6.55703 15.4684 6.43945 15.9906 6.38477C16.1438 6.36836 16.2313 6.2043 16.1629 6.06758C15.2742 4.30937 13.4586 3.09531 11.3586 3.0625C8.32617 3.01602 5.79961 5.50156 5.79961 8.52852C5.79961 10.2457 6.58984 11.777 7.82852 12.7805C6.95898 13.1824 6.15781 13.7375 5.46328 14.432C3.96484 15.9277 3.11719 17.902 3.0625 20.0102C3.06177 20.0393 3.06689 20.0684 3.07755 20.0955C3.08822 20.1227 3.10422 20.1475 3.1246 20.1684C3.14499 20.1893 3.16935 20.2059 3.19626 20.2172C3.22316 20.2285 3.25206 20.2344 3.28125 20.2344H4.81523C4.93281 20.2344 5.03125 20.1414 5.03398 20.0238C5.08594 18.4379 5.72852 16.9531 6.85781 15.8266C7.66172 15.0227 8.64609 14.4648 9.7207 14.1941C9.82734 14.1668 9.89844 14.0656 9.88477 13.9563Z" fill="var(--fill-0, #ED6B52)"/>
</g>
</svg>
