<svg preserveAspectRatio="none" width="100%" height="100%" overflow="visible" style="display: block;" viewBox="0 0 16 18" fill="none" xmlns="http://www.w3.org/2000/svg">
<path id="Vector" d="M14.8961 1.86771L4.04305 0.0194625C3.69489 -0.0396247 3.33664 0.0370648 3.0471 0.232667C2.75755 0.428268 2.56042 0.726767 2.49904 1.06252L0.0201253 14.6432C-0.0101941 14.8095 -0.00622217 14.98 0.0318143 15.1449C0.0698508 15.3098 0.141206 15.4659 0.241803 15.6041C0.342399 15.7424 0.470265 15.8602 0.618094 15.9508C0.765922 16.0415 0.930815 16.1031 1.10335 16.1322L11.9564 17.9805C12.129 18.0098 12.3059 18.0061 12.4769 17.9694C12.648 17.9328 12.8099 17.864 12.9534 17.767C13.0969 17.67 13.2191 17.5466 13.3131 17.404C13.4071 17.2614 13.4711 17.1023 13.5013 16.9358L15.9802 3.35516C16.0409 3.01928 15.9608 2.67389 15.7575 2.39495C15.5542 2.11601 15.2444 1.92636 14.8961 1.86771ZM12.1864 16.714L1.33249 14.8657L3.81141 1.28511L14.6645 3.13337L12.1864 16.714ZM4.77714 3.40819C4.80802 3.24038 4.90673 3.09126 5.05158 2.99362C5.19642 2.89597 5.37554 2.85779 5.54957 2.88747L12.4655 4.06472C12.6299 4.09249 12.7775 4.1787 12.8791 4.30632C12.9808 4.43394 13.0291 4.59369 13.0146 4.75401C13 4.91432 12.9237 5.06355 12.8006 5.17219C12.6775 5.28084 12.5166 5.34101 12.3497 5.34082C12.3106 5.34077 12.2716 5.33754 12.2331 5.33118L5.31709 4.15312C5.14308 4.12334 4.98846 4.02814 4.88721 3.88846C4.78596 3.74877 4.74637 3.57602 4.77714 3.40819ZM4.31552 5.9411C4.33072 5.85794 4.36275 5.77847 4.40979 5.70725C4.45684 5.63603 4.51797 5.57444 4.5897 5.52601C4.66143 5.47758 4.74235 5.44325 4.82784 5.42499C4.91333 5.40673 5.00172 5.40489 5.08795 5.41957L12.0039 6.59763C12.1694 6.62433 12.3184 6.71026 12.4211 6.83825C12.5238 6.96625 12.5727 7.1269 12.558 7.28812C12.5432 7.44934 12.466 7.59927 12.3417 7.70798C12.2173 7.81668 12.0551 7.87616 11.8873 7.87453C11.8478 7.87461 11.8085 7.87111 11.7698 7.86409L4.8538 6.68683C4.67993 6.65669 4.52558 6.56122 4.42465 6.42139C4.32372 6.28156 4.28447 6.10882 4.31552 5.9411ZM3.85307 8.47321C3.88453 8.30584 3.98348 8.15731 4.12826 8.06017C4.27304 7.96302 4.45183 7.92516 4.62549 7.95489L8.08181 8.54071C8.2461 8.56846 8.39364 8.65461 8.49529 8.78215C8.59694 8.90968 8.64532 9.06934 8.63088 9.22959C8.61644 9.38985 8.54023 9.53906 8.41729 9.64777C8.29435 9.75648 8.13362 9.8168 7.96682 9.8168C7.92772 9.81679 7.8887 9.81356 7.85017 9.80716L4.39218 9.21813C4.21833 9.18817 4.06391 9.09289 3.96284 8.95323C3.86176 8.81356 3.82228 8.64092 3.85307 8.47321Z" fill="var(--fill-0, white)"/>
</svg>
