<svg preserveAspectRatio="none" width="100%" height="100%" overflow="visible" style="display: block;" viewBox="0 0 27.0671 25.8347" fill="none" xmlns="http://www.w3.org/2000/svg">
<g id="Path">
<path d="M6.52668 3.01088C6.48903 1.30176 5.26683 0 3.28217 0C1.2975 0 0 1.30176 0 3.01088C0 4.68459 1.25915 6.02384 3.20686 6.02384H3.24393C5.26683 6.02384 6.52668 4.68459 6.52668 3.01088Z" fill="var(--fill-0, #F76739)"/>
<path d="M6.14459 8.40313H0.343066V25.8343H6.14459V8.40313Z" fill="var(--fill-0, #F76739)"/>
<path d="M20.3874 7.99375C24.205 7.99375 27.0671 10.4856 27.0671 15.8397L27.0669 25.8342H21.2656V16.5085C21.2656 14.1661 20.4261 12.5677 18.3259 12.5677C16.7231 12.5677 15.7684 13.6453 15.3491 14.6861C15.1957 15.059 15.1581 15.5787 15.1581 16.0997V25.8347H9.35586C9.35586 25.8347 9.43233 10.0392 9.35586 8.40353H15.1581V10.8725C15.9281 9.68563 17.3071 7.99375 20.3874 7.99375Z" fill="var(--fill-0, #F76739)"/>
</g>
</svg>
