<svg preserveAspectRatio="none" width="100%" height="100%" overflow="visible" style="display: block;" viewBox="0 0 27.3067 27.307" fill="none" xmlns="http://www.w3.org/2000/svg">
<path id="Path" fill-rule="evenodd" clip-rule="evenodd" d="M13.6546 0C9.94656 0 9.4812 0.0162135 8.02483 0.0824898C6.5713 0.14905 5.57915 0.379168 4.71102 0.716807C3.81302 1.06554 3.05127 1.53203 2.29236 2.29122C1.53289 3.05013 1.06639 3.81188 0.716523 4.7096C0.378031 5.57801 0.147628 6.57045 0.0822053 8.02341C0.0170668 9.47978 0 9.94542 0 13.6535C0 17.3615 0.016498 17.8255 0.0824898 19.2818C0.149335 20.7354 0.379453 21.7275 0.716808 22.5957C1.06582 23.4937 1.53232 24.2554 2.29151 25.0143C3.05013 25.7738 3.81188 26.2414 4.70931 26.5901C5.57801 26.9278 6.57045 27.1579 8.02369 27.2245C9.48006 27.2907 9.94514 27.307 13.6529 27.307C17.3613 27.307 17.8252 27.2907 19.2816 27.2245C20.7351 27.1579 21.7284 26.9278 22.5971 26.5901C23.4948 26.2414 24.2554 25.7738 25.014 25.0143C25.7735 24.2554 26.24 23.4937 26.5899 22.5959C26.9255 21.7275 27.1559 20.7351 27.2242 19.2821C27.2896 17.8258 27.3067 17.3615 27.3067 13.6535C27.3067 9.94542 27.2896 9.48006 27.2242 8.02369C27.1559 6.57017 26.9255 5.57801 26.5899 4.70988C26.24 3.81188 25.7735 3.05013 25.014 2.29122C24.2545 1.53175 23.4951 1.06526 22.5962 0.716807C21.7258 0.379168 20.7331 0.14905 19.2796 0.0824898C17.8232 0.0162135 17.3595 0 13.6503 0H13.6546ZM12.4297 2.46043C12.7932 2.45986 13.1989 2.46043 13.6546 2.46043C17.3 2.46043 17.7321 2.47352 19.1717 2.53894C20.5029 2.59981 21.2254 2.82225 21.7067 3.00913C22.3439 3.2566 22.7981 3.55243 23.2757 4.0303C23.7536 4.50817 24.0494 4.96328 24.2974 5.60045C24.4843 6.08116 24.707 6.80366 24.7676 8.13487C24.8331 9.57418 24.8473 10.0065 24.8473 13.6503C24.8473 17.2941 24.8331 17.7264 24.7676 19.1657C24.7068 20.497 24.4843 21.2195 24.2974 21.7002C24.05 22.3373 23.7536 22.791 23.2757 23.2686C22.7978 23.7465 22.3441 24.0423 21.7067 24.2898C21.226 24.4775 20.5029 24.6994 19.1717 24.7603C17.7324 24.8257 17.3 24.8399 13.6546 24.8399C10.0088 24.8399 9.57672 24.8257 8.13741 24.7603C6.8062 24.6988 6.0837 24.4764 5.60213 24.2895C4.96497 24.042 4.50986 23.7462 4.03198 23.2683C3.55411 22.7905 3.25829 22.3365 3.01025 21.699C2.82337 21.2183 2.60064 20.4958 2.54006 19.1646C2.47463 17.7253 2.46155 17.2929 2.46155 13.6469C2.46155 10.0008 2.47463 9.57076 2.54006 8.13146C2.60093 6.80025 2.82337 6.07775 3.01025 5.59647C3.25772 4.9593 3.55411 4.50419 4.03198 4.02631C4.50986 3.54844 4.96497 3.25262 5.60213 3.00458C6.08342 2.81684 6.8062 2.59498 8.13741 2.53382C9.39695 2.47693 9.88506 2.45986 12.4297 2.45702V2.46043ZM20.9427 4.72748C20.0381 4.72748 19.3043 5.4605 19.3043 6.36533C19.3043 7.26987 20.0381 8.00375 20.9427 8.00375C21.8472 8.00375 22.5811 7.26987 22.5811 6.36533C22.5811 5.46079 21.8472 4.72748 20.9427 4.72748ZM13.6546 6.64181C9.78246 6.64181 6.64301 9.78126 6.64301 13.6534C6.64301 17.5256 9.78246 20.6636 13.6546 20.6636C17.5268 20.6636 20.6651 17.5256 20.6651 13.6534C20.6651 9.78126 17.5268 6.64181 13.6546 6.64181ZM13.6546 9.10228C16.168 9.10228 18.2057 11.1398 18.2057 13.6534C18.2057 16.1668 16.168 18.2046 13.6546 18.2046C11.1409 18.2046 9.10343 16.1668 9.10343 13.6534C9.10343 11.1398 11.1409 9.10228 13.6546 9.10228Z" fill="var(--fill-0, #F76739)"/>
</svg>
