<svg preserveAspectRatio="none" width="100%" height="100%" overflow="visible" style="display: block;" viewBox="0 0 24.7824 20.48" fill="none" xmlns="http://www.w3.org/2000/svg">
<path id="Path" fill-rule="evenodd" clip-rule="evenodd" d="M12.0333 5.448L12.087 6.33382L11.1917 6.22535C7.93266 5.80956 5.08549 4.39948 2.66809 2.03128L1.48625 0.856211L1.18184 1.72395C0.5372 3.65829 0.949054 5.70109 2.29205 7.07501C3.00832 7.83429 2.84716 7.94275 1.6116 7.49081C1.18184 7.34618 0.8058 7.23771 0.769987 7.29195C0.64464 7.41849 1.0744 9.06358 1.41463 9.71439C1.8802 10.6183 2.82925 11.5041 3.86784 12.0284L4.74527 12.4442L3.70668 12.4622C2.70391 12.4622 2.66809 12.4803 2.77553 12.8599C3.13367 14.035 4.5483 15.2824 6.12408 15.8247L7.2343 16.2044L6.26734 16.7829C4.8348 17.6144 3.15157 18.0845 1.46835 18.1206C0.662547 18.1387 0 18.211 0 18.2652C0 18.446 2.18461 19.4584 3.45599 19.8561C7.27011 21.0312 11.8005 20.525 15.2028 18.5183C17.6202 17.0902 20.0376 14.2519 21.1657 11.5041C21.7745 10.0398 22.3833 7.36426 22.3833 6.08073C22.3833 5.24914 22.4371 5.14068 23.4398 4.14639C24.0308 3.5679 24.5859 2.93517 24.6933 2.75439C24.8724 2.41091 24.8545 2.41091 23.9412 2.71824C22.4192 3.26057 22.2043 3.18826 22.9564 2.37476C23.5115 1.79626 24.174 0.747743 24.174 0.440419C24.174 0.386185 23.9054 0.476575 23.601 0.639276C23.2787 0.820055 22.5624 1.09122 22.0252 1.25392L21.0582 1.56125L20.1808 0.964678C19.6973 0.639276 19.0169 0.277717 18.6588 0.16925C17.7455 -0.0838408 16.3488 -0.047685 15.5251 0.241562C13.2868 1.05507 11.8721 3.15211 12.0333 5.448Z" fill="var(--fill-0, #F76739)"/>
</svg>
