<svg width="256" height="45" viewBox="0 0 256 45" fill="none" xmlns="http://www.w3.org/2000/svg">
<rect width="256" height="45" fill="#1E1E1E"/>
<g id="Home Page Final">
<path d="M-897 -4601.67C-897 -4602.78 -896.105 -4603.68 -895 -4603.68H24308C24309.1 -4603.68 24310 -4602.78 24310 -4601.68V10607.3C24310 10608.4 24309.1 10609.3 24308 10609.3H-895C-896.105 10609.3 -897 10608.4 -897 10607.3V-4601.67Z" fill="black"/>
<path d="M-895 -4603.68V-4602.68H24308V-4603.68V-4604.68H-895V-4603.68ZM24310 -4601.68H24309V10607.3H24310H24311V-4601.68H24310ZM24308 10609.3V10608.3H-895V10609.3V10610.3H24308V10609.3ZM-897 10607.3H-896V-4601.67H-897H-898V10607.3H-897ZM-895 10609.3V10608.3C-895.552 10608.3 -896 10607.9 -896 10607.3H-897H-898C-898 10609 -896.657 10610.3 -895 10610.3V10609.3ZM24310 10607.3H24309C24309 10607.9 24308.6 10608.3 24308 10608.3V10609.3V10610.3C24309.7 10610.3 24311 10609 24311 10607.3H24310ZM24308 -4603.68V-4602.68C24308.6 -4602.68 24309 -4602.23 24309 -4601.68H24310H24311C24311 -4603.33 24309.7 -4604.68 24308 -4604.68V-4603.68ZM-895 -4603.68V-4604.68C-896.657 -4604.68 -898 -4603.33 -898 -4601.67H-897H-896C-896 -4602.23 -895.552 -4602.68 -895 -4602.68V-4603.68Z" fill="white" fill-opacity="0.1"/>
<g id="Home Page V2" clip-path="url(#clip0_0_1)">
<rect width="1440" height="11608" transform="translate(-96 -3300.68)" fill="white"/>
<g id="Frame 1686562576">
<g id="Frame 1686562577">
<g id="Frame 1686562588" clip-path="url(#clip1_0_1)">
<g id="Frame 1686562496">
<g id="Frame 1686562587">
<g id="10x">
<mask id="path-3-outside-1_0_1" maskUnits="userSpaceOnUse" x="-1" y="-0.199951" width="257" height="113" fill="black">
<rect fill="white" x="-1" y="-0.199951" width="257" height="113"/>
<path d="M22.05 108.8V12.8L32.55 23.3H1.05V3.80004H46.35V108.8H22.05ZM111.59 110.6C102.99 110.6 95.2902 108.5 88.4902 104.3C81.6902 100 76.3402 93.8 72.4402 85.7C68.5402 77.6 66.5902 67.8 66.5902 56.3C66.5902 44.8 68.5402 35 72.4402 26.9C76.3402 18.8 81.6902 12.65 88.4902 8.45004C95.2902 4.15005 102.99 2.00005 111.59 2.00005C120.29 2.00005 127.99 4.15005 134.69 8.45004C141.49 12.65 146.84 18.8 150.74 26.9C154.64 35 156.59 44.8 156.59 56.3C156.59 67.8 154.64 77.6 150.74 85.7C146.84 93.8 141.49 100 134.69 104.3C127.99 108.5 120.29 110.6 111.59 110.6ZM111.59 90.05C115.69 90.05 119.24 88.9 122.24 86.6C125.34 84.3 127.74 80.65 129.44 75.65C131.24 70.65 132.14 64.2 132.14 56.3C132.14 48.4 131.24 41.95 129.44 36.95C127.74 31.95 125.34 28.3 122.24 26C119.24 23.7 115.69 22.55 111.59 22.55C107.59 22.55 104.04 23.7 100.94 26C97.9402 28.3 95.5402 31.95 93.7402 36.95C92.0402 41.95 91.1902 48.4 91.1902 56.3C91.1902 64.2 92.0402 70.65 93.7402 75.65C95.5402 80.65 97.9402 84.3 100.94 86.6C104.04 88.9 107.59 90.05 111.59 90.05ZM163.682 108.8L199.832 61.4L199.382 74.3L164.732 28.1H190.982L212.882 58.25L202.982 58.55L225.632 28.1H250.532L215.732 73.85V61.25L251.732 108.8H225.182L202.232 76.7L211.982 78.05L189.182 108.8H163.682Z"/>
</mask>
<path d="M22.05 108.8H20.05V110.8H22.05V108.8ZM22.05 12.8L23.4642 11.3858L20.05 7.97162V12.8H22.05ZM32.55 23.3V25.3H37.3784L33.9642 21.8858L32.55 23.3ZM1.05 23.3H-0.95V25.3H1.05V23.3ZM1.05 3.80004V1.80004H-0.95V3.80004H1.05ZM46.35 3.80004H48.35V1.80004H46.35V3.80004ZM46.35 108.8V110.8H48.35V108.8H46.35ZM22.05 108.8H24.05V12.8H22.05H20.05V108.8H22.05ZM22.05 12.8L20.6358 14.2143L31.1358 24.7143L32.55 23.3L33.9642 21.8858L23.4642 11.3858L22.05 12.8ZM32.55 23.3V21.3H1.05V23.3V25.3H32.55V23.3ZM1.05 23.3H3.05V3.80004H1.05H-0.95V23.3H1.05ZM1.05 3.80004V5.80004H46.35V3.80004V1.80004H1.05V3.80004ZM46.35 3.80004H44.35V108.8H46.35H48.35V3.80004H46.35ZM46.35 108.8V106.8H22.05V108.8V110.8H46.35V108.8ZM88.4902 104.3L87.4213 105.99L87.4303 105.996L87.4392 106.002L88.4902 104.3ZM72.4402 85.7L70.6382 86.5677L72.4402 85.7ZM72.4402 26.9L74.2422 27.7677V27.7677L72.4402 26.9ZM88.4902 8.45004L89.5412 10.1516L89.5502 10.1461L89.5592 10.1404L88.4902 8.45004ZM134.69 8.45004L133.61 10.1332L133.625 10.1426L133.639 10.1516L134.69 8.45004ZM150.74 26.9L148.938 27.7677V27.7677L150.74 26.9ZM150.74 85.7L148.938 84.8324V84.8324L150.74 85.7ZM134.69 104.3L135.753 105.995L135.759 105.99L134.69 104.3ZM122.24 86.6001L121.049 84.9939L121.036 85.0032L121.023 85.0128L122.24 86.6001ZM129.44 75.65L127.558 74.9726L127.552 74.9894L127.547 75.0062L129.44 75.65ZM129.44 36.95L127.547 37.5938L127.552 37.6107L127.558 37.6275L129.44 36.95ZM122.24 26L121.023 27.5873L121.036 27.5968L121.049 27.6062L122.24 26ZM100.94 26L99.7485 24.3938L99.7359 24.4032L99.7234 24.4128L100.94 26ZM93.7402 36.95L91.8585 36.2726L91.8524 36.2894L91.8467 36.3062L93.7402 36.95ZM93.7402 75.65L91.8467 76.2939L91.8524 76.3107L91.8585 76.3275L93.7402 75.65ZM100.94 86.6001L99.7234 88.1873L99.7359 88.1969L99.7485 88.2062L100.94 86.6001ZM111.59 110.6V108.6C103.332 108.6 96.0013 106.589 89.5412 102.598L88.4902 104.3L87.4392 106.002C94.5792 110.412 102.648 112.6 111.59 112.6V110.6ZM88.4902 104.3L89.5592 102.61C83.112 98.5328 77.9994 92.6357 74.2422 84.8324L72.4402 85.7L70.6382 86.5677C74.6811 94.9644 80.2685 101.467 87.4213 105.99L88.4902 104.3ZM72.4402 85.7L74.2422 84.8324C70.5037 77.0677 68.5902 67.5807 68.5902 56.3H66.5902H64.5902C64.5902 68.0193 66.5768 78.1324 70.6382 86.5677L72.4402 85.7ZM66.5902 56.3H68.5902C68.5902 45.0193 70.5037 35.5324 74.2422 27.7677L72.4402 26.9L70.6382 26.0324C66.5768 34.4677 64.5902 44.5807 64.5902 56.3H66.5902ZM72.4402 26.9L74.2422 27.7677C77.9979 19.9674 83.1054 14.1267 89.5412 10.1516L88.4902 8.45004L87.4392 6.74845C80.2751 11.1734 74.6825 17.6327 70.6382 26.0324L72.4402 26.9ZM88.4902 8.45004L89.5592 10.1404C96.0171 6.05676 103.341 4.00005 111.59 4.00005V2.00005V4.57764e-05C102.639 4.57764e-05 94.5634 2.24333 87.4213 6.75966L88.4902 8.45004ZM111.59 2.00005V4.00005C119.944 4.00005 127.262 6.05917 133.61 10.1332L134.69 8.45004L135.77 6.76687C128.718 2.24092 120.636 4.57764e-05 111.59 4.57764e-05V2.00005ZM134.69 8.45004L133.639 10.1516C140.075 14.1267 145.183 19.9674 148.938 27.7677L150.74 26.9L152.542 26.0324C148.498 17.6327 142.905 11.1734 135.741 6.74845L134.69 8.45004ZM150.74 26.9L148.938 27.7677C152.677 35.5324 154.59 45.0193 154.59 56.3H156.59H158.59C158.59 44.5807 156.604 34.4677 152.542 26.0324L150.74 26.9ZM156.59 56.3H154.59C154.59 67.5807 152.677 77.0677 148.938 84.8324L150.74 85.7L152.542 86.5677C156.604 78.1324 158.59 68.0193 158.59 56.3H156.59ZM150.74 85.7L148.938 84.8324C145.181 92.6357 140.069 98.5328 133.621 102.61L134.69 104.3L135.759 105.99C142.912 101.467 148.499 94.9644 152.542 86.5677L150.74 85.7ZM134.69 104.3L133.628 102.605C127.278 106.586 119.953 108.6 111.59 108.6V110.6V112.6C120.627 112.6 128.703 110.414 135.753 105.995L134.69 104.3ZM111.59 90.05V92.05C116.091 92.05 120.078 90.7781 123.457 88.1873L122.24 86.6001L121.023 85.0128C118.403 87.022 115.29 88.05 111.59 88.05V90.05ZM122.24 86.6001L123.432 88.2062C126.958 85.5898 129.55 81.5404 131.334 76.2939L129.44 75.65L127.547 75.0062C125.931 79.7597 123.722 83.0103 121.049 84.9939L122.24 86.6001ZM129.44 75.65L131.322 76.3275C133.228 71.0318 134.14 64.3296 134.14 56.3H132.14H130.14C130.14 64.0705 129.252 70.2683 127.558 74.9726L129.44 75.65ZM132.14 56.3H134.14C134.14 48.2705 133.228 41.5683 131.322 36.2726L129.44 36.95L127.558 37.6275C129.252 42.3318 130.14 48.5296 130.14 56.3H132.14ZM129.44 36.95L131.334 36.3062C129.55 31.0596 126.958 27.0103 123.432 24.3938L122.24 26L121.049 27.6062C123.722 29.5898 125.931 32.8404 127.547 37.5938L129.44 36.95ZM122.24 26L123.457 24.4128C120.078 21.822 116.091 20.55 111.59 20.55V22.55V24.55C115.29 24.55 118.403 25.5781 121.023 27.5873L122.24 26ZM111.59 22.55V20.55C107.178 20.55 103.206 21.8284 99.7485 24.3938L100.94 26L102.132 27.6062C104.874 25.5717 108.003 24.55 111.59 24.55V22.55ZM100.94 26L99.7234 24.4128C96.3192 27.0227 93.7378 31.0521 91.8585 36.2726L93.7402 36.95L95.622 37.6275C97.3426 32.848 99.5612 29.5774 102.157 27.5873L100.94 26ZM93.7402 36.95L91.8467 36.3062C90.0505 41.5892 89.1902 48.2786 89.1902 56.3H91.1902H93.1902C93.1902 48.5215 94.03 42.3108 95.6338 37.5938L93.7402 36.95ZM91.1902 56.3H89.1902C89.1902 64.3215 90.0505 71.0108 91.8467 76.2939L93.7402 75.65L95.6338 75.0062C94.03 70.2892 93.1902 64.0786 93.1902 56.3H91.1902ZM93.7402 75.65L91.8585 76.3275C93.7378 81.548 96.3192 85.5774 99.7234 88.1873L100.94 86.6001L102.157 85.0128C99.5612 83.0227 97.3426 79.7521 95.622 74.9726L93.7402 75.65ZM100.94 86.6001L99.7485 88.2062C103.206 90.7717 107.178 92.05 111.59 92.05V90.05V88.05C108.003 88.05 104.874 87.0284 102.132 84.9939L100.94 86.6001ZM163.682 108.8L162.092 107.587L159.641 110.8H163.682V108.8ZM199.832 61.4L201.831 61.4698L202.05 55.1942L198.242 60.1872L199.832 61.4ZM199.382 74.3L197.782 75.5L201.183 80.0349L201.381 74.3698L199.382 74.3ZM164.732 28.1V26.1H160.732L163.132 29.3L164.732 28.1ZM190.982 28.1L192.6 26.9247L192.001 26.1H190.982V28.1ZM212.882 58.25L212.943 60.2491L216.723 60.1346L214.5 57.0747L212.882 58.25ZM202.982 58.55L201.377 57.3564L198.909 60.6744L203.043 60.5491L202.982 58.55ZM225.632 28.1V26.1H224.627L224.027 26.9064L225.632 28.1ZM250.532 28.1L252.124 29.3109L254.566 26.1H250.532V28.1ZM215.732 73.8501H213.732V79.7829L217.324 75.0609L215.732 73.8501ZM215.732 61.25L217.327 60.0428L213.732 55.295V61.25H215.732ZM251.732 108.8V110.8H255.755L253.327 107.593L251.732 108.8ZM225.182 108.8L223.555 109.963L224.153 110.8H225.182V108.8ZM202.232 76.7L202.506 74.7189L197.901 74.0813L200.605 77.8632L202.232 76.7ZM211.982 78.05L213.589 79.2412L215.598 76.5316L212.256 76.0689L211.982 78.05ZM189.182 108.8V110.8H190.189L190.789 109.991L189.182 108.8ZM163.682 108.8L165.272 110.013L201.422 62.6129L199.832 61.4L198.242 60.1872L162.092 107.587L163.682 108.8ZM199.832 61.4L197.833 61.3303L197.383 74.2303L199.382 74.3L201.381 74.3698L201.831 61.4698L199.832 61.4ZM199.382 74.3L200.982 73.1001L166.332 26.9L164.732 28.1L163.132 29.3L197.782 75.5L199.382 74.3ZM164.732 28.1V30.1H190.982V28.1V26.1H164.732V28.1ZM190.982 28.1L189.364 29.2754L211.264 59.4254L212.882 58.25L214.5 57.0747L192.6 26.9247L190.982 28.1ZM212.882 58.25L212.821 56.251L202.921 56.551L202.982 58.55L203.043 60.5491L212.943 60.2491L212.882 58.25ZM202.982 58.55L204.587 59.7437L227.237 29.2937L225.632 28.1L224.027 26.9064L201.377 57.3564L202.982 58.55ZM225.632 28.1V30.1H250.532V28.1V26.1H225.632V28.1ZM250.532 28.1L248.94 26.8892L214.14 72.6392L215.732 73.8501L217.324 75.0609L252.124 29.3109L250.532 28.1ZM215.732 73.8501H217.732V61.25H215.732H213.732V73.8501H215.732ZM215.732 61.25L214.137 62.4573L250.137 110.007L251.732 108.8L253.327 107.593L217.327 60.0428L215.732 61.25ZM251.732 108.8V106.8H225.182V108.8V110.8H251.732V108.8ZM225.182 108.8L226.809 107.637L203.859 75.5368L202.232 76.7L200.605 77.8632L223.555 109.963L225.182 108.8ZM202.232 76.7L201.958 78.6811L211.708 80.0311L211.982 78.05L212.256 76.0689L202.506 74.7189L202.232 76.7ZM211.982 78.05L210.375 76.8588L187.575 107.609L189.182 108.8L190.789 109.991L213.589 79.2412L211.982 78.05ZM189.182 108.8V106.8H163.682V108.8V110.8H189.182V108.8Z" fill="#ED6B52" mask="url(#path-3-outside-1_0_1)"/>
</g>
</g>
</g>
</g>
</g>
</g>
</g>
</g>
<defs>
<clipPath id="clip0_0_1">
<rect width="1440" height="11608" fill="white" transform="translate(-96 -3300.68)"/>
</clipPath>
<clipPath id="clip1_0_1">
<rect width="436" height="516" fill="white" transform="translate(0 -471.2)"/>
</clipPath>
</defs>
</svg>
