<svg width="333" height="111" viewBox="0 0 333 111" fill="none" xmlns="http://www.w3.org/2000/svg">
<rect width="333" height="111" fill="#1E1E1E"/>
<g id="Home Page Final">
<path d="M-897 -4335.47C-897 -4336.58 -896.105 -4337.48 -895 -4337.48H24308C24309.1 -4337.48 24310 -4336.58 24310 -4335.48V10873.5C24310 10874.6 24309.1 10875.5 24308 10875.5H-895C-896.105 10875.5 -897 10874.6 -897 10873.5V-4335.47Z" fill="black"/>
<path d="M-895 -4337.48V-4336.48H24308V-4337.48V-4338.48H-895V-4337.48ZM24310 -4335.48H24309V10873.5H24310H24311V-4335.48H24310ZM24308 10875.5V10874.5H-895V10875.5V10876.5H24308V10875.5ZM-897 10873.5H-896V-4335.47H-897H-898V10873.5H-897ZM-895 10875.5V10874.5C-895.552 10874.5 -896 10874.1 -896 10873.5H-897H-898C-898 10875.2 -896.657 10876.5 -895 10876.5V10875.5ZM24310 10873.5H24309C24309 10874.1 24308.6 10874.5 24308 10874.5V10875.5V10876.5C24309.7 10876.5 24311 10875.2 24311 10873.5H24310ZM24308 -4337.48V-4336.48C24308.6 -4336.48 24309 -4336.03 24309 -4335.48H24310H24311C24311 -4337.13 24309.7 -4338.48 24308 -4338.48V-4337.48ZM-895 -4337.48V-4338.48C-896.657 -4338.48 -898 -4337.13 -898 -4335.47H-897H-896C-896 -4336.03 -895.552 -4336.48 -895 -4336.48V-4337.48Z" fill="white" fill-opacity="0.1"/>
<g id="Home Page V2" clip-path="url(#clip0_0_1)">
<rect width="1440" height="11608" transform="translate(-96 -3034.48)" fill="white"/>
<g id="Frame 1686562576">
<g id="Frame 1686562577">
<g id="Frame 1686562588" clip-path="url(#clip1_0_1)">
<g id="Frame 1686562495">
<g id="Frame 1686562587">
<g id="3-5x">
<mask id="path-3-outside-1_0_1" maskUnits="userSpaceOnUse" x="-3" y="0" width="336" height="111" fill="black">
<rect fill="white" x="-3" width="336" height="111"/>
<path d="M39.9 108.8C32.6 108.8 25.35 107.85 18.15 105.95C10.95 103.95 4.85 101.15 -0.15 97.55L9.3 78.95C13.3 81.85 17.95 84.15 23.25 85.85C28.55 87.55 33.9 88.4 39.3 88.4C45.4 88.4 50.2 87.2 53.7 84.8C57.2 82.4 58.95 79.1 58.95 74.9C58.95 70.9 57.4 67.75 54.3 65.45C51.2 63.15 46.2 62 39.3 62H28.2V45.95L57.45 12.8L60.15 21.5H5.1V1.99999H78.6V17.75L49.5 50.9L37.2 43.85H44.25C57.15 43.85 66.9 46.75 73.5 52.55C80.1 58.35 83.4 65.8 83.4 74.9C83.4 80.8 81.85 86.35 78.75 91.55C75.65 96.65 70.9 100.8 64.5 104C58.1 107.2 49.9 108.8 39.9 108.8ZM98.5695 74.15V55.4H141.02V74.15H98.5695ZM192.181 108.8C184.881 108.8 177.631 107.85 170.431 105.95C163.331 103.95 157.231 101.15 152.131 97.55L161.731 78.95C165.731 81.85 170.331 84.15 175.531 85.85C180.831 87.55 186.181 88.4 191.581 88.4C197.681 88.4 202.481 87.2 205.981 84.8C209.481 82.4 211.231 79.05 211.231 74.75C211.231 72.05 210.531 69.65 209.131 67.55C207.731 65.45 205.231 63.85 201.631 62.75C198.131 61.65 193.181 61.1 186.781 61.1H159.931L165.331 1.99999H229.381V21.5H174.031L186.631 10.4L182.881 52.55L170.281 41.45H192.481C202.881 41.45 211.231 42.9 217.531 45.8C223.931 48.6 228.581 52.45 231.481 57.35C234.381 62.25 235.831 67.8 235.831 74C235.831 80.2 234.281 85.95 231.181 91.25C228.081 96.45 223.281 100.7 216.781 104C210.381 107.2 202.181 108.8 192.181 108.8ZM240.682 107L276.832 59.6L276.382 72.5L241.732 26.3H267.982L289.882 56.45L279.982 56.75L302.632 26.3H327.532L292.732 72.05V59.45L328.732 107H302.182L279.232 74.9L288.982 76.25L266.182 107H240.682Z"/>
</mask>
<path d="M18.15 105.95L17.6147 107.877L17.6272 107.88L17.6397 107.884L18.15 105.95ZM-0.15 97.55L-1.93307 96.6441L-2.70925 98.1718L-1.31861 99.1731L-0.15 97.55ZM9.3 78.95L10.4739 77.3308L8.57778 75.9561L7.51693 78.0441L9.3 78.95ZM23.25 85.85L22.6391 87.7544V87.7544L23.25 85.85ZM53.7 84.8L54.8311 86.4495V86.4495L53.7 84.8ZM28.2 62H26.2V64H28.2V62ZM28.2 45.95L26.7003 44.6268L26.2 45.1938V45.95H28.2ZM57.45 12.8L59.3601 12.2072L58.3052 8.80792L55.9503 11.4768L57.45 12.8ZM60.15 21.5V23.5H62.8648L62.0601 20.9072L60.15 21.5ZM5.1 21.5H3.1V23.5H5.1V21.5ZM5.1 1.99999V-7.62939e-06H3.1V1.99999H5.1ZM78.6 1.99999H80.6V-7.62939e-06H78.6V1.99999ZM78.6 17.75L80.1031 19.0694L80.6 18.5033V17.75H78.6ZM49.5 50.9L48.5054 52.6352L49.9242 53.4484L51.003 52.2194L49.5 50.9ZM37.2 43.85V41.85H29.6887L36.2054 45.5852L37.2 43.85ZM73.5 52.55L72.1798 54.0523V54.0523L73.5 52.55ZM78.75 91.55L80.459 92.5888L80.4635 92.5815L80.4679 92.5741L78.75 91.55ZM64.5 104L63.6056 102.211H63.6056L64.5 104ZM39.9 108.8V106.8C32.7757 106.8 25.6971 105.873 18.6603 104.016L18.15 105.95L17.6397 107.884C25.0029 109.827 32.4243 110.8 39.9 110.8V108.8ZM18.15 105.95L18.6853 104.023C11.6657 102.073 5.79119 99.3632 1.01861 95.9269L-0.15 97.55L-1.31861 99.1731C3.90881 102.937 10.2343 105.827 17.6147 107.877L18.15 105.95ZM-0.15 97.55L1.63307 98.4559L11.0831 79.8559L9.3 78.95L7.51693 78.0441L-1.93307 96.6441L-0.15 97.55ZM9.3 78.95L8.12607 80.5692C12.3177 83.6081 17.1627 85.9978 22.6391 87.7544L23.25 85.85L23.8609 83.9456C18.7373 82.3022 14.2823 80.0919 10.4739 77.3308L9.3 78.95ZM23.25 85.85L22.6391 87.7544C28.1304 89.5158 33.6863 90.4 39.3 90.4V88.4V86.4C34.1137 86.4 28.9696 85.5842 23.8609 83.9456L23.25 85.85ZM39.3 88.4V90.4C45.6348 90.4 50.8817 89.1576 54.8311 86.4495L53.7 84.8L52.5689 83.1505C49.5183 85.2424 45.1652 86.4 39.3 86.4V88.4ZM53.7 84.8L54.8311 86.4495C58.8681 83.6812 60.95 79.7677 60.95 74.9H58.95H56.95C56.95 78.4323 55.5319 81.1188 52.5689 83.1505L53.7 84.8ZM58.95 74.9H60.95C60.95 70.2938 59.1215 66.5369 55.4917 63.8438L54.3 65.45L53.1083 67.0562C55.6785 68.9631 56.95 71.5062 56.95 74.9H58.95ZM54.3 65.45L55.4917 63.8438C51.8669 61.1544 46.3313 60 39.3 60V62V64C46.0687 64 50.5331 65.1456 53.1083 67.0562L54.3 65.45ZM39.3 62V60H28.2V62V64H39.3V62ZM28.2 62H30.2V45.95H28.2H26.2V62H28.2ZM28.2 45.95L29.6997 47.2732L58.9497 14.1232L57.45 12.8L55.9503 11.4768L26.7003 44.6268L28.2 45.95ZM57.45 12.8L55.5399 13.3928L58.2399 22.0928L60.15 21.5L62.0601 20.9072L59.3601 12.2072L57.45 12.8ZM60.15 21.5V19.5H5.1V21.5V23.5H60.15V21.5ZM5.1 21.5H7.1V1.99999H5.1H3.1V21.5H5.1ZM5.1 1.99999V3.99999H78.6V1.99999V-7.62939e-06H5.1V1.99999ZM78.6 1.99999H76.6V17.75H78.6H80.6V1.99999H78.6ZM78.6 17.75L77.097 16.4306L47.997 49.5806L49.5 50.9L51.003 52.2194L80.1031 19.0694L78.6 17.75ZM49.5 50.9L50.4946 49.1648L38.1946 42.1148L37.2 43.85L36.2054 45.5852L48.5054 52.6352L49.5 50.9ZM37.2 43.85V45.85H44.25V43.85V41.85H37.2V43.85ZM44.25 43.85V45.85C56.8866 45.85 66.083 48.6945 72.1798 54.0523L73.5 52.55L74.8202 51.0477C67.717 44.8054 57.4134 41.85 44.25 41.85V43.85ZM73.5 52.55L72.1798 54.0523C78.3304 59.4574 81.4 66.3518 81.4 74.9H83.4H85.4C85.4 65.2482 81.8696 57.2426 74.8202 51.0477L73.5 52.55ZM83.4 74.9H81.4C81.4 80.4297 79.9525 85.6271 77.0321 90.5259L78.75 91.55L80.4679 92.5741C83.7475 87.0729 85.4 81.1703 85.4 74.9H83.4ZM78.75 91.55L77.041 90.5112C74.1724 95.2305 69.7365 99.1457 63.6056 102.211L64.5 104L65.3944 105.789C72.0636 102.454 77.1277 98.0695 80.459 92.5888L78.75 91.55ZM64.5 104L63.6056 102.211C57.5712 105.228 49.7056 106.8 39.9 106.8V108.8V110.8C50.0944 110.8 58.6288 109.172 65.3944 105.789L64.5 104ZM98.5695 74.15H96.5695V76.15H98.5695V74.15ZM98.5695 55.4V53.4H96.5695V55.4H98.5695ZM141.02 55.4H143.02V53.4H141.02V55.4ZM141.02 74.15V76.15H143.02V74.15H141.02ZM98.5695 74.15H100.57V55.4H98.5695H96.5695V74.15H98.5695ZM98.5695 55.4V57.4H141.02V55.4V53.4H98.5695V55.4ZM141.02 55.4H139.02V74.15H141.02H143.02V55.4H141.02ZM141.02 74.15V72.15H98.5695V74.15V76.15H141.02V74.15ZM170.431 105.95L169.889 107.875L169.905 107.88L169.921 107.884L170.431 105.95ZM152.131 97.55L150.354 96.6327L149.555 98.1799L150.977 99.1839L152.131 97.55ZM161.731 78.95L162.905 77.3308L161.021 75.9649L159.954 78.0327L161.731 78.95ZM175.531 85.85L174.909 87.751L174.92 87.7544L175.531 85.85ZM205.981 84.8L207.112 86.4495V86.4495L205.981 84.8ZM201.631 62.75L201.031 64.658L201.039 64.6604L201.046 64.6627L201.631 62.75ZM159.931 61.1L157.939 60.918L157.74 63.1H159.931V61.1ZM165.331 1.99999V-7.62939e-06H163.505L163.339 1.81801L165.331 1.99999ZM229.381 1.99999H231.381V-7.62939e-06H229.381V1.99999ZM229.381 21.5V23.5H231.381V21.5H229.381ZM174.031 21.5L172.709 19.9993L168.735 23.5H174.031V21.5ZM186.631 10.4L188.623 10.5772L189.067 5.58864L185.309 8.89928L186.631 10.4ZM182.881 52.55L181.559 54.0507L184.523 56.662L184.873 52.7272L182.881 52.55ZM170.281 41.45V39.45H164.985L168.959 42.9507L170.281 41.45ZM217.531 45.8L216.695 47.6168L216.712 47.6247L216.729 47.6323L217.531 45.8ZM231.481 57.35L233.202 56.3314V56.3314L231.481 57.35ZM231.181 91.25L232.899 92.2741L232.903 92.267L232.907 92.2598L231.181 91.25ZM216.781 104L217.675 105.789L217.686 105.783L216.781 104ZM192.181 108.8V106.8C185.057 106.8 177.978 105.873 170.941 104.016L170.431 105.95L169.921 107.884C177.284 109.827 184.705 110.8 192.181 110.8V108.8ZM170.431 105.95L170.973 104.025C164.053 102.076 158.168 99.3636 153.284 95.9161L152.131 97.55L150.977 99.1839C156.293 102.936 162.609 105.824 169.889 107.875L170.431 105.95ZM152.131 97.55L153.908 98.4673L163.508 79.8673L161.731 78.95L159.954 78.0327L150.354 96.6327L152.131 97.55ZM161.731 78.95L160.557 80.5692C164.742 83.6036 169.533 85.9932 174.909 87.751L175.531 85.85L176.152 83.949C171.129 82.3068 166.719 80.0964 162.905 77.3308L161.731 78.95ZM175.531 85.85L174.92 87.7544C180.411 89.5158 185.967 90.4 191.581 90.4V88.4V86.4C186.395 86.4 181.25 85.5842 176.142 83.9456L175.531 85.85ZM191.581 88.4V90.4C197.916 90.4 203.163 89.1576 207.112 86.4495L205.981 84.8L204.85 83.1505C201.799 85.2424 197.446 86.4 191.581 86.4V88.4ZM205.981 84.8L207.112 86.4495C211.164 83.6706 213.231 79.699 213.231 74.75H211.231H209.231C209.231 78.401 207.797 81.1294 204.85 83.1505L205.981 84.8ZM211.231 74.75H213.231C213.231 71.6841 212.429 68.8924 210.795 66.4406L209.131 67.55L207.467 68.6594C208.632 70.4076 209.231 72.4159 209.231 74.75H211.231ZM209.131 67.55L210.795 66.4406C209.039 63.8068 206.048 62.0084 202.215 60.8373L201.631 62.75L201.046 64.6627C204.414 65.6916 206.423 67.0932 207.467 68.6594L209.131 67.55ZM201.631 62.75L202.231 60.842C198.444 59.6519 193.257 59.1 186.781 59.1V61.1V63.1C193.105 63.1 197.818 63.648 201.031 64.658L201.631 62.75ZM186.781 61.1V59.1H159.931V61.1V63.1H186.781V61.1ZM159.931 61.1L161.923 61.282L167.323 2.18198L165.331 1.99999L163.339 1.81801L157.939 60.918L159.931 61.1ZM165.331 1.99999V3.99999H229.381V1.99999V-7.62939e-06H165.331V1.99999ZM229.381 1.99999H227.381V21.5H229.381H231.381V1.99999H229.381ZM229.381 21.5V19.5H174.031V21.5V23.5H229.381V21.5ZM174.031 21.5L175.353 23.0007L187.953 11.9007L186.631 10.4L185.309 8.89928L172.709 19.9993L174.031 21.5ZM186.631 10.4L184.639 10.2228L180.889 52.3728L182.881 52.55L184.873 52.7272L188.623 10.5772L186.631 10.4ZM182.881 52.55L184.203 51.0493L171.603 39.9493L170.281 41.45L168.959 42.9507L181.559 54.0507L182.881 52.55ZM170.281 41.45V43.45H192.481V41.45V39.45H170.281V41.45ZM192.481 41.45V43.45C202.723 43.45 210.754 44.8824 216.695 47.6168L217.531 45.8L218.367 43.9832C211.707 40.9176 203.038 39.45 192.481 39.45V41.45ZM217.531 45.8L216.729 47.6323C222.834 50.303 227.118 53.9047 229.76 58.3686L231.481 57.35L233.202 56.3314C230.044 50.9953 225.028 46.897 218.332 43.9677L217.531 45.8ZM231.481 57.35L229.76 58.3686C232.461 62.9331 233.831 68.1255 233.831 74H235.831H237.831C237.831 67.4745 236.301 61.5669 233.202 56.3314L231.481 57.35ZM235.831 74H233.831C233.831 79.8487 232.373 85.2497 229.454 90.2402L231.181 91.25L232.907 92.2598C236.188 86.6503 237.831 80.5513 237.831 74H235.831ZM231.181 91.25L229.463 90.2259C226.593 95.0402 222.108 99.0526 215.875 102.217L216.781 104L217.686 105.783C224.454 102.347 229.569 97.8598 232.899 92.2741L231.181 91.25ZM216.781 104L215.886 102.211C209.852 105.228 201.986 106.8 192.181 106.8V108.8V110.8C202.375 110.8 210.91 109.172 217.675 105.789L216.781 104ZM240.682 107L239.092 105.787L236.641 109H240.682V107ZM276.832 59.6L278.831 59.6697L279.05 53.3941L275.242 58.3872L276.832 59.6ZM276.382 72.5L274.782 73.7L278.183 78.2349L278.381 72.5697L276.382 72.5ZM241.732 26.3V24.3H237.732L240.132 27.5L241.732 26.3ZM267.982 26.3L269.6 25.1246L269.001 24.3H267.982V26.3ZM289.882 56.45L289.943 58.4491L293.723 58.3345L291.5 55.2746L289.882 56.45ZM279.982 56.75L278.377 55.5563L275.909 58.8743L280.043 58.7491L279.982 56.75ZM302.632 26.3V24.3H301.627L301.027 25.1063L302.632 26.3ZM327.532 26.3L329.124 27.5108L331.566 24.3H327.532V26.3ZM292.732 72.05H290.732V77.9828L294.324 73.2608L292.732 72.05ZM292.732 59.45L294.327 58.2428L290.732 53.495V59.45H292.732ZM328.732 107V109H332.755L330.327 105.793L328.732 107ZM302.182 107L300.555 108.163L301.153 109H302.182V107ZM279.232 74.9L279.506 72.9189L274.901 72.2813L277.605 76.0632L279.232 74.9ZM288.982 76.25L290.589 77.4412L292.598 74.7316L289.256 74.2689L288.982 76.25ZM266.182 107V109H267.189L267.789 108.191L266.182 107ZM240.682 107L242.272 108.213L278.422 60.8128L276.832 59.6L275.242 58.3872L239.092 105.787L240.682 107ZM276.832 59.6L274.833 59.5303L274.383 72.4303L276.382 72.5L278.381 72.5697L278.831 59.6697L276.832 59.6ZM276.382 72.5L277.982 71.3L243.332 25.1L241.732 26.3L240.132 27.5L274.782 73.7L276.382 72.5ZM241.732 26.3V28.3H267.982V26.3V24.3H241.732V26.3ZM267.982 26.3L266.364 27.4754L288.264 57.6254L289.882 56.45L291.5 55.2746L269.6 25.1246L267.982 26.3ZM289.882 56.45L289.821 54.4509L279.921 54.7509L279.982 56.75L280.043 58.7491L289.943 58.4491L289.882 56.45ZM279.982 56.75L281.587 57.9437L304.237 27.4937L302.632 26.3L301.027 25.1063L278.377 55.5563L279.982 56.75ZM302.632 26.3V28.3H327.532V26.3V24.3H302.632V26.3ZM327.532 26.3L325.94 25.0892L291.14 70.8392L292.732 72.05L294.324 73.2608L329.124 27.5108L327.532 26.3ZM292.732 72.05H294.732V59.45H292.732H290.732V72.05H292.732ZM292.732 59.45L291.137 60.6572L327.137 108.207L328.732 107L330.327 105.793L294.327 58.2428L292.732 59.45ZM328.732 107V105H302.182V107V109H328.732V107ZM302.182 107L303.809 105.837L280.859 73.7368L279.232 74.9L277.605 76.0632L300.555 108.163L302.182 107ZM279.232 74.9L278.958 76.8811L288.708 78.2311L288.982 76.25L289.256 74.2689L279.506 72.9189L279.232 74.9ZM288.982 76.25L287.375 75.0588L264.575 105.809L266.182 107L267.789 108.191L290.589 77.4412L288.982 76.25ZM266.182 107V105H240.682V107V109H266.182V107Z" fill="#ED6B52" mask="url(#path-3-outside-1_0_1)"/>
</g>
</g>
</g>
</g>
</g>
</g>
</g>
</g>
<defs>
<clipPath id="clip0_0_1">
<rect width="1440" height="11608" fill="white" transform="translate(-96 -3034.48)"/>
</clipPath>
<clipPath id="clip1_0_1">
<rect width="436" height="516" fill="white" transform="translate(0 -205)"/>
</clipPath>
</defs>
</svg>
