<svg width="333" height="48" viewBox="0 0 333 48" fill="none" xmlns="http://www.w3.org/2000/svg">
<rect width="333" height="48" fill="#1E1E1E"/>
<g id="Home Page Final">
<path d="M-897 -4130.47C-897 -4131.58 -896.105 -4132.48 -895 -4132.48H24308C24309.1 -4132.48 24310 -4131.58 24310 -4130.48V11078.5C24310 11079.6 24309.1 11080.5 24308 11080.5H-895C-896.105 11080.5 -897 11079.6 -897 11078.5V-4130.47Z" fill="black"/>
<path d="M-895 -4132.48V-4131.48H24308V-4132.48V-4133.48H-895V-4132.48ZM24310 -4130.48H24309V11078.5H24310H24311V-4130.48H24310ZM24308 11080.5V11079.5H-895V11080.5V11081.5H24308V11080.5ZM-897 11078.5H-896V-4130.47H-897H-898V11078.5H-897ZM-895 11080.5V11079.5C-895.552 11079.5 -896 11079.1 -896 11078.5H-897H-898C-898 11080.2 -896.657 11081.5 -895 11081.5V11080.5ZM24310 11078.5H24309C24309 11079.1 24308.6 11079.5 24308 11079.5V11080.5V11081.5C24309.7 11081.5 24311 11080.2 24311 11078.5H24310ZM24308 -4132.48V-4131.48C24308.6 -4131.48 24309 -4131.03 24309 -4130.48H24310H24311C24311 -4132.13 24309.7 -4133.48 24308 -4133.48V-4132.48ZM-895 -4132.48V-4133.48C-896.657 -4133.48 -898 -4132.13 -898 -4130.47H-897H-896C-896 -4131.03 -895.552 -4131.48 -895 -4131.48V-4132.48Z" fill="white" fill-opacity="0.1"/>
<g id="Home Page V2" clip-path="url(#clip0_0_1)">
<rect width="1440" height="11608" transform="translate(-96 -2829.48)" fill="white"/>
<g id="Frame 1686562576">
<g id="Frame 1686562577">
<g id="Frame 1686562588" clip-path="url(#clip1_0_1)">
<g id="Frame 1686562494">
<g id="Frame 1686562587">
<g id="3-5x">
<mask id="path-3-outside-1_0_1" maskUnits="userSpaceOnUse" x="-3" y="-63" width="336" height="111" fill="black">
<rect fill="white" x="-3" y="-63" width="336" height="111"/>
<path d="M39.9 45.8C32.6 45.8 25.35 44.85 18.15 42.95C10.95 40.95 4.85 38.15 -0.15 34.55L9.3 15.95C13.3 18.85 17.95 21.15 23.25 22.85C28.55 24.55 33.9 25.4 39.3 25.4C45.4 25.4 50.2 24.2 53.7 21.8C57.2 19.4 58.95 16.1 58.95 11.9C58.95 7.9 57.4 4.75 54.3 2.45C51.2 0.149998 46.2 -1 39.3 -1H28.2V-17.05L57.45 -50.2L60.15 -41.5H5.1V-61H78.6V-45.25L49.5 -12.1L37.2 -19.15H44.25C57.15 -19.15 66.9 -16.25 73.5 -10.45C80.1 -4.65 83.4 2.8 83.4 11.9C83.4 17.8 81.85 23.35 78.75 28.55C75.65 33.65 70.9 37.8 64.5 41C58.1 44.2 49.9 45.8 39.9 45.8ZM98.5695 11.15V-7.6H141.02V11.15H98.5695ZM192.181 45.8C184.881 45.8 177.631 44.85 170.431 42.95C163.331 40.95 157.231 38.15 152.131 34.55L161.731 15.95C165.731 18.85 170.331 21.15 175.531 22.85C180.831 24.55 186.181 25.4 191.581 25.4C197.681 25.4 202.481 24.2 205.981 21.8C209.481 19.4 211.231 16.05 211.231 11.75C211.231 9.05 210.531 6.65 209.131 4.55C207.731 2.45 205.231 0.849998 201.631 -0.250003C198.131 -1.35 193.181 -1.9 186.781 -1.9H159.931L165.331 -61H229.381V-41.5H174.031L186.631 -52.6L182.881 -10.45L170.281 -21.55H192.481C202.881 -21.55 211.231 -20.1 217.531 -17.2C223.931 -14.4 228.581 -10.55 231.481 -5.65C234.381 -0.750002 235.831 4.8 235.831 11C235.831 17.2 234.281 22.95 231.181 28.25C228.081 33.45 223.281 37.7 216.781 41C210.381 44.2 202.181 45.8 192.181 45.8ZM240.682 44L276.832 -3.4L276.382 9.5L241.732 -36.7H267.982L289.882 -6.55L279.982 -6.25L302.632 -36.7H327.532L292.732 9.05V-3.55L328.732 44H302.182L279.232 11.9L288.982 13.25L266.182 44H240.682Z"/>
</mask>
<path d="M18.15 42.95L17.6147 44.877L17.6272 44.8805L17.6397 44.8838L18.15 42.95ZM-0.15 34.55L-1.93307 33.6441L-2.70925 35.1718L-1.31861 36.1731L-0.15 34.55ZM9.3 15.95L10.4739 14.3308L8.57778 12.9561L7.51693 15.0441L9.3 15.95ZM23.25 22.85L22.6391 24.7544V24.7544L23.25 22.85ZM53.7 21.8L54.8311 23.4495V23.4495L53.7 21.8ZM28.2 -1H26.2V1H28.2V-1ZM28.2 -17.05L26.7003 -18.3732L26.2 -17.8062V-17.05H28.2ZM57.45 -50.2L59.3601 -50.7928L58.3052 -54.1921L55.9503 -51.5232L57.45 -50.2ZM60.15 -41.5V-39.5H62.8648L62.0601 -42.0928L60.15 -41.5ZM5.1 -41.5H3.1V-39.5H5.1V-41.5ZM5.1 -61V-63H3.1V-61H5.1ZM78.6 -61H80.6V-63H78.6V-61ZM78.6 -45.25L80.1031 -43.9306L80.6 -44.4967V-45.25H78.6ZM49.5 -12.1L48.5054 -10.3648L49.9242 -9.55162L51.003 -10.7806L49.5 -12.1ZM37.2 -19.15V-21.15H29.6887L36.2054 -17.4148L37.2 -19.15ZM73.5 -10.45L72.1798 -8.94767V-8.94767L73.5 -10.45ZM78.75 28.55L80.459 29.5888L80.4635 29.5815L80.4679 29.5741L78.75 28.55ZM64.5 41L63.6056 39.2111H63.6056L64.5 41ZM39.9 45.8V43.8C32.7757 43.8 25.6971 42.8731 18.6603 41.0162L18.15 42.95L17.6397 44.8838C25.0029 46.8269 32.4243 47.8 39.9 47.8V45.8ZM18.15 42.95L18.6853 41.023C11.6657 39.0731 5.79119 36.3632 1.01861 32.9269L-0.15 34.55L-1.31861 36.1731C3.90881 39.9368 10.2343 42.8269 17.6147 44.877L18.15 42.95ZM-0.15 34.55L1.63307 35.4559L11.0831 16.8559L9.3 15.95L7.51693 15.0441L-1.93307 33.6441L-0.15 34.55ZM9.3 15.95L8.12607 17.5692C12.3177 20.6081 17.1627 22.9978 22.6391 24.7544L23.25 22.85L23.8609 20.9456C18.7373 19.3022 14.2823 17.0919 10.4739 14.3308L9.3 15.95ZM23.25 22.85L22.6391 24.7544C28.1304 26.5158 33.6863 27.4 39.3 27.4V25.4V23.4C34.1137 23.4 28.9696 22.5842 23.8609 20.9456L23.25 22.85ZM39.3 25.4V27.4C45.6348 27.4 50.8817 26.1576 54.8311 23.4495L53.7 21.8L52.5689 20.1505C49.5183 22.2424 45.1652 23.4 39.3 23.4V25.4ZM53.7 21.8L54.8311 23.4495C58.8681 20.6812 60.95 16.7677 60.95 11.9H58.95H56.95C56.95 15.4323 55.5319 18.1188 52.5689 20.1505L53.7 21.8ZM58.95 11.9H60.95C60.95 7.29382 59.1215 3.53687 55.4917 0.843803L54.3 2.45L53.1083 4.0562C55.6785 5.96313 56.95 8.50618 56.95 11.9H58.95ZM54.3 2.45L55.4917 0.843803C51.8669 -1.84557 46.3313 -3 39.3 -3V-1V1C46.0687 1 50.5331 2.14556 53.1083 4.0562L54.3 2.45ZM39.3 -1V-3H28.2V-1V1H39.3V-1ZM28.2 -1H30.2V-17.05H28.2H26.2V-1H28.2ZM28.2 -17.05L29.6997 -15.7268L58.9497 -48.8768L57.45 -50.2L55.9503 -51.5232L26.7003 -18.3732L28.2 -17.05ZM57.45 -50.2L55.5399 -49.6072L58.2399 -40.9072L60.15 -41.5L62.0601 -42.0928L59.3601 -50.7928L57.45 -50.2ZM60.15 -41.5V-43.5H5.1V-41.5V-39.5H60.15V-41.5ZM5.1 -41.5H7.1V-61H5.1H3.1V-41.5H5.1ZM5.1 -61V-59H78.6V-61V-63H5.1V-61ZM78.6 -61H76.6V-45.25H78.6H80.6V-61H78.6ZM78.6 -45.25L77.097 -46.5694L47.997 -13.4194L49.5 -12.1L51.003 -10.7806L80.1031 -43.9306L78.6 -45.25ZM49.5 -12.1L50.4946 -13.8352L38.1946 -20.8852L37.2 -19.15L36.2054 -17.4148L48.5054 -10.3648L49.5 -12.1ZM37.2 -19.15V-17.15H44.25V-19.15V-21.15H37.2V-19.15ZM44.25 -19.15V-17.15C56.8866 -17.15 66.083 -14.3055 72.1798 -8.94767L73.5 -10.45L74.8202 -11.9523C67.717 -18.1946 57.4134 -21.15 44.25 -21.15V-19.15ZM73.5 -10.45L72.1798 -8.94767C78.3304 -3.54259 81.4 3.35181 81.4 11.9H83.4H85.4C85.4 2.24819 81.8696 -5.75742 74.8202 -11.9523L73.5 -10.45ZM83.4 11.9H81.4C81.4 17.4297 79.9525 22.6271 77.0321 27.5259L78.75 28.55L80.4679 29.5741C83.7475 24.0729 85.4 18.1703 85.4 11.9H83.4ZM78.75 28.55L77.041 27.5112C74.1724 32.2305 69.7365 36.1457 63.6056 39.2111L64.5 41L65.3944 42.7889C72.0636 39.4543 77.1277 35.0695 80.459 29.5888L78.75 28.55ZM64.5 41L63.6056 39.2111C57.5712 42.2283 49.7056 43.8 39.9 43.8V45.8V47.8C50.0944 47.8 58.6288 46.1717 65.3944 42.7889L64.5 41ZM98.5695 11.15H96.5695V13.15H98.5695V11.15ZM98.5695 -7.60001V-9.60001H96.5695V-7.60001H98.5695ZM141.02 -7.60001H143.02V-9.60001H141.02V-7.60001ZM141.02 11.15V13.15H143.02V11.15H141.02ZM98.5695 11.15H100.57V-7.60001H98.5695H96.5695V11.15H98.5695ZM98.5695 -7.60001V-5.60001H141.02V-7.60001V-9.60001H98.5695V-7.60001ZM141.02 -7.60001H139.02V11.15H141.02H143.02V-7.60001H141.02ZM141.02 11.15V9.14999H98.5695V11.15V13.15H141.02V11.15ZM170.431 42.95L169.889 44.8751L169.905 44.8796L169.921 44.8838L170.431 42.95ZM152.131 34.55L150.354 33.6327L149.555 35.1799L150.977 36.1839L152.131 34.55ZM161.731 15.95L162.905 14.3308L161.021 12.9649L159.954 15.0327L161.731 15.95ZM175.531 22.85L174.909 24.751L174.92 24.7544L175.531 22.85ZM205.981 21.8L207.112 23.4495V23.4495L205.981 21.8ZM201.631 -0.25L201.031 1.65799L201.039 1.66037L201.046 1.6627L201.631 -0.25ZM159.931 -1.90001L157.939 -2.08199L157.74 0.0999908H159.931V-1.90001ZM165.331 -61V-63H163.505L163.339 -61.182L165.331 -61ZM229.381 -61H231.381V-63H229.381V-61ZM229.381 -41.5V-39.5H231.381V-41.5H229.381ZM174.031 -41.5L172.709 -43.0007L168.735 -39.5H174.031V-41.5ZM186.631 -52.6L188.623 -52.4228L189.067 -57.4114L185.309 -54.1007L186.631 -52.6ZM182.881 -10.45L181.559 -8.94928L184.523 -6.33803L184.873 -10.2728L182.881 -10.45ZM170.281 -21.55V-23.55H164.985L168.959 -20.0493L170.281 -21.55ZM217.531 -17.2L216.695 -15.3832L216.712 -15.3753L216.729 -15.3677L217.531 -17.2ZM231.481 -5.65001L233.202 -6.66864V-6.66865L231.481 -5.65001ZM231.181 28.25L232.899 29.2741L232.903 29.267L232.907 29.2598L231.181 28.25ZM216.781 41L217.675 42.7889L217.686 42.7833L216.781 41ZM192.181 45.8V43.8C185.057 43.8 177.978 42.8731 170.941 41.0162L170.431 42.95L169.921 44.8838C177.284 46.8269 184.705 47.8 192.181 47.8V45.8ZM170.431 42.95L170.973 41.0249C164.053 39.0756 158.168 36.3636 153.284 32.9161L152.131 34.55L150.977 36.1839C156.293 39.9364 162.609 42.8244 169.889 44.8751L170.431 42.95ZM152.131 34.55L153.908 35.4673L163.508 16.8673L161.731 15.95L159.954 15.0327L150.354 33.6327L152.131 34.55ZM161.731 15.95L160.557 17.5692C164.742 20.6036 169.533 22.9932 174.909 24.751L175.531 22.85L176.152 20.949C171.129 19.3068 166.719 17.0964 162.905 14.3308L161.731 15.95ZM175.531 22.85L174.92 24.7544C180.411 26.5158 185.967 27.4 191.581 27.4V25.4V23.4C186.395 23.4 181.25 22.5842 176.142 20.9456L175.531 22.85ZM191.581 25.4V27.4C197.916 27.4 203.163 26.1576 207.112 23.4495L205.981 21.8L204.85 20.1505C201.799 22.2424 197.446 23.4 191.581 23.4V25.4ZM205.981 21.8L207.112 23.4495C211.164 20.6706 213.231 16.699 213.231 11.75H211.231H209.231C209.231 15.401 207.797 18.1294 204.85 20.1505L205.981 21.8ZM211.231 11.75H213.231C213.231 8.68407 212.429 5.8924 210.795 3.4406L209.131 4.55L207.467 5.65939C208.632 7.4076 209.231 9.41593 209.231 11.75H211.231ZM209.131 4.55L210.795 3.4406C209.039 0.806839 206.048 -0.991592 202.215 -2.1627L201.631 -0.25L201.046 1.6627C204.414 2.69159 206.423 4.09315 207.467 5.65939L209.131 4.55ZM201.631 -0.25L202.231 -2.15799C198.444 -3.34805 193.257 -3.90001 186.781 -3.90001V-1.90001V0.0999908C193.105 0.0999908 197.818 0.648048 201.031 1.65799L201.631 -0.25ZM186.781 -1.90001V-3.90001H159.931V-1.90001V0.0999908H186.781V-1.90001ZM159.931 -1.90001L161.923 -1.71802L167.323 -60.818L165.331 -61L163.339 -61.182L157.939 -2.08199L159.931 -1.90001ZM165.331 -61V-59H229.381V-61V-63H165.331V-61ZM229.381 -61H227.381V-41.5H229.381H231.381V-61H229.381ZM229.381 -41.5V-43.5H174.031V-41.5V-39.5H229.381V-41.5ZM174.031 -41.5L175.353 -39.9993L187.953 -51.0993L186.631 -52.6L185.309 -54.1007L172.709 -43.0007L174.031 -41.5ZM186.631 -52.6L184.639 -52.7772L180.889 -10.6272L182.881 -10.45L184.873 -10.2728L188.623 -52.4228L186.631 -52.6ZM182.881 -10.45L184.203 -11.9507L171.603 -23.0507L170.281 -21.55L168.959 -20.0493L181.559 -8.94928L182.881 -10.45ZM170.281 -21.55V-19.55H192.481V-21.55V-23.55H170.281V-21.55ZM192.481 -21.55V-19.55C202.723 -19.55 210.754 -18.1176 216.695 -15.3832L217.531 -17.2L218.367 -19.0168C211.707 -22.0824 203.038 -23.55 192.481 -23.55V-21.55ZM217.531 -17.2L216.729 -15.3677C222.834 -12.697 227.118 -9.09528 229.76 -4.63136L231.481 -5.65001L233.202 -6.66865C230.044 -12.0047 225.028 -16.103 218.332 -19.0323L217.531 -17.2ZM231.481 -5.65001L229.76 -4.63136C232.461 -0.0669098 233.831 5.1255 233.831 11H235.831H237.831C237.831 4.47449 236.301 -1.43309 233.202 -6.66864L231.481 -5.65001ZM235.831 11H233.831C233.831 16.8487 232.373 22.2497 229.454 27.2402L231.181 28.25L232.907 29.2598C236.188 23.6503 237.831 17.5513 237.831 11H235.831ZM231.181 28.25L229.463 27.2259C226.593 32.0402 222.108 36.0526 215.875 39.2167L216.781 41L217.686 42.7833C224.454 39.3474 229.569 34.8598 232.899 29.2741L231.181 28.25ZM216.781 41L215.886 39.2111C209.852 42.2283 201.986 43.8 192.181 43.8V45.8V47.8C202.375 47.8 210.91 46.1717 217.675 42.7889L216.781 41ZM240.682 44L239.092 42.7872L236.641 46H240.682V44ZM276.832 -3.4L278.831 -3.33028L279.05 -9.6059L275.242 -4.61285L276.832 -3.4ZM276.382 9.5L274.782 10.7L278.183 15.2349L278.381 9.56973L276.382 9.5ZM241.732 -36.7V-38.7H237.732L240.132 -35.5L241.732 -36.7ZM267.982 -36.7L269.6 -37.8754L269.001 -38.7H267.982V-36.7ZM289.882 -6.55L289.943 -4.55092L293.723 -4.66547L291.5 -7.72539L289.882 -6.55ZM279.982 -6.25L278.377 -7.44366L275.909 -4.12566L280.043 -4.25092L279.982 -6.25ZM302.632 -36.7V-38.7H301.627L301.027 -37.8937L302.632 -36.7ZM327.532 -36.7L329.124 -35.4892L331.566 -38.7H327.532V-36.7ZM292.732 9.05H290.732V14.9828L294.324 10.2608L292.732 9.05ZM292.732 -3.55L294.327 -4.75723L290.732 -9.50504V-3.55H292.732ZM328.732 44V46H332.755L330.327 42.7928L328.732 44ZM302.182 44L300.555 45.1632L301.153 46H302.182V44ZM279.232 11.9L279.506 9.9189L274.901 9.28126L277.605 13.0632L279.232 11.9ZM288.982 13.25L290.589 14.4412L292.598 11.7316L289.256 11.2689L288.982 13.25ZM266.182 44V46H267.189L267.789 45.1912L266.182 44ZM240.682 44L242.272 45.2128L278.422 -2.18716L276.832 -3.4L275.242 -4.61285L239.092 42.7872L240.682 44ZM276.832 -3.4L274.833 -3.46973L274.383 9.43027L276.382 9.5L278.381 9.56973L278.831 -3.33028L276.832 -3.4ZM276.382 9.5L277.982 8.3L243.332 -37.9L241.732 -36.7L240.132 -35.5L274.782 10.7L276.382 9.5ZM241.732 -36.7V-34.7H267.982V-36.7V-38.7H241.732V-36.7ZM267.982 -36.7L266.364 -35.5246L288.264 -5.37462L289.882 -6.55L291.5 -7.72539L269.6 -37.8754L267.982 -36.7ZM289.882 -6.55L289.821 -8.54909L279.921 -8.24908L279.982 -6.25L280.043 -4.25092L289.943 -4.55092L289.882 -6.55ZM279.982 -6.25L281.587 -5.05634L304.237 -35.5063L302.632 -36.7L301.027 -37.8937L278.377 -7.44366L279.982 -6.25ZM302.632 -36.7V-34.7H327.532V-36.7V-38.7H302.632V-36.7ZM327.532 -36.7L325.94 -37.9108L291.14 7.83917L292.732 9.05L294.324 10.2608L329.124 -35.4892L327.532 -36.7ZM292.732 9.05H294.732V-3.55H292.732H290.732V9.05H292.732ZM292.732 -3.55L291.137 -2.34277L327.137 45.2072L328.732 44L330.327 42.7928L294.327 -4.75723L292.732 -3.55ZM328.732 44V42H302.182V44V46H328.732V44ZM302.182 44L303.809 42.8368L280.859 10.7368L279.232 11.9L277.605 13.0632L300.555 45.1632L302.182 44ZM279.232 11.9L278.958 13.8811L288.708 15.2311L288.982 13.25L289.256 11.2689L279.506 9.9189L279.232 11.9ZM288.982 13.25L287.375 12.0588L264.575 42.8088L266.182 44L267.789 45.1912L290.589 14.4412L288.982 13.25ZM266.182 44V42H240.682V44V46H266.182V44Z" fill="#ED6B52" mask="url(#path-3-outside-1_0_1)"/>
</g>
</g>
</g>
</g>
</g>
</g>
</g>
</g>
<defs>
<clipPath id="clip0_0_1">
<rect width="1440" height="11608" fill="white" transform="translate(-96 -2829.48)"/>
</clipPath>
<clipPath id="clip1_0_1">
<rect width="436" height="516" fill="white"/>
</clipPath>
</defs>
</svg>
