<svg preserveAspectRatio="none" width="100%" height="100%" overflow="visible" style="display: block;" viewBox="0 0 15.7902 12.7902" fill="none" xmlns="http://www.w3.org/2000/svg">
<g id="Group">
<path id="Vector" d="M1.35137 8.86712C0.713872 8.03912 0.395122 7.62437 0.395122 6.39512C0.395122 5.16512 0.713872 4.75187 1.35137 3.92312C2.62412 2.27012 4.75862 0.395122 7.89512 0.395122C11.0316 0.395122 13.1661 2.27012 14.4389 3.92312C15.0764 4.75262 15.3951 5.16587 15.3951 6.39512C15.3951 7.62512 15.0764 8.03837 14.4389 8.86712C13.1661 10.5201 11.0316 12.3951 7.89512 12.3951C4.75862 12.3951 2.62412 10.5201 1.35137 8.86712Z" stroke="var(--stroke-0, #222222)" stroke-width="0.790244"/>
<path id="Vector_2" d="M10.1452 6.39512C10.1452 6.99186 9.90811 7.56416 9.48615 7.98611C9.0642 8.40807 8.4919 8.64512 7.89516 8.64512C7.29843 8.64512 6.72613 8.40807 6.30417 7.98611C5.88222 7.56416 5.64516 6.99186 5.64516 6.39512C5.64516 5.79838 5.88222 5.22609 6.30417 4.80413C6.72613 4.38217 7.29843 4.14512 7.89516 4.14512C8.4919 4.14512 9.0642 4.38217 9.48615 4.80413C9.90811 5.22609 10.1452 5.79838 10.1452 6.39512Z" stroke="var(--stroke-0, #222222)" stroke-width="0.790244"/>
</g>
</svg>
