<svg preserveAspectRatio="none" width="100%" height="100%" overflow="visible" style="display: block;" viewBox="0 0 16 13" fill="none" xmlns="http://www.w3.org/2000/svg">
<path id="Icon" d="M13.625 7.88281C14.6151 8.65956 15.5 10.6153 15.5 11.8203C15.5 12.1957 15.2391 12.5 14.9174 12.5H14.5625M10.8125 4.69899C11.453 4.30995 11.8839 3.58282 11.8839 2.75C11.8839 1.91718 11.453 1.19005 10.8125 0.80101M1.08263 12.5H11.3459C11.6677 12.5 11.9286 12.1957 11.9286 11.8203C11.9286 9.46055 10.051 7.54762 6.21429 7.54762C2.37755 7.54762 0.5 9.46055 0.5 11.8203C0.5 12.1957 0.760854 12.5 1.08263 12.5ZM8.35714 2.75C8.35714 3.99264 7.39775 5 6.21429 5C5.03082 5 4.07143 3.99264 4.07143 2.75C4.07143 1.50736 5.03082 0.5 6.21429 0.5C7.39775 0.5 8.35714 1.50736 8.35714 2.75Z" stroke="var(--stroke-0, #222222)" stroke-linecap="round"/>
</svg>
