<svg preserveAspectRatio="none" width="100%" height="100%" overflow="visible" style="display: block;" viewBox="0 0 148 148" fill="none" xmlns="http://www.w3.org/2000/svg">
<g id="Group 95">
<path id="Ellipse 58" d="M148 74C148 54.374 140.204 35.5518 126.326 21.6741C112.448 7.79641 93.626 7.05056e-06 74 5.56883e-06C54.374 4.08711e-06 35.5518 7.79641 21.6741 21.6741C7.79641 35.5518 2.96345e-06 54.374 0 74L13.9235 74C13.9235 58.0667 20.253 42.786 31.5195 31.5195C42.786 20.253 58.0667 13.9235 74 13.9235C89.9333 13.9235 105.214 20.253 116.48 31.5195C127.747 42.786 134.076 58.0667 134.076 74H148Z" fill="var(--fill-0, #ED6B52)" fill-opacity="0.08"/>
<path id="Ellipse 59" d="M135.897 33.4447C127.168 20.1214 114.372 9.97036 99.4125 4.50034C84.4528 -0.969686 68.1273 -1.46672 52.8625 3.08311C37.5977 7.63293 24.2084 16.9867 14.6846 29.7543C5.16072 42.5219 0.0107313 58.0218 1.67418e-05 73.9502L13.9235 73.9596C13.9322 61.0282 18.1132 48.4447 25.8451 38.0794C33.577 27.7141 44.447 20.1203 56.8397 16.4265C69.2323 12.7328 82.486 13.1363 94.631 17.5771C106.776 22.0179 117.164 30.2589 124.251 41.0754L135.897 33.4447Z" fill="url(#paint0_linear_0_8)"/>
</g>
<defs>
<linearGradient id="paint0_linear_0_8" x1="74" y1="5.56883e-06" x2="74" y2="148" gradientUnits="userSpaceOnUse">
<stop stop-color="#FF821B"/>
<stop offset="1" stop-color="#D54050"/>
</linearGradient>
</defs>
</svg>
