<svg preserveAspectRatio="none" width="100%" height="100%" overflow="visible" style="display: block;" viewBox="0 0 25 20" fill="none" xmlns="http://www.w3.org/2000/svg">
<path id="Vector" d="M24.4899 3.0688L21.9033 0.507445C21.58 0.182476 21.1423 0 20.6859 0C20.2296 0 19.7918 0.182476 19.4686 0.507445L9.47873 10.4604L5.52439 6.59012C5.2005 6.2662 4.76258 6.08491 4.30648 6.08593C3.85038 6.08695 3.41326 6.27019 3.09079 6.59555L0.504137 9.20474C0.181317 9.53088 0 9.97291 0 10.4338C0 10.8946 0.181317 11.3367 0.504137 11.6628L8.22313 19.4904C8.38327 19.6519 8.57338 19.7801 8.78263 19.8676C8.99187 19.955 9.21614 20 9.44263 20C9.66912 20 9.89339 19.955 10.1026 19.8676C10.3119 19.7801 10.502 19.6519 10.6621 19.4904L24.4953 5.5334C24.6558 5.37143 24.783 5.1791 24.8696 4.96744C24.9562 4.75578 25.0005 4.52895 25 4.29997C24.9995 4.07099 24.9542 3.84436 24.8667 3.63309C24.7791 3.42181 24.6511 3.23005 24.4899 3.0688ZM9.43778 18.263L1.71878 10.4354L4.30543 7.82622C4.30857 7.82884 4.31146 7.83175 4.31406 7.83492L8.87842 12.3021C9.03954 12.4611 9.256 12.5502 9.48143 12.5502C9.70686 12.5502 9.92332 12.4611 10.0844 12.3021L20.694 1.73811L23.2742 4.30382L9.43778 18.263Z" fill="var(--fill-0, white)"/>
</svg>
