<svg preserveAspectRatio="none" width="100%" height="100%" overflow="visible" style="display: block;" viewBox="0 0 24 18" fill="none" xmlns="http://www.w3.org/2000/svg">
<path id="Vector" d="M15.375 5.47826C15.8942 5.47826 16.4017 5.31761 16.8334 5.01664C17.2651 4.71566 17.6015 4.28786 17.8002 3.78735C17.9989 3.28684 18.0509 2.73609 17.9496 2.20475C17.8483 1.67341 17.5983 1.18535 17.2312 0.802274C16.864 0.4192 16.3963 0.158323 15.8871 0.0526329C15.3779 -0.0530571 14.8501 0.00118682 14.3704 0.208505C13.8907 0.415823 13.4808 0.766905 13.1923 1.21735C12.9039 1.6678 12.7499 2.19738 12.7499 2.73913C12.7499 3.46559 13.0265 4.1623 13.5188 4.67599C14.0111 5.18968 14.6788 5.47826 15.375 5.47826ZM15.375 1.56522C15.5975 1.56522 15.815 1.63407 16 1.76306C16.185 1.89205 16.3292 2.07539 16.4144 2.28989C16.4995 2.5044 16.5218 2.74043 16.4784 2.96815C16.435 3.19587 16.3278 3.40504 16.1705 3.56921C16.0131 3.73339 15.8127 3.84519 15.5945 3.89049C15.3762 3.93578 15.15 3.91254 14.9444 3.82369C14.7389 3.73483 14.5632 3.58437 14.4396 3.39132C14.3159 3.19827 14.25 2.97131 14.25 2.73913C14.25 2.42779 14.3685 2.1292 14.5795 1.90905C14.7904 1.6889 15.0766 1.56522 15.375 1.56522ZM23.8951 16.8183L18.78 7.81044C18.6481 7.57578 18.4594 7.38141 18.2329 7.24681C18.0063 7.1122 17.7498 7.04208 17.4891 7.04348C17.2285 7.04206 16.9721 7.11217 16.7457 7.24679C16.5193 7.38141 16.3307 7.57579 16.1991 7.81044L13.7465 12.1304L9.54268 4.68587C9.41022 4.45095 9.22126 4.2562 8.9945 4.12089C8.76775 3.98558 8.51106 3.91441 8.24985 3.91441C7.98863 3.91441 7.73195 3.98558 7.50519 4.12089C7.27844 4.2562 7.08948 4.45095 6.95701 4.68587L0.103763 16.8202C0.036681 16.9391 0.000890389 17.0743 1.63996e-05 17.2122C-0.000857589 17.3501 0.0332161 17.4859 0.0987862 17.6056C0.164356 17.7254 0.259094 17.8249 0.373402 17.8942C0.487711 17.9634 0.617531 17.9999 0.749712 18H23.2501C23.3825 18 23.5125 17.9634 23.627 17.894C23.7414 17.8245 23.8362 17.7247 23.9017 17.6047C23.9672 17.4847 24.0011 17.3487 24 17.2106C23.9988 17.0724 23.9626 16.9371 23.8951 16.8183ZM8.24985 5.47826L10.4596 9.39131H6.04012L8.24985 5.47826ZM2.06224 16.4348L5.15604 10.9565H11.3437L13.1006 14.0674L14.4375 16.4348H2.06224ZM16.1784 16.4348L14.6165 13.6683L17.4891 8.6087L21.9376 16.4348H16.1784Z" fill="url(#paint0_linear_0_6)"/>
<defs>
<linearGradient id="paint0_linear_0_6" x1="12" y1="1.75084e-09" x2="12" y2="18" gradientUnits="userSpaceOnUse">
<stop stop-color="#DF8251"/>
<stop offset="1" stop-color="#D54050"/>
</linearGradient>
</defs>
</svg>
