<svg width="29" height="29" viewBox="0 0 29 29" fill="none" xmlns="http://www.w3.org/2000/svg">
<g clip-path="url(#clip0_794_7057)">
<path d="M13.0039 19.8397L15.3469 22.1828C15.5777 22.4135 15.8517 22.5966 16.1532 22.7215C16.4547 22.8464 16.7779 22.9107 17.1042 22.9107C17.4306 22.9107 17.7537 22.8464 18.0552 22.7215C18.3568 22.5966 18.6307 22.4135 18.8615 22.1828C19.0923 21.952 19.2753 21.678 19.4002 21.3765C19.5251 21.075 19.5894 20.7518 19.5894 20.4255C19.5894 20.0991 19.5251 19.776 19.4002 19.4745C19.2753 19.1729 19.0923 18.899 18.8615 18.6682" stroke="#FF5722" stroke-width="2.06044" stroke-linecap="round" stroke-linejoin="round"/>
<path d="M16.5185 16.3253L19.4473 19.2541C19.9134 19.7201 20.5455 19.9819 21.2046 19.9819C21.8637 19.9819 22.4958 19.7201 22.9619 19.2541C23.4279 18.788 23.6898 18.1559 23.6898 17.4968C23.6898 16.8377 23.4279 16.2056 22.9619 15.7395L18.4164 11.194C17.7574 10.5359 16.8641 10.1662 15.9328 10.1662C15.0014 10.1662 14.1081 10.5359 13.4492 11.194L12.4182 12.225C11.9522 12.691 11.32 12.9528 10.6609 12.9528C10.0018 12.9528 9.36973 12.691 8.90367 12.225C8.43761 11.7589 8.17578 11.1268 8.17578 10.4677C8.17578 9.80857 8.43761 9.17646 8.90367 8.7104L12.1956 5.41844C13.2643 4.35253 14.658 3.67353 16.1561 3.48892C17.6542 3.30431 19.171 3.62465 20.4665 4.39922L21.0172 4.72725C21.516 5.02831 22.1091 5.13273 22.6807 5.02013L24.7191 4.61009" stroke="#FF5722" stroke-width="2.06044" stroke-linecap="round" stroke-linejoin="round"/>
<path d="M24.7203 3.43848L25.8919 16.3252H23.5488" stroke="#FF5722" stroke-width="2.06044" stroke-linecap="round" stroke-linejoin="round"/>
<path d="M3.63245 3.43848L2.46094 16.3252L10.0758 23.94C10.5419 24.4061 11.174 24.6679 11.8331 24.6679C12.4922 24.6679 13.1243 24.4061 13.5903 23.94C14.0564 23.474 14.3182 22.8418 14.3182 22.1827C14.3182 21.5236 14.0564 20.8915 13.5903 20.4255" stroke="#FF5722" stroke-width="2.06044" stroke-linecap="round" stroke-linejoin="round"/>
<path d="M3.63086 4.61011H13.003" stroke="#FF5722" stroke-width="2.06044" stroke-linecap="round" stroke-linejoin="round"/>
</g>
<defs>
<clipPath id="clip0_794_7057">
<rect width="28.1164" height="28.1164" fill="white"/>
</clipPath>
</defs>
</svg>
