<svg preserveAspectRatio="none" width="100%" height="100%" overflow="visible" style="display: block;" viewBox="0 0 24 24" fill="none" xmlns="http://www.w3.org/2000/svg">
<path id="Vector" d="M22.8261 6.82365C24.1058 9.50007 24.3488 12.5557 23.508 15.4007C22.6673 18.2457 20.8026 20.6784 18.2737 22.2294C15.7448 23.7804 12.731 24.3396 9.81402 23.7992C6.89704 23.2588 4.28363 21.657 2.47818 19.303C0.672727 16.9491 -0.196772 14.0097 0.0374939 11.0524C0.27176 8.09502 1.59318 5.32926 3.74673 3.2889C5.90027 1.24853 8.73328 0.0782023 11.699 0.00377999C14.6647 -0.0706423 17.5528 0.95612 19.806 2.8859L22.4192 0.271496C22.5923 0.0984558 22.827 0.00124295 23.0717 0.00124295C23.3164 0.00124295 23.5511 0.0984558 23.7241 0.271496C23.8972 0.444536 23.9944 0.679229 23.9944 0.923945C23.9944 1.16866 23.8972 1.40335 23.7241 1.57639L12.6579 12.6427C12.4848 12.8157 12.2501 12.9129 12.0054 12.9129C11.7607 12.9129 11.526 12.8157 11.353 12.6427C11.1799 12.4696 11.0827 12.2349 11.0827 11.9902C11.0827 11.7455 11.1799 11.5108 11.353 11.3378L14.5483 8.14238C13.6823 7.56965 12.6484 7.30594 11.6139 7.39396C10.5794 7.48198 9.60486 7.91656 8.84807 8.62736C8.09129 9.33816 7.59654 10.2836 7.44393 11.3105C7.29131 12.3375 7.48976 13.3859 8.00715 14.2861C8.52454 15.1862 9.33059 15.8854 10.2948 16.2704C11.259 16.6555 12.325 16.7038 13.3201 16.4077C14.3152 16.1115 15.1812 15.4882 15.778 14.6386C16.3747 13.789 16.6673 12.7628 16.6083 11.7262C16.6015 11.6051 16.6186 11.4839 16.6586 11.3694C16.6987 11.2549 16.7609 11.1494 16.8417 11.059C16.9225 10.9685 17.0204 10.8949 17.1296 10.8422C17.2389 10.7896 17.3575 10.759 17.4786 10.7522C17.7232 10.7384 17.9632 10.8224 18.1459 10.9856C18.2363 11.0664 18.31 11.1643 18.3626 11.2735C18.4152 11.3828 18.4458 11.5014 18.4527 11.6225C18.5367 13.0897 18.1177 14.5416 17.2648 15.7384C16.4118 16.9351 15.1761 17.805 13.7618 18.2043C12.3475 18.6036 10.8393 18.5083 9.48643 17.9343C8.13359 17.3603 7.01711 16.3418 6.32151 15.0473C5.62591 13.7528 5.39284 12.2596 5.66081 10.8147C5.92879 9.36973 6.68177 8.05947 7.79531 7.10045C8.90884 6.14143 10.3163 5.59107 11.785 5.54032C13.2537 5.48957 14.6958 5.94147 15.8728 6.82134L18.4953 4.19887C16.5735 2.60325 14.1299 1.77393 11.6338 1.8702C9.13778 1.96647 6.76531 2.98153 4.97208 4.72044C3.17885 6.45935 2.0913 8.79948 1.91832 11.2914C1.74533 13.7833 2.49911 16.2512 4.03487 18.2212C5.57064 20.1912 7.7801 21.5244 10.2389 21.9646C12.6977 22.4048 15.2324 21.9211 17.3563 20.6063C19.4802 19.2915 21.0434 17.2384 21.7458 14.8413C22.4481 12.4442 22.2401 9.8721 21.1616 7.61904C21.0561 7.3983 21.0426 7.14471 21.1241 6.91405C21.2056 6.68338 21.3754 6.49454 21.5962 6.38907C21.8169 6.28359 22.0705 6.27012 22.3012 6.35162C22.5318 6.43312 22.7207 6.60292 22.8261 6.82365Z" fill="url(#paint0_linear_0_5)"/>
<defs>
<linearGradient id="paint0_linear_0_5" x1="12" y1="1.66727e-10" x2="12" y2="24" gradientUnits="userSpaceOnUse">
<stop stop-color="#DF8251"/>
<stop offset="1" stop-color="#D54050"/>
</linearGradient>
</defs>
</svg>
