<svg preserveAspectRatio="none" width="100%" height="100%" overflow="visible" style="display: block;" viewBox="0 0 24 21" fill="none" xmlns="http://www.w3.org/2000/svg">
<path id="Vector" d="M23.8574 0.4253C23.7742 0.295134 23.6591 0.187875 23.5227 0.113512C23.3863 0.0391486 23.2331 9.91726e-05 23.0774 2.82591e-07H0.923792C0.741122 -0.000141776 0.562515 0.0532792 0.410584 0.1535C0.258654 0.253721 0.14023 0.396235 0.0703052 0.563001C0.00038076 0.729767 -0.0179002 0.913286 0.0177766 1.09032C0.0534535 1.26736 0.141484 1.42996 0.270724 1.55753L5.1572 6.3852L0.270724 11.2129C0.141484 11.3404 0.0534535 11.503 0.0177766 11.6801C-0.0179002 11.8571 0.00038076 12.0406 0.0703052 12.2074C0.14023 12.3742 0.258654 12.5167 0.410584 12.6169C0.562515 12.7171 0.741122 12.7705 0.923792 12.7704H16.3413L13.0136 19.6755C12.958 19.7841 12.9249 19.9025 12.9162 20.0238C12.9076 20.1452 12.9236 20.267 12.9634 20.3822C13.0031 20.4973 13.0657 20.6035 13.1476 20.6943C13.2294 20.7852 13.3289 20.859 13.44 20.9113C13.5511 20.9636 13.6718 20.9935 13.7947 20.999C13.9177 21.0046 14.0406 20.9858 14.1561 20.9438C14.2716 20.9017 14.3775 20.8373 14.4674 20.7542C14.5573 20.6711 14.6295 20.5711 14.6798 20.46L23.9104 1.3044C23.9774 1.16536 24.0076 1.01182 23.9984 0.858104C23.9891 0.704387 23.9406 0.555493 23.8574 0.4253ZM17.2194 10.9461H3.15184L7.11525 7.03056C7.20108 6.94584 7.26916 6.84524 7.31561 6.7345C7.36207 6.62377 7.38598 6.50507 7.38598 6.3852C7.38598 6.26532 7.36207 6.14663 7.31561 6.03589C7.26916 5.92516 7.20108 5.82455 7.11525 5.73984L3.15184 1.82434H21.6131L17.2194 10.9461Z" fill="url(#paint0_linear_0_9)"/>
<defs>
<linearGradient id="paint0_linear_0_9" x1="12" y1="0" x2="12" y2="21" gradientUnits="userSpaceOnUse">
<stop stop-color="#DF8251"/>
<stop offset="1" stop-color="#D54050"/>
</linearGradient>
</defs>
</svg>
